<svg xmlns="http://www.w3.org/2000/svg" width="64" height="82" viewBox="0 0 64 82">
    <g fill="none" fill-rule="evenodd">
        <g fill="#4A4A4A">
            <g>
                <g>
                    <path d="M42.67 27.003V19.26c0-2.089-.538-4.055-1.613-5.898s-2.534-3.302-4.377-4.377c-1.844-1.076-3.81-1.613-5.899-1.613s-4.055.537-5.898 1.613c-1.843 1.075-3.302 2.534-4.377 4.377-1.076 1.843-1.613 3.81-1.613 5.898v7.742H42.67zm-11.889 34.56c2.09 0 3.902-.768 5.438-2.304 1.536-1.536 2.304-3.349 2.304-5.438 0-2.089-.768-3.901-2.304-5.437-1.536-1.536-3.349-2.304-5.438-2.304-2.089 0-3.901.768-5.437 2.304-1.536 1.536-2.304 3.348-2.304 5.437 0 2.09.768 3.902 2.304 5.438 1.536 1.536 3.348 2.304 5.437 2.304zm23.04-34.56c2.09 0 3.902.737 5.438 2.212 1.536 1.474 2.304 3.256 2.304 5.345v38.523c0 2.089-.768 3.87-2.304 5.345-1.536 1.475-3.349 2.212-5.438 2.212H7.741c-2.089 0-3.901-.737-5.437-2.212C.768 76.954 0 75.172 0 73.083V34.56c0-2.089.768-3.87 2.304-5.345 1.536-1.475 3.348-2.212 5.437-2.212h3.779V19.26c0-3.502.86-6.727 2.58-9.676 1.72-2.95 4.056-5.284 7.005-7.005C24.054.86 27.279 0 30.78 0c3.503 0 6.728.86 9.677 2.58 2.95 1.72 5.284 4.056 7.004 7.005 1.72 2.949 2.58 6.174 2.58 9.676v7.742h3.78z" transform="translate(-156 -220) translate(0 220) translate(156)"/>
                </g>
            </g>
        </g>
    </g>
</svg>
