<svg width="69" height="46" viewBox="0 0 69 46" fill="none" xmlns="http://www.w3.org/2000/svg">
    <rect y="1" width="69" height="44" rx="5" fill="#2E0069" fill-opacity="0.35"/>
    <rect x="1.5" y="2.09668" width="66" height="41.8052" rx="3.5" stroke="white" stroke-width="3"/>
    <path d="M35.7843 34.6535H57.3264C58.0698 34.6535 58.6732 34.0501 58.6732 33.3067C58.6732 32.5633 58.0698 31.96 57.3264 31.96H35.7843C35.0409 31.96 34.4375 32.5633 34.4375 33.3067C34.4375 34.0501 35.0409 34.6535 35.7843 34.6535Z" fill="white"/>
    <path d="M35.7843 27.4855H57.3264C58.0698 27.4855 58.6732 26.8821 58.6732 26.1387C58.6732 25.3954 58.0698 24.792 57.3264 24.792H35.7843C35.0409 24.792 34.4375 25.3954 34.4375 26.1387C34.4375 26.8821 35.0409 27.4855 35.7843 27.4855Z" fill="white"/>
    <path d="M35.8468 20.3166H57.3889C58.1323 20.3166 58.7357 19.7132 58.7357 18.9698C58.7357 18.2264 58.1323 17.623 57.3889 17.623H35.8468C35.1034 17.623 34.5 18.2264 34.5 18.9698C34.5 19.7132 35.1034 20.3166 35.8468 20.3166Z" fill="white"/>
    <line x1="1.79297" y1="9.85059" x2="67.2085" y2="9.85059" stroke="white" stroke-width="3"/>
    <circle cx="17.5" cy="22.5" r="4.25" stroke="white" stroke-width="2.5"/>
    <path d="M24 34C24 29.6508 21.0899 27 17.5 27C13.9101 27 11 29.6508 11 34" stroke="white" stroke-width="2.5"/>
</svg>
