<svg width="379" height="41" viewBox="0 0 379 41" fill="none" xmlns="http://www.w3.org/2000/svg">
    <g filter="url(#filter0_d_829_3095)">
        <path d="M10.2881 4.16699L3.99995 8.91339L10.2881 13.6598" stroke="white" stroke-width="2" stroke-linecap="round" stroke-linejoin="round"/>
        <path d="M22.8643 4.16699L16.5761 8.91339L22.8643 13.6598" stroke="white" stroke-width="2" stroke-linecap="round" stroke-linejoin="round"/>
        <path d="M35.4404 4.16699L29.1523 8.91339L35.4404 13.6598" stroke="white" stroke-width="2" stroke-linecap="round" stroke-linejoin="round"/>
        <path d="M48.0166 4.16699L41.7285 8.91339L48.0166 13.6598" stroke="white" stroke-width="2" stroke-linecap="round" stroke-linejoin="round"/>
        <path d="M60.5928 4.16699L54.3046 8.91339L60.5928 13.6598" stroke="white" stroke-width="2" stroke-linecap="round" stroke-linejoin="round"/>
        <path d="M73.1699 4.16699L66.8818 8.91339L73.1699 13.6598" stroke="white" stroke-width="2" stroke-linecap="round" stroke-linejoin="round"/>
        <path d="M85.7461 4.16699L79.458 8.91339L85.7461 13.6598" stroke="white" stroke-width="2" stroke-linecap="round" stroke-linejoin="round"/>
        <path d="M98.3223 4.16699L92.0341 8.91339L98.3223 13.6598" stroke="white" stroke-width="2" stroke-linecap="round" stroke-linejoin="round"/>
        <path d="M110.898 4.16699L104.61 8.91339L110.898 13.6598" stroke="white" stroke-width="2" stroke-linecap="round" stroke-linejoin="round"/>
        <path d="M123.475 4.16699L117.186 8.91339L123.475 13.6598" stroke="white" stroke-width="2" stroke-linecap="round" stroke-linejoin="round"/>
        <path d="M136.051 4.16699L129.763 8.91339L136.051 13.6598" stroke="white" stroke-width="2" stroke-linecap="round" stroke-linejoin="round"/>
        <path d="M148.627 4.16699L142.339 8.91339L148.627 13.6598" stroke="white" stroke-width="2" stroke-linecap="round" stroke-linejoin="round"/>
        <path d="M161.203 4.16699L154.915 8.91339L161.203 13.6598" stroke="white" stroke-width="2" stroke-linecap="round" stroke-linejoin="round"/>
        <path d="M173.779 4.16699L167.491 8.91339L173.779 13.6598" stroke="white" stroke-width="2" stroke-linecap="round" stroke-linejoin="round"/>
        <path d="M186.355 4.16699L180.067 8.91339L186.355 13.6598" stroke="white" stroke-width="2" stroke-linecap="round" stroke-linejoin="round"/>
        <path d="M198.933 4.16699L192.644 8.91339L198.933 13.6598" stroke="white" stroke-width="2" stroke-linecap="round" stroke-linejoin="round"/>
        <path d="M211.509 4.16699L205.221 8.91339L211.509 13.6598" stroke="white" stroke-width="2" stroke-linecap="round" stroke-linejoin="round"/>
        <path d="M224.085 4.16699L217.797 8.91339L224.085 13.6598" stroke="white" stroke-width="2" stroke-linecap="round" stroke-linejoin="round"/>
        <path d="M236.661 4.16699L230.373 8.91339L236.661 13.6598" stroke="white" stroke-width="2" stroke-linecap="round" stroke-linejoin="round"/>
        <path d="M249.237 4.16699L242.949 8.91339L249.237 13.6598" stroke="white" stroke-width="2" stroke-linecap="round" stroke-linejoin="round"/>
        <path d="M261.813 4.16699L255.525 8.91339L261.813 13.6598" stroke="white" stroke-width="2" stroke-linecap="round" stroke-linejoin="round"/>
        <path d="M274.39 4.16699L268.102 8.91339L274.39 13.6598" stroke="white" stroke-width="2" stroke-linecap="round" stroke-linejoin="round"/>
        <path d="M286.966 4.16699L280.678 8.91339L286.966 13.6598" stroke="white" stroke-width="2" stroke-linecap="round" stroke-linejoin="round"/>
        <path d="M299.542 4.16699L293.254 8.91339L299.542 13.6598" stroke="white" stroke-width="2" stroke-linecap="round" stroke-linejoin="round"/>
        <path d="M312.118 4.16699L305.83 8.91339L312.118 13.6598" stroke="white" stroke-width="2" stroke-linecap="round" stroke-linejoin="round"/>
        <path d="M324.695 4.16699L318.407 8.91339L324.695 13.6598" stroke="white" stroke-width="2" stroke-linecap="round" stroke-linejoin="round"/>
        <path d="M337.271 4.16699L330.983 8.91339L337.271 13.6598" stroke="white" stroke-width="2" stroke-linecap="round" stroke-linejoin="round"/>
        <path d="M349.848 4.16699L343.56 8.91339L349.848 13.6598" stroke="white" stroke-width="2" stroke-linecap="round" stroke-linejoin="round"/>
        <path d="M362.424 4.16699L356.136 8.91339L362.424 13.6598" stroke="white" stroke-width="2" stroke-linecap="round" stroke-linejoin="round"/>
        <path d="M375 4.16699L368.712 8.91339L375 13.6598" stroke="white" stroke-width="2" stroke-linecap="round" stroke-linejoin="round"/>
        <path d="M10.2881 27.4668L3.99995 32.2132L10.2881 36.9596" stroke="white" stroke-width="2" stroke-linecap="round" stroke-linejoin="round"/>
        <path d="M22.8643 27.4668L16.5761 32.2132L22.8643 36.9596" stroke="white" stroke-width="2" stroke-linecap="round" stroke-linejoin="round"/>
        <path d="M35.4404 27.4668L29.1523 32.2132L35.4404 36.9596" stroke="white" stroke-width="2" stroke-linecap="round" stroke-linejoin="round"/>
        <path d="M48.0166 27.4668L41.7285 32.2132L48.0166 36.9596" stroke="white" stroke-width="2" stroke-linecap="round" stroke-linejoin="round"/>
        <path d="M60.5928 27.4668L54.3046 32.2132L60.5928 36.9596" stroke="white" stroke-width="2" stroke-linecap="round" stroke-linejoin="round"/>
        <path d="M73.1699 27.4668L66.8818 32.2132L73.1699 36.9596" stroke="white" stroke-width="2" stroke-linecap="round" stroke-linejoin="round"/>
        <path d="M85.7461 27.4668L79.458 32.2132L85.7461 36.9596" stroke="white" stroke-width="2" stroke-linecap="round" stroke-linejoin="round"/>
        <path d="M98.3223 27.4668L92.0341 32.2132L98.3223 36.9596" stroke="white" stroke-width="2" stroke-linecap="round" stroke-linejoin="round"/>
        <path d="M110.898 27.4668L104.61 32.2132L110.898 36.9596" stroke="white" stroke-width="2" stroke-linecap="round" stroke-linejoin="round"/>
        <path d="M123.475 27.4668L117.186 32.2132L123.475 36.9596" stroke="white" stroke-width="2" stroke-linecap="round" stroke-linejoin="round"/>
        <path d="M136.051 27.4668L129.763 32.2132L136.051 36.9596" stroke="white" stroke-width="2" stroke-linecap="round" stroke-linejoin="round"/>
        <path d="M148.627 27.4668L142.339 32.2132L148.627 36.9596" stroke="white" stroke-width="2" stroke-linecap="round" stroke-linejoin="round"/>
        <path d="M161.203 27.4668L154.915 32.2132L161.203 36.9596" stroke="white" stroke-width="2" stroke-linecap="round" stroke-linejoin="round"/>
        <path d="M173.779 27.4668L167.491 32.2132L173.779 36.9596" stroke="white" stroke-width="2" stroke-linecap="round" stroke-linejoin="round"/>
        <path d="M186.355 27.4668L180.067 32.2132L186.355 36.9596" stroke="white" stroke-width="2" stroke-linecap="round" stroke-linejoin="round"/>
        <path d="M198.933 27.4668L192.644 32.2132L198.933 36.9596" stroke="white" stroke-width="2" stroke-linecap="round" stroke-linejoin="round"/>
        <path d="M211.509 27.4668L205.221 32.2132L211.509 36.9596" stroke="white" stroke-width="2" stroke-linecap="round" stroke-linejoin="round"/>
        <path d="M224.085 27.4668L217.797 32.2132L224.085 36.9596" stroke="white" stroke-width="2" stroke-linecap="round" stroke-linejoin="round"/>
        <path d="M236.661 27.4668L230.373 32.2132L236.661 36.9596" stroke="white" stroke-width="2" stroke-linecap="round" stroke-linejoin="round"/>
        <path d="M249.237 27.4668L242.949 32.2132L249.237 36.9596" stroke="white" stroke-width="2" stroke-linecap="round" stroke-linejoin="round"/>
        <path d="M261.813 27.4668L255.525 32.2132L261.813 36.9596" stroke="white" stroke-width="2" stroke-linecap="round" stroke-linejoin="round"/>
        <path d="M274.39 27.4668L268.102 32.2132L274.39 36.9596" stroke="white" stroke-width="2" stroke-linecap="round" stroke-linejoin="round"/>
        <path d="M286.966 27.4668L280.678 32.2132L286.966 36.9596" stroke="white" stroke-width="2" stroke-linecap="round" stroke-linejoin="round"/>
        <path d="M299.542 27.4668L293.254 32.2132L299.542 36.9596" stroke="white" stroke-width="2" stroke-linecap="round" stroke-linejoin="round"/>
        <path d="M312.119 27.4668L305.831 32.2132L312.119 36.9596" stroke="white" stroke-width="2" stroke-linecap="round" stroke-linejoin="round"/>
        <path d="M324.695 27.4668L318.407 32.2132L324.695 36.9596" stroke="white" stroke-width="2" stroke-linecap="round" stroke-linejoin="round"/>
        <path d="M337.271 27.4668L330.983 32.2132L337.271 36.9596" stroke="white" stroke-width="2" stroke-linecap="round" stroke-linejoin="round"/>
        <path d="M349.848 27.4668L343.56 32.2132L349.848 36.9596" stroke="white" stroke-width="2" stroke-linecap="round" stroke-linejoin="round"/>
        <path d="M362.424 27.4668L356.136 32.2132L362.424 36.9596" stroke="white" stroke-width="2" stroke-linecap="round" stroke-linejoin="round"/>
        <path d="M375 27.4668L368.712 32.2132L375 36.9596" stroke="white" stroke-width="2" stroke-linecap="round" stroke-linejoin="round"/>
    </g>
    <defs>
        <filter id="filter0_d_829_3095" x="0" y="0.166992" width="379" height="40.793" filterUnits="userSpaceOnUse" color-interpolation-filters="sRGB">
            <feFlood flood-opacity="0" result="BackgroundImageFix"/>
            <feColorMatrix in="SourceAlpha" type="matrix" values="0 0 0 0 0 0 0 0 0 0 0 0 0 0 0 0 0 0 127 0" result="hardAlpha"/>
            <feOffset/>
            <feGaussianBlur stdDeviation="1.5"/>
            <feComposite in2="hardAlpha" operator="out"/>
            <feColorMatrix type="matrix" values="0 0 0 0 0 0 0 0 0 0 0 0 0 0 0 0 0 0 0.9 0"/>
            <feBlend mode="normal" in2="BackgroundImageFix" result="effect1_dropShadow_829_3095"/>
            <feBlend mode="normal" in="SourceGraphic" in2="effect1_dropShadow_829_3095" result="shape"/>
        </filter>
    </defs>
</svg>
