<svg version="1.2" xmlns="http://www.w3.org/2000/svg" viewBox="0 0 157 124" width="157" height="124">
	<title>server-overloaded-svg</title>
	<style>
		.s0 { fill: #4a4a4a } 
		.s1 { fill: #ffffff } 
	</style>
	<path id="Layer" fill-rule="evenodd" class="s0" d="m122.3 32.5v67.7h-0.1c-0.4 6.9-6 12.6-13.4 16.4-7.8 4-18.5 6.5-30.2 6.5-11.6 0-22.3-2.5-30.2-6.5-7.7-4-13.4-10-13.4-17.4v-67.6h0.2c2-10.8 20.7-19.3 43.4-19.3 23.5 0 42.6 9 43.6 20.2zm-15.1-9.1c-7-3.4-17.1-5.7-28.5-5.7-11.4 0-21.5 2.3-28.5 5.7-7.3 3.5-9.7 7.4-9.7 10.1 0 2.6 2.4 6.5 9.7 10.1 7 3.4 17.1 5.6 28.5 5.6 11.4 0 21.5-2.2 28.5-5.6 7.3-3.6 9.7-7.5 9.7-10.1 0-2.7-2.4-6.6-9.7-10.1zm9.7 20.3c-7.5 6.5-21.8 10.9-38.2 10.9-16.4 0-30.7-4.4-38.2-10.9v11.7c0 4.3 3.5 8.9 10.5 12.5 7 3.6 16.7 5.9 27.7 5.9 10.9 0 20.7-2.3 27.7-5.9 7-3.6 10.5-8.2 10.5-12.5zm0 23.4c-2.2 2.1-5 4-8 5.6-7.9 4.1-18.6 6.5-30.2 6.5-11.7 0-22.3-2.4-30.2-6.5-3.1-1.6-5.8-3.5-8-5.6v10.2c0 4.3 3.5 8.9 10.5 12.5 7 3.6 16.7 5.9 27.7 5.9 10.9 0 20.7-2.3 27.7-5.9 7-3.6 10.5-8.2 10.5-12.5zm0 21.9c-2.2 2.2-5 4.1-8 5.6-7.9 4.1-18.6 6.5-30.2 6.5-11.7 0-22.3-2.4-30.2-6.5-3.1-1.5-5.8-3.4-8-5.6v10.2c0 4.3 3.5 8.9 10.5 12.6 7 3.6 16.7 5.9 27.7 5.9 10.9 0 20.7-2.3 27.7-5.9 7-3.7 10.5-8.3 10.5-12.6z"/>
	<path id="Layer" class="s1" d="m125.7 62.7c-17.4 0-31.4-14-31.4-31.4 0-17.3 14-31.3 31.4-31.3 17.3 0 31.3 14 31.3 31.3 0 17.4-14 31.4-31.3 31.4z"/>
	<path id="Layer" fill-rule="evenodd" class="s0" d="m102.2 31.3c0-12.9 10.5-23.5 23.5-23.5 12.9 0 23.5 10.6 23.5 23.5 0 13-10.6 23.5-23.5 23.5-13 0-23.5-10.5-23.5-23.5zm25.8-9h-4.1v12.2h4.1zm-3.5 14.8q-0.6 0.6-0.6 1.4 0 0.9 0.6 1.5 0.6 0.6 1.4 0.6 0.9 0 1.5-0.6 0.6-0.6 0.6-1.5 0-0.8-0.6-1.4-0.6-0.6-1.5-0.6-0.8 0-1.4 0.6z"/>
</svg>