<?xml version="1.0" standalone="no"?>
<!DOCTYPE svg PUBLIC "-//W3C//DTD SVG 20010904//EN"
 "http://www.w3.org/TR/2001/REC-SVG-20010904/DTD/svg10.dtd">
<svg version="1.0" xmlns="http://www.w3.org/2000/svg"
 width="185.000000pt" height="185.000000pt" viewBox="0 0 185.000000 185.000000"
 preserveAspectRatio="xMidYMid meet">
<metadata>
Created by potrace 1.11, written by Peter Selinger 2001-2013
</metadata>
<g transform="translate(0.000000,185.000000) scale(0.100000,-0.100000)"
fill="#000000" stroke="none">
<path d="M410 1695 c-4 -5 -47 -84 -95 -175 -48 -91 -105 -196 -125 -235 -21
-38 -72 -135 -114 -214 l-77 -143 36 -72 c21 -39 55 -105 77 -146 84 -157 107
-198 163 -305 33 -60 76 -141 96 -180 l38 -70 74 -3 75 -3 -140 263 c-77 145
-167 315 -200 378 -34 63 -64 119 -68 123 -6 7 31 80 237 467 25 47 74 139
109 206 l64 120 -71 0 c-39 -1 -74 -5 -79 -11z"/>
<path d="M705 1686 c-8 -34 -55 -269 -60 -299 -3 -15 -12 -59 -20 -97 -8 -38
-17 -82 -20 -97 -2 -16 -15 -82 -29 -147 -13 -66 -22 -129 -20 -140 2 -12 11
-55 19 -96 8 -41 17 -86 20 -100 3 -14 12 -59 20 -100 8 -41 17 -84 19 -95 2
-11 14 -69 26 -130 12 -60 27 -137 34 -170 l11 -60 68 -3 69 -3 -6 28 c-3 15
-8 39 -10 53 -2 14 -20 104 -40 200 -19 96 -37 186 -40 200 -2 14 -16 85 -31
159 l-28 135 27 135 c15 75 28 145 30 156 3 11 20 99 40 195 40 198 45 223 52
265 l6 30 -66 1 c-59 0 -67 -2 -71 -20z"/>
<path d="M1010 1694 c0 -7 18 -104 41 -216 22 -112 42 -216 45 -233 3 -16 12
-58 20 -93 7 -34 16 -77 19 -95 3 -17 10 -55 16 -83 7 -39 6 -68 -5 -125 -9
-41 -18 -90 -21 -109 -3 -19 -12 -64 -20 -100 -8 -36 -17 -77 -19 -93 -3 -15
-7 -35 -10 -45 -3 -9 -7 -33 -10 -52 -3 -19 -12 -67 -20 -105 -8 -39 -17 -82
-19 -95 -3 -14 -8 -42 -12 -62 l-7 -38 65 0 c54 0 67 3 71 18 4 15 17 79 31
152 3 14 9 48 15 76 6 28 13 63 16 79 3 16 12 61 20 100 8 38 17 84 20 100 3
17 15 77 27 135 24 114 24 112 -16 310 -9 41 -18 86 -20 100 -3 14 -21 107
-41 207 -20 100 -39 192 -41 205 -15 78 -10 73 -80 74 -46 0 -65 -4 -65 -12z"/>
<path d="M1290 1699 c0 -3 23 -48 51 -100 28 -52 68 -125 89 -164 48 -91 117
-218 175 -325 25 -47 57 -108 72 -136 l26 -51 -93 -174 c-51 -96 -110 -207
-131 -246 -92 -173 -124 -232 -156 -291 l-35 -62 75 0 75 0 37 72 c35 67 63
119 135 253 183 339 241 456 233 468 -6 6 -32 53 -58 102 -137 257 -308 578
-331 620 l-22 40 -71 0 c-39 1 -71 -2 -71 -6z"/>
</g>
</svg>
