<svg width="196" height="196" viewBox="0 0 196 196" fill="none" xmlns="http://www.w3.org/2000/svg">
    <path d="M95.172 1.93494C82.157 4.12858 32.6532 11.7189 10.4294 56.7761C-11.0175 100.271 1.99047 160.932 38.4745 184.972C97.0293 223.554 197.685 150.862 193.332 119.891C191.703 108.294 169.682 103.37 167.168 87.5343C163.194 62.4965 197.459 49.0037 194.281 30.3767C190.613 8.88463 138.548 -5.37642 95.172 1.93494Z" fill="#EDF3FF"/>
    <path d="M67.6187 188.484C67.5795 188.485 67.5404 188.479 67.5033 188.466C47.6218 181.57 36.0615 171.418 29.8659 164.118C23.1382 156.19 21.0927 149.788 21.0715 149.725C21.047 149.636 21.0577 149.541 21.1014 149.461C21.1451 149.38 21.2184 149.319 21.3057 149.291C21.393 149.264 21.4877 149.271 21.5696 149.313C21.6515 149.354 21.7143 149.425 21.7447 149.512C21.7659 149.573 23.7832 155.866 30.4308 163.695C36.5699 170.919 48.0243 180.965 67.734 187.806C67.8117 187.834 67.877 187.889 67.9187 187.961C67.9603 188.032 67.9756 188.116 67.9619 188.198C67.9481 188.28 67.9063 188.354 67.8436 188.409C67.7809 188.463 67.7013 188.493 67.6187 188.494V188.484Z" fill="#434343"/>
    <path d="M57.4373 189.248C57.387 189.248 57.3372 189.238 57.2913 189.217C38.1842 180.495 27.6926 169.496 22.255 161.797C16.3489 153.441 14.9577 147.046 14.9412 146.983C14.9219 146.89 14.9397 146.794 14.991 146.715C15.0422 146.637 15.1225 146.581 15.2143 146.562C15.306 146.542 15.4017 146.56 15.4803 146.612C15.5589 146.663 15.6139 146.744 15.6333 146.836C15.6333 146.898 17.0221 153.181 22.8576 161.423C28.2434 169.033 38.6409 179.918 57.5832 188.565C57.6559 188.599 57.7149 188.657 57.7505 188.729C57.7862 188.801 57.7963 188.883 57.7794 188.962C57.7624 189.04 57.7193 189.111 57.6571 189.162C57.5949 189.212 57.5174 189.24 57.4373 189.241V189.248Z" fill="#434343"/>
    <path d="M105.314 15.1417C105.234 15.1332 105.16 15.0979 105.102 15.0413C105.045 14.9848 105.009 14.9104 104.999 14.8304C104.989 14.7503 105.006 14.6693 105.048 14.6005C105.09 14.5316 105.154 14.4791 105.23 14.4514C122.053 8.5702 145.44 13.1702 145.675 13.2175C145.722 13.2254 145.766 13.2427 145.806 13.2682C145.846 13.2937 145.881 13.3271 145.907 13.3662C145.934 13.4053 145.953 13.4494 145.962 13.4959C145.972 13.5424 145.972 13.5903 145.963 13.6369C145.953 13.6834 145.935 13.7276 145.908 13.7668C145.882 13.8061 145.847 13.8395 145.808 13.8652C145.768 13.8909 145.723 13.9084 145.677 13.9165C145.63 13.9246 145.582 13.9232 145.536 13.9125C145.301 13.8652 122.103 9.30299 105.463 15.1228C105.415 15.1383 105.364 15.1447 105.314 15.1417Z" fill="#434343"/>
    <path d="M102.567 12.9999C102.489 12.9936 102.415 12.9611 102.357 12.9077C102.299 12.8543 102.26 12.7829 102.247 12.705C102.234 12.627 102.247 12.547 102.285 12.4775C102.322 12.408 102.382 12.3531 102.454 12.3215C115.144 6.73338 136.144 8.80647 136.351 8.8301C136.445 8.83919 136.531 8.88527 136.591 8.95819C136.651 9.03112 136.679 9.12492 136.67 9.21896C136.661 9.31299 136.615 9.39957 136.543 9.45964C136.47 9.51971 136.376 9.54835 136.283 9.53926C136.073 9.51798 115.257 7.46144 102.739 12.9763C102.684 12.9978 102.625 13.0059 102.567 12.9999Z" fill="#434343"/>
    <path d="M102.148 17.0895C102.017 17.0808 101.888 17.057 101.762 17.0186C101.38 16.8852 101.063 16.6107 100.876 16.2509C100.689 15.8911 100.645 15.4731 100.754 15.0821C100.863 14.6911 101.116 14.3565 101.462 14.1464C101.808 13.9362 102.22 13.8664 102.616 13.9512C103.011 14.0359 103.36 14.2688 103.59 14.6024C103.82 14.9361 103.915 15.3453 103.856 15.7469C103.796 16.1484 103.586 16.5121 103.269 16.7637C102.952 17.0154 102.551 17.1361 102.148 17.1014V17.0895ZM102.362 14.624C102.168 14.6067 101.973 14.6549 101.809 14.761C101.645 14.8672 101.521 15.0253 101.456 15.2103C101.398 15.3753 101.391 15.5539 101.434 15.7233C101.477 15.8928 101.57 16.0456 101.699 16.1623C101.829 16.279 101.99 16.3544 102.163 16.379C102.335 16.4036 102.511 16.3762 102.668 16.3004C102.825 16.2245 102.956 16.1036 103.045 15.9529C103.133 15.8022 103.175 15.6286 103.166 15.4539C103.156 15.2792 103.095 15.1114 102.99 14.9717C102.885 14.8319 102.741 14.7266 102.577 14.669C102.507 14.6448 102.435 14.6297 102.362 14.624Z" fill="#434343"/>
    <path d="M151.182 18.957C151.122 18.9509 151.064 18.9297 151.015 18.8955C150.967 18.8631 150.928 18.8194 150.901 18.7684C150.874 18.7173 150.859 18.6603 150.859 18.6024V14.6382C150.86 14.5758 150.876 14.5146 150.907 14.4606C150.939 14.4067 150.983 14.362 151.037 14.3311C151.091 14.3001 151.153 14.284 151.215 14.2844C151.277 14.2848 151.338 14.3017 151.391 14.3333L155.421 16.7302C155.478 16.7641 155.525 16.8134 155.555 16.8725C155.586 16.9316 155.599 16.9981 155.594 17.0645C155.588 17.1308 155.564 17.1943 155.525 17.2476C155.485 17.301 155.431 17.342 155.37 17.3661L151.342 18.9333C151.291 18.954 151.236 18.9621 151.182 18.957ZM151.561 15.2599V18.0965L154.428 16.9808L151.561 15.2599Z" fill="#434343"/>
    <path d="M138.612 72.8738L123.521 65.4348C111.24 59.3828 99.7801 51.7772 89.4217 42.8034L88.6802 38.1963C88.6802 38.1963 83.565 38.253 82.4681 38.1963C81.7538 38.1544 81.0386 38.2629 80.3685 38.5149C79.6985 38.7669 79.0882 39.1568 78.577 39.6595C67.3339 50.7074 54.5333 60.0341 40.5864 67.3401L30.7186 72.5098C28.4258 73.713 27.5831 75.8192 28.2728 78.8732L41.1678 133.58C46.782 148.883 69.3895 169.363 82.1268 180.024C84.3573 181.897 87.178 182.914 90.0855 182.892C91.3331 182.892 96.5071 183.05 96.5071 183.05C96.5071 183.05 97.6017 180.861 99.0494 179.384C110.485 167.716 130.55 145.255 134.618 127.568L141.369 78.6723C141.629 77.5352 141.498 76.3433 140.997 75.2905C140.497 74.2377 139.656 73.3859 138.612 72.8738Z" fill="#99B9FF"/>
    <path d="M144.331 73.1669L129.357 65.787C117.172 59.7808 105.802 52.2341 95.5237 43.3305L91.6656 39.9904C90.6975 39.1512 89.4507 38.7078 88.1725 38.7481C86.8942 38.7884 85.6776 39.3094 84.7638 40.2079C73.6115 51.1696 60.915 60.4253 47.0816 67.6781L37.2773 72.8052C36.1756 73.3802 35.3204 74.3388 34.8719 75.5015C34.4234 76.6642 34.4124 77.9512 34.841 79.1214L47.6465 133.4C53.216 148.585 75.894 169.094 88.5136 179.674C90.8719 181.648 93.8835 182.659 96.9498 182.506C100.016 182.353 102.913 181.047 105.064 178.847C116.41 167.264 136.318 144.985 140.355 127.436L147.054 78.9205C147.313 77.7936 147.185 76.6119 146.69 75.5674C146.196 74.5229 145.364 73.6769 144.331 73.1669Z" fill="white"/>
    <path d="M135.131 79.613L122.733 73.5143C112.645 68.5414 103.231 62.2935 94.7207 54.9227L91.5263 52.1546C90.725 51.4601 89.693 51.0931 88.6349 51.1263C87.5769 51.1596 86.5698 51.5907 85.8133 52.3343C76.5788 61.4061 66.0667 69.0656 54.6139 75.0673L46.5068 79.3223C45.597 79.7981 44.8907 80.5902 44.5199 81.5506C44.1491 82.5111 44.1391 83.5743 44.4918 84.5416L55.0847 129.483C59.6961 142.056 78.4666 159.031 88.9229 167.796C90.8736 169.431 93.3651 170.269 95.9026 170.144C98.4402 170.019 100.838 168.94 102.621 167.122C112.015 157.537 128.498 139.085 131.84 124.557L137.386 84.388C137.604 83.4533 137.5 82.472 137.09 81.6046C136.68 80.7372 135.99 80.0351 135.131 79.613Z" fill="#CADDFF"/>
    <path d="M96.3295 182.875C93.3892 182.876 90.5421 181.839 88.286 179.946C75.3769 169.131 52.8871 148.72 47.3153 133.523C47.3106 133.509 47.3067 133.496 47.3035 133.482L34.5098 79.2228C34.0599 77.9745 34.0759 76.6049 34.5545 75.3675C35.0332 74.1301 35.9422 73.1089 37.1132 72.4929L46.9034 67.3681C60.7102 60.1305 73.3809 50.8912 84.5079 39.9476C85.4799 38.9777 86.7819 38.4141 88.1514 38.3702C89.5209 38.3263 90.856 38.8055 91.8876 39.7112L95.7457 43.0537C106.003 51.9429 117.35 59.4785 129.511 65.4771L144.484 72.857C145.59 73.3972 146.48 74.2981 147.01 75.4124C147.539 76.5267 147.676 77.7884 147.399 78.9911L144.527 99.7929C144.514 99.887 144.465 99.9721 144.389 100.029C144.314 100.087 144.219 100.112 144.125 100.099C144.032 100.086 143.947 100.037 143.89 99.9609C143.833 99.8853 143.808 99.7901 143.821 99.696L146.695 78.8753V78.8446C146.94 77.7957 146.822 76.6944 146.361 75.7215C145.901 74.7485 145.124 73.9618 144.16 73.4905L129.186 66.1106C116.978 60.0899 105.587 52.5266 95.289 43.6044L91.4309 40.262C90.5323 39.4753 89.3707 39.0591 88.1791 39.0968C86.9876 39.1345 85.8544 39.6233 85.0069 40.4653C73.8279 51.4524 61.0994 60.7275 47.2306 67.9922L37.4404 73.1217C36.418 73.6593 35.6251 74.5518 35.2094 75.633C34.7936 76.7141 34.7834 77.9101 35.1806 78.9982C35.186 79.0112 35.1899 79.0246 35.1924 79.0384L47.9838 133.298C53.5133 148.337 75.8877 168.637 88.745 179.414C91.042 181.316 93.9633 182.287 96.9365 182.139C99.9096 181.99 102.72 180.732 104.818 178.61C116.239 166.957 135.996 144.808 140.012 127.384L141.742 114.855C141.748 114.809 141.764 114.764 141.787 114.723C141.811 114.683 141.842 114.647 141.88 114.619C141.917 114.59 141.959 114.57 142.005 114.558C142.05 114.546 142.097 114.543 142.143 114.549C142.19 114.556 142.234 114.571 142.275 114.595C142.315 114.618 142.351 114.65 142.379 114.687C142.407 114.725 142.428 114.767 142.44 114.813C142.452 114.858 142.455 114.906 142.448 114.952L140.718 127.495V127.526C136.672 145.122 116.814 167.396 105.336 179.107C103.122 181.37 100.141 182.713 96.9862 182.87C96.7603 182.873 96.5413 182.875 96.3295 182.875Z" fill="#434343"/>
    <path d="M82.2905 92.7205L82.5259 78.3247C82.575 76.0796 83.4696 73.9365 85.0293 72.3272C86.5891 70.7178 88.6983 69.7619 90.9319 69.6518C92.1411 69.6 93.3481 69.7981 94.4779 70.2338C95.6078 70.6694 96.6366 71.3334 97.5006 72.1846C98.3645 73.0358 99.0452 74.056 99.5006 75.1821C99.9559 76.3082 100.176 77.5163 100.148 78.7313L100.044 83.2061C100.036 83.5749 100.103 83.9414 100.241 84.2832C100.379 84.625 100.586 84.9347 100.848 85.1932C101.11 85.4517 101.422 85.6535 101.765 85.7862C102.107 85.9189 102.474 85.9796 102.841 85.9647C103.529 85.9393 104.182 85.6492 104.664 85.1542C105.146 84.6593 105.42 83.9975 105.43 83.3053L105.491 79.0646C105.682 70.829 99.1166 64.0684 90.6612 64.4088C83.6676 64.6925 77.2695 70.8715 77.093 78.3956L76.9141 92.9333L82.2905 92.7205Z" fill="white"/>
    <path d="M76.8922 93.295C76.8454 93.2954 76.7989 93.2863 76.7556 93.2683C76.7123 93.2503 76.6731 93.2237 76.6402 93.1902C76.6072 93.1567 76.5813 93.117 76.564 93.0733C76.5466 93.0295 76.5382 92.9828 76.5391 92.9357L76.718 78.3981C76.8922 70.9497 83.2197 64.4042 90.5546 64.0638C90.5773 64.0613 90.6002 64.0613 90.6229 64.0638C92.6241 63.9648 94.6241 64.2833 96.4966 64.9993C98.3691 65.7153 100.074 66.8132 101.502 68.2238C102.931 69.6344 104.053 71.327 104.798 73.195C105.543 75.0629 105.894 77.0655 105.829 79.0765L105.768 83.3149C105.761 83.716 105.675 84.1116 105.515 84.4792C105.355 84.8469 105.124 85.1793 104.837 85.4575C104.549 85.7357 104.209 85.9543 103.838 86.1008C103.466 86.2472 103.069 86.3187 102.669 86.3111C102.27 86.3035 101.876 86.2169 101.51 86.0564C101.144 85.8959 100.813 85.6646 100.536 85.3756C100.259 85.0866 100.041 84.7457 99.8951 84.3722C99.7492 83.9988 99.6781 83.6001 99.6856 83.1991L99.7869 78.7338C99.8124 77.5608 99.5976 76.3951 99.1559 75.309C98.7141 74.2229 98.0547 73.2395 97.2187 72.42C96.3948 71.6023 95.4106 70.9656 94.3287 70.5501C93.2467 70.1346 92.0906 69.9495 90.9336 70.0065C88.7906 70.1157 86.768 71.0344 85.2714 72.5785C83.7748 74.1226 82.9149 76.1778 82.8642 78.3319L82.6288 92.7254C82.6277 92.8162 82.5919 92.9031 82.5288 92.9682C82.4658 93.0333 82.3802 93.0716 82.2899 93.0752L76.8922 93.295ZM90.7218 64.7682C90.6994 64.7744 90.6766 64.7784 90.6535 64.78C83.6481 65.0661 77.589 71.3113 77.4242 78.4194L77.25 92.5812L81.9438 92.3897L82.1651 78.3272C82.2198 75.9932 83.1513 73.7663 84.7728 72.0933C86.3943 70.4203 88.5858 69.4249 90.9077 69.3068C92.1616 69.245 93.4146 69.4455 94.5873 69.8955C95.76 70.3456 96.8268 71.0354 97.7201 71.9212C98.6226 72.8087 99.3344 73.8726 99.8113 75.0472C100.288 76.2218 100.52 77.4821 100.493 78.7503L100.392 83.2062C100.384 83.5276 100.443 83.8471 100.565 84.1445C100.686 84.4419 100.868 84.7108 101.098 84.9341C101.324 85.1606 101.595 85.3371 101.893 85.4523C102.191 85.5675 102.509 85.6189 102.828 85.6031C103.425 85.579 103.99 85.3261 104.407 84.8966C104.824 84.467 105.061 83.8934 105.069 83.2936L105.13 79.0529C105.192 77.1446 104.859 75.2443 104.155 73.4711C103.45 71.6978 102.388 70.0901 101.035 68.7487C99.6816 67.4074 98.067 66.3614 96.2923 65.6764C94.5176 64.9914 92.6211 64.6822 90.7218 64.7682Z" fill="#434343"/>
    <path d="M88.2709 132.301L94.3182 132.537C102.691 132.329 110.09 122.278 109.299 110.466L108.044 91.5741L72.4523 91.2857C69.2933 91.2739 66.6474 94.1034 66.864 97.2662L67.9586 113.227C68.307 118.399 70.5982 123.246 74.3689 126.786C78.1396 130.327 83.1085 132.298 88.2709 132.301Z" fill="#99B9FF"/>
    <path d="M94.1151 132.005C96.9055 132.005 99.6662 131.429 102.226 130.313C104.785 129.197 107.089 127.565 108.995 125.518C110.9 123.471 112.367 121.052 113.303 118.413C114.239 115.773 114.625 112.968 114.437 110.173L113.203 91.8528H75.5636C75.1539 91.8528 74.7487 91.9374 74.3729 92.1012C73.9972 92.2651 73.659 92.5047 73.3794 92.8053C73.0997 93.1058 72.8845 93.4609 72.7472 93.8485C72.6099 94.236 72.5533 94.6478 72.5811 95.0582L73.784 112.931C74.1326 118.107 76.4264 122.956 80.2011 126.497C83.9758 130.038 88.9494 132.007 94.1151 132.005Z" fill="white"/>
    <path d="M94.114 132.36C88.8649 132.345 83.8159 130.336 79.9814 126.736C76.147 123.137 73.8113 118.213 73.4439 112.955L72.2339 94.9897C72.2039 94.5427 72.2657 94.0943 72.4154 93.6723C72.565 93.2503 72.7994 92.8637 73.1039 92.5363C73.4085 92.209 73.7767 91.948 74.1859 91.7694C74.595 91.5909 75.0363 91.4986 75.4824 91.4983H110.255C111.145 91.5004 112 91.8412 112.649 92.4518C113.298 93.0625 113.693 93.8976 113.753 94.7888L113.923 97.2921C113.928 97.386 113.897 97.4785 113.835 97.5493C113.774 97.6201 113.687 97.6636 113.593 97.6703C113.547 97.6741 113.5 97.6686 113.456 97.6539C113.412 97.6392 113.371 97.6157 113.336 97.5848C113.301 97.5539 113.272 97.5162 113.252 97.474C113.232 97.4319 113.221 97.3861 113.219 97.3393L113.049 94.836C113 94.1253 112.684 93.4597 112.166 92.9733C111.647 92.4869 110.965 92.2158 110.255 92.2145H75.4777C75.1285 92.2147 74.7831 92.2869 74.4629 92.4266C74.1427 92.5664 73.8545 92.7707 73.6161 93.0269C73.3777 93.2831 73.1943 93.5857 73.0772 93.9161C72.9601 94.2464 72.9119 94.5973 72.9354 94.9471L74.143 112.912C74.4986 117.992 76.7556 122.748 80.4604 126.225C84.1652 129.702 89.0431 131.642 94.114 131.655C103.987 131.655 112.503 124.271 113.923 114.477C113.929 114.431 113.945 114.386 113.969 114.345C113.993 114.305 114.024 114.27 114.062 114.241C114.099 114.213 114.142 114.193 114.187 114.181C114.233 114.169 114.28 114.167 114.326 114.173C114.373 114.18 114.417 114.196 114.458 114.22C114.498 114.244 114.533 114.276 114.561 114.313C114.589 114.351 114.61 114.394 114.621 114.439C114.633 114.485 114.635 114.532 114.629 114.579C113.904 119.521 111.434 124.037 107.669 127.302C103.904 130.567 99.0956 132.364 94.1211 132.364L94.114 132.36Z" fill="#434343"/>
    <path d="M94.581 120.418C94.8083 120.417 95.0332 120.371 95.2418 120.28C95.4504 120.189 95.6383 120.056 95.7938 119.889C95.9493 119.723 96.0691 119.526 96.146 119.311C96.2228 119.096 96.255 118.868 96.2405 118.64L95.3342 104.4C95.3103 103.977 95.1266 103.578 94.8205 103.286C94.5145 102.993 94.1089 102.829 93.6865 102.826C93.46 102.827 93.2362 102.875 93.0288 102.967C92.8215 103.058 92.6349 103.191 92.4806 103.358C92.3263 103.524 92.2075 103.721 92.1315 103.935C92.0555 104.149 92.0239 104.377 92.0387 104.604L92.9426 118.843C92.9664 119.265 93.1488 119.662 93.4529 119.955C93.757 120.247 94.1601 120.412 94.581 120.418Z" fill="#434343"/>
    <path d="M98.329 110.046C100.721 107.644 100.721 103.749 98.329 101.347C95.9371 98.9453 92.0589 98.9453 89.667 101.347C87.275 103.749 87.275 107.644 89.667 110.046C92.0589 112.448 95.9371 112.448 98.329 110.046Z" fill="#434343"/>
    <path d="M138.868 96.8264C138.868 96.8264 137.672 100.947 155.53 101.949C173.387 102.951 170.4 97.8618 170.4 97.8618L151.653 92.3777L138.868 96.8264Z" fill="#434343"/>
    <path d="M159.215 161.109C158.745 161.087 160.849 171.762 160.849 171.762L156.327 172.304L153.867 160.291L159.215 161.109Z" fill="white"/>
    <path d="M156.325 172.659C156.244 172.658 156.165 172.63 156.102 172.578C156.039 172.527 155.996 172.455 155.979 172.375L153.519 160.362C153.508 160.306 153.51 160.248 153.525 160.192C153.541 160.137 153.569 160.087 153.609 160.045C153.648 160.003 153.697 159.972 153.751 159.953C153.805 159.935 153.863 159.93 153.919 159.939L159.268 160.759C159.329 160.767 159.387 160.791 159.436 160.828C159.485 160.865 159.523 160.915 159.547 160.972C159.571 161.029 159.579 161.091 159.572 161.153C159.564 161.214 159.54 161.272 159.503 161.322C159.432 162.123 160.31 167.191 161.2 171.694C161.209 171.742 161.209 171.791 161.198 171.839C161.187 171.886 161.167 171.931 161.139 171.97C161.11 172.01 161.074 172.043 161.033 172.068C160.991 172.093 160.945 172.109 160.897 172.115L156.375 172.656L156.325 172.659ZM154.315 160.717L156.605 171.914L160.428 171.455C160.27 170.649 159.887 168.661 159.534 166.662C158.95 163.352 158.792 161.995 158.794 161.404L154.315 160.717Z" fill="#434343"/>
    <path d="M162.86 175.528C162.477 173.231 161.886 170.143 161.389 169.517C160.579 168.493 158.376 170.725 158.376 170.725C158.376 170.725 157.373 167.416 155.198 167.86C153.55 168.188 148.056 172.2 145.156 175.393C144.946 175.628 144.807 175.919 144.758 176.231C144.709 176.542 144.751 176.862 144.879 177.15C145.007 177.438 145.216 177.683 145.48 177.855C145.744 178.026 146.052 178.117 146.366 178.117H160.68C161.002 178.117 161.319 178.046 161.611 177.91C161.902 177.775 162.161 177.577 162.368 177.33C162.576 177.084 162.727 176.795 162.812 176.484C162.897 176.172 162.914 175.846 162.86 175.528Z" fill="#8FA1C7"/>
    <path d="M160.68 178.469H146.366C145.984 178.469 145.611 178.358 145.29 178.149C144.97 177.941 144.717 177.643 144.562 177.293C144.406 176.943 144.355 176.555 144.415 176.176C144.474 175.798 144.642 175.445 144.897 175.16C147.682 172.087 153.324 167.879 155.127 167.517C157.034 167.134 158.115 169.125 158.524 170.118C159.075 169.631 160.075 168.86 160.878 168.91C161.029 168.916 161.177 168.955 161.312 169.024C161.446 169.094 161.564 169.192 161.657 169.311C161.82 169.515 162.307 170.132 163.201 175.483C163.261 175.851 163.24 176.226 163.141 176.585C163.041 176.943 162.866 177.276 162.626 177.56C162.386 177.843 162.088 178.072 161.753 178.229C161.417 178.386 161.051 178.468 160.68 178.469ZM155.579 168.174C155.474 168.174 155.369 168.185 155.266 168.205C153.734 168.515 148.282 172.477 145.417 175.63C145.249 175.809 145.138 176.035 145.099 176.278C145.06 176.521 145.095 176.771 145.198 176.994C145.297 177.224 145.462 177.42 145.671 177.556C145.881 177.692 146.126 177.763 146.375 177.76H160.68C160.95 177.76 161.217 177.701 161.463 177.587C161.708 177.473 161.925 177.307 162.099 177.1C162.274 176.893 162.401 176.65 162.472 176.388C162.544 176.127 162.557 175.852 162.512 175.585C161.733 170.916 161.274 169.94 161.099 169.735C161.068 169.693 161.028 169.66 160.982 169.637C160.936 169.614 160.885 169.602 160.833 169.602H160.8C160.198 169.602 159.153 170.437 158.616 170.976C158.573 171.018 158.519 171.05 158.46 171.066C158.402 171.082 158.34 171.083 158.281 171.068C158.222 171.053 158.167 171.023 158.123 170.982C158.079 170.94 158.046 170.887 158.027 170.829C158.03 170.801 157.206 168.177 155.579 168.177V168.174Z" fill="#434343"/>
    <path d="M161.391 175.994H147.173C147.08 175.994 146.99 175.956 146.924 175.89C146.858 175.823 146.82 175.733 146.82 175.639C146.82 175.545 146.858 175.455 146.924 175.389C146.99 175.322 147.08 175.285 147.173 175.285H161.391C161.485 175.285 161.575 175.322 161.641 175.389C161.707 175.455 161.744 175.545 161.744 175.639C161.744 175.733 161.707 175.823 161.641 175.89C161.575 175.956 161.485 175.994 161.391 175.994Z" fill="white"/>
    <path d="M178.09 161.851L183.264 172.148L186.157 171.85L183.584 160.816L178.09 161.851Z" fill="white"/>
    <path d="M183.261 172.503C183.196 172.502 183.132 172.484 183.076 172.449C183.02 172.414 182.975 172.365 182.946 172.306L177.767 162.009C177.743 161.96 177.73 161.906 177.73 161.852C177.73 161.797 177.743 161.743 177.767 161.694C177.791 161.644 177.826 161.601 177.87 161.568C177.913 161.535 177.963 161.512 178.017 161.501L183.513 160.468C183.602 160.451 183.695 160.469 183.771 160.519C183.847 160.569 183.901 160.646 183.92 160.735L186.493 171.767C186.505 171.817 186.506 171.868 186.496 171.917C186.487 171.967 186.467 172.014 186.438 172.055C186.408 172.096 186.371 172.131 186.327 172.156C186.284 172.182 186.235 172.197 186.185 172.202L183.292 172.5L183.261 172.503ZM178.615 162.102L183.466 171.76L185.719 171.524L183.316 161.213L178.615 162.102Z" fill="#434343"/>
    <path d="M183.673 170.621C183.673 170.621 185.144 168.371 187.55 170.089C187.55 170.089 191.081 178.017 191.787 184.149C191.829 184.538 191.758 184.93 191.584 185.279C191.41 185.629 191.139 185.92 190.805 186.12C190.47 186.319 190.086 186.417 189.697 186.403C189.308 186.389 188.931 186.263 188.612 186.04C185.276 183.7 180.213 179.154 178.148 172.105C178.148 172.105 179.657 169.649 181.508 168.735L183.673 170.621Z" fill="#8FA1C7"/>
    <path d="M189.766 186.768C189.28 186.767 188.805 186.615 188.408 186.333C184.698 183.733 179.847 179.166 177.815 172.207C177.801 172.159 177.797 172.109 177.804 172.06C177.81 172.011 177.827 171.963 177.853 171.921C177.919 171.817 179.437 169.368 181.358 168.418C181.42 168.387 181.49 168.376 181.559 168.385C181.627 168.395 181.692 168.424 181.744 168.47L183.627 170.113C184.064 169.614 184.651 169.27 185.298 169.132C186.096 168.98 186.923 169.205 187.753 169.798C187.804 169.835 187.845 169.885 187.871 169.942C187.907 170.023 191.426 177.991 192.137 184.107C192.191 184.562 192.112 185.024 191.909 185.435C191.706 185.847 191.389 186.19 190.995 186.423C190.624 186.647 190.199 186.767 189.766 186.768ZM178.533 172.162C180.539 178.835 185.223 183.234 188.813 185.752C189.077 185.936 189.388 186.04 189.709 186.051C190.03 186.063 190.348 185.981 190.624 185.817C190.9 185.652 191.124 185.411 191.267 185.123C191.411 184.834 191.469 184.51 191.435 184.189C190.776 178.53 187.652 171.212 187.264 170.323C186.624 169.886 186.007 169.72 185.428 169.829C184.838 169.97 184.319 170.32 183.966 170.815C183.94 170.856 183.905 170.891 183.865 170.918C183.824 170.944 183.778 170.962 183.731 170.971C183.681 170.979 183.63 170.976 183.581 170.962C183.533 170.947 183.488 170.922 183.45 170.888L181.466 169.165C180.044 169.959 178.853 171.675 178.533 172.162Z" fill="#434343"/>
    <path d="M190.507 184.908H190.493C190.258 184.908 184.589 184.544 179.006 172.692C178.983 172.649 178.97 172.603 178.966 172.555C178.962 172.507 178.968 172.459 178.983 172.414C178.998 172.369 179.022 172.327 179.054 172.291C179.085 172.255 179.124 172.226 179.167 172.206C179.21 172.185 179.257 172.174 179.305 172.172C179.352 172.17 179.4 172.178 179.444 172.195C179.489 172.212 179.529 172.238 179.564 172.272C179.598 172.305 179.625 172.345 179.644 172.389C185.058 183.856 190.472 184.208 190.519 184.208C190.565 184.209 190.611 184.219 190.654 184.237C190.696 184.256 190.735 184.283 190.767 184.316C190.799 184.35 190.824 184.389 190.841 184.433C190.858 184.476 190.867 184.522 190.866 184.569C190.865 184.615 190.855 184.661 190.837 184.704C190.818 184.747 190.792 184.785 190.758 184.818C190.725 184.85 190.686 184.876 190.643 184.893C190.6 184.91 190.553 184.918 190.507 184.917V184.908Z" fill="white"/>
    <path d="M177.152 163.577L185.832 163.286L173.993 116.3C172.098 108.777 169.023 101.604 164.884 95.0514L146.744 95.0396C146.744 95.0396 140.052 120.687 152.318 162.882H161.39C161.39 162.882 157.859 124.377 158.149 113.312C158.149 113.319 166.677 144.947 177.152 163.577Z" fill="#434343"/>
    <path d="M159.139 118.815C159.063 118.814 158.988 118.789 158.927 118.742C158.866 118.695 158.821 118.629 158.8 118.555L155.653 107.317L153.386 106.622C153.299 106.593 153.226 106.531 153.184 106.449C153.142 106.367 153.133 106.271 153.16 106.183C153.186 106.094 153.246 106.02 153.327 105.975C153.408 105.931 153.502 105.919 153.591 105.944L156.044 106.696C156.1 106.712 156.151 106.742 156.192 106.783C156.233 106.825 156.263 106.876 156.279 106.932L159.481 118.356C159.506 118.446 159.496 118.542 159.452 118.623C159.408 118.705 159.334 118.766 159.245 118.794C159.211 118.807 159.176 118.814 159.139 118.815Z" fill="#CADDFF"/>
    <path d="M112.519 64.7256L119.223 68.3588C119.223 68.3588 123.331 79.119 129.214 79.7667C135.096 80.4144 140.913 72.245 140.913 72.245L144.816 80.6342C144.816 80.6342 139.084 89.5341 129.986 88.0992C120.888 86.6644 118.416 72.9517 118.416 72.9517C118.416 72.9517 116.264 73.1669 115.452 71.0607C114.763 69.2665 115.05 68.2099 115.05 68.2099C115.05 68.2099 111.827 66.4748 112.519 64.7256Z" fill="white"/>
    <path d="M131.948 88.6098C131.275 88.6098 130.602 88.5568 129.938 88.4514C121.353 87.0969 118.568 75.4125 118.135 73.3228C118.043 73.3228 117.935 73.3087 117.81 73.2921C117.212 73.2294 116.643 72.9991 116.169 72.6275C115.695 72.2559 115.335 71.7581 115.129 71.1907C114.604 69.8244 114.616 68.8481 114.658 68.3966C113.893 67.9404 111.492 66.3424 112.182 64.6003C112.2 64.5536 112.228 64.5113 112.264 64.4762C112.299 64.4412 112.342 64.4142 112.389 64.397C112.436 64.3798 112.486 64.3728 112.536 64.3764C112.586 64.3801 112.634 64.3944 112.678 64.4182L119.38 68.0515C119.454 68.0915 119.512 68.1569 119.542 68.2359C119.582 68.3422 123.643 78.8022 129.241 79.4192C134.838 80.0362 140.556 72.1244 140.615 72.044C140.651 71.9936 140.699 71.9535 140.754 71.9278C140.81 71.9021 140.872 71.8916 140.933 71.8974C140.996 71.9006 141.058 71.9207 141.111 71.9556C141.165 71.9905 141.208 72.0389 141.237 72.096L145.139 80.4829C145.165 80.5374 145.176 80.5974 145.172 80.6574C145.168 80.7173 145.148 80.7752 145.116 80.8257C145.057 80.9108 139.998 88.6098 131.948 88.6098ZM118.422 72.5971H118.478C118.551 72.6086 118.617 72.6423 118.67 72.6936C118.722 72.7448 118.757 72.811 118.77 72.8832C118.794 73.0179 121.31 86.3571 130.046 87.7446C138.143 89.0235 143.586 81.7736 144.405 80.5964L140.834 72.9257C139.459 74.7057 134.405 80.6909 129.168 80.1142C123.419 79.4807 119.437 69.874 118.935 68.6046L112.777 65.2692C112.82 66.3542 114.496 67.5031 115.223 67.8931C115.293 67.9313 115.349 67.9922 115.38 68.066C115.412 68.1398 115.418 68.2221 115.397 68.2997C115.397 68.2997 115.162 69.2878 115.788 70.9306C115.984 71.4483 116.339 71.8896 116.803 72.1902C117.266 72.4908 117.813 72.635 118.363 72.6019L118.422 72.5971Z" fill="#434343"/>
    <path d="M118.617 72.1624C118.581 72.1617 118.547 72.1561 118.513 72.1458C118.452 72.1269 117.044 71.6731 116.865 70.4202C116.795 70.0132 116.594 69.6404 116.293 69.3589C116.11 69.176 115.965 68.9583 115.866 68.7184C115.767 68.4785 115.717 68.2213 115.719 67.9618V67.7018C115.718 67.6439 115.732 67.5868 115.759 67.5356C115.786 67.4844 115.825 67.4406 115.873 67.4081C115.92 67.3756 115.975 67.3554 116.033 67.3494C116.09 67.3433 116.148 67.3515 116.201 67.3732L118.461 68.2762C118.548 68.311 118.618 68.3791 118.655 68.4656C118.692 68.552 118.694 68.6497 118.659 68.7372C118.624 68.8246 118.556 68.8947 118.47 68.9319C118.384 68.9692 118.287 68.9705 118.2 68.9357L116.453 68.2266C116.504 68.4616 116.622 68.6767 116.792 68.8459C117.201 69.2383 117.472 69.7535 117.564 70.3138C117.677 71.1294 118.704 71.4556 118.715 71.4579C118.797 71.4819 118.868 71.535 118.914 71.6072C118.96 71.6795 118.978 71.766 118.966 71.8508C118.953 71.9357 118.91 72.013 118.845 72.0686C118.78 72.1241 118.697 72.1541 118.612 72.1529L118.617 72.1624Z" fill="#434343"/>
    <path d="M163.848 81.1307C163.848 81.1307 167.981 90.4655 174.721 92.3732C181.46 94.2808 186.154 88.5177 186.123 82.5679L183.845 81.8044C183.845 81.8044 181.491 87.9031 176.251 86.317C171.011 84.7309 168.56 72.3325 168.56 72.3325L163.848 81.1307Z" fill="white"/>
    <path d="M177.308 93.1035C176.399 93.0984 175.495 92.9671 174.622 92.7135C167.795 90.7846 163.695 81.6602 163.523 81.2749C163.501 81.2255 163.49 81.1716 163.492 81.1175C163.494 81.0634 163.509 81.0105 163.535 80.9629L168.243 72.1599C168.278 72.0957 168.331 72.0437 168.396 72.0108C168.462 71.9778 168.535 71.9656 168.607 71.9755C168.679 71.9872 168.746 72.0207 168.798 72.0714C168.85 72.1221 168.885 72.1876 168.899 72.2592C168.923 72.3798 171.352 84.4684 176.333 85.9695C181.201 87.4422 183.395 81.906 183.496 81.6697C183.529 81.5849 183.593 81.5161 183.675 81.4774C183.757 81.4387 183.85 81.433 183.936 81.4616L186.227 82.2252C186.296 82.2489 186.356 82.2939 186.398 82.3537C186.44 82.4135 186.463 82.4851 186.462 82.5585C186.481 86.0522 184.918 89.4136 182.385 91.359C180.931 92.4885 179.146 93.102 177.308 93.1035ZM164.238 81.1402C164.815 82.3599 168.784 90.326 174.812 92.0327C178.16 92.9783 180.551 91.8862 181.971 90.8012C184.268 89.0448 185.709 86.0049 185.768 82.8232L184.023 82.2441C183.435 83.504 180.914 88.1017 176.133 86.655C171.557 85.2698 169.111 76.3156 168.417 73.3395L164.238 81.1402Z" fill="#434343"/>
    <path d="M138.863 72.1196C138.863 72.1196 143.006 66.6827 154.715 67.7039C168.697 68.9166 169.761 71.6893 169.761 71.6893L166.113 79.1165L170.395 97.8618C170.395 97.8618 167.469 100.297 160.614 98.9302C153.759 97.5639 141.98 95.8856 138.863 96.8312L143.206 78.9511L138.863 72.1196Z" fill="#71D6D7"/>
    <path d="M164.583 99.6987C163.224 99.6921 161.869 99.552 160.537 99.2803C153.595 97.8974 141.94 96.2711 138.958 97.1717C138.898 97.1905 138.835 97.193 138.774 97.1789C138.713 97.1647 138.657 97.1345 138.612 97.0914C138.566 97.0483 138.533 96.9937 138.516 96.9335C138.499 96.8732 138.498 96.8094 138.513 96.7486L142.818 79.0198L138.555 72.3254C138.516 72.264 138.497 72.1919 138.5 72.1191C138.504 72.0463 138.53 71.9763 138.574 71.9188C138.748 71.6824 142.969 66.3425 154.736 67.366C168.54 68.5621 169.967 71.2711 170.082 71.576C170.1 71.6214 170.109 71.6702 170.107 71.7192C170.105 71.7681 170.092 71.8161 170.07 71.8597L166.476 79.1734L170.732 97.7934C170.746 97.8575 170.742 97.9243 170.721 97.9865C170.7 98.0486 170.662 98.1037 170.612 98.1456C170.522 98.2118 168.674 99.6987 164.583 99.6987ZM141.719 96.2073C146.545 96.2073 154.974 97.4459 160.68 98.5853C166.386 99.7247 169.293 98.174 169.997 97.713L165.76 79.2018C165.741 79.1224 165.75 79.0389 165.786 78.9654L169.348 71.7202C168.926 71.2286 166.447 69.0846 154.675 68.0634C144.52 67.184 140.149 71.238 139.295 72.1599L143.496 78.7574C143.522 78.7981 143.539 78.8436 143.547 78.8911C143.555 78.9386 143.553 78.9872 143.541 79.034L139.351 96.3538C140.135 96.2426 140.927 96.1936 141.719 96.2073Z" fill="#434343"/>
    <path d="M182.629 89.0044L165.941 89.6805C165.813 89.6805 165.687 89.6462 165.576 89.581C165.465 89.5159 165.374 89.4223 165.311 89.3099C165.248 89.1975 165.217 89.0703 165.219 88.9414C165.221 88.8125 165.258 88.6866 165.325 88.5766L176.132 68.7463C176.233 68.5802 176.375 68.4429 176.545 68.3477C176.714 68.2525 176.905 68.2026 177.099 68.2026L193.968 68.5903L182.629 89.0044Z" fill="#CADDFF"/>
    <path d="M183.829 89.6805H165.816L177.631 68.2026H195.643L183.829 89.6805Z" fill="#99B9FF"/>
    <path d="M183.828 90.0352H165.815C165.754 90.0353 165.693 90.0192 165.64 89.9885C165.587 89.9578 165.542 89.9135 165.512 89.8602C165.481 89.807 165.465 89.7467 165.465 89.6853C165.465 89.6239 165.481 89.5636 165.512 89.5104L177.326 68.0302C177.357 67.975 177.401 67.929 177.456 67.897C177.51 67.865 177.572 67.8482 177.634 67.8481H195.647C195.708 67.8482 195.769 67.8643 195.822 67.895C195.876 67.9257 195.92 67.9699 195.951 68.0231C195.982 68.0764 195.999 68.1369 196 68.1987C196.001 68.2604 195.985 68.3213 195.955 68.3753L184.141 89.8531C184.11 89.909 184.064 89.9554 184.009 89.9875C183.954 90.0195 183.891 90.036 183.828 90.0352ZM166.408 89.326H183.616L195.044 68.5502H177.837L166.408 89.326Z" fill="#434343"/>
    <path d="M184.24 89.0045C184.24 89.0045 183.902 87.2221 184.24 86.0355C184.579 84.8488 186.677 81.3078 187.277 80.5726C187.877 79.8375 188.386 87.7304 184.24 89.0045Z" fill="white"/>
    <path d="M184.243 89.3521C184.179 89.3516 184.117 89.3336 184.062 89.3001C184.02 89.2747 183.983 89.2405 183.954 89.1997C183.926 89.159 183.906 89.1126 183.897 89.0637C183.883 88.9881 183.547 87.1844 183.897 85.9292C184.241 84.7237 186.36 81.1306 187 80.3411C187.055 80.2649 187.134 80.2089 187.224 80.1816C187.314 80.1544 187.411 80.1572 187.499 80.1898C187.984 80.3695 188.052 81.5845 188.021 82.5726C187.941 85.3194 186.929 88.5389 184.34 89.3355C184.309 89.3462 184.276 89.3518 184.243 89.3521ZM187.261 81.1921C186.461 82.374 184.86 85.1515 184.582 86.1254C184.366 86.8842 184.453 87.9361 184.526 88.5106C185.489 88.0756 186.228 87.1774 186.724 85.83C187.246 84.3462 187.43 82.7637 187.261 81.1992V81.1921Z" fill="#434343"/>
    <path d="M121.03 50.8994C118.759 52.287 118.401 54.9416 118.375 55.1543C118.019 58.1635 120.152 61.2767 122.483 61.7423C124.474 62.1418 125.161 60.3099 127.661 60.4304C130.451 60.5628 130.721 62.8912 133.384 63.4774C137.305 64.3426 138.904 59.7638 143.407 60.0829C146.874 60.3193 147.326 63.1417 151.104 63.1748C151.533 63.1748 154.915 63.1559 157.171 60.5226C159.426 57.8893 159.484 53.8778 157.808 51.2114C157.637 50.9372 155.793 48.0864 153.352 48.155C151.822 48.1999 151.519 49.3511 150.057 49.3251C147.816 49.2873 147.366 46.5405 145.403 46.427C143.134 46.2923 142.63 49.8924 139.577 50.403C137.273 50.7883 136.618 48.8949 134.144 49.3298C131.578 49.7837 131.454 51.9631 129.278 52.0341C127.193 52.1002 126.621 50.1241 123.923 50.1075C122.905 50.1009 121.904 50.3748 121.03 50.8994Z" fill="#434343"/>
    <path d="M162.155 61.6598C162.31 61.4116 161.571 60.0737 161.545 59.5843C161.519 59.095 161.901 58.6884 162.058 58.166C162.216 57.6436 162.04 56.7477 162.04 56.7477C161.823 50.6372 155.194 52.0862 155.194 52.0862C153.671 52.559 152.774 54.2657 152.483 55.3956C151.915 57.6058 152.953 60.2793 152.953 60.2793C152.909 60.381 151.821 67.5363 151.776 67.6285C151.089 68.957 155.705 69.8269 157.158 68.4889C157.647 68.0374 157.019 64.7068 157.158 64.7068C157.701 64.6926 158.367 65.2788 159.052 65.0945C160.062 64.825 160.823 62.2862 160.966 62.0971C161.131 61.9881 161.319 61.92 161.515 61.8985C161.79 61.856 162.073 61.7898 162.155 61.6598Z" fill="white"/>
    <path d="M154.824 69.5312C153.647 69.5312 152.444 69.2216 151.841 68.7583C151.384 68.4084 151.243 67.9593 151.446 67.5243C151.504 67.236 151.808 65.2952 152.053 63.7256C152.42 61.3618 152.543 60.603 152.594 60.3264C152.404 59.804 151.606 57.4024 152.14 55.3246C152.415 54.2466 153.35 52.2799 155.092 51.7528C155.1 51.7504 155.109 51.7504 155.118 51.7528C155.252 51.7221 158.463 51.0436 160.595 52.6983C161.718 53.5753 162.323 54.9227 162.392 56.7169C162.427 56.9036 162.563 57.7404 162.392 58.2865C162.323 58.4964 162.234 58.699 162.126 58.8916C161.992 59.0943 161.911 59.3276 161.89 59.57C161.958 59.8731 162.057 60.1685 162.184 60.4517C162.483 61.2034 162.62 61.5769 162.443 61.8535C162.283 62.1088 161.93 62.1892 161.591 62.2695C161.469 62.2979 161.313 62.3333 161.236 62.3617C161.205 62.4303 161.158 62.5508 161.113 62.6619C160.76 63.5507 160.101 65.2054 159.138 65.4607C158.625 65.5978 158.145 65.4087 157.759 65.2551L157.509 65.1605C157.521 65.2905 157.538 65.4418 157.554 65.5836C157.754 67.4582 157.79 68.4202 157.392 68.7724C156.813 69.3067 155.833 69.5312 154.824 69.5312ZM153.298 60.395C153.258 60.5817 152.99 62.3097 152.75 63.8344C152.145 67.7087 152.138 67.7229 152.093 67.808C152.048 67.8931 152.001 67.9877 152.272 68.1957C153.162 68.8812 155.939 69.1412 156.921 68.2453C157.105 67.9711 156.921 66.288 156.857 65.6451C156.766 64.7776 156.751 64.6428 156.888 64.4868C156.921 64.4488 156.961 64.4181 157.007 64.3966C157.052 64.375 157.101 64.3631 157.152 64.3615C157.454 64.3725 157.751 64.4474 158.023 64.5814C158.359 64.7137 158.677 64.839 158.964 64.761C159.583 64.5979 160.224 62.9881 160.466 62.383C160.524 62.2101 160.603 62.0449 160.701 61.8913C160.845 61.7022 161.104 61.6431 161.431 61.5675C161.539 61.5415 161.714 61.5013 161.82 61.4635C161.743 61.204 161.652 60.9491 161.546 60.6999C161.382 60.3483 161.266 59.9763 161.2 59.5937C161.208 59.225 161.315 58.8653 161.511 58.5536C161.598 58.3956 161.672 58.2303 161.73 58.0595C161.838 57.712 161.744 57.0242 161.702 56.8091C161.701 56.791 161.701 56.7728 161.702 56.7547C161.645 55.1756 161.132 53.9984 160.181 53.2538C158.371 51.8355 155.509 52.3816 155.294 52.4265C153.863 52.8709 153.077 54.5539 152.837 55.4995C152.305 57.5678 153.294 60.1397 153.308 60.1657C153.33 60.2411 153.326 60.3217 153.298 60.395Z" fill="#434343"/>
    <path d="M164.81 52.4905C164.144 51.8144 163.466 52.4905 160.808 52.117C158.605 51.8073 157.969 51.1833 156.3 51.4598C155.538 51.5563 154.81 51.8387 154.182 52.2825C152.955 53.1831 152.501 54.4454 152.258 55.3885C151.788 57.2276 152.379 59.3716 152.645 60.1824C152.677 60.2794 152.741 60.3626 152.827 60.4184C152.912 60.4742 153.014 60.4993 153.115 60.4897C153.614 60.4497 154.111 60.3778 154.601 60.2746C154.65 60.2632 154.696 60.2412 154.735 60.2099C154.775 60.1787 154.807 60.1391 154.829 60.0939C154.852 60.0487 154.864 59.9991 154.865 59.9486C154.866 59.8981 154.856 59.848 154.836 59.8018C154.815 59.7475 154.794 59.6907 154.777 59.634C154.558 58.8587 154.928 58.0715 155.603 57.88C156.279 57.6886 157.016 58.159 157.225 58.9343C157.241 58.987 157.254 59.0407 157.263 59.095C158.235 58.3552 158.734 57.5184 159.633 57.0669C160.043 56.8813 160.486 56.7807 160.935 56.7714C162.498 56.717 163.018 57.646 163.76 57.4664C165.057 57.1614 166.006 53.7102 164.81 52.4905Z" fill="#434343"/>
    <path d="M157.318 65.08C157.282 65.0803 157.246 65.0747 157.212 65.0635C154.759 64.2882 154.387 62.6429 154.364 62.5744C154.344 62.4825 154.36 62.3863 154.411 62.307C154.461 62.2276 154.541 62.1716 154.632 62.1512C154.724 62.1309 154.819 62.1478 154.898 62.1983C154.977 62.2489 155.033 62.3289 155.054 62.4207C155.068 62.4822 155.393 63.7445 157.424 64.3874C157.504 64.413 157.573 64.4665 157.617 64.5384C157.662 64.6102 157.679 64.6957 157.666 64.7793C157.654 64.8629 157.611 64.9392 157.548 64.9943C157.484 65.0495 157.402 65.0799 157.318 65.08Z" fill="#434343"/>
    <path d="M36.3805 54.9371L40.4881 52.3534L38.7321 47.3445C39.5665 46.5849 40.3358 45.7562 41.0319 44.8671L46.1306 46.2547L48.3951 41.9596L44.3722 38.5013C44.7135 37.4249 44.9655 36.322 45.1254 35.2038L50.2382 33.8446L50.0593 28.9869L44.8806 28.0106C44.6391 26.9057 44.3052 25.8231 43.8825 24.7745L47.623 21.0373L45.0501 16.9124L40.0621 18.6734C39.3051 17.8361 38.4799 17.0636 37.5951 16.364L38.9769 11.2439L34.6974 8.98169L31.2559 13.0002C30.1803 12.6567 29.0779 12.4044 27.9603 12.2462L26.6186 7.11426L21.7812 7.29391L20.809 12.4944C19.7086 12.7366 18.6305 13.0718 17.5864 13.4966L13.8578 9.74048L9.75717 12.3265L11.5132 17.3355C10.6783 18.0945 9.90889 18.9232 9.2134 19.8128L4.11472 18.4229L1.85021 22.7203L5.86607 26.1763C5.52419 27.2566 5.27224 28.3635 5.1128 29.4856L0 30.833L0.178901 35.6931L5.35761 36.6694C5.59948 37.7742 5.93335 38.8567 6.35569 39.9054L2.61525 43.6474L5.17871 47.7652L10.1668 46.0018C10.9237 46.8399 11.7489 47.6132 12.6337 48.3136L11.2613 53.4219L15.5361 55.7054L18.9823 51.6726C20.0581 52.0158 21.1604 52.2688 22.2779 52.4291L23.6314 57.5633L28.4688 57.386L29.4245 52.1714C30.5249 51.9292 31.603 51.5939 32.6471 51.1691L36.3805 54.9371ZM14.5616 39.0025C13.2515 36.9055 12.5901 34.4655 12.6609 31.9911C12.7317 29.5167 13.5316 27.1189 14.9595 25.101C16.3873 23.083 18.3789 21.5356 20.6825 20.6543C22.9861 19.7729 25.4982 19.5974 27.9012 20.1497C30.3041 20.7021 32.49 21.9576 34.1825 23.7574C35.8749 25.5573 36.9979 27.8207 37.4093 30.2614C37.8208 32.7021 37.5024 35.2106 36.4942 37.4695C35.4861 39.7285 33.8335 41.6366 31.7455 42.9524C30.359 43.8262 28.8146 44.4172 27.2006 44.6916C25.5866 44.966 23.9345 44.9185 22.3388 44.5517C20.7431 44.1849 19.235 43.506 17.9006 42.5539C16.5661 41.6017 15.4316 40.395 14.5616 39.0025Z" fill="#F3AEB6"/>
    <path d="M24.1221 55.5846C24.0495 55.579 23.9805 55.5506 23.9247 55.5036C23.869 55.4565 23.8294 55.3931 23.8114 55.3222L22.5167 50.4125C21.5411 50.2609 20.5774 50.0398 19.6331 49.7507L16.3376 53.6061C16.2854 53.6672 16.2141 53.7086 16.1354 53.7237C16.0567 53.7387 15.9753 53.7264 15.9044 53.6888L11.6273 51.4124C11.5563 51.3749 11.5003 51.314 11.4686 51.2401C11.4369 51.1661 11.4315 51.0834 11.4531 51.0059L12.776 46.1127C12.0046 45.4903 11.28 44.8116 10.608 44.0822L5.83889 45.7676C5.76224 45.7957 5.67829 45.7965 5.60113 45.7698C5.52398 45.7431 5.45831 45.6906 5.41517 45.621L2.84935 41.5032C2.80674 41.4352 2.78842 41.3546 2.7974 41.2747C2.80638 41.1948 2.84213 41.1203 2.89879 41.0635L6.48622 37.4871C6.12536 36.5642 5.8319 35.6161 5.6082 34.6504L0.646047 33.7096C0.567123 33.6948 0.495543 33.6535 0.442967 33.5925C0.390391 33.5316 0.359917 33.4545 0.35651 33.374L0.179962 28.5139C0.176802 28.4338 0.200976 28.3549 0.248488 28.2905C0.296 28.226 0.364004 28.1797 0.441252 28.1593L5.33043 26.8592C5.48246 25.8795 5.7035 24.9118 5.99189 23.9635L2.15258 20.6541C2.09175 20.6018 2.05045 20.5302 2.03548 20.4512C2.02051 20.3721 2.03275 20.2903 2.07019 20.2192L4.3347 15.9217C4.37275 15.8511 4.43341 15.7954 4.50689 15.7636C4.58036 15.7319 4.66234 15.726 4.73959 15.7468L9.61229 17.0753C10.2331 16.2993 10.9089 15.5694 11.6343 14.8911L9.95597 10.1114C9.92916 10.0351 9.92901 9.95181 9.95553 9.87535C9.98205 9.7989 10.0337 9.73376 10.1019 9.69065L14.2025 7.10933C14.2703 7.06654 14.3505 7.04814 14.4301 7.05716C14.5096 7.06618 14.5838 7.10208 14.6403 7.15897L18.2042 10.7615C19.1232 10.3988 20.0673 10.1041 21.029 9.87976L21.9706 4.89678C21.9854 4.81752 22.0265 4.74564 22.0872 4.69285C22.1479 4.64005 22.2246 4.60945 22.3048 4.60603L27.1422 4.42874C27.2227 4.42558 27.3017 4.45011 27.3664 4.49825C27.431 4.5464 27.4774 4.61529 27.4977 4.69349L28.79 9.60082C29.7664 9.75348 30.7308 9.97545 31.676 10.2651L34.9715 6.40964C35.0236 6.34855 35.0949 6.30708 35.1736 6.29204C35.2523 6.27701 35.3338 6.2893 35.4046 6.3269L39.6841 8.60328C39.755 8.64037 39.8112 8.70066 39.8433 8.77417C39.8754 8.84768 39.8815 8.93 39.8607 9.0075L38.5378 13.9006C39.3081 14.5243 40.0326 15.2029 40.7058 15.9312L45.4749 14.2458C45.5507 14.2199 45.6329 14.2203 45.7084 14.2468C45.7839 14.2734 45.8484 14.3246 45.8915 14.3923L48.4644 18.5101C48.5069 18.5788 48.5249 18.66 48.5155 18.7403C48.5061 18.8206 48.4698 18.8953 48.4126 18.9522L44.8181 22.5287C45.1775 23.4521 45.471 24.4 45.6962 25.3653L50.6583 26.3108C50.7372 26.3254 50.8087 26.3666 50.861 26.4277C50.9132 26.4888 50.943 26.566 50.9455 26.6465L51.1244 31.5042C51.1271 31.5848 51.1025 31.664 51.0546 31.7289C51.0068 31.7937 50.9384 31.8403 50.8608 31.8611L45.9716 33.1589C45.8203 34.1393 45.6001 35.1078 45.3125 36.0569L49.1518 39.3663C49.2123 39.4189 49.2533 39.4905 49.2682 39.5694C49.2832 39.6483 49.2712 39.73 49.2342 39.8013L46.9673 44.0987C46.9296 44.1698 46.8691 44.226 46.7956 44.2582C46.7221 44.2904 46.6399 44.2966 46.5624 44.276L41.6897 42.9475C41.0693 43.7216 40.3935 44.4492 39.6677 45.1246L41.346 49.9138C41.3729 49.9895 41.3733 50.0722 41.3472 50.1482C41.3211 50.2243 41.2701 50.2891 41.2024 50.3322L37.0995 52.9064C37.0315 52.9489 36.9511 52.9669 36.8715 52.9574C36.7919 52.948 36.7179 52.9117 36.6617 52.8544L33.1001 49.2543C32.1804 49.6145 31.2364 49.9091 30.2754 50.136L29.3338 55.1189C29.3193 55.1981 29.2782 55.27 29.2174 55.3224C29.1566 55.3749 29.0797 55.4049 28.9995 55.4073L24.1598 55.587L24.1221 55.5846ZM19.5389 48.9895C19.5645 48.9917 19.5897 48.9965 19.6143 49.0037C20.6676 49.3406 21.7471 49.5889 22.8415 49.7459C22.9103 49.7557 22.9746 49.7855 23.0265 49.8318C23.0784 49.878 23.1156 49.9386 23.1334 50.006L24.414 54.866L28.6888 54.71L29.6092 49.7743C29.6219 49.7059 29.6543 49.6428 29.7024 49.5928C29.7505 49.5428 29.8123 49.5081 29.8799 49.493C30.961 49.2554 32.0201 48.9265 33.046 48.5096C33.1106 48.4838 33.1812 48.4774 33.2494 48.4913C33.3175 48.5051 33.3802 48.5386 33.4297 48.5877L36.9606 52.1547L40.5881 49.8759L38.9262 45.1341C38.9022 45.0685 38.8984 44.9971 38.9152 44.9293C38.9319 44.8615 38.9686 44.8002 39.0203 44.7535C39.8403 44.0078 40.5962 43.1942 41.2801 42.3211C41.3229 42.2658 41.3812 42.2246 41.4474 42.2027C41.5137 42.1808 41.5849 42.1792 41.6521 42.1982L46.4753 43.5125L48.4762 39.7162L44.6745 36.4422C44.6224 36.3967 44.5846 36.3369 44.5658 36.2702C44.547 36.2034 44.548 36.1326 44.5686 36.0664C44.9042 35.0086 45.1514 33.9246 45.3078 32.8256C45.3177 32.7567 45.3476 32.6922 45.3936 32.6401C45.4396 32.5881 45.4998 32.5506 45.5667 32.5324L50.4064 31.2465L50.2511 26.9467L45.336 26.0224C45.2698 26.0105 45.2084 25.9799 45.1588 25.9343C45.1092 25.8887 45.0735 25.8299 45.0559 25.7648C44.8196 24.6798 44.492 23.617 44.0766 22.5878C44.0503 22.523 44.0436 22.4519 44.0574 22.3833C44.0713 22.3147 44.105 22.2518 44.1543 22.2025L47.7064 18.6567L45.4325 15.0093L40.7105 16.6782C40.6448 16.7013 40.5738 16.7044 40.5064 16.6872C40.439 16.67 40.3781 16.6331 40.3315 16.5812C39.5853 15.7581 38.7719 14.9991 37.8998 14.312C37.845 14.2694 37.804 14.2113 37.7822 14.1452C37.7604 14.0791 37.7587 14.0079 37.7774 13.9408L39.0862 9.09732L35.3105 7.09042L32.055 10.9033C32.0101 10.9563 31.9507 10.9949 31.8841 11.0142C31.8176 11.0335 31.7468 11.0328 31.6807 11.012C30.6273 10.6751 29.5478 10.4268 28.4534 10.2698C28.3846 10.2593 28.3204 10.2289 28.2685 10.1823C28.2167 10.1357 28.1795 10.0749 28.1615 10.0074L26.8809 5.14735L22.5991 5.30572L21.6881 10.2391C21.6758 10.3068 21.6441 10.3695 21.5968 10.4195C21.5496 10.4694 21.4889 10.5045 21.4221 10.5204C20.3413 10.7602 19.2823 11.0899 18.256 11.5061C18.1916 11.5314 18.1212 11.5373 18.0534 11.523C17.9857 11.5088 17.9236 11.4749 17.8747 11.4257L14.3437 7.86103L10.7163 10.1421L12.3782 14.8911C12.4012 14.957 12.4044 15.0283 12.3872 15.096C12.37 15.1637 12.3333 15.2248 12.2817 15.2717C11.4623 16.0187 10.7064 16.8331 10.0219 17.7064C9.97783 17.7593 9.91957 17.7983 9.85404 17.8189C9.78851 17.8394 9.71848 17.8406 9.6523 17.8223L4.82668 16.508L2.82582 20.3043L6.62746 23.5758C6.68044 23.6213 6.71895 23.6814 6.7382 23.7486C6.75745 23.8159 6.7566 23.8873 6.73574 23.9541C6.40095 25.008 6.15372 26.0881 5.9966 27.1831C5.98673 27.2524 5.95665 27.3172 5.91015 27.3694C5.86365 27.4215 5.80282 27.4587 5.73531 27.4762L0.895567 28.7716L1.05328 33.0643L5.966 33.9886C6.03435 34.0007 6.09752 34.0331 6.14743 34.0815C6.19734 34.1299 6.23171 34.1922 6.24612 34.2604C6.48425 35.3459 6.8126 36.4094 7.22772 37.4398C7.25316 37.5049 7.25913 37.576 7.24492 37.6444C7.2307 37.7129 7.19691 37.7756 7.14769 37.8251L3.59791 41.3661L5.86949 45.0041L10.5939 43.3352C10.6596 43.3124 10.7305 43.3094 10.7978 43.3266C10.8652 43.3438 10.9261 43.3805 10.9729 43.4321C11.7168 44.255 12.5278 45.014 13.3975 45.7014C13.452 45.7448 13.4927 45.8033 13.5145 45.8697C13.5362 45.9361 13.5381 46.0074 13.5199 46.0749L12.2111 50.9184L15.9915 52.9277L19.2494 49.1101C19.2849 49.0686 19.3296 49.0362 19.3799 49.0152C19.4302 48.9943 19.4847 48.9855 19.5389 48.9895ZM24.5482 42.8435C23.9568 42.7854 23.3701 42.6867 22.7921 42.548C21.1482 42.1774 19.5941 41.4822 18.2201 40.503C16.8461 39.5238 15.6797 38.28 14.7886 36.8441C13.2555 34.3877 12.5936 31.4834 12.9101 28.6019C13.2266 25.7204 14.5031 23.0308 16.5325 20.9691C18.5619 18.9074 21.2253 17.5944 24.0909 17.2432C26.9564 16.8919 29.8561 17.5229 32.3198 19.0338C34.7836 20.5447 36.6668 22.847 37.6643 25.5674C38.6619 28.2878 38.7151 31.2668 37.8154 34.0213C36.9158 36.7759 35.116 39.1446 32.7079 40.7433C30.2997 42.3421 27.4244 43.0771 24.5482 42.8293V42.8435ZM15.3936 36.4706C16.6665 38.5084 18.5125 40.1214 20.6983 41.1056C22.884 42.0898 25.3113 42.401 27.6732 41.9998C30.0351 41.5986 32.2255 40.5032 33.9674 38.8519C35.7092 37.2006 36.9243 35.0677 37.459 32.7229C37.9937 30.3781 37.824 27.9267 36.9713 25.6788C36.1185 23.4309 34.6212 21.4874 32.6685 20.0941C30.7158 18.7008 28.3955 17.9202 26.001 17.8512C23.6066 17.7822 21.2455 18.4277 19.2164 19.7062C17.8612 20.5476 16.6859 21.6508 15.7587 22.952C14.8315 24.2532 14.1709 25.7263 13.8152 27.2859C13.4596 28.8456 13.416 30.4606 13.6869 32.0373C13.9579 33.6139 14.538 35.1209 15.3936 36.4706Z" fill="#434343"/>
    <path d="M66.0251 23.8548L67.8589 22.6918L67.0726 20.4556C67.4455 20.1161 67.7896 19.7461 68.1013 19.3493L70.3847 19.9757L71.3969 18.0563L69.6031 16.5127C69.7555 16.0321 69.8674 15.5395 69.9374 15.04L72.2231 14.4349L72.1431 12.2649L69.8174 11.8181C69.7092 11.3251 69.5604 10.842 69.3725 10.3738L71.0461 8.70256L69.8974 6.86113L67.6705 7.64829C67.3319 7.27522 66.9634 6.93053 66.5689 6.61765L67.1856 4.33182L65.2742 3.31537L63.7371 5.11662C63.2583 4.9639 62.7678 4.85084 62.2706 4.77859L61.675 2.49512L59.5141 2.57549L59.0809 4.90387C58.589 5.01168 58.1071 5.16114 57.6403 5.35064L55.9761 3.66758L54.1423 4.8235L54.9262 7.05969C54.5535 7.39857 54.2101 7.76866 53.8999 8.16597L51.6236 7.54664L50.6114 9.46608L52.4051 11.0097C52.2519 11.4902 52.1393 11.9828 52.0685 12.4823L49.7852 13.0875L49.8652 15.2575L52.1838 15.6948C52.2909 16.1881 52.4397 16.6713 52.6287 17.1391L50.9527 18.8127L52.1015 20.6518L54.3236 19.8552C54.6623 20.2282 55.0307 20.5729 55.4252 20.8858L54.8085 23.1716L56.7176 24.1881L58.2571 22.3868C58.7358 22.5398 59.2263 22.6529 59.7236 22.7249L60.3262 25.0178L62.4871 24.9374L62.9226 22.609C63.4137 22.5012 63.8949 22.3518 64.3609 22.1623L66.0251 23.8548ZM56.2821 16.7325C55.6967 15.796 55.401 14.7062 55.4324 13.6009C55.4638 12.4956 55.8209 11.4245 56.4586 10.523C57.0962 9.62153 57.9858 8.93019 59.0147 8.53641C60.0436 8.14263 61.1657 8.0641 62.2391 8.31076C63.3125 8.55741 64.2889 9.11817 65.0449 9.92212C65.8009 10.7261 66.3025 11.7371 66.4863 12.8273C66.6701 13.9176 66.5278 15.038 66.0774 16.047C65.627 17.0561 64.8887 17.9083 63.956 18.496C62.7055 19.2838 61.1945 19.5407 59.7554 19.21C58.3163 18.8793 57.0669 17.9881 56.2821 16.7325Z" fill="white"/>
    <path d="M66.2627 22.8124L68.094 21.6588L67.3102 19.4203C67.6836 19.0814 68.0277 18.7113 68.3389 18.314L70.6198 18.9357L71.632 17.0162L69.8383 15.4727C69.9894 14.9917 70.1012 14.4992 70.1726 14L72.4583 13.3925L72.3782 11.2225L70.0596 10.7875C69.9512 10.2938 69.8024 9.80997 69.6147 9.34085L71.2884 7.66962L70.1396 5.83055L67.9081 6.61771C67.5701 6.24399 67.2015 5.89925 66.8064 5.58707L67.4232 3.30833L65.5117 2.28479L63.9746 4.08367C63.4957 3.93169 63.0053 3.81942 62.5081 3.748L61.9102 1.45508L59.7493 1.53308L59.3208 3.86147C58.8289 3.97009 58.3469 4.12034 57.8802 4.3106L56.216 2.62754L54.3775 3.7811L55.1614 6.01965C54.7906 6.35828 54.4495 6.72841 54.1421 7.12593L51.8658 6.50424L50.8466 8.42368L52.6403 9.96727C52.4874 10.4479 52.3748 10.9405 52.3037 11.4399L50.0156 12.0545L50.0957 14.2245L52.4143 14.6548C52.5217 15.1487 52.6705 15.6327 52.8592 16.1014L51.1832 17.7727L52.3319 19.6188L54.5611 18.8317C54.8983 19.204 55.2669 19.5465 55.6628 19.8552L55.0437 22.1434L56.9669 23.1646L58.504 21.3633C58.9833 21.5172 59.4747 21.6303 59.9729 21.7014L60.5755 23.9943L62.7364 23.9163L63.1719 21.5879C63.6631 21.4793 64.1443 21.329 64.6102 21.1388L66.2627 22.8124ZM56.5196 15.6901C55.9353 14.7537 55.6406 13.6644 55.6727 12.5598C55.7048 11.4553 56.0623 10.385 56.7001 9.48448C57.3378 8.58392 58.2271 7.89345 59.2555 7.50035C60.284 7.10724 61.4054 7.02917 62.478 7.27598C63.5506 7.52279 64.5263 8.08342 65.2817 8.88698C66.0371 9.69055 66.5382 10.701 66.7219 11.7905C66.9055 12.8801 66.7633 13.9998 66.3132 15.0082C65.8632 16.0167 65.1256 16.8684 64.1935 17.4559C63.5743 17.8462 62.8845 18.1102 62.1636 18.2327C61.4427 18.3552 60.7049 18.3339 59.9922 18.1699C59.2795 18.0059 58.606 17.7025 58.0102 17.277C57.4143 16.8515 56.9078 16.3123 56.5196 15.6901Z" fill="#F9D566"/>
    <path d="M60.5318 24.3465C60.4596 24.3395 60.3912 24.3107 60.3358 24.2638C60.2803 24.217 60.2403 24.1543 60.221 24.0841L59.6773 22.0134C59.3176 21.955 58.9616 21.8761 58.6109 21.777L57.2221 23.4009C57.17 23.462 57.0987 23.5035 57.02 23.5185C56.9413 23.5336 56.8598 23.5213 56.789 23.4837L54.8776 22.4554C54.8066 22.4178 54.7506 22.357 54.7189 22.283C54.6872 22.209 54.6817 22.1264 54.7034 22.0488L55.2589 19.9875C54.978 19.7525 54.7108 19.5016 54.4585 19.2358L52.4483 19.945C52.3725 19.9709 52.2903 19.9705 52.2147 19.9439C52.1392 19.9174 52.0747 19.8661 52.0316 19.7984L50.8829 17.9641C50.8407 17.8959 50.8226 17.8154 50.8316 17.7356C50.8405 17.6559 50.876 17.5814 50.9323 17.5244L52.4436 16.0163C52.3151 15.6725 52.2074 15.3212 52.1211 14.9644L50.0284 14.5696C49.9495 14.556 49.8778 14.5153 49.8254 14.4545C49.7731 14.3938 49.7433 14.3167 49.7412 14.2363L49.6682 12.0545C49.6651 11.9737 49.6895 11.8943 49.7375 11.8294C49.7854 11.7645 49.854 11.718 49.9319 11.6976L51.9916 11.1491C52.0491 10.7879 52.1277 10.4303 52.227 10.0783L50.6098 8.69311C50.549 8.64075 50.5077 8.56918 50.4927 8.49014C50.4777 8.4111 50.49 8.32929 50.5274 8.25816L51.5396 6.33872C51.5773 6.26764 51.6378 6.21145 51.7113 6.17926C51.7848 6.14708 51.867 6.14079 51.9445 6.16144L53.9972 6.72167C54.2312 6.43963 54.4811 6.17128 54.7457 5.91796L54.0395 3.89924C54.0122 3.82352 54.0116 3.7407 54.0377 3.66457C54.0639 3.58843 54.1152 3.52359 54.1831 3.48084L56.0239 2.32729C56.0919 2.28388 56.1727 2.26514 56.2527 2.27417C56.3328 2.2832 56.4074 2.31946 56.4641 2.37693L57.966 3.89451C58.3077 3.76546 58.6567 3.65654 59.0111 3.5683L59.4042 1.46921C59.4183 1.39153 59.458 1.32087 59.517 1.26857C59.5759 1.21627 59.6506 1.18537 59.7291 1.18082L61.89 1.10045C61.9699 1.09684 62.0486 1.12094 62.1129 1.16872C62.1772 1.2165 62.2232 1.28505 62.2431 1.36284L62.7892 3.43356C63.1487 3.49246 63.5047 3.57137 63.8556 3.66995L65.242 2.04599C65.2951 1.98606 65.3668 1.94596 65.4454 1.93222C65.5241 1.91848 65.6051 1.93192 65.6752 1.97035L67.5866 2.9868C67.6574 3.02464 67.7133 3.0854 67.7454 3.15921C67.7774 3.23302 67.7837 3.31555 67.7631 3.39338L67.2052 5.45465C67.4861 5.68966 67.7533 5.94064 68.0056 6.20635L70.0159 5.4972C70.0916 5.47088 70.174 5.47104 70.2496 5.49765C70.3252 5.52425 70.3897 5.57574 70.4325 5.64375L71.5813 7.48282C71.6247 7.55061 71.6436 7.63139 71.6345 7.71151C71.6255 7.79162 71.5893 7.86616 71.5318 7.9225L70.0206 9.43063C70.1488 9.77475 70.2572 10.126 70.3454 10.4825L72.4357 10.8726C72.5168 10.885 72.5911 10.9252 72.646 10.9864C72.701 11.0476 72.7331 11.126 72.7371 11.2082L72.8147 13.3782C72.8184 13.4588 72.7945 13.5382 72.747 13.6031C72.6994 13.6681 72.6311 13.7147 72.5534 13.7352L70.4914 14.2836C70.4339 14.6449 70.3553 15.0024 70.256 15.3544L71.8731 16.7467C71.934 16.7991 71.9753 16.8706 71.9903 16.9497C72.0052 17.0287 71.993 17.1105 71.9555 17.1817L70.9433 19.1011C70.906 19.1725 70.8455 19.2289 70.7719 19.2612C70.6983 19.2934 70.616 19.2995 70.5385 19.2784L68.4858 18.7182C68.2524 19.0008 68.0025 19.2692 67.7372 19.5219L68.4434 21.5406C68.4701 21.6166 68.4701 21.6995 68.4436 21.7755C68.4171 21.8516 68.3655 21.9163 68.2975 21.959L66.4661 23.1125C66.3983 23.1553 66.3181 23.1737 66.2385 23.1647C66.159 23.1557 66.0848 23.1198 66.0283 23.0629L64.5264 21.5453C64.1838 21.674 63.834 21.783 63.4789 21.8715L63.0882 23.9706C63.0737 24.0498 63.0326 24.1216 62.9718 24.1741C62.911 24.2266 62.8341 24.2565 62.7539 24.259L60.593 24.3394L60.5318 24.3465ZM58.5238 21.0087C58.5495 21.0111 58.5748 21.0166 58.5992 21.0253C59.0603 21.172 59.5327 21.2803 60.0115 21.3491C60.0803 21.3589 60.1446 21.3887 60.1965 21.435C60.2484 21.4812 60.2856 21.5418 60.3034 21.6091L60.8354 23.6279L62.4314 23.5688L62.8104 21.5099C62.8241 21.4414 62.8575 21.3785 62.9065 21.3289C62.9554 21.2793 63.0178 21.2453 63.0858 21.2309C63.5569 21.1267 64.0183 20.9828 64.4652 20.8007C64.5296 20.7751 64.6001 20.769 64.6679 20.7833C64.7358 20.7976 64.7979 20.8316 64.8466 20.8811L66.3131 22.3608L67.6666 21.5099L66.9769 19.5384C66.9539 19.4727 66.9506 19.4016 66.9673 19.334C66.984 19.2663 67.0201 19.2051 67.0711 19.1578C67.4294 18.8322 67.7601 18.4772 68.0597 18.0965C68.101 18.0397 68.1583 17.9967 68.2242 17.9731C68.2901 17.9495 68.3616 17.9463 68.4293 17.9641L70.4325 18.5101L71.1811 17.0918L69.6016 15.7326C69.549 15.6869 69.511 15.6267 69.4921 15.5595C69.4733 15.4922 69.4745 15.4209 69.4957 15.3544C69.642 14.8914 69.7499 14.417 69.8181 13.9361C69.828 13.8674 69.8578 13.8032 69.9039 13.7515C69.9499 13.6997 70.0102 13.6628 70.0771 13.6454L72.0874 13.1111L72.0309 11.5179L69.99 11.135C69.9228 11.1231 69.8604 11.092 69.8103 11.0455C69.7602 10.9989 69.7245 10.9389 69.7075 10.8726C69.6042 10.3979 69.4609 9.93291 69.2791 9.48263C69.2535 9.41796 69.2475 9.34717 69.2617 9.27907C69.276 9.21098 69.3098 9.14859 69.3591 9.09969L70.8327 7.62702L69.9853 6.26781L68.0291 6.95096C67.964 6.97387 67.8937 6.97713 67.8267 6.96033C67.7598 6.94352 67.6992 6.90739 67.6525 6.85641C67.328 6.49666 66.9737 6.16532 66.5932 5.86596C66.5389 5.82238 66.4984 5.76385 66.4766 5.69752C66.4549 5.63119 66.4529 5.55993 66.4708 5.49247L67.0146 3.48084L65.6022 2.72914L64.2487 4.31528C64.2035 4.36857 64.1436 4.40715 64.0765 4.4261C64.0094 4.44504 63.9382 4.44349 63.872 4.42165C63.4109 4.27477 62.9385 4.16646 62.4597 4.0978C62.3908 4.08836 62.3264 4.05861 62.2744 4.01231C62.2224 3.96602 62.1853 3.90528 62.1678 3.83778L61.6334 1.81906L60.0374 1.88998L59.6537 3.93943C59.6411 4.00781 59.6086 4.07094 59.5605 4.12095C59.5124 4.17097 59.4507 4.20567 59.383 4.22072C58.9104 4.32478 58.4474 4.4687 57.9989 4.65094C57.9345 4.67659 57.864 4.68265 57.7962 4.66836C57.7284 4.65407 57.6663 4.62006 57.6176 4.57057L56.151 3.0719L54.7975 3.92288L55.4896 5.90851C55.5128 5.97404 55.5159 6.04502 55.4988 6.11239C55.4816 6.17976 55.4448 6.24045 55.3931 6.28672C55.0348 6.61254 54.7049 6.9684 54.4068 7.35045C54.364 7.40575 54.3057 7.44698 54.2395 7.46888C54.1732 7.49077 54.102 7.49234 54.0348 7.47337L52.0222 6.92023L51.276 8.33853L52.8531 9.69774C52.9061 9.74319 52.9446 9.80327 52.9639 9.87051C52.9831 9.93775 52.9823 10.0092 52.9614 10.076C52.8139 10.5386 52.706 11.0131 52.6389 11.4943C52.6286 11.5631 52.5984 11.6274 52.5519 11.6792C52.5054 11.7309 52.4448 11.7677 52.3776 11.785L50.3744 12.3169L50.4333 13.9219L52.4742 14.3049C52.5421 14.3179 52.6048 14.3505 52.6546 14.3988C52.7044 14.4471 52.739 14.5089 52.7543 14.5767C52.8579 15.0513 53.0012 15.5163 53.1827 15.9667C53.2085 16.0311 53.215 16.1018 53.2011 16.1698C53.1873 16.2379 53.1539 16.3004 53.105 16.3496L51.6291 17.8223L52.493 19.1815L54.4538 18.4865C54.5196 18.4646 54.5903 18.4621 54.6575 18.4792C54.7246 18.4964 54.7855 18.5326 54.8328 18.5834C55.157 18.9426 55.5106 19.2739 55.8898 19.5739C55.9445 19.6172 55.9855 19.6756 56.0077 19.7419C56.0298 19.8083 56.0322 19.8797 56.0145 19.9474L55.459 21.959L56.8714 22.7107L58.2272 21.1246C58.2636 21.0821 58.3094 21.0489 58.3609 21.0276C58.4125 21.0062 58.4683 20.9973 58.5238 21.0016V21.0087ZM60.7248 18.6449C60.4507 18.6208 60.1786 18.5782 59.9103 18.5172C59.1518 18.3448 58.4349 18.023 57.8009 17.5706C57.167 17.1182 56.6286 16.5442 56.217 15.8816C55.5066 14.7468 55.1988 13.4044 55.3434 12.072C55.4879 10.7396 56.0765 9.49527 57.0135 8.54081C57.9505 7.58635 59.1812 6.97772 60.5058 6.81359C61.8305 6.64947 63.1715 6.93947 64.3115 7.63659C65.4515 8.33371 66.3235 9.39706 66.7863 10.6542C67.249 11.9114 67.2753 13.2887 66.861 14.5628C66.4466 15.8368 65.6158 16.933 64.5033 17.6735C63.3908 18.414 62.0618 18.7555 60.7319 18.6425L60.7248 18.6449ZM56.8172 15.5057C57.4585 16.5317 58.4341 17.3026 59.5779 17.6872C60.7217 18.0719 61.963 18.0463 63.0901 17.615C64.2173 17.1837 65.1607 16.3732 65.7595 15.3217C66.3584 14.2703 66.5757 13.0428 66.3744 11.8485C66.1731 10.6542 65.5656 9.5669 64.6556 8.7719C63.7455 7.97689 62.589 7.52335 61.3833 7.48854C60.1776 7.45374 58.9971 7.83981 58.043 8.581C57.089 9.32219 56.4203 10.3726 56.151 11.5534C55.9962 12.2236 55.9753 12.9181 56.0897 13.5966C56.204 14.275 56.4513 14.9239 56.8172 15.5057Z" fill="#434343"/>
</svg>
