<svg width="53" height="69" viewBox="0 0 53 69" fill="none" xmlns="http://www.w3.org/2000/svg">
<path opacity="0.5" fill-rule="evenodd" clip-rule="evenodd" d="M3.18521 49.1698C3.5391 49.5183 3.94636 49.6927 4.40644 49.6927C4.86652 49.6927 5.27378 49.5183 5.62767 49.1698L26.4937 28.6122L47.3604 49.1698C47.7141 49.5183 48.1216 49.6927 48.5809 49.6927C49.0417 49.6927 49.449 49.5183 49.8027 49.1698L52.4572 46.554C52.8109 46.2056 52.9866 45.8042 52.9866 45.3516C52.9866 44.8982 52.8098 44.4969 52.4572 44.1485L27.714 19.7727C27.3605 19.4235 26.9538 19.25 26.4937 19.25C26.0336 19.25 25.6262 19.4241 25.2724 19.7727L0.531116 44.1483C0.176667 44.4969 0 44.8976 0 45.352C0 45.8042 0.177225 46.2054 0.531116 46.554L3.18521 49.1698Z" fill="#101010"/>
<path fill-rule="evenodd" clip-rule="evenodd" d="M3.18521 29.9198C3.5391 30.2683 3.94636 30.4427 4.40644 30.4427C4.86652 30.4427 5.27378 30.2683 5.62767 29.9198L26.4937 9.36218L47.3604 29.9198C47.7141 30.2683 48.1216 30.4427 48.5809 30.4427C49.0417 30.4427 49.449 30.2683 49.8027 29.9198L52.4572 27.304C52.8109 26.9556 52.9866 26.5542 52.9866 26.1016C52.9866 25.6482 52.8098 25.2469 52.4572 24.8985L27.714 0.522707C27.3605 0.173503 26.9538 0 26.4937 0C26.0336 0 25.6262 0.174052 25.2724 0.522707L0.531116 24.8983C0.176667 25.2469 0 25.6476 0 26.102C0 26.5542 0.177225 26.9554 0.531116 27.304L3.18521 29.9198Z" fill="#4C4C4C"/>
<path opacity="0.25" fill-rule="evenodd" clip-rule="evenodd" d="M27.714 38.8409C27.3605 38.4917 26.9538 38.3177 26.4937 38.3177C26.0336 38.3177 25.6262 38.4923 25.2724 38.8409L0.531116 63.2165C0.176667 63.5652 0 63.9662 0 64.4202C0 64.8731 0.177225 65.2742 0.531116 65.6228L3.18521 68.2384C3.5391 68.587 3.94636 68.7602 4.40644 68.7602C4.86652 68.7602 5.27378 68.5859 5.62767 68.2384L26.4937 47.6802L47.3604 68.2384C47.7141 68.587 48.1216 68.7609 48.5809 68.7609C49.0417 68.7609 49.449 68.5872 49.8027 68.2384L52.4572 65.6228C52.8109 65.2742 52.9866 64.8729 52.9866 64.4202C52.9866 63.9662 52.8098 63.5652 52.4572 63.2165L27.714 38.8409Z" fill="#101010"/>
</svg>
