<svg width="31" height="34" viewBox="0 0 31 34" fill="none" xmlns="http://www.w3.org/2000/svg">
<mask id="path-1-outside-1_923_3" maskUnits="userSpaceOnUse" x="0" y="0.105469" width="31" height="34" fill="black">
<rect fill="white" y="0.105469" width="31" height="34"/>
<path d="M29.364 24.3096H27.3749C27.0236 24.3096 26.204 24.1038 26.204 22.1984V9.00166C26.204 7.09534 27.0236 6.88947 27.3749 6.88947H29.364C29.7163 6.88947 30.5349 7.09534 30.5349 9.00166V22.1984C30.5349 24.1038 29.7163 24.3096 29.364 24.3096ZM27.8273 22.726H28.9116C28.9389 22.5515 28.9521 22.3751 28.9512 22.1984V9.00166C28.9521 8.82471 28.9388 8.64797 28.9116 8.47312H27.8273C27.8001 8.64797 27.7868 8.82471 27.7877 9.00166V22.1984C27.7868 22.3751 27.8 22.5515 27.8273 22.726Z"/>
<path d="M10.465 23.9137C10.2699 23.9128 10.0819 23.8399 9.93726 23.7089C9.79259 23.5779 9.70138 23.3981 9.68114 23.204C9.66089 23.0099 9.71304 22.8152 9.82757 22.6572C9.9421 22.4992 10.1109 22.389 10.3017 22.3479L13.9075 21.5837C13.4641 20.7266 13.3651 20.3525 13.466 20.0001C13.6046 19.5161 14.0005 19.3171 14.4202 19.1093C14.631 19.0034 14.8933 18.8708 15.2348 18.6688C15.3466 18.6025 15.5377 18.4709 15.5723 18.3264C15.598 18.2155 15.5456 18.0473 15.4268 17.8641C15.3595 17.7602 15.1883 17.5217 14.9893 17.2445C13.3334 14.9403 12.3634 13.4368 12.306 12.5757C12.2862 12.2788 12.3535 11.9561 12.4377 11.5483C12.6099 10.7239 12.8682 9.47871 12.5129 7.80202C12.0529 5.82146 11.1421 3.97376 9.85135 2.40275C9.78479 2.32249 9.73474 2.22987 9.70407 2.13021C9.6734 2.03055 9.66271 1.92581 9.67262 1.82201C9.68254 1.71821 9.71285 1.61739 9.76184 1.52534C9.81082 1.43329 9.8775 1.35182 9.95805 1.2856C10.0386 1.21939 10.1314 1.16974 10.2312 1.1395C10.331 1.10926 10.4358 1.09903 10.5396 1.10939C10.6433 1.11975 10.744 1.15051 10.8358 1.19988C10.9277 1.24926 11.0089 1.3163 11.0747 1.39713C13.1998 3.98047 13.8976 6.69544 14.0609 7.46549C14.4855 9.46782 14.1737 10.9673 13.9877 11.8631C13.9409 12.0605 13.9078 12.2609 13.8887 12.4629C13.9372 12.8766 14.7409 14.1732 16.278 16.3132C16.5067 16.6309 16.6739 16.8605 16.759 16.9961C17.1203 17.5543 17.244 18.1373 17.1164 18.6787C17.0283 19.0539 16.7709 19.5913 16.0454 20.0209C15.6634 20.2475 15.3654 20.398 15.1457 20.5088C15.2081 20.6415 15.2991 20.8226 15.4308 21.0691C15.5404 21.2738 15.5972 21.5028 15.5958 21.735C15.5945 21.9673 15.5351 22.1956 15.4231 22.3991C15.311 22.6026 15.1499 22.7748 14.9544 22.9002C14.7588 23.0256 14.5351 23.1001 14.3034 23.1169L10.6333 23.8949C10.578 23.9072 10.5216 23.9135 10.465 23.9137Z"/>
<path d="M2.8278 33.0002C2.7651 32.9999 2.70265 32.9923 2.64172 32.9775C2.54059 32.9532 2.44523 32.9092 2.36109 32.8481C2.27696 32.7869 2.20569 32.7098 2.15137 32.6211C2.09705 32.5324 2.06074 32.4339 2.0445 32.3311C2.02827 32.2284 2.03243 32.1235 2.05676 32.0223C2.05676 32.0223 2.38979 30.9392 2.82629 30.3067C3.26278 29.6742 4.34066 28.2044 5.16712 27.8619C5.36125 27.7816 5.57933 27.7817 5.7734 27.8622C5.96746 27.9426 6.12161 28.0969 6.20194 28.291C6.28227 28.4851 6.28219 28.7032 6.20172 28.8973C6.12126 29.0914 5.96699 29.2455 5.77287 29.3258C5.20276 29.598 4.05711 30.4862 3.59785 32.3935C3.55628 32.5664 3.45771 32.7203 3.31802 32.8304C3.17833 32.9404 3.00565 33.0003 2.8278 33.0002Z"/>
<path d="M9.69222 30.1682C8.34315 30.1682 6.40813 29.7475 3.69018 28.8765L3.52489 28.8221C3.29724 28.7488 2.69149 28.5568 1.14941 26.4258C1.02656 26.2552 0.976521 26.0427 1.0103 25.8352C1.04409 25.6277 1.15892 25.4421 1.32955 25.3192C1.50018 25.1964 1.71263 25.1463 1.92015 25.1801C2.12767 25.2139 2.31328 25.3287 2.43613 25.4994C3.3398 26.7524 3.86241 27.2325 4.01978 27.3186L4.16924 27.3661C8.31643 28.6954 9.90998 28.7023 10.5038 28.4746C11.4996 28.0965 11.5263 27.8194 11.554 27.5254C11.5609 27.4552 11.5679 27.3819 11.5807 27.3037C11.6936 26.601 12.0558 26.1724 12.3468 25.828C12.6527 25.4667 12.8417 25.2489 12.8417 24.7036C12.8417 24.4936 12.9251 24.2922 13.0736 24.1437C13.2221 23.9952 13.4235 23.9117 13.6335 23.9117C13.8435 23.9117 14.0449 23.9952 14.1934 24.1437C14.3419 24.2922 14.4254 24.4936 14.4254 24.7036C14.4254 25.829 13.9255 26.4199 13.5603 26.8514C13.3188 27.1374 13.1901 27.2988 13.1485 27.5541C13.1426 27.5918 13.1396 27.6323 13.1357 27.6749C13.0585 28.4816 12.7556 29.3169 11.07 29.9514C10.6275 30.1059 10.1608 30.1793 9.69222 30.1682Z"/>
<path d="M5.25574 12.6886C5.08706 12.689 4.92265 12.6356 4.78646 12.5361C4.65027 12.4366 4.54942 12.2962 4.49861 12.1353C4.44779 11.9745 4.44967 11.8016 4.50396 11.6419C4.55825 11.4822 4.66212 11.344 4.80044 11.2475C6.87898 9.79645 10.0705 10.5021 10.5565 10.5625C10.7651 10.5872 10.9553 10.6937 11.0853 10.8586C11.2153 11.0236 11.2745 11.2334 11.2499 11.4419C11.2252 11.6505 11.1187 11.8407 10.9537 11.9707C10.7888 12.1008 10.579 12.16 10.3704 12.1353C9.21536 11.9957 7.04923 11.6078 5.71005 12.5431C5.57717 12.6371 5.41853 12.688 5.25574 12.6886Z"/>
<path d="M9.67503 15.2036H7.49724C7.28723 15.2036 7.08583 15.1202 6.93733 14.9717C6.78883 14.8232 6.70541 14.6218 6.70541 14.4118C6.70541 14.2018 6.78883 14.0004 6.93733 13.8519C7.08583 13.7034 7.28723 13.62 7.49724 13.62H9.67503C9.88504 13.62 10.0864 13.7034 10.2349 13.8519C10.3834 14.0004 10.4669 14.2018 10.4669 14.4118C10.4669 14.6218 10.3834 14.8232 10.2349 14.9717C10.0864 15.1202 9.88504 15.2036 9.67503 15.2036Z"/>
<path d="M18.6947 14.0002H16.3023C16.2217 14.0002 16.1444 13.9476 16.0875 13.8538C16.0305 13.76 15.9985 13.6329 15.9985 13.5002C15.9985 13.3676 16.0305 13.2405 16.0875 13.1467C16.1444 13.0529 16.2217 13.0002 16.3023 13.0002H18.6947C18.7753 13.0002 18.8525 13.0529 18.9095 13.1467C18.9665 13.2405 18.9985 13.3676 18.9985 13.5002C18.9985 13.6329 18.9665 13.76 18.9095 13.8538C18.8525 13.9476 18.7753 14.0002 18.6947 14.0002Z"/>
<path d="M23.6947 14.0002H21.3023C21.2217 14.0002 21.1444 13.9476 21.0875 13.8538C21.0305 13.76 20.9985 13.6329 20.9985 13.5002C20.9985 13.3676 21.0305 13.2405 21.0875 13.1467C21.1444 13.0529 21.2217 13.0002 21.3023 13.0002H23.6947C23.7753 13.0002 23.8525 13.0529 23.9095 13.1467C23.9665 13.2405 23.9985 13.3676 23.9985 13.5002C23.9985 13.6329 23.9665 13.76 23.9095 13.8538C23.8525 13.9476 23.7753 14.0002 23.6947 14.0002Z"/>
</mask>
<path d="M29.364 24.3096H27.3749C27.0236 24.3096 26.204 24.1038 26.204 22.1984V9.00166C26.204 7.09534 27.0236 6.88947 27.3749 6.88947H29.364C29.7163 6.88947 30.5349 7.09534 30.5349 9.00166V22.1984C30.5349 24.1038 29.7163 24.3096 29.364 24.3096ZM27.8273 22.726H28.9116C28.9389 22.5515 28.9521 22.3751 28.9512 22.1984V9.00166C28.9521 8.82471 28.9388 8.64797 28.9116 8.47312H27.8273C27.8001 8.64797 27.7868 8.82471 27.7877 9.00166V22.1984C27.7868 22.3751 27.8 22.5515 27.8273 22.726Z" fill="#4C4C4C"/>
<path d="M10.465 23.9137C10.2699 23.9128 10.0819 23.8399 9.93726 23.7089C9.79259 23.5779 9.70138 23.3981 9.68114 23.204C9.66089 23.0099 9.71304 22.8152 9.82757 22.6572C9.9421 22.4992 10.1109 22.389 10.3017 22.3479L13.9075 21.5837C13.4641 20.7266 13.3651 20.3525 13.466 20.0001C13.6046 19.5161 14.0005 19.3171 14.4202 19.1093C14.631 19.0034 14.8933 18.8708 15.2348 18.6688C15.3466 18.6025 15.5377 18.4709 15.5723 18.3264C15.598 18.2155 15.5456 18.0473 15.4268 17.8641C15.3595 17.7602 15.1883 17.5217 14.9893 17.2445C13.3334 14.9403 12.3634 13.4368 12.306 12.5757C12.2862 12.2788 12.3535 11.9561 12.4377 11.5483C12.6099 10.7239 12.8682 9.47871 12.5129 7.80202C12.0529 5.82146 11.1421 3.97376 9.85135 2.40275C9.78479 2.32249 9.73474 2.22987 9.70407 2.13021C9.6734 2.03055 9.66271 1.92581 9.67262 1.82201C9.68254 1.71821 9.71285 1.61739 9.76184 1.52534C9.81082 1.43329 9.8775 1.35182 9.95805 1.2856C10.0386 1.21939 10.1314 1.16974 10.2312 1.1395C10.331 1.10926 10.4358 1.09903 10.5396 1.10939C10.6433 1.11975 10.744 1.15051 10.8358 1.19988C10.9277 1.24926 11.0089 1.3163 11.0747 1.39713C13.1998 3.98047 13.8976 6.69544 14.0609 7.46549C14.4855 9.46782 14.1737 10.9673 13.9877 11.8631C13.9409 12.0605 13.9078 12.2609 13.8887 12.4629C13.9372 12.8766 14.7409 14.1732 16.278 16.3132C16.5067 16.6309 16.6739 16.8605 16.759 16.9961C17.1203 17.5543 17.244 18.1373 17.1164 18.6787C17.0283 19.0539 16.7709 19.5913 16.0454 20.0209C15.6634 20.2475 15.3654 20.398 15.1457 20.5088C15.2081 20.6415 15.2991 20.8226 15.4308 21.0691C15.5404 21.2738 15.5972 21.5028 15.5958 21.735C15.5945 21.9673 15.5351 22.1956 15.4231 22.3991C15.311 22.6026 15.1499 22.7748 14.9544 22.9002C14.7588 23.0256 14.5351 23.1001 14.3034 23.1169L10.6333 23.8949C10.578 23.9072 10.5216 23.9135 10.465 23.9137Z" fill="#4C4C4C"/>
<path d="M2.8278 33.0002C2.7651 32.9999 2.70265 32.9923 2.64172 32.9775C2.54059 32.9532 2.44523 32.9092 2.36109 32.8481C2.27696 32.7869 2.20569 32.7098 2.15137 32.6211C2.09705 32.5324 2.06074 32.4339 2.0445 32.3311C2.02827 32.2284 2.03243 32.1235 2.05676 32.0223C2.05676 32.0223 2.38979 30.9392 2.82629 30.3067C3.26278 29.6742 4.34066 28.2044 5.16712 27.8619C5.36125 27.7816 5.57933 27.7817 5.7734 27.8622C5.96746 27.9426 6.12161 28.0969 6.20194 28.291C6.28227 28.4851 6.28219 28.7032 6.20172 28.8973C6.12126 29.0914 5.96699 29.2455 5.77287 29.3258C5.20276 29.598 4.05711 30.4862 3.59785 32.3935C3.55628 32.5664 3.45771 32.7203 3.31802 32.8304C3.17833 32.9404 3.00565 33.0003 2.8278 33.0002Z" fill="#4C4C4C"/>
<path d="M9.69222 30.1682C8.34315 30.1682 6.40813 29.7475 3.69018 28.8765L3.52489 28.8221C3.29724 28.7488 2.69149 28.5568 1.14941 26.4258C1.02656 26.2552 0.976521 26.0427 1.0103 25.8352C1.04409 25.6277 1.15892 25.4421 1.32955 25.3192C1.50018 25.1964 1.71263 25.1463 1.92015 25.1801C2.12767 25.2139 2.31328 25.3287 2.43613 25.4994C3.3398 26.7524 3.86241 27.2325 4.01978 27.3186L4.16924 27.3661C8.31643 28.6954 9.90998 28.7023 10.5038 28.4746C11.4996 28.0965 11.5263 27.8194 11.554 27.5254C11.5609 27.4552 11.5679 27.3819 11.5807 27.3037C11.6936 26.601 12.0558 26.1724 12.3468 25.828C12.6527 25.4667 12.8417 25.2489 12.8417 24.7036C12.8417 24.4936 12.9251 24.2922 13.0736 24.1437C13.2221 23.9952 13.4235 23.9117 13.6335 23.9117C13.8435 23.9117 14.0449 23.9952 14.1934 24.1437C14.3419 24.2922 14.4254 24.4936 14.4254 24.7036C14.4254 25.829 13.9255 26.4199 13.5603 26.8514C13.3188 27.1374 13.1901 27.2988 13.1485 27.5541C13.1426 27.5918 13.1396 27.6323 13.1357 27.6749C13.0585 28.4816 12.7556 29.3169 11.07 29.9514C10.6275 30.1059 10.1608 30.1793 9.69222 30.1682Z" fill="#4C4C4C"/>
<path d="M5.25574 12.6886C5.08706 12.689 4.92265 12.6356 4.78646 12.5361C4.65027 12.4366 4.54942 12.2962 4.49861 12.1353C4.44779 11.9745 4.44967 11.8016 4.50396 11.6419C4.55825 11.4822 4.66212 11.344 4.80044 11.2475C6.87898 9.79645 10.0705 10.5021 10.5565 10.5625C10.7651 10.5872 10.9553 10.6937 11.0853 10.8586C11.2153 11.0236 11.2745 11.2334 11.2499 11.4419C11.2252 11.6505 11.1187 11.8407 10.9537 11.9707C10.7888 12.1008 10.579 12.16 10.3704 12.1353C9.21536 11.9957 7.04923 11.6078 5.71005 12.5431C5.57717 12.6371 5.41853 12.688 5.25574 12.6886Z" fill="#4C4C4C"/>
<path d="M9.67503 15.2036H7.49724C7.28723 15.2036 7.08583 15.1202 6.93733 14.9717C6.78883 14.8232 6.70541 14.6218 6.70541 14.4118C6.70541 14.2018 6.78883 14.0004 6.93733 13.8519C7.08583 13.7034 7.28723 13.62 7.49724 13.62H9.67503C9.88504 13.62 10.0864 13.7034 10.2349 13.8519C10.3834 14.0004 10.4669 14.2018 10.4669 14.4118C10.4669 14.6218 10.3834 14.8232 10.2349 14.9717C10.0864 15.1202 9.88504 15.2036 9.67503 15.2036Z" fill="#4C4C4C"/>
<path d="M18.6947 14.0002H16.3023C16.2217 14.0002 16.1444 13.9476 16.0875 13.8538C16.0305 13.76 15.9985 13.6329 15.9985 13.5002C15.9985 13.3676 16.0305 13.2405 16.0875 13.1467C16.1444 13.0529 16.2217 13.0002 16.3023 13.0002H18.6947C18.7753 13.0002 18.8525 13.0529 18.9095 13.1467C18.9665 13.2405 18.9985 13.3676 18.9985 13.5002C18.9985 13.6329 18.9665 13.76 18.9095 13.8538C18.8525 13.9476 18.7753 14.0002 18.6947 14.0002Z" fill="#4C4C4C"/>
<path d="M23.6947 14.0002H21.3023C21.2217 14.0002 21.1444 13.9476 21.0875 13.8538C21.0305 13.76 20.9985 13.6329 20.9985 13.5002C20.9985 13.3676 21.0305 13.2405 21.0875 13.1467C21.1444 13.0529 21.2217 13.0002 21.3023 13.0002H23.6947C23.7753 13.0002 23.8525 13.0529 23.9095 13.1467C23.9665 13.2405 23.9985 13.3676 23.9985 13.5002C23.9985 13.6329 23.9665 13.76 23.9095 13.8538C23.8525 13.9476 23.7753 14.0002 23.6947 14.0002Z" fill="#4C4C4C"/>
<path d="M29.364 24.3096H27.3749C27.0236 24.3096 26.204 24.1038 26.204 22.1984V9.00166C26.204 7.09534 27.0236 6.88947 27.3749 6.88947H29.364C29.7163 6.88947 30.5349 7.09534 30.5349 9.00166V22.1984C30.5349 24.1038 29.7163 24.3096 29.364 24.3096ZM27.8273 22.726H28.9116C28.9389 22.5515 28.9521 22.3751 28.9512 22.1984V9.00166C28.9521 8.82471 28.9388 8.64797 28.9116 8.47312H27.8273C27.8001 8.64797 27.7868 8.82471 27.7877 9.00166V22.1984C27.7868 22.3751 27.8 22.5515 27.8273 22.726Z" stroke="#4C4C4C" stroke-width="0.4" mask="url(#path-1-outside-1_923_3)"/>
<path d="M10.465 23.9137C10.2699 23.9128 10.0819 23.8399 9.93726 23.7089C9.79259 23.5779 9.70138 23.3981 9.68114 23.204C9.66089 23.0099 9.71304 22.8152 9.82757 22.6572C9.9421 22.4992 10.1109 22.389 10.3017 22.3479L13.9075 21.5837C13.4641 20.7266 13.3651 20.3525 13.466 20.0001C13.6046 19.5161 14.0005 19.3171 14.4202 19.1093C14.631 19.0034 14.8933 18.8708 15.2348 18.6688C15.3466 18.6025 15.5377 18.4709 15.5723 18.3264C15.598 18.2155 15.5456 18.0473 15.4268 17.8641C15.3595 17.7602 15.1883 17.5217 14.9893 17.2445C13.3334 14.9403 12.3634 13.4368 12.306 12.5757C12.2862 12.2788 12.3535 11.9561 12.4377 11.5483C12.6099 10.7239 12.8682 9.47871 12.5129 7.80202C12.0529 5.82146 11.1421 3.97376 9.85135 2.40275C9.78479 2.32249 9.73474 2.22987 9.70407 2.13021C9.6734 2.03055 9.66271 1.92581 9.67262 1.82201C9.68254 1.71821 9.71285 1.61739 9.76184 1.52534C9.81082 1.43329 9.8775 1.35182 9.95805 1.2856C10.0386 1.21939 10.1314 1.16974 10.2312 1.1395C10.331 1.10926 10.4358 1.09903 10.5396 1.10939C10.6433 1.11975 10.744 1.15051 10.8358 1.19988C10.9277 1.24926 11.0089 1.3163 11.0747 1.39713C13.1998 3.98047 13.8976 6.69544 14.0609 7.46549C14.4855 9.46782 14.1737 10.9673 13.9877 11.8631C13.9409 12.0605 13.9078 12.2609 13.8887 12.4629C13.9372 12.8766 14.7409 14.1732 16.278 16.3132C16.5067 16.6309 16.6739 16.8605 16.759 16.9961C17.1203 17.5543 17.244 18.1373 17.1164 18.6787C17.0283 19.0539 16.7709 19.5913 16.0454 20.0209C15.6634 20.2475 15.3654 20.398 15.1457 20.5088C15.2081 20.6415 15.2991 20.8226 15.4308 21.0691C15.5404 21.2738 15.5972 21.5028 15.5958 21.735C15.5945 21.9673 15.5351 22.1956 15.4231 22.3991C15.311 22.6026 15.1499 22.7748 14.9544 22.9002C14.7588 23.0256 14.5351 23.1001 14.3034 23.1169L10.6333 23.8949C10.578 23.9072 10.5216 23.9135 10.465 23.9137Z" stroke="#4C4C4C" stroke-width="0.4" mask="url(#path-1-outside-1_923_3)"/>
<path d="M2.8278 33.0002C2.7651 32.9999 2.70265 32.9923 2.64172 32.9775C2.54059 32.9532 2.44523 32.9092 2.36109 32.8481C2.27696 32.7869 2.20569 32.7098 2.15137 32.6211C2.09705 32.5324 2.06074 32.4339 2.0445 32.3311C2.02827 32.2284 2.03243 32.1235 2.05676 32.0223C2.05676 32.0223 2.38979 30.9392 2.82629 30.3067C3.26278 29.6742 4.34066 28.2044 5.16712 27.8619C5.36125 27.7816 5.57933 27.7817 5.7734 27.8622C5.96746 27.9426 6.12161 28.0969 6.20194 28.291C6.28227 28.4851 6.28219 28.7032 6.20172 28.8973C6.12126 29.0914 5.96699 29.2455 5.77287 29.3258C5.20276 29.598 4.05711 30.4862 3.59785 32.3935C3.55628 32.5664 3.45771 32.7203 3.31802 32.8304C3.17833 32.9404 3.00565 33.0003 2.8278 33.0002Z" stroke="#4C4C4C" stroke-width="0.4" mask="url(#path-1-outside-1_923_3)"/>
<path d="M9.69222 30.1682C8.34315 30.1682 6.40813 29.7475 3.69018 28.8765L3.52489 28.8221C3.29724 28.7488 2.69149 28.5568 1.14941 26.4258C1.02656 26.2552 0.976521 26.0427 1.0103 25.8352C1.04409 25.6277 1.15892 25.4421 1.32955 25.3192C1.50018 25.1964 1.71263 25.1463 1.92015 25.1801C2.12767 25.2139 2.31328 25.3287 2.43613 25.4994C3.3398 26.7524 3.86241 27.2325 4.01978 27.3186L4.16924 27.3661C8.31643 28.6954 9.90998 28.7023 10.5038 28.4746C11.4996 28.0965 11.5263 27.8194 11.554 27.5254C11.5609 27.4552 11.5679 27.3819 11.5807 27.3037C11.6936 26.601 12.0558 26.1724 12.3468 25.828C12.6527 25.4667 12.8417 25.2489 12.8417 24.7036C12.8417 24.4936 12.9251 24.2922 13.0736 24.1437C13.2221 23.9952 13.4235 23.9117 13.6335 23.9117C13.8435 23.9117 14.0449 23.9952 14.1934 24.1437C14.3419 24.2922 14.4254 24.4936 14.4254 24.7036C14.4254 25.829 13.9255 26.4199 13.5603 26.8514C13.3188 27.1374 13.1901 27.2988 13.1485 27.5541C13.1426 27.5918 13.1396 27.6323 13.1357 27.6749C13.0585 28.4816 12.7556 29.3169 11.07 29.9514C10.6275 30.1059 10.1608 30.1793 9.69222 30.1682Z" stroke="#4C4C4C" stroke-width="0.4" mask="url(#path-1-outside-1_923_3)"/>
<path d="M5.25574 12.6886C5.08706 12.689 4.92265 12.6356 4.78646 12.5361C4.65027 12.4366 4.54942 12.2962 4.49861 12.1353C4.44779 11.9745 4.44967 11.8016 4.50396 11.6419C4.55825 11.4822 4.66212 11.344 4.80044 11.2475C6.87898 9.79645 10.0705 10.5021 10.5565 10.5625C10.7651 10.5872 10.9553 10.6937 11.0853 10.8586C11.2153 11.0236 11.2745 11.2334 11.2499 11.4419C11.2252 11.6505 11.1187 11.8407 10.9537 11.9707C10.7888 12.1008 10.579 12.16 10.3704 12.1353C9.21536 11.9957 7.04923 11.6078 5.71005 12.5431C5.57717 12.6371 5.41853 12.688 5.25574 12.6886Z" stroke="#4C4C4C" stroke-width="0.4" mask="url(#path-1-outside-1_923_3)"/>
<path d="M9.67503 15.2036H7.49724C7.28723 15.2036 7.08583 15.1202 6.93733 14.9717C6.78883 14.8232 6.70541 14.6218 6.70541 14.4118C6.70541 14.2018 6.78883 14.0004 6.93733 13.8519C7.08583 13.7034 7.28723 13.62 7.49724 13.62H9.67503C9.88504 13.62 10.0864 13.7034 10.2349 13.8519C10.3834 14.0004 10.4669 14.2018 10.4669 14.4118C10.4669 14.6218 10.3834 14.8232 10.2349 14.9717C10.0864 15.1202 9.88504 15.2036 9.67503 15.2036Z" stroke="#4C4C4C" stroke-width="0.4" mask="url(#path-1-outside-1_923_3)"/>
<path d="M18.6947 14.0002H16.3023C16.2217 14.0002 16.1444 13.9476 16.0875 13.8538C16.0305 13.76 15.9985 13.6329 15.9985 13.5002C15.9985 13.3676 16.0305 13.2405 16.0875 13.1467C16.1444 13.0529 16.2217 13.0002 16.3023 13.0002H18.6947C18.7753 13.0002 18.8525 13.0529 18.9095 13.1467C18.9665 13.2405 18.9985 13.3676 18.9985 13.5002C18.9985 13.6329 18.9665 13.76 18.9095 13.8538C18.8525 13.9476 18.7753 14.0002 18.6947 14.0002Z" stroke="#4C4C4C" stroke-width="0.4" mask="url(#path-1-outside-1_923_3)"/>
<path d="M23.6947 14.0002H21.3023C21.2217 14.0002 21.1444 13.9476 21.0875 13.8538C21.0305 13.76 20.9985 13.6329 20.9985 13.5002C20.9985 13.3676 21.0305 13.2405 21.0875 13.1467C21.1444 13.0529 21.2217 13.0002 21.3023 13.0002H23.6947C23.7753 13.0002 23.8525 13.0529 23.9095 13.1467C23.9665 13.2405 23.9985 13.3676 23.9985 13.5002C23.9985 13.6329 23.9665 13.76 23.9095 13.8538C23.8525 13.9476 23.7753 14.0002 23.6947 14.0002Z" stroke="#4C4C4C" stroke-width="0.4" mask="url(#path-1-outside-1_923_3)"/>
</svg>
