<svg width="48" height="48" viewBox="0 0 48 48" fill="none" xmlns="http://www.w3.org/2000/svg">
<mask id="mask0_35_1896" style="mask-type:luminance" maskUnits="userSpaceOnUse" x="2" y="1" width="46" height="47">
<path fill-rule="evenodd" clip-rule="evenodd" d="M2.36426 24.7403C2.36426 37.4229 12.5137 47.7038 25.0335 47.7038C37.5539 47.7038 47.7034 37.4229 47.7034 24.7403C47.7034 12.0576 37.5539 1.77612 25.0335 1.77612C12.5137 1.77612 2.36426 12.0576 2.36426 24.7403Z" fill="white"/>
</mask>
<g mask="url(#mask0_35_1896)">
<path fill-rule="evenodd" clip-rule="evenodd" d="M1.77148 48.2964H48.2958V1.18408H1.77148V48.2964Z" fill="#434343"/>
</g>
<path fill-rule="evenodd" clip-rule="evenodd" d="M25.0343 2.07278C12.6976 2.07278 2.66135 12.2411 2.66135 24.74C2.66135 37.239 12.6976 47.4073 25.0343 47.4073C37.371 47.4073 47.4073 37.239 47.4073 24.74C47.4073 12.2411 37.371 2.07278 25.0343 2.07278ZM25.0339 47.9999C12.3707 47.9999 2.06836 37.5656 2.06836 24.7401C2.06836 11.9146 12.3707 1.48022 25.0339 1.48022C37.6972 1.48022 47.9995 11.9146 47.9995 24.7401C47.9995 37.5656 37.6972 47.9999 25.0339 47.9999Z" fill="#434343"/>
<mask id="mask1_35_1896" style="mask-type:luminance" maskUnits="userSpaceOnUse" x="0" y="0" width="46" height="47">
<path fill-rule="evenodd" clip-rule="evenodd" d="M0.295898 23.2599C0.295898 35.942 10.4453 46.2241 22.9652 46.2241C35.4856 46.2241 45.635 35.942 45.635 23.2599C45.635 10.5773 35.4856 0.296387 22.9652 0.296387C10.4453 0.296387 0.295898 10.5773 0.295898 23.2599Z" fill="white"/>
</mask>
<g mask="url(#mask1_35_1896)">
<path fill-rule="evenodd" clip-rule="evenodd" d="M-0.296875 46.8162H46.2274V-0.296143H-0.296875V46.8162Z" fill="#F0A0AA"/>
</g>
<path fill-rule="evenodd" clip-rule="evenodd" d="M22.9661 0.592574C10.6294 0.592574 0.593112 10.7615 0.593112 23.2598C0.593112 35.7588 10.6294 45.9271 22.9661 45.9271C35.3028 45.9271 45.339 35.7588 45.339 23.2598C45.339 10.7615 35.3028 0.592574 22.9661 0.592574ZM22.9656 46.5197C10.3023 46.5197 0 36.0859 0 23.2599C0 10.4344 10.3023 0 22.9656 0C35.6288 0 45.9311 10.4344 45.9311 23.2599C45.9311 36.0859 35.6288 46.5197 22.9656 46.5197Z" fill="#434343"/>
<path fill-rule="evenodd" clip-rule="evenodd" d="M15.9686 16.3331C16.9058 15.3958 18.4254 15.3958 19.3627 16.3331L23.8177 20.7881L28.2728 16.3331C29.21 15.3958 30.7296 15.3958 31.6669 16.3331C32.6041 17.2703 32.6041 18.7899 31.6669 19.7272L27.2118 24.1822L31.6663 28.6367C32.6036 29.574 32.6036 31.0936 31.6663 32.0308C30.7291 32.9681 29.2095 32.9681 28.2722 32.0308L23.8177 27.5763L19.3632 32.0308C18.426 32.9681 16.9064 32.9681 15.9691 32.0308C15.0319 31.0936 15.0319 29.574 15.9691 28.6367L20.4236 24.1822L15.9686 19.7272C15.0313 18.7899 15.0313 17.2703 15.9686 16.3331Z" fill="#434343"/>
<mask id="path-8-inside-1_35_1896" fill="white">
<path fill-rule="evenodd" clip-rule="evenodd" d="M30.4667 15.1331C29.5294 14.1959 28.0098 14.1959 27.0726 15.1331L22.6175 19.5882L18.1625 15.1331C17.2252 14.1959 15.7056 14.1959 14.7684 15.1331C13.8311 16.0704 13.8311 17.59 14.7684 18.5272L19.2234 22.9823L14.7689 27.4368C13.8317 28.374 13.8317 29.8936 14.7689 30.8309C15.7062 31.7681 17.2258 31.7681 18.163 30.8309L22.6175 26.3764L27.072 30.8309C28.0093 31.7681 29.5289 31.7681 30.4661 30.8309C31.4034 29.8936 31.4034 28.374 30.4661 27.4368L26.0116 22.9823L30.4667 18.5272C31.404 17.59 31.404 16.0704 30.4667 15.1331Z"/>
</mask>
<path fill-rule="evenodd" clip-rule="evenodd" d="M30.4667 15.1331C29.5294 14.1959 28.0098 14.1959 27.0726 15.1331L22.6175 19.5882L18.1625 15.1331C17.2252 14.1959 15.7056 14.1959 14.7684 15.1331C13.8311 16.0704 13.8311 17.59 14.7684 18.5272L19.2234 22.9823L14.7689 27.4368C13.8317 28.374 13.8317 29.8936 14.7689 30.8309C15.7062 31.7681 17.2258 31.7681 18.163 30.8309L22.6175 26.3764L27.072 30.8309C28.0093 31.7681 29.5289 31.7681 30.4661 30.8309C31.4034 29.8936 31.4034 28.374 30.4661 27.4368L26.0116 22.9823L30.4667 18.5272C31.404 17.59 31.404 16.0704 30.4667 15.1331Z" fill="white"/>
<path d="M27.0726 15.1331L26.3799 14.4404V14.4404L27.0726 15.1331ZM30.4667 15.1331L31.1594 14.4404V14.4404L30.4667 15.1331ZM22.6175 19.5882L21.9249 20.2808L22.6175 20.9735L23.3102 20.2808L22.6175 19.5882ZM18.1625 15.1331L17.4698 15.8258L18.1625 15.1331ZM14.7684 15.1331L15.461 15.8258L14.7684 15.1331ZM14.7684 18.5272L15.4611 17.8346L15.461 17.8346L14.7684 18.5272ZM19.2234 22.9823L19.9161 23.675L20.6088 22.9823L19.9161 22.2896L19.2234 22.9823ZM14.7689 27.4368L14.0763 26.7441L14.0763 26.7441L14.7689 27.4368ZM14.7689 30.8309L14.0763 31.5236H14.0763L14.7689 30.8309ZM18.163 30.8309L17.4704 30.1382L17.4704 30.1382L18.163 30.8309ZM22.6175 26.3764L23.3102 25.6837L22.6175 24.991L21.9249 25.6837L22.6175 26.3764ZM27.072 30.8309L27.7647 30.1382L27.7647 30.1382L27.072 30.8309ZM30.4661 30.8309L31.1588 31.5236L30.4661 30.8309ZM30.4661 27.4368L29.7735 28.1295L30.4661 27.4368ZM26.0116 22.9823L25.319 22.2896L24.6263 22.9823L25.319 23.675L26.0116 22.9823ZM30.4667 18.5272L29.774 17.8346V17.8346L30.4667 18.5272ZM27.7653 15.8258C28.32 15.2711 29.2193 15.2711 29.774 15.8258L31.1594 14.4404C29.8396 13.1206 27.6997 13.1206 26.3799 14.4404L27.7653 15.8258ZM23.3102 20.2808L27.7653 15.8258L26.3799 14.4404L21.9249 18.8955L23.3102 20.2808ZM23.3102 18.8955L18.8552 14.4404L17.4698 15.8258L21.9249 20.2808L23.3102 18.8955ZM18.8552 14.4404C17.5353 13.1206 15.3955 13.1206 14.0757 14.4404L15.461 15.8258C16.0158 15.2711 16.9151 15.2711 17.4698 15.8258L18.8552 14.4404ZM14.0757 14.4404C12.7559 15.7603 12.7559 17.9001 14.0757 19.2199L15.461 17.8346C14.9063 17.2799 14.9063 16.3805 15.461 15.8258L14.0757 14.4404ZM14.0757 19.2199L18.5307 23.675L19.9161 22.2896L15.4611 17.8346L14.0757 19.2199ZM15.4616 28.1295L19.9161 23.675L18.5307 22.2896L14.0763 26.7441L15.4616 28.1295ZM15.4616 30.1382C14.9069 29.5835 14.9069 28.6842 15.4616 28.1295L14.0763 26.7441C12.7564 28.0639 12.7564 30.2038 14.0763 31.5236L15.4616 30.1382ZM17.4704 30.1382C16.9157 30.6929 16.0163 30.6929 15.4616 30.1382L14.0763 31.5236C15.3961 32.8434 17.5359 32.8434 18.8557 31.5236L17.4704 30.1382ZM21.9249 25.6837L17.4704 30.1382L18.8557 31.5236L23.3102 27.0691L21.9249 25.6837ZM21.9249 27.0691L26.3794 31.5236L27.7647 30.1382L23.3102 25.6837L21.9249 27.0691ZM26.3794 31.5236C27.6992 32.8434 29.839 32.8434 31.1588 31.5236L29.7735 30.1382C29.2188 30.6929 28.3194 30.6929 27.7647 30.1382L26.3794 31.5236ZM31.1588 31.5236C32.4786 30.2038 32.4786 28.0639 31.1588 26.7441L29.7735 28.1295C30.3282 28.6842 30.3282 29.5835 29.7735 30.1382L31.1588 31.5236ZM31.1588 26.7441L26.7043 22.2896L25.319 23.675L29.7735 28.1295L31.1588 26.7441ZM29.774 17.8346L25.319 22.2896L26.7043 23.675L31.1594 19.2199L29.774 17.8346ZM29.774 15.8258C30.3287 16.3805 30.3287 17.2799 29.774 17.8346L31.1594 19.2199C32.4792 17.9001 32.4792 15.7603 31.1594 14.4404L29.774 15.8258Z" fill="#434343" mask="url(#path-8-inside-1_35_1896)"/>
</svg>
