<svg width="238" height="230" viewBox="0 0 238 230" fill="none" xmlns="http://www.w3.org/2000/svg">
<path d="M184.835 153.106C172.038 181.445 183.1 191.393 172.551 206.406C156.317 229.508 110.286 234.196 78.1207 224.728C38.7191 213.135 5.66143 176.054 7.04172 129.699C8.51123 80.3306 48.5001 38.6433 94.7809 27.3252C136.108 17.2161 186.21 30.4099 204.221 63.455C206.173 67.0377 216.316 86.5694 210.607 109.327C205.886 128.135 194.98 130.643 184.835 153.106Z" fill="#EDF3FF"/>
<path d="M101.989 116.592C103.877 124.57 103.599 149.124 90.5571 162.66C77.515 176.195 49.8694 180.687 33.7792 166.609C14.3882 149.632 22.0702 114.605 36.9388 101.493C45.2701 94.1489 51.9089 97.1593 63.4543 86.5745C74.9997 75.9898 74.063 67.8159 83.4202 64.1637C94.6708 59.7733 109.401 66.3144 111.309 72.8976C113.014 78.7896 104.652 82.3129 101.468 95.1449C100.947 97.1766 100.664 99.2619 100.626 101.359C100.504 109.288 101.647 115.155 101.989 116.592Z" fill="#434343"/>
<path d="M59.6575 137.375C59.6575 137.375 54.3668 116.562 59.5485 112.994C59.8211 112.808 62.9955 112.898 65.8205 116.25C68.4894 119.416 70.8238 125.854 70.8238 125.854L70.0803 139.644L59.6575 137.375Z" fill="#B09CF8"/>
<path d="M57.7793 157.003C57.6871 157.003 57.5979 156.97 57.5269 156.911C57.456 156.852 57.4076 156.771 57.3901 156.68C57.3726 156.589 57.3869 156.496 57.4308 156.415C57.4747 156.333 57.5453 156.27 57.6307 156.235L66.978 152.494C67.0268 152.474 67.079 152.465 67.1315 152.466C67.184 152.466 67.2358 152.478 67.284 152.498C67.3322 152.519 67.3759 152.549 67.4124 152.587C67.449 152.625 67.4778 152.669 67.4972 152.718C67.5165 152.767 67.5261 152.819 67.5253 152.871C67.5245 152.924 67.5134 152.976 67.4926 153.024C67.4717 153.072 67.4416 153.116 67.4039 153.152C67.3662 153.189 67.3217 153.218 67.2729 153.237L57.9256 156.981C57.8788 156.998 57.8291 157.005 57.7793 157.003Z" fill="#434343"/>
<path d="M115.723 108.787C115.723 108.787 121.239 105.933 128.99 108.985C136.742 112.038 142.491 115.516 147.742 113.289C155.176 110.137 154.849 94.1016 154.849 94.1016L161.044 94.2007C161.044 94.2007 170.03 114.139 158.428 126.659C149.908 135.868 119.645 129.426 119.645 129.426L115.723 108.787Z" fill="white"/>
<path d="M140.311 131.993C138.887 131.993 137.392 131.951 135.826 131.867C130.367 131.553 124.936 130.861 119.572 129.798L119.324 129.748L115.305 108.594L115.552 108.467C115.785 108.348 121.309 105.571 129.127 108.651C130.594 109.228 131.98 109.815 133.32 110.385C138.998 112.798 143.481 114.704 147.597 112.957C154.709 109.942 154.483 94.2752 154.478 94.1265V93.74L161.303 93.8515L161.4 94.0646C162.942 97.7909 163.975 101.708 164.472 105.71C165.528 114.382 163.538 121.733 158.716 126.936C155.586 130.293 149.406 131.993 140.311 131.993ZM119.959 129.112C122.831 129.689 150.271 134.927 158.158 126.411C164.051 120.051 164.438 111.691 163.724 105.799C163.243 101.944 162.26 98.168 160.8 94.5675L155.219 94.4783C155.197 97.1974 154.937 99.9093 154.441 102.583C153.291 108.557 151.083 112.273 147.882 113.633C143.478 115.502 138.864 113.542 133.013 111.059C131.677 110.492 130.287 109.904 128.838 109.325C122.253 106.733 117.272 108.51 116.127 108.998L119.959 129.112Z" fill="#434343"/>
<path d="M129.635 224.245C121.647 201.958 122.415 191.069 126.2 186.744C127.331 185.454 124.16 177.736 125.956 173.444C128.284 167.876 133.936 171.375 134.474 166.652C135.528 157.42 142.973 149.05 150.824 145.323C156.308 142.719 166.682 140.156 172.552 145.483C175.033 147.738 177.378 152.007 176.005 154.862C174.033 158.955 165.906 156.047 161.529 161.426C159.676 163.705 160.298 165.237 159.471 167.257C159.164 168.005 158.819 168.452 158.302 169.152C156.92 171.018 155.689 172.993 154.287 174.842C150.226 180.196 153.889 188.336 149.186 192.521C145.706 195.623 140.832 193.724 139.75 196.504C138.894 198.691 141.992 200.007 141.889 203.471C141.762 207.678 137.766 209.154 133.723 215.13C131.449 218.493 130.369 221.742 129.635 224.245Z" fill="#71D6D7"/>
<path d="M124.348 221.558C124.441 221.557 124.53 221.519 124.596 221.453C124.661 221.387 124.698 221.298 124.698 221.205C124.701 199.269 127.849 194.613 136.557 178.174C142.557 166.848 149.49 160.067 154.245 156.371C159.4 152.368 163.185 151.024 163.223 151.009C163.311 150.977 163.383 150.912 163.423 150.827C163.463 150.742 163.467 150.645 163.435 150.557C163.403 150.468 163.337 150.397 163.252 150.357C163.167 150.317 163.07 150.313 162.982 150.345C162.824 150.4 159.074 151.727 153.833 155.79C149.01 159.529 141.989 166.39 135.912 177.846C131.964 185.298 127.5 193.254 125.061 203.224C124.648 206.716 123.999 209.418 124.001 221.206C124.001 221.299 124.038 221.388 124.104 221.454C124.17 221.52 124.259 221.557 124.353 221.558L124.348 221.558Z" fill="white"/>
<path d="M154.852 94.1018C154.852 94.1018 155.739 91.1285 156.755 89.2356C157.771 87.3426 157.887 76.8718 157.887 76.8718C157.887 76.8718 164.945 89.1488 161.054 94.2009L154.852 94.1018Z" fill="white"/>
<path d="M161.235 94.575L154.355 94.4635L154.497 93.9952C154.531 93.8713 155.404 90.9576 156.427 89.0596C157.225 87.573 157.483 79.7559 157.515 76.8669L157.532 75.5042L158.209 76.686C158.504 77.1964 165.343 89.2405 161.349 94.4288L161.235 94.575ZM155.354 93.7375L160.868 93.8267C163.646 89.8872 159.849 81.4878 158.231 78.3089C158.159 81.2821 157.907 87.8827 157.081 89.4115C156.333 90.8015 155.642 92.8307 155.354 93.7375Z" fill="#434343"/>
<path d="M158.118 94.8772L151.276 98.0982C151.164 98.1714 151.034 98.2123 150.9 98.2162C150.766 98.2202 150.634 98.187 150.518 98.1205C150.401 98.0542 150.304 97.9575 150.237 97.8405C150.171 97.7236 150.138 97.5909 150.141 97.4565L150.775 75.6924C150.778 75.5753 150.809 75.4606 150.866 75.3583C150.923 75.256 151.004 75.1691 151.102 75.1052L156.685 72.454C156.797 72.3813 156.927 72.3407 157.06 72.3367C157.194 72.3328 157.325 72.3657 157.441 72.4317C157.558 72.4973 157.655 72.5931 157.722 72.7091C157.788 72.8251 157.822 72.957 157.82 73.0908L158.445 94.2751C158.443 94.3943 158.412 94.5113 158.355 94.6161C158.298 94.7209 158.217 94.8104 158.118 94.8772ZM151.64 96.116L155.878 94.5972L156.329 74.461L152.225 76.1433L151.64 96.116Z" fill="#434343"/>
<path d="M151.828 96.8123L157.847 94.1859L158.437 72.4763L152.857 75.0754L151.828 96.8123Z" fill="#434343"/>
<path d="M122.514 169.629C122.349 169 122.001 168.434 121.513 168.004C121.025 167.573 120.421 167.297 119.776 167.211C107.49 165.611 94.6161 167.053 81.1179 171.713C79.9677 172.11 78.9652 172.847 78.2434 173.827C75.3737 177.722 67.6495 188.591 63.0998 198.737C61.4766 202.357 58 209.553 58 216.5C58.7162 216.996 73.5 226 91.5 228C96.973 228.608 106.055 229.32 110.082 229.126C109.143 229.201 111.023 229.082 110.082 229.126C121 228.609 123.762 229.549 132.5 227.5C131.137 204.846 124.665 177.617 122.514 169.629Z" fill="#434343"/>
<path d="M158.244 94.7955L152.522 97.5457C152.411 97.6189 152.281 97.66 152.148 97.6645C152.014 97.669 151.882 97.6368 151.766 97.5713C151.649 97.5059 151.553 97.4097 151.488 97.2933C151.423 97.1769 151.39 97.0448 151.395 96.9114L152.138 75.0532C152.143 74.9362 152.176 74.8221 152.233 74.7201C152.29 74.6181 152.371 74.531 152.468 74.4659L158.036 71.8198C158.147 71.747 158.276 71.706 158.409 71.7012C158.542 71.6964 158.673 71.7279 158.789 71.7925C158.906 71.857 159.002 71.9521 159.068 72.0674C159.134 72.1827 159.167 72.3138 159.164 72.4466L158.574 94.2132C158.568 94.3292 158.536 94.4424 158.478 94.5435C158.421 94.6446 158.341 94.7309 158.244 94.7955ZM152.897 95.5586L157.127 93.7845L157.672 73.7895L153.571 75.4793L152.897 95.5586Z" fill="#434343"/>
<path d="M69.2962 171.817L68.694 177.617C68.6585 178.3 68.7777 178.982 69.0429 179.613C69.3081 180.243 69.7124 180.805 70.2255 181.257L78.1133 188.195C79.2377 189.198 80.6701 189.788 82.1748 189.87C84.3283 189.974 85.3319 189.466 83.5427 187.476L77.2806 178.113C76.7876 177.374 76.5341 176.501 76.5545 175.613L76.7577 172.144C76.7769 171.803 76.7236 171.462 76.6015 171.143C76.4793 170.824 76.2911 170.534 76.049 170.293L76.1704 170.261C63.6462 158.955 56.5935 150.91 45.3182 143.254C42.0075 141.002 42.3644 141.287 43.1995 141.002C49.251 138.936 59.9687 138.378 68.0894 138.299C73.509 127.667 70.9218 117.756 68.2257 113.244C49.2014 117.139 32.789 126.156 24.1628 136.071C23.1725 137.204 22.5645 138.62 22.4252 140.118C22.286 141.617 22.6226 143.12 23.3872 144.416C30.5885 156.636 46.8646 162.137 69.2962 171.817Z" fill="white"/>
<path d="M68.2264 112.86C68.2001 112.858 68.1735 112.858 68.1471 112.86C49.896 116.597 32.9286 125.392 23.8637 135.816C22.82 137.011 22.1792 138.504 22.0324 140.083C21.8856 141.663 22.2402 143.248 23.046 144.614C29.3775 155.353 42.5113 160.9 60.6931 168.579C63.3273 169.691 66.0457 170.841 68.8708 172.048L68.3008 177.56C68.2588 178.304 68.3867 179.047 68.6748 179.734C68.9629 180.421 69.4036 181.033 69.9636 181.525L77.8513 188.462C79.0443 189.525 80.563 190.15 82.1583 190.236C83.6823 190.311 84.4877 190.078 84.7702 189.493C85.1196 188.75 84.4232 187.845 83.8582 187.214L77.6134 177.868C77.1641 177.197 76.933 176.405 76.9518 175.598L77.155 172.154C77.1927 171.475 76.9842 170.804 76.5677 170.266C76.5713 170.207 76.5615 170.148 76.5392 170.094C76.5169 170.04 76.4826 169.991 76.4388 169.951C72.6102 166.497 69.3565 163.408 66.2093 160.417C59.3301 153.886 53.3901 148.244 45.542 142.907L45.0935 142.605C44.2881 142.055 43.6637 141.634 43.3093 141.366H43.3291C49.7325 139.181 61.4588 139.188 69.0541 139.114C69.1267 139.113 69.1976 139.092 69.2592 139.053C69.3207 139.015 69.3706 138.961 69.4035 138.896C76.0522 125.856 71.0069 117.112 68.5684 113.029C68.53 112.974 68.4786 112.93 68.4189 112.901C68.3591 112.872 68.293 112.858 68.2264 112.86ZM82.6663 189.495C82.525 189.495 82.3689 189.495 82.1954 189.483C80.7811 189.404 79.4352 188.848 78.3767 187.907L70.4889 180.97C70.0196 180.558 69.6499 180.046 69.4078 179.471C69.1656 178.895 69.0574 178.273 69.0913 177.65L69.691 171.867C69.6992 171.781 69.6796 171.695 69.6349 171.622C69.5902 171.549 69.5229 171.492 69.4432 171.46C66.519 170.199 63.7114 169.012 60.9929 167.865C42.9524 160.246 29.9177 154.733 23.72 144.228C23.0012 143.004 22.6861 141.584 22.8196 140.171C22.953 138.757 23.5282 137.422 24.4634 136.354C33.3722 126.111 50.0422 117.451 68.0232 113.715C70.0429 117.558 74.2581 125.799 68.0555 138.009C60.5072 138.098 49.4971 138.455 43.0714 140.65L42.8409 140.719C42.5931 140.789 42.2908 140.876 42.2388 141.2C42.1718 141.619 42.3577 141.745 44.6475 143.301L45.096 143.604C52.8896 148.903 58.5272 154.258 65.6641 161.034C68.7444 163.96 71.9287 166.981 75.6558 170.353C75.6639 170.446 75.7042 170.534 75.7697 170.601C75.9718 170.802 76.1289 171.044 76.2305 171.31C76.3322 171.577 76.3762 171.862 76.3595 172.147L76.1588 175.615C76.1328 176.59 76.4099 177.548 76.9518 178.358L83.2114 187.726C83.2218 187.743 83.2343 187.758 83.2486 187.771C84.1705 188.799 84.0788 189.144 84.0515 189.203C84.0243 189.263 83.8384 189.495 82.6663 189.495Z" fill="#434343"/>
<path d="M59.5469 112.994C59.5469 112.994 115.76 104.872 126.48 108.13L126.976 134.178L131.684 154.667C132.355 157.557 132.216 160.576 131.284 163.393C130.353 166.209 128.663 168.715 126.401 170.635C121.236 174.989 113.041 179.23 101.204 178.225C78.2193 176.272 66.369 180.454 66.4756 170.199C66.5822 159.944 68.302 135.539 68.302 135.539C65.9106 125.427 62.9171 113.718 59.5469 112.994Z" fill="#B09CF8"/>
<path d="M104.638 178.77C103.521 178.77 102.366 178.723 101.169 178.621C94.4287 178.049 88.5556 178.004 83.8373 177.969C75.6844 177.907 70.2995 177.865 67.7422 175.264C66.5998 174.099 66.0546 172.442 66.0769 170.194C66.181 160.284 67.8116 136.936 67.9008 135.571C66.1165 128.034 62.8058 114.099 59.4629 113.383C59.3716 113.364 59.2901 113.313 59.2326 113.24C59.1751 113.166 59.1454 113.075 59.1487 112.982C59.1519 112.888 59.188 112.799 59.2504 112.73C59.3129 112.661 59.3977 112.616 59.4901 112.603C61.7873 112.271 115.911 104.506 126.594 107.751C126.674 107.776 126.744 107.825 126.795 107.892C126.846 107.959 126.874 108.039 126.877 108.123L127.372 134.139L132.071 154.575C132.767 157.534 132.63 160.628 131.676 163.514C130.721 166.401 128.987 168.966 126.664 170.928C122.29 174.624 115.051 178.77 104.638 178.77ZM60.7763 113.22C63.802 115.794 66.3346 125.541 68.6814 135.447C68.6875 135.487 68.6875 135.527 68.6814 135.566C68.664 135.814 66.9467 160.078 66.855 170.204C66.8327 172.256 67.2911 173.688 68.2923 174.706C70.6167 177.075 75.8728 177.115 83.8249 177.184C88.5581 177.219 94.4485 177.266 101.219 177.841C113.27 178.856 121.422 174.315 126.156 170.331C128.368 168.463 130.02 166.019 130.928 163.27C131.836 160.521 131.965 157.574 131.3 154.756L126.592 134.265C126.589 134.239 126.589 134.212 126.592 134.186L126.096 108.433C115.837 105.695 68.8746 112.087 60.7886 113.22H60.7763Z" fill="#434343"/>
<path d="M98.5907 100.397C100.506 100.967 102.447 100.893 103.522 100.15C104.848 99.2354 104.949 97.6893 105.331 95.8137C105.49 95.0307 105.614 94.1214 106.322 93.2666C106.672 92.8561 107.1 92.5193 107.581 92.2755C107.839 92.1375 108.037 91.9104 108.139 91.6368C108.241 91.3632 108.24 91.0618 108.136 90.7889L107.955 90.4594C106.523 87.8578 106.26 83.5218 107.115 79.1611L106.191 76.7552C102.88 75.8162 100.174 75.6279 99.7901 76.1754C99.6513 76.3786 99.4283 76.5248 99.5423 77.4143C100.038 81.7379 96.1002 81.6908 92.7597 81.2275C89.4193 80.7641 91.1812 86.6784 91.1812 86.6784C91.1812 86.6784 88.8914 84.275 86.8743 86.7726C85.4296 88.5639 88.8369 90.9029 90.8838 92.0872C90.8838 92.0872 89.1343 105.702 86.1408 107.159L77.8516 111.032C77.8516 111.032 94.0657 117.298 106.88 109.02C106.88 109.02 101.716 108.623 99.6934 106.584C97.6713 104.545 98.7617 100.871 98.5907 100.397Z" fill="white"/>
<path d="M91.225 113.693C86.6242 113.68 82.0567 112.912 77.7045 111.421C77.6286 111.394 77.5625 111.345 77.5149 111.281C77.4673 111.216 77.4404 111.138 77.4377 111.058C77.435 110.977 77.4567 110.898 77.4999 110.83C77.5431 110.762 77.6058 110.709 77.6798 110.678L85.969 106.805C88.1992 105.715 89.9339 96.2103 90.4543 92.3004C88.6032 91.2078 86.4497 89.6295 86.1622 88.071C86.1082 87.8003 86.1161 87.5209 86.1851 87.2536C86.2542 86.9863 86.3828 86.7381 86.5612 86.5274C87.2204 85.7122 87.9812 85.2886 88.8262 85.2489C89.4256 85.2385 90.0161 85.3955 90.5311 85.7023C90.2833 84.4412 90.0702 82.4417 90.9425 81.4283C91.3786 80.9328 92.0081 80.7197 92.811 80.8312C94.6695 81.0789 97.2715 81.2995 98.4684 80.1374C99.0632 79.5576 99.2837 78.6805 99.1449 77.4565C99.0433 76.5819 99.2242 76.2672 99.4324 75.9972L99.4745 75.9402C100.168 74.9491 104.096 75.737 106.309 76.3639C106.37 76.3809 106.425 76.4123 106.471 76.4554C106.517 76.4986 106.551 76.5522 106.572 76.6116L107.496 79.0175C107.522 79.0879 107.529 79.1641 107.516 79.238C106.661 83.5963 106.966 87.8232 108.311 90.2663L108.495 90.5983L108.517 90.6503C108.657 91.0144 108.658 91.4172 108.521 91.7824C108.384 92.1476 108.118 92.45 107.774 92.6325C107.339 92.8561 106.952 93.1635 106.636 93.5368C106.051 94.2355 105.905 94.9764 105.764 95.6899L105.722 95.908C105.667 96.1706 105.62 96.4258 105.573 96.6736C105.278 98.2494 105.023 99.6121 103.749 100.492C102.676 101.235 100.885 101.386 98.9863 100.928C98.9863 101.029 98.964 101.146 98.9517 101.28C98.8129 102.548 98.5576 104.907 99.9677 106.324C101.866 108.235 106.857 108.641 106.906 108.643C106.989 108.65 107.068 108.683 107.131 108.737C107.195 108.791 107.24 108.863 107.261 108.943C107.281 109.024 107.276 109.109 107.245 109.186C107.214 109.264 107.16 109.329 107.09 109.374C101.95 112.684 96.2357 113.693 91.225 113.693ZM78.9089 110.992C82.3782 112.102 95.1032 115.452 105.692 109.297C104.009 109.05 100.924 108.41 99.4027 106.882C97.7275 105.197 98.01 102.59 98.1636 101.183C98.1952 100.962 98.2118 100.74 98.2132 100.516C98.1931 100.45 98.191 100.379 98.2071 100.311C98.2232 100.243 98.2569 100.181 98.3049 100.13C98.355 100.076 98.4191 100.037 98.49 100.018C98.561 99.9989 98.6359 99.9999 98.7063 100.021C100.538 100.564 102.342 100.487 103.301 99.8277C104.307 99.1339 104.522 97.9793 104.788 96.5175C104.835 96.2697 104.884 96.0046 104.939 95.7395L104.981 95.5264C105.125 94.7831 105.305 93.8738 106.022 93.0165C106.405 92.5642 106.873 92.1913 107.399 91.9189C107.568 91.8286 107.699 91.6812 107.768 91.5032C107.838 91.3251 107.841 91.1281 107.779 90.9476L107.61 90.6453C106.17 88.0264 105.833 83.7524 106.708 79.1909L105.898 77.0775C102.572 76.1582 100.401 76.1508 100.111 76.411C100.094 76.4379 100.075 76.4636 100.054 76.4878C99.9578 76.6141 99.8562 76.7355 99.928 77.3723C100.097 78.8341 99.7892 79.959 99.0186 80.7122C97.5961 82.0998 94.8925 81.9288 92.697 81.624C92.1691 81.5497 91.7925 81.6562 91.5397 81.9486C90.7095 82.9174 91.2671 85.6181 91.5521 86.577C91.5773 86.6622 91.5731 86.7534 91.5402 86.836C91.5073 86.9185 91.4476 86.9876 91.3707 87.0322C91.2939 87.0768 91.2042 87.0943 91.1162 87.0818C91.0282 87.0693 90.9469 87.0277 90.8855 86.9635C90.8855 86.9635 89.9388 85.9997 88.8485 86.0467C88.2463 86.0715 87.6813 86.4035 87.1758 87.0378C87.0679 87.1579 86.9893 87.3015 86.9463 87.4571C86.9033 87.6128 86.897 87.7763 86.928 87.9347C87.1163 88.9556 88.6255 90.348 91.0639 91.7578C91.132 91.7966 91.187 91.8548 91.2219 91.9249C91.2568 91.9951 91.2699 92.0741 91.2597 92.1518C91.0788 93.5665 89.3937 106.027 86.3035 107.531L78.9089 110.992Z" fill="#434343"/>
<path d="M98.591 100.809C98.56 100.808 98.5292 100.804 98.4993 100.796C94.7078 99.9044 92.6832 95.0308 92.5989 94.8226C92.5595 94.7241 92.5609 94.6139 92.6027 94.5163C92.6445 94.4187 92.7234 94.3417 92.822 94.3023C92.9206 94.2629 93.0308 94.2642 93.1284 94.306C93.226 94.3479 93.3029 94.4267 93.3424 94.5253C93.3622 94.5699 95.2976 99.2329 98.6876 100.023C98.7811 100.047 98.8628 100.104 98.9176 100.183C98.9725 100.263 98.9967 100.359 98.9858 100.455C98.9749 100.551 98.9297 100.639 98.8584 100.704C98.7872 100.77 98.6948 100.807 98.5984 100.809H98.591Z" fill="#434343"/>
<path d="M39.7581 139.03C39.6947 139.029 39.632 139.044 39.5755 139.073C39.5189 139.102 39.4702 139.144 39.4335 139.196C39.403 139.239 39.3813 139.287 39.3695 139.338C39.3578 139.389 39.3562 139.442 39.365 139.493C39.3737 139.545 39.3926 139.594 39.4205 139.638C39.4485 139.683 39.4849 139.721 39.5277 139.751L52.3716 148.876C52.4574 148.937 52.5639 148.962 52.6678 148.945C52.7716 148.927 52.8643 148.869 52.9255 148.783C52.9866 148.698 53.0111 148.591 52.9937 148.487C52.9763 148.383 52.9183 148.291 52.8325 148.23L39.9861 139.094C39.9186 139.05 39.839 139.027 39.7581 139.03Z" fill="#434343"/>
<path d="M2.8705 89.5619C2.8204 89.5419 2.77533 89.5111 2.73849 89.4717C2.70166 89.4323 2.67397 89.3852 2.6574 89.3339L2.05028 87.5103C2.03137 87.4633 2.02228 87.4129 2.02356 87.3623C2.02483 87.3116 2.03647 87.2618 2.05772 87.2158C2.07898 87.1698 2.1094 87.1286 2.14715 87.0948C2.1849 87.061 2.22917 87.0353 2.27723 87.0192C2.32528 87.0031 2.37613 86.997 2.42663 87.0013C2.47712 87.0056 2.5262 87.0202 2.57085 87.0442C2.61551 87.0681 2.6548 87.1009 2.6863 87.1406C2.7178 87.1803 2.74086 87.226 2.75404 87.2749L3.36116 89.0985C3.37679 89.1457 3.38274 89.1955 3.37866 89.245C3.37458 89.2945 3.36055 89.3427 3.33741 89.3866C3.31428 89.4306 3.2825 89.4694 3.244 89.5008C3.2055 89.5322 3.16107 89.5555 3.11336 89.5693C3.03397 89.5949 2.94817 89.5923 2.8705 89.5619Z" fill="#434343"/>
<path d="M4.28523 93.8112C4.23485 93.7912 4.18945 93.7605 4.15221 93.7211C4.11497 93.6817 4.08678 93.6347 4.06964 93.5833L3.46251 91.7671C3.42965 91.6735 3.43534 91.5706 3.47833 91.4812C3.52132 91.3917 3.59808 91.323 3.69173 91.2901C3.78538 91.2573 3.88827 91.263 3.97773 91.306C4.06719 91.3489 4.13591 91.4257 4.16877 91.5193L4.77589 93.3429C4.80657 93.4366 4.79905 93.5386 4.75497 93.6267C4.71089 93.7148 4.63382 93.782 4.54048 93.8137C4.45793 93.8439 4.36719 93.843 4.28523 93.8112Z" fill="#434343"/>
<path d="M4.48429 90.3721C4.41328 90.3439 4.3527 90.2944 4.31081 90.2305C4.26892 90.1666 4.24775 90.0913 4.25019 90.0149C4.25263 89.9386 4.27855 89.8648 4.32444 89.8037C4.37032 89.7426 4.43393 89.6971 4.5066 89.6734L6.33046 89.0664C6.42576 89.0358 6.52929 89.0444 6.61829 89.0901C6.70728 89.1359 6.77444 89.2151 6.805 89.3104C6.83557 89.4057 6.82702 89.5092 6.78124 89.5982C6.73547 89.6872 6.65622 89.7543 6.56092 89.7849L4.73706 90.3919C4.65294 90.4136 4.56402 90.4066 4.48429 90.3721Z" fill="#434343"/>
<path d="M0.236842 91.7844C0.16547 91.757 0.104379 91.7081 0.061981 91.6445C0.0195833 91.5809 -0.00202623 91.5057 0.000149563 91.4293C0.00232536 91.3529 0.0281777 91.279 0.0741265 91.2179C0.120075 91.1568 0.183855 91.1115 0.256671 91.0882L2.08055 90.4811C2.12676 90.4649 2.17572 90.4579 2.22464 90.4605C2.27356 90.4632 2.32149 90.4754 2.36567 90.4966C2.40985 90.5178 2.44943 90.5474 2.48215 90.5839C2.51487 90.6203 2.54008 90.6629 2.55635 90.7091C2.57262 90.7553 2.57963 90.8042 2.57698 90.8532C2.57433 90.9021 2.56207 90.95 2.54089 90.9942C2.51972 91.0383 2.49006 91.0779 2.45359 91.1106C2.41713 91.1433 2.37457 91.1685 2.32836 91.1848L0.504481 91.7919C0.417601 91.8237 0.321821 91.821 0.236842 91.7844Z" fill="#434343"/>
<path d="M174.297 132.059C174.029 131.953 173.788 131.791 173.588 131.583C173.203 131.181 172.992 130.644 173 130.087C173.009 129.531 173.236 129 173.633 128.61C173.827 128.413 174.059 128.258 174.314 128.154C174.57 128.049 174.844 127.997 175.12 128C175.39 128.002 175.658 128.058 175.906 128.165C176.155 128.271 176.38 128.427 176.567 128.622C176.951 129.025 177.161 129.562 177.153 130.118C177.145 130.674 176.918 131.205 176.522 131.595C176.328 131.791 176.096 131.945 175.84 132.05C175.585 132.155 175.311 132.207 175.036 132.205C174.782 132.204 174.532 132.154 174.297 132.059ZM175.581 128.838C175.432 128.777 175.273 128.746 175.112 128.746C174.935 128.744 174.76 128.778 174.596 128.845C174.432 128.912 174.283 129.012 174.158 129.137C173.903 129.389 173.756 129.731 173.749 130.089C173.743 130.448 173.877 130.795 174.124 131.055C174.242 131.179 174.384 131.278 174.542 131.346C174.699 131.414 174.869 131.45 175.04 131.452C175.218 131.453 175.394 131.419 175.559 131.351C175.723 131.284 175.872 131.184 175.997 131.058C176.252 130.806 176.399 130.464 176.405 130.106C176.411 129.747 176.278 129.401 176.032 129.14C175.904 129.012 175.75 128.912 175.581 128.848V128.838Z" fill="#434343"/>
<path d="M53.3544 60.9583C53.2959 60.8877 53.2658 60.7978 53.2699 60.7062C53.274 60.6146 53.3121 60.5278 53.3767 60.4628C61.6709 51.9766 71.7492 45.4529 83.3269 41.0698C94.6815 36.7735 106.918 34.7393 119.695 35.0267C119.744 35.0278 119.792 35.0386 119.837 35.0583C119.882 35.078 119.922 35.1064 119.956 35.1417C119.989 35.177 120.016 35.2186 120.033 35.2641C120.051 35.3097 120.059 35.3582 120.058 35.407C120.057 35.4558 120.046 35.5039 120.027 35.5486C120.007 35.5932 119.979 35.6336 119.943 35.6673C119.908 35.701 119.866 35.7274 119.821 35.745C119.775 35.7627 119.727 35.7711 119.678 35.77C94.1065 35.1977 70.136 44.3874 53.9095 60.9831C53.8749 61.0179 53.8338 61.0456 53.7885 61.0644C53.7432 61.0833 53.6946 61.093 53.6456 61.093C53.5965 61.093 53.5479 61.0833 53.5026 61.0644C53.4573 61.0456 53.4162 61.0179 53.3817 60.9831L53.3544 60.9583Z" fill="#434343"/>
<path d="M47.0821 76.6048C47.0335 76.5445 47.0051 76.4705 47.0006 76.3932C46.9962 76.316 47.016 76.2392 47.0573 76.1737C60.4389 54.8655 83.8246 41.8601 111.252 40.4948C111.301 40.4924 111.35 40.4996 111.396 40.516C111.442 40.5325 111.484 40.5578 111.52 40.5906C111.557 40.6234 111.586 40.663 111.607 40.7071C111.628 40.7513 111.64 40.7991 111.642 40.8479C111.645 40.8967 111.638 40.9455 111.621 40.9916C111.605 41.0376 111.579 41.0799 111.547 41.1162C111.514 41.1524 111.474 41.1818 111.43 41.2028C111.386 41.2237 111.338 41.2357 111.289 41.2382C84.1171 42.5885 60.9246 55.4701 47.6892 76.5677C47.6632 76.609 47.6293 76.6448 47.5894 76.6731C47.5495 76.7013 47.5045 76.7214 47.4568 76.7322C47.4092 76.743 47.3599 76.7443 47.3117 76.7361C47.2636 76.7278 47.2175 76.7102 47.1762 76.6841C47.1399 76.6642 47.1079 76.6372 47.0821 76.6048Z" fill="#434343"/>
<path d="M114.28 42.7445C114.097 42.5173 113.963 42.2539 113.889 41.9715C113.749 41.4458 113.825 40.8864 114.098 40.4163C114.371 39.9461 114.82 39.6036 115.346 39.4641C115.702 39.3699 116.077 39.3735 116.432 39.4745C116.786 39.5754 117.107 39.77 117.361 40.0378C117.614 40.3056 117.79 40.6367 117.871 40.9963C117.953 41.3559 117.935 41.7307 117.821 42.0812C117.707 42.4318 117.501 42.7452 117.224 42.9886C116.947 43.2319 116.61 43.3961 116.248 43.464C115.885 43.5319 115.511 43.5009 115.165 43.3743C114.819 43.2477 114.513 43.0301 114.28 42.7445ZM116.885 40.6286C116.726 40.4335 116.515 40.2881 116.277 40.2099C116.038 40.1317 115.782 40.1239 115.539 40.1876C115.373 40.2303 115.217 40.3053 115.08 40.4085C114.943 40.5116 114.827 40.6407 114.74 40.7885C114.653 40.9363 114.596 41.0998 114.573 41.2696C114.549 41.4394 114.559 41.6123 114.602 41.7782C114.667 42.0292 114.804 42.2553 114.998 42.4278C115.191 42.6003 115.431 42.7115 115.688 42.7471C115.944 42.7827 116.206 42.7411 116.439 42.6277C116.672 42.5143 116.866 42.3342 116.996 42.1103C117.083 41.9622 117.139 41.7983 117.162 41.6281C117.185 41.458 117.174 41.285 117.13 41.1192C117.086 40.9385 117.002 40.77 116.885 40.6261V40.6286Z" fill="#434343"/>
<path d="M120.091 42.7917C120.059 42.7513 120.035 42.7047 120.021 42.6549C120.008 42.6051 120.004 42.553 120.011 42.5018C120.244 40.9359 120.614 39.3849 120.619 39.3675C120.633 39.306 120.664 39.2494 120.708 39.2033C120.751 39.1573 120.806 39.1234 120.866 39.1049C120.925 39.0844 120.988 39.0788 121.05 39.0888C121.111 39.0987 121.169 39.1239 121.218 39.1619L123.855 41.2283C123.908 41.27 123.949 41.3254 123.973 41.3885C123.997 41.4517 124.003 41.5202 123.992 41.5867C123.98 41.6532 123.95 41.7152 123.905 41.766C123.86 41.8168 123.803 41.8545 123.738 41.875L120.502 42.9106C120.442 42.9293 120.378 42.9326 120.316 42.92C120.254 42.9074 120.196 42.8795 120.148 42.8388C120.127 42.8248 120.108 42.809 120.091 42.7917ZM121.213 40.1108C121.112 40.5717 120.965 41.2704 120.842 42.0187L122.824 41.3794L121.213 40.1108Z" fill="#434343"/>
<path d="M122.603 21.6667L123.661 24.1578L126.686 23.6149C127.034 24.1436 127.429 24.6422 127.866 25.1052L126.564 27.8063L128.781 29.4268L131.15 27.5005C131.727 27.7823 132.329 28.0161 132.95 28.1993L133.21 31.1438L135.99 31.4625L137.059 28.6675C137.711 28.6253 138.36 28.5296 138.998 28.3816L140.75 30.7774L143.35 29.707L142.847 26.7969C143.402 26.4495 143.926 26.0581 144.415 25.627L147.187 26.8306L148.912 24.6576L146.964 22.408C147.266 21.844 147.52 21.2581 147.723 20.6561L150.779 20.346L151.162 17.6551L148.296 16.6813C148.268 16.0516 148.185 15.4262 148.049 14.8118L150.566 13.0719L149.507 10.5834L146.482 11.1264C146.135 10.5969 145.74 10.0981 145.303 9.63546L146.603 6.93492L144.39 5.32502L142.022 7.24861C141.444 6.96846 140.841 6.73562 140.221 6.55248L139.963 3.60737L137.182 3.28873L136.105 6.077C135.453 6.12131 134.806 6.21675 134.168 6.36236L132.419 3.9543L129.818 5.02529L130.32 7.93535C129.765 8.28242 129.241 8.67303 128.752 9.10313L125.98 7.90165L124.258 10.0741L126.206 12.3237C125.902 12.8867 125.648 13.4728 125.446 14.0756L122.39 14.3836L122.009 17.0808L124.883 18.0571C124.91 18.6869 124.992 19.3123 125.129 19.9265L122.603 21.6667ZM133.85 10.9637C135.176 10.4146 136.633 10.2544 138.036 10.5035C139.44 10.7526 140.727 11.3998 141.734 12.3631C142.742 13.3264 143.425 14.5625 143.697 15.9148C143.968 17.2672 143.817 18.6749 143.261 19.9599C142.705 21.2448 141.77 22.3492 140.574 23.1331C139.378 23.9169 137.975 24.3451 136.542 24.3633C135.11 24.3815 133.713 23.989 132.528 23.2354C131.342 22.4818 130.422 21.4011 129.884 20.13C129.164 18.4288 129.179 16.5079 129.924 14.7889C130.67 13.0699 132.086 11.6931 133.861 10.9608L133.85 10.9637Z" fill="#F9D566"/>
<circle cx="169.418" cy="43.3857" r="12.5" transform="rotate(-14.7693 169.418 43.3857)" fill="white"/>
<path d="M150.771 49.1545L152.218 52.614L156.257 51.902C156.73 52.6365 157.263 53.3299 157.852 53.975L156.145 57.7062L159.134 59.9813L162.289 57.3422C163.062 57.7395 163.867 58.0724 164.696 58.3375L165.082 62.4216L168.807 62.8979L170.21 59.0498C171.083 59.0027 171.951 58.8822 172.804 58.6896L175.179 62.033L178.644 60.5834L177.937 56.5565C178.671 56.0838 179.365 55.5501 180.01 54.961L183.735 56.6656L186.01 53.6775L183.374 50.5354C183.771 49.7586 184.103 48.9499 184.365 48.1179L188.451 47.7309L188.928 44.0062L185.073 42.5872C185.029 41.7149 184.911 40.848 184.72 39.9958L188.063 37.619L186.613 34.1545L182.573 34.8647C182.1 34.1302 181.567 33.4368 180.978 32.7917L182.682 29.0669L179.694 26.7918L176.551 29.4317C175.775 29.0337 174.966 28.7023 174.134 28.4411L173.747 24.3552L170.022 23.8789L168.621 27.7283C167.748 27.7727 166.88 27.8912 166.027 28.0826L163.651 24.7397L160.186 26.1893L160.898 30.2284C160.163 30.7012 159.47 31.2349 158.825 31.8239L155.1 30.1193L152.825 33.1075L155.461 36.2513C155.063 37.0281 154.731 37.837 154.468 38.6693L150.385 39.0596L149.909 42.7842L153.751 44.1869C153.797 45.0596 153.916 45.9269 154.107 46.7797L150.771 49.1545ZM165.688 34.4714C167.452 33.7335 169.396 33.5354 171.273 33.9021C173.149 34.2688 174.875 35.1838 176.232 36.5314C177.589 37.879 178.515 39.5988 178.894 41.473C179.274 43.3473 179.088 45.2919 178.362 47.061C177.636 48.83 176.402 50.344 174.815 51.4114C173.228 52.4788 171.361 53.0518 169.448 53.0577C167.536 53.0637 165.665 52.5024 164.072 51.4449C162.478 50.3874 161.235 48.8812 160.497 47.1167C159.509 44.7518 159.5 42.0912 160.473 39.7199C161.446 37.3487 163.321 35.4609 165.686 34.4719L165.688 34.4714Z" fill="#F3AEB6"/>
<line x1="111.766" y1="84.5" x2="145.766" y2="84.5" stroke="#434343" stroke-linecap="round" stroke-dasharray="2 2"/>
<path d="M209.336 111.973C209.897 111.632 210.278 111.182 210.408 110.639C210.837 108.85 208.401 106.731 204.969 105.908C201.536 105.084 198.406 105.868 197.977 107.657C197.846 108.201 197.98 108.773 198.325 109.332C197.764 109.673 197.385 110.123 197.255 110.667C197.051 111.516 197.492 112.439 198.378 113.263C198.332 113.354 198.297 113.45 198.272 113.548C197.954 114.872 199.756 116.441 202.296 117.05C204.836 117.659 207.155 117.079 207.472 115.755C207.496 115.656 207.507 115.555 207.506 115.453C208.67 115.12 209.482 114.498 209.686 113.649C209.816 113.105 209.682 112.532 209.336 111.973Z" fill="#434343"/>
<path d="M226.884 88.0717C227.541 85.3354 227.509 82.4787 226.791 79.7553C226.074 77.0318 224.693 74.526 222.771 72.4603C220.85 70.3947 218.447 68.8331 215.776 67.9142C213.105 66.9954 210.249 66.7477 207.462 67.1933C204.674 67.6388 202.041 68.7638 199.797 70.4682C197.553 72.1727 195.766 74.4039 194.597 76.9637C193.427 79.5234 192.91 82.3326 193.092 85.1416C193.274 87.9506 194.149 90.6725 195.639 93.0657C197.346 95.7793 198.287 98.9006 198.363 102.1L198.366 102.255C198.396 103.768 198.929 105.229 199.882 106.408C200.835 107.587 202.153 108.418 203.63 108.77L204.863 109.066C206.338 109.42 207.888 109.276 209.27 108.657C210.653 108.038 211.789 106.979 212.501 105.646L212.545 105.564C214.032 102.751 216.263 100.397 218.996 98.7572C220.962 97.5942 222.674 96.0491 224.029 94.2136C225.384 92.3781 226.355 90.2895 226.884 88.0717Z" fill="white"/>
<path d="M195.402 93.2189L195.402 93.2188C193.573 90.291 192.658 86.8884 192.774 83.4439C192.89 79.9995 194.031 76.669 196.053 73.8765C198.075 71.0839 200.886 68.9556 204.128 67.7622C207.37 66.5689 210.897 66.3646 214.259 67.1752M195.402 93.2189L198.085 102.108L198.088 102.263C198.088 102.263 198.088 102.263 198.088 102.263C198.12 103.837 198.674 105.358 199.665 106.586C200.656 107.814 202.027 108.68 203.564 109.048L204.797 109.344C206.333 109.714 207.949 109.565 209.39 108.921C210.83 108.277 212.015 107.174 212.758 105.785L212.758 105.785L212.803 105.701L212.803 105.701C214.265 102.934 216.459 100.62 219.146 99.0068C222.124 97.2406 224.504 94.6287 225.982 91.505C227.46 88.3812 227.97 84.8875 227.445 81.4704C226.92 78.0532 225.386 74.868 223.037 72.3216C220.688 69.7752 217.632 67.9834 214.259 67.1752M195.402 93.2189C197.081 95.8894 198.008 98.96 198.085 102.108L195.402 93.2189ZM214.259 67.1752C214.259 67.1752 214.259 67.1752 214.259 67.1752L214.248 67.2238L214.259 67.1752C214.259 67.1752 214.259 67.1752 214.259 67.1752ZM214.125 67.7347L214.174 67.7463L214.174 67.7449C217.416 68.5325 220.352 70.2603 222.611 72.7101C224.882 75.1722 226.366 78.2517 226.874 81.5554C227.381 84.859 226.889 88.2368 225.461 91.2572C224.032 94.2776 221.732 96.8035 218.854 98.5122L218.854 98.5123C216.074 100.177 213.804 102.568 212.291 105.428L212.247 105.51L212.247 105.51C211.565 106.787 210.477 107.801 209.152 108.394C207.828 108.987 206.343 109.125 204.931 108.786L203.697 108.491C202.285 108.153 201.024 107.359 200.112 106.232C199.199 105.105 198.687 103.709 198.656 102.263C198.656 102.263 198.656 102.263 198.656 102.262L198.654 102.1L198.654 102.1C198.575 98.8488 197.618 95.6778 195.885 92.9202C194.692 91.018 193.895 88.8961 193.543 86.6815C193.19 84.4669 193.29 82.2049 193.835 80.0309L193.835 80.0308C196.041 71.0948 205.142 65.5801 214.125 67.7347Z" fill="#434343" stroke="#434343" stroke-width="0.1"/>
<path d="M205.967 106.848L205.966 106.849L205.978 106.85L205.996 106.85C206.032 106.855 206.069 106.853 206.104 106.844C206.141 106.834 206.175 106.818 206.206 106.795C206.236 106.773 206.261 106.744 206.28 106.712C206.299 106.68 206.312 106.644 206.317 106.606C206.974 102.037 209.238 96.4528 211.349 91.9916C213.437 87.5804 215.373 84.2722 215.453 84.1368L215.455 84.1335L215.455 84.1336L215.456 84.1306C215.489 84.0657 215.495 83.9909 215.474 83.9213C215.454 83.8517 215.407 83.7924 215.345 83.7555C215.282 83.7186 215.208 83.7067 215.137 83.7221C215.066 83.7376 215.003 83.7793 214.962 83.8389L214.962 83.8388L214.96 83.8423C214.959 83.8437 214.957 83.8466 214.955 83.8508C214.838 84.0503 212.907 87.3588 210.825 91.7605C208.699 96.2548 206.414 101.894 205.748 106.528L205.748 106.528C205.738 106.599 205.755 106.671 205.796 106.73C205.836 106.789 205.897 106.831 205.967 106.848Z" fill="#434343" stroke="#434343" stroke-width="0.1"/>
<path d="M203.833 105.64C207.663 88.2794 205.43 82.5212 205.405 82.4697L204.01 105.921C203.95 105.907 203.897 105.869 203.864 105.817C203.831 105.764 203.82 105.701 203.833 105.64ZM203.822 105.843C203.857 105.899 203.91 105.941 203.972 105.962L203.975 105.969L204.001 105.975C204.038 105.984 204.076 105.985 204.114 105.978C204.151 105.972 204.187 105.958 204.218 105.937C204.25 105.917 204.278 105.891 204.299 105.859C204.321 105.829 204.336 105.794 204.344 105.757C208.219 88.2001 205.994 82.5162 205.892 82.2705L205.892 82.2705C205.863 82.1999 205.807 82.1438 205.737 82.1143C205.666 82.0849 205.587 82.0846 205.516 82.1135C205.445 82.1423 205.389 82.1981 205.36 82.2685C205.33 82.3389 205.33 82.4181 205.359 82.4887L205.359 82.4888L205.36 82.4916C205.36 82.4916 205.36 82.4916 205.36 82.4918C205.361 82.494 205.37 82.5166 205.386 82.5638C205.403 82.6122 205.426 82.6843 205.454 82.7817C205.509 82.9764 205.583 83.2719 205.66 83.6796C205.812 84.495 205.974 85.7595 206.015 87.565C206.097 91.1763 205.699 96.952 203.784 105.629L203.784 105.629C203.768 105.703 203.782 105.78 203.822 105.843Z" fill="#434343" stroke="#434343" stroke-width="0.1"/>
<path d="M209.682 85.7484L209.682 85.7486L209.686 85.7497L209.745 85.7638C210.293 85.8953 210.85 85.6599 211.337 85.2466C211.415 85.3703 211.515 85.4796 211.631 85.5695C211.763 85.6718 211.915 85.7468 212.076 85.7903L212.076 85.7903L212.078 85.7906L212.091 85.7939L212.092 85.7941C212.424 85.8687 212.79 85.7838 213.142 85.575C213.494 85.3663 213.835 85.032 214.122 84.6005C214.146 84.5694 214.162 84.5339 214.172 84.4961C214.181 84.4577 214.182 84.4179 214.175 84.379C214.169 84.3401 214.154 84.3031 214.132 84.2702C214.11 84.2372 214.082 84.2092 214.048 84.1877C214.015 84.1662 213.978 84.1517 213.939 84.1452C213.9 84.1387 213.86 84.1403 213.822 84.1498C213.784 84.1594 213.748 84.1767 213.716 84.2007C213.686 84.2243 213.66 84.2539 213.641 84.2877C213.422 84.6173 213.164 84.8804 212.91 85.0483C212.655 85.2171 212.411 85.285 212.219 85.2394C212.114 85.2086 212.017 85.1552 211.934 85.083C211.86 85.0176 211.799 84.9382 211.755 84.8495C212.152 84.4095 212.465 83.9011 212.68 83.3491L212.68 83.3491L212.68 83.3481C212.821 82.9616 212.906 82.5255 212.929 82.1325C212.953 81.7422 212.917 81.3863 212.809 81.1637C212.782 81.1 212.742 81.0423 212.692 80.9943C212.641 80.9461 212.581 80.9085 212.516 80.884L212.516 80.8839L212.512 80.8829C212.437 80.8608 212.358 80.8558 212.28 80.8682C212.203 80.8806 212.13 80.9099 212.066 80.9539C211.858 81.0759 211.622 81.3364 211.418 81.67C211.213 82.0056 211.037 82.4206 210.953 82.8557L210.953 82.8562C210.838 83.4877 210.881 84.1379 211.078 84.7493C210.66 85.1243 210.217 85.3201 209.848 85.2165C209.706 85.1607 209.576 85.0774 209.467 84.9713C209.366 84.8737 209.284 84.7586 209.224 84.6318C209.838 84.1556 210.252 83.4693 210.388 82.7049L210.388 82.7049L210.388 82.7033C210.431 82.4045 210.419 82.0761 210.362 81.7776C210.306 81.4806 210.205 81.2083 210.065 81.0232C210.018 80.9517 209.958 80.8905 209.886 80.8432C209.814 80.7957 209.734 80.7633 209.649 80.7482L209.649 80.7481L209.645 80.7477C209.562 80.7402 209.479 80.7496 209.4 80.775C209.322 80.8004 209.25 80.8412 209.188 80.8951C208.989 81.051 208.8 81.3309 208.649 81.6589C208.497 81.9886 208.383 82.3724 208.337 82.74L208.337 82.74L208.337 82.7407C208.277 83.2944 208.334 83.8545 208.504 84.385C208.293 84.4707 208.061 84.4923 207.838 84.4467C207.193 84.3043 206.665 83.5866 206.595 82.7232C206.593 82.6853 206.583 82.6482 206.567 82.614C206.55 82.5796 206.527 82.5489 206.498 82.5236C206.469 82.4984 206.436 82.4792 206.399 82.4671C206.363 82.455 206.325 82.4503 206.287 82.4532C206.249 82.4555 206.212 82.4653 206.178 82.4819C206.144 82.4985 206.113 82.5217 206.088 82.5502C206.063 82.5787 206.044 82.6118 206.032 82.6478C206.019 82.6837 206.014 82.7217 206.017 82.7596L206.017 82.7596L206.017 82.7603C206.107 83.8741 206.797 84.7973 207.71 84.9997L207.711 84.9998C208.051 85.0719 208.404 85.0392 208.724 84.9067C208.816 85.0953 208.944 85.265 209.1 85.4064C209.269 85.5588 209.467 85.6752 209.682 85.7484ZM212.188 81.5783C212.239 81.5229 212.284 81.4815 212.321 81.454C212.334 81.4993 212.346 81.5614 212.354 81.639C212.366 81.7531 212.369 81.8953 212.36 82.0552C212.343 82.375 212.279 82.7622 212.147 83.1323C212.001 83.5274 211.795 83.898 211.537 84.2315C211.45 83.8078 211.445 83.371 211.522 82.945C211.601 82.5348 211.768 82.1754 211.939 81.9067C212.025 81.7724 212.111 81.6613 212.188 81.5783ZM209.007 84.0577C208.894 83.6497 208.861 83.224 208.908 82.8034C208.96 82.3861 209.099 82.0112 209.245 81.7395C209.317 81.6036 209.391 81.4947 209.454 81.4198C209.486 81.3822 209.515 81.3543 209.538 81.3358C209.553 81.3243 209.564 81.318 209.571 81.3147C209.577 81.3187 209.584 81.3254 209.593 81.3362C209.609 81.3554 209.628 81.3832 209.647 81.4195C209.686 81.4919 209.726 81.5933 209.76 81.7153C209.827 81.9591 209.867 82.2797 209.82 82.6063C209.717 83.1671 209.43 83.6771 209.007 84.0577Z" fill="#434343" stroke="#434343" stroke-width="0.1"/>
<path d="M217.495 76.2028C217.9 76.8406 218.391 77.4213 218.77 78.0773C219.166 78.7988 219.498 79.5533 219.762 80.3321C220.044 81.0742 220.251 81.842 220.382 82.6245C220.424 82.9872 220.445 83.3517 220.446 83.7166C220.476 84.2711 220.429 85.499 221.122 85.709C221.505 85.8267 221.882 85.4982 222.13 85.2524C222.556 84.803 222.869 84.2591 223.042 83.6653C223.439 82.4386 223.415 81.106 223.194 79.8464C222.968 78.5341 222.506 77.2731 221.829 76.1249C221.545 75.6396 221.212 75.1844 220.836 74.7662L220.804 74.7243C220.371 74.2017 219.89 73.6527 219.226 73.4366C218.71 73.2642 218.148 73.2936 217.653 73.5189C216.483 74.0876 216.948 75.3455 217.495 76.2028Z" fill="#CADDFF"/>
<path d="M216.689 73.1828C216.861 72.9367 216.969 72.6519 217.003 72.354C217.036 72.056 216.996 71.7541 216.884 71.4755C216.885 71.4598 216.884 71.4438 216.879 71.4288C216.509 70.2862 214.901 70.1588 214.406 71.2726C213.88 72.4375 215.685 74.4052 216.689 73.1828Z" fill="#CADDFF"/>
<path d="M221.059 91.171L221.059 91.1704C221.102 91.1084 221.168 91.0658 221.243 91.0519C221.317 91.0381 221.394 91.0539 221.456 91.0961C221.519 91.1383 221.563 91.2034 221.578 91.2775L221.529 91.2874L221.578 91.2775C221.593 91.3515 221.578 91.4284 221.537 91.4916L221.536 91.4921C220.489 93.0432 219.138 94.3677 217.565 95.3866C215.993 96.4053 214.229 97.0976 212.381 97.4222C212.342 97.4297 212.302 97.4288 212.263 97.4194M221.059 91.171L212.275 97.3708M221.059 91.171C220.055 92.6582 218.76 93.9282 217.251 94.9051C215.743 95.882 214.052 96.5459 212.28 96.8571M221.059 91.171L212.288 96.9064M212.263 97.4194L212.275 97.3708M212.263 97.4194C212.263 97.4195 212.263 97.4195 212.264 97.4195L212.275 97.3708M212.263 97.4194C212.199 97.4044 212.141 97.3675 212.101 97.3151C212.06 97.2626 212.039 97.1976 212.041 97.1313C212.043 97.0649 212.068 97.0013 212.111 96.9513C212.155 96.9014 212.215 96.8681 212.28 96.8571M212.275 97.3708C212.221 97.3584 212.174 97.3279 212.14 97.2845C212.107 97.2411 212.089 97.1875 212.091 97.1327C212.092 97.078 212.113 97.0255 212.149 96.9842C212.185 96.943 212.234 96.9154 212.288 96.9064M212.28 96.8571C212.28 96.8571 212.28 96.8571 212.28 96.8571L212.288 96.9064M212.28 96.8571C212.28 96.8571 212.28 96.8571 212.28 96.8571L212.288 96.9064" fill="#434343" stroke="#434343" stroke-width="0.1"/>
<path d="M198.006 90.6182C198.075 90.6362 198.147 90.6285 198.21 90.5963L198.21 90.5963L198.212 90.5955C198.278 90.5585 198.327 90.497 198.349 90.424C198.37 90.3511 198.361 90.2727 198.325 90.206L198.325 90.2055C197.315 88.3946 196.743 86.3743 196.654 84.3056C196.566 82.2369 196.964 80.1771 197.817 78.2905C198.669 76.4039 199.952 74.7426 201.564 73.4392C203.176 72.1357 205.072 71.2262 207.1 70.7831C207.137 70.775 207.172 70.7598 207.203 70.7383C207.234 70.7167 207.26 70.6893 207.281 70.6576C207.301 70.6258 207.315 70.5904 207.322 70.5532C207.328 70.5161 207.327 70.478 207.319 70.4412C207.311 70.4044 207.296 70.3695 207.274 70.3386C207.252 70.3077 207.225 70.2813 207.193 70.261C207.161 70.2407 207.126 70.2268 207.088 70.2202C207.051 70.2135 207.013 70.2143 206.976 70.2223L206.976 70.2223C204.861 70.685 202.884 71.6339 201.203 72.9933C199.523 74.3528 198.184 76.0853 197.295 78.0527C196.406 80.0202 195.991 82.1682 196.082 84.3256C196.173 86.4831 196.769 88.5902 197.821 90.4793L197.822 90.4797C197.841 90.5143 197.868 90.5444 197.9 90.5683C197.932 90.592 197.968 90.609 198.006 90.6182ZM198.006 90.6182C198.006 90.6181 198.006 90.6181 198.006 90.618L198.019 90.5697L198.007 90.6184C198.007 90.6183 198.007 90.6182 198.006 90.6182Z" fill="#434343" stroke="#434343" stroke-width="0.1"/>
<path d="M200.465 91.4585C200.418 91.4469 200.375 91.4214 200.342 91.3853C199.149 90.0309 198.289 88.418 197.831 86.6751C197.374 84.9322 197.33 83.1075 197.705 81.3464C198.08 79.5853 198.863 77.9366 199.991 76.5316C201.119 75.1266 202.561 74.0042 204.202 73.2539C204.26 73.2276 204.325 73.2251 204.384 73.2469C204.444 73.2687 204.492 73.3131 204.518 73.3703C204.545 73.4275 204.547 73.4928 204.526 73.5518C204.504 73.6108 204.459 73.6588 204.402 73.6851C202.828 74.4047 201.445 75.4813 200.363 76.8289C199.281 78.1765 198.531 79.7579 198.172 81.447C197.813 83.1361 197.854 84.8861 198.294 86.5576C198.734 88.229 199.559 89.7756 200.704 91.0741C200.737 91.112 200.757 91.1594 200.761 91.2094C200.766 91.2593 200.754 91.3093 200.728 91.3522C200.702 91.3951 200.663 91.4286 200.616 91.4479C200.57 91.4672 200.519 91.4713 200.47 91.4596L200.465 91.4585Z" fill="white"/>
<path d="M201.234 111.14C200.334 110.931 199.451 110.659 198.589 110.327C198.53 110.303 198.483 110.256 198.459 110.197C198.434 110.138 198.434 110.072 198.459 110.014C198.483 109.955 198.53 109.908 198.589 109.884C198.648 109.86 198.714 109.86 198.773 109.884C198.826 109.905 204.003 112.019 208.928 110.959C208.959 110.953 208.991 110.952 209.021 110.958C209.052 110.964 209.081 110.975 209.108 110.992C209.134 111.009 209.157 111.031 209.175 111.057C209.192 111.082 209.205 111.111 209.211 111.142C209.218 111.172 209.219 111.204 209.213 111.234C209.207 111.265 209.196 111.294 209.179 111.32C209.162 111.346 209.14 111.369 209.114 111.387C209.089 111.404 209.06 111.417 209.029 111.423C206.18 112.041 203.259 111.626 201.234 111.14Z" fill="white"/>
<path d="M201.203 114.217C200.536 114.062 199.881 113.858 199.245 113.607C199.215 113.595 199.189 113.578 199.166 113.555C199.144 113.533 199.126 113.507 199.114 113.478C199.089 113.419 199.089 113.353 199.113 113.294C199.138 113.235 199.184 113.189 199.243 113.164C199.302 113.14 199.368 113.14 199.427 113.164C199.468 113.174 203.212 114.708 206.773 113.943C206.804 113.935 206.837 113.933 206.868 113.938C206.9 113.943 206.931 113.954 206.958 113.97C206.986 113.987 207.009 114.009 207.028 114.035C207.047 114.061 207.06 114.091 207.067 114.122C207.074 114.154 207.074 114.186 207.068 114.218C207.062 114.249 207.049 114.279 207.031 114.305C207.013 114.332 206.99 114.355 206.963 114.372C206.936 114.389 206.906 114.401 206.874 114.406C204.778 114.861 202.672 114.569 201.203 114.217Z" fill="white"/>
<path d="M218.313 65.9736L218.313 65.9739L218.319 65.9762C218.34 65.984 218.361 65.9893 218.383 65.992C218.445 66.0059 218.51 65.9994 218.567 65.9733C218.626 65.9468 218.673 65.9016 218.703 65.8449L218.703 65.8446L223.783 56.0632C223.802 56.0299 223.814 55.9931 223.818 55.955C223.822 55.9166 223.819 55.8778 223.808 55.8407C223.797 55.8037 223.779 55.7692 223.754 55.7395C223.729 55.7097 223.699 55.6852 223.664 55.6674C223.63 55.6497 223.592 55.639 223.554 55.636C223.515 55.6331 223.476 55.6379 223.44 55.6503C223.403 55.6626 223.369 55.6823 223.34 55.708C223.312 55.7334 223.289 55.7644 223.272 55.799L218.191 65.5866L218.191 65.5867C218.156 65.6542 218.15 65.7327 218.173 65.8051C218.195 65.8775 218.246 65.938 218.313 65.9736Z" fill="#434343" stroke="#434343" stroke-width="0.1"/>
<path d="M215.626 65.2439C215.666 65.3088 215.73 65.3552 215.804 65.373C215.878 65.3908 215.956 65.3785 216.021 65.3388C216.086 65.2991 216.133 65.2352 216.151 65.1612L217.522 59.4425C217.54 59.3685 217.527 59.2904 217.487 59.2255C217.448 59.1606 217.383 59.1142 217.309 59.0964C217.235 59.0786 217.157 59.0909 217.092 59.1306C217.027 59.1703 216.98 59.2342 216.963 59.3083L215.591 65.0269C215.573 65.101 215.586 65.179 215.626 65.2439Z" fill="#434343" stroke="#434343" stroke-width="0.1"/>
<path d="M226.6 73.3886L226.601 73.3887C226.642 73.3986 226.685 73.3991 226.726 73.3903L226.716 73.3414L226.726 73.3903C226.767 73.3816 226.806 73.3638 226.84 73.3382C226.84 73.3381 226.84 73.338 226.84 73.3378L235.536 66.9807C235.568 66.9592 235.595 66.9315 235.616 66.8992C235.637 66.8666 235.652 66.83 235.658 66.7916C235.665 66.7532 235.664 66.7139 235.655 66.676C235.646 66.6382 235.629 66.6025 235.606 66.5713C235.582 66.5401 235.553 66.5139 235.519 66.4944C235.485 66.4749 235.448 66.4624 235.409 66.4577C235.37 66.453 235.331 66.4562 235.294 66.4671C235.257 66.4779 235.222 66.496 235.193 66.5203L226.496 72.8779L226.496 72.8779L226.496 72.8783C226.452 72.9111 226.419 72.9555 226.4 73.0064C226.38 73.0573 226.376 73.1127 226.387 73.1661C226.398 73.2195 226.423 73.2687 226.461 73.3081C226.499 73.3474 226.547 73.3753 226.6 73.3886Z" fill="#434343" stroke="#434343" stroke-width="0.1"/>
<path d="M185.998 97.4111L185.998 97.411L193.625 94.565L193.625 94.565C193.696 94.5383 193.776 94.5411 193.845 94.5727C193.915 94.6043 193.969 94.6621 193.996 94.7335C194.022 94.8049 194.02 94.8839 193.988 94.9533C193.956 95.0226 193.898 95.0765 193.827 95.1032L193.827 95.1031L185.998 97.4111ZM185.998 97.4111C185.941 97.4327 185.892 97.4722 185.858 97.5237M185.998 97.4111L185.858 97.5237M186.032 97.9582C186.089 97.9729 186.149 97.9695 186.204 97.9483L185.813 97.6972M186.032 97.9582C185.972 97.9437 185.919 97.9106 185.88 97.8637C185.84 97.8167 185.817 97.7584 185.813 97.6972M186.032 97.9582C186.032 97.9582 186.032 97.9581 186.032 97.9581L186.044 97.9097L186.032 97.9583C186.032 97.9583 186.032 97.9582 186.032 97.9582ZM185.813 97.6972C185.809 97.6359 185.825 97.5752 185.858 97.5237M185.813 97.6972L185.858 97.5237M186.204 97.9482L193.827 95.1032L186.204 97.9482Z" fill="#434343" stroke="#434343" stroke-width="0.1"/>
<path d="M186.719 92.4104L186.709 92.4022L186.7 92.3953C186.63 92.3783 186.569 92.3358 186.529 92.276C186.486 92.2127 186.471 92.1351 186.486 92.0604C186.5 91.9857 186.544 91.9199 186.608 91.8776C186.671 91.8355 186.748 91.8201 186.823 91.8345L192.806 92.7631C192.806 92.7631 192.806 92.7631 192.806 92.7631L192.806 92.7631L192.799 92.8125C192.861 92.8222 192.917 92.8561 192.955 92.907C192.992 92.9579 193.008 93.0214 192.998 93.0838C192.989 93.1461 192.955 93.202 192.904 93.2393C192.853 93.2766 192.789 93.2921 192.727 93.2825L186.719 92.4104ZM186.719 92.4104L186.732 92.4123L192.719 93.3319M186.719 92.4104L192.719 93.3319M192.719 93.3319C192.719 93.3319 192.719 93.3319 192.719 93.3319L192.719 93.3319Z" fill="#434343" stroke="#434343" stroke-width="0.1"/>
<path d="M46.5 198C45.8372 197.999 45.2017 197.736 44.7331 197.267C44.2644 196.798 44.0008 196.163 44 195.5C44 195.386 44.0453 195.277 44.1258 195.196C44.2064 195.116 44.3156 195.07 44.4296 195.07C44.5435 195.07 44.6527 195.116 44.7333 195.196C44.8138 195.277 44.8591 195.386 44.8591 195.5C44.8591 195.825 44.9553 196.142 45.1356 196.412C45.3159 196.681 45.5722 196.892 45.8721 197.016C46.1719 197.14 46.5018 197.173 46.8201 197.109C47.1384 197.046 47.4308 196.89 47.6603 196.66C47.8898 196.431 48.0461 196.138 48.1094 195.82C48.1727 195.502 48.1402 195.172 48.016 194.872C47.8918 194.572 47.6815 194.316 47.4116 194.136C47.1418 193.955 46.8245 193.859 46.5 193.859C46.3861 193.859 46.2768 193.814 46.1963 193.733C46.1157 193.653 46.0704 193.543 46.0704 193.43C46.0704 193.316 46.1157 193.206 46.1963 193.126C46.2768 193.045 46.3861 193 46.5 193C47.163 193 47.7989 193.263 48.2678 193.732C48.7366 194.201 49 194.837 49 195.5C49 196.163 48.7366 196.799 48.2678 197.268C47.7989 197.737 47.163 198 46.5 198Z" fill="#434343"/>
</svg>
