<svg width="206" height="199" viewBox="0 0 206 199" fill="none" xmlns="http://www.w3.org/2000/svg">
<path d="M2.49931 159.201C8.24692 173.099 21.6643 179.679 30.2398 183.883C64.0431 200.461 115.379 198.552 152.316 168.383C160.96 161.312 203.564 124.315 193.62 74.1709C184.823 29.844 140.684 4.10507 103.512 0.664603C72.7128 -2.18406 25.2756 3.46864 11.0819 30.4992C2.15582 47.4949 20.128 58.4105 12.8441 96.9297C6.53652 130.271 -4.5305 142.203 2.49931 159.201Z" fill="#EDF3FF"/>
<path d="M84.2189 115.407C92.0088 93.0506 89.9774 83.719 86.1544 79.4276C85.0119 78.1477 82.3813 75.8059 80.5477 71.5304C78.1708 65.9829 79.4491 62.5771 78.8699 57.8598C77.7334 48.6371 70.2151 40.3337 62.3314 36.6763C56.8246 34.1205 46.4281 31.6499 40.6057 37.029C38.1449 39.3054 35.8379 43.5948 37.236 46.4379C39.2434 50.5133 47.3449 47.5335 51.7691 52.873C53.6427 55.1356 53.0335 56.673 53.8784 58.686C54.192 59.4309 54.5415 59.8747 55.0648 60.5701C56.463 62.4246 57.7114 64.388 59.1296 66.2246C63.2382 71.5422 59.6469 79.7149 64.3867 83.8577C67.8942 86.9286 72.7518 84.987 73.8584 87.7567C74.7333 89.9361 71.6473 91.2794 71.7811 94.7426C71.9449 98.9488 75.9537 100.389 80.0503 106.329C82.3533 109.671 83.4619 112.911 84.2189 115.407Z" fill="#71D6D7"/>
<path d="M91.6981 130.908C91.6049 130.908 91.5155 130.871 91.4493 130.805C91.3832 130.74 91.3458 130.651 91.3452 130.558C91.1475 108.623 85.7411 85.7611 76.8879 69.3994C70.7874 58.1269 63.7952 51.408 59.0075 47.7538C53.8175 43.7967 50.0203 42.4863 49.9826 42.4722C49.894 42.441 49.8215 42.376 49.7809 42.2915C49.7403 42.2069 49.735 42.1097 49.7662 42.0213C49.7974 41.9328 49.8625 41.8604 49.9472 41.8199C50.0319 41.7794 50.1293 41.7741 50.2179 41.8052C50.3755 41.8592 54.1375 43.1532 59.4146 47.1691C64.2705 50.8655 71.3521 57.6643 77.5302 69.066C81.5439 76.4824 85 85.6554 87.5268 95.6034C90.424 107.032 91.9397 118.765 92.0415 130.553C92.0422 130.646 92.0059 130.735 91.9407 130.802C91.8755 130.868 91.7865 130.906 91.6934 130.908H91.6981Z" fill="white"/>
<path d="M158.901 184.604H71.3809C67.6166 184.604 64.9369 181.568 65.4145 177.822L86.9651 8.20543C87.4356 4.45966 90.8823 1.42313 94.6536 1.42313L177.783 0.455566C187.323 0.455566 188.62 4.44792 188.135 8.20543L166.585 177.822C166.116 181.568 162.674 184.604 158.901 184.604Z" fill="#99B9FF"/>
<path d="M153.625 184.604H66.1054C62.3411 184.604 59.6614 181.551 60.1366 177.794L81.6872 7.31293C82.1578 3.55542 85.6068 0.502441 89.3781 0.502441H176.917C180.681 0.502441 183.361 3.55542 182.886 7.31293L161.326 177.777C160.85 181.551 157.406 184.604 153.625 184.604Z" fill="white"/>
<path d="M65.1346 178.012L85.7112 15.2389C85.7742 14.8098 85.9869 14.4167 86.3119 14.1289C86.6368 13.841 87.0531 13.6769 87.4874 13.6655H175.478C175.678 13.6605 175.876 13.6996 176.06 13.7799C176.243 13.8603 176.406 13.9799 176.538 14.1304C176.669 14.2808 176.766 14.4583 176.821 14.6503C176.876 14.8423 176.888 15.0441 176.856 15.2413L158 164.5C157.937 164.929 150 155.5 137.5 165C134 166.5 133.934 179.574 133.5 179.585H66.5133C66.3134 179.591 66.1147 179.552 65.9315 179.472C65.7484 179.392 65.5851 179.272 65.4535 179.122C65.3218 178.972 65.225 178.794 65.1698 178.603C65.1147 178.411 65.1027 178.209 65.1346 178.012Z" fill="#F0F5FF"/>
<path d="M132.052 9.15913C131.728 9.1674 131.406 9.10426 131.109 8.97419C130.812 8.84413 130.548 8.65034 130.334 8.40662C130.121 8.1629 129.964 7.87522 129.875 7.56407C129.785 7.25292 129.766 6.92593 129.817 6.60637C129.919 5.90958 130.263 5.27098 130.791 4.80342C131.318 4.33586 131.994 4.06945 132.699 4.05127C133.024 4.04294 133.346 4.10612 133.643 4.23632C133.94 4.36652 134.205 4.56053 134.418 4.80453C134.632 5.04852 134.789 5.3365 134.878 5.64795C134.967 5.95939 134.986 6.28664 134.934 6.60637C134.832 7.30274 134.487 7.94079 133.96 8.40788C133.433 8.87496 132.757 9.14104 132.052 9.15913Z" fill="#CADDFF"/>
<path d="M103.752 56.9683C105.375 44.5098 116.901 34.4092 129.495 34.4092C142.089 34.4092 150.984 44.5075 149.361 56.9683C147.738 69.4292 136.219 79.5298 123.627 79.5298C111.036 79.5298 102.138 69.4315 103.761 56.9683H103.752Z" fill="white"/>
<path d="M108.781 73.3774C112.367 77.1889 117.564 79.5303 123.622 79.5303C129.68 79.5303 135.487 77.1818 140.067 73.3774C135.531 71.9284 130.329 71.1158 124.718 71.1158C119.325 71.1067 113.958 71.8682 108.781 73.3774Z" fill="#99B9FF"/>
<path d="M124.359 74.9274C123.905 74.9419 123.454 74.856 123.038 74.6758C122.621 74.4957 122.25 74.2259 121.95 73.8856C121.65 73.5453 121.43 73.143 121.304 72.7076C121.178 72.2722 121.151 71.8145 121.223 71.3672L123.587 53.209H130.787L128.42 71.3672C128.27 72.3424 127.781 73.2338 127.039 73.8849C126.296 74.536 125.347 74.9051 124.359 74.9274Z" fill="white"/>
<path d="M140.262 59.8334C140.544 54.1971 143.516 50.6745 138.709 44.3008C133.733 37.704 128.148 42.1285 128.148 42.1285C128.148 42.1285 124.421 38.6997 118.01 45.8672C112.35 52.1939 117.803 57.8654 115.208 61.8037C112.613 65.7421 105.277 67.8909 105.277 67.8909C105.277 67.8909 106.955 72.3671 109.512 74.3374H139.274C139.274 74.3374 146.292 67.7124 146.536 65.8313C146.539 65.8313 139.979 65.4744 140.262 59.8334Z" fill="#434343"/>
<path d="M108.781 73.3774C112.367 77.1889 117.564 79.5303 123.622 79.5303C129.68 79.5303 135.487 77.1818 140.067 73.3774C135.531 71.9284 130.329 71.1158 124.718 71.1158C119.325 71.1067 113.958 71.8682 108.781 73.3774Z" fill="#B09CF8"/>
<path d="M123.623 79.8825C117.687 79.8825 112.33 77.6585 108.523 73.6169L108.133 73.2012L108.688 73.0368C113.897 71.5147 119.299 70.7483 124.726 70.7611C130.246 70.7611 135.445 71.5267 140.183 73.0391L140.795 73.2341L140.301 73.645C135.464 77.6679 129.542 79.8825 123.623 79.8825ZM109.443 73.5417C113.081 77.1747 118.092 79.178 123.623 79.178C129.154 79.178 134.728 77.1724 139.336 73.5182C134.591 72.1217 129.666 71.4309 124.719 71.468C119.555 71.4562 114.415 72.1571 109.443 73.5511V73.5417Z" fill="#434343"/>
<path d="M128.308 47.2998H128.059L119.785 54.58L119.265 58.5723C118.916 61.2378 120.072 63.5651 122.074 64.8239L121.224 71.3573C121.152 71.8046 121.18 72.2623 121.305 72.6978C121.431 73.1332 121.652 73.5354 121.951 73.8757C122.251 74.216 122.623 74.4858 123.039 74.666C123.456 74.8461 123.907 74.932 124.361 74.9175C125.349 74.8952 126.297 74.5261 127.04 73.875C127.783 73.2239 128.272 72.3325 128.421 71.3573L129.257 64.9484C131.703 63.7201 133.564 61.3247 133.924 58.5723L134.479 54.3005C134.985 50.4397 132.216 47.2998 128.308 47.2998Z" fill="white"/>
<path d="M124.361 75.2795C123.857 75.2943 123.356 75.1981 122.894 74.9975C122.431 74.7969 122.019 74.497 121.686 74.1191C121.353 73.7412 121.108 73.2946 120.967 72.8112C120.827 72.3277 120.795 71.8194 120.874 71.3224L121.7 64.9816C121.706 64.9353 121.721 64.8907 121.745 64.8502C121.768 64.8098 121.799 64.7743 121.836 64.7459C121.873 64.7174 121.915 64.6965 121.961 64.6844C122.006 64.6722 122.053 64.6691 122.099 64.6751C122.145 64.6811 122.19 64.6962 122.231 64.7194C122.271 64.7427 122.307 64.7737 122.335 64.8106C122.364 64.8476 122.385 64.8898 122.397 64.9349C122.409 64.9799 122.412 65.0269 122.406 65.0731L121.583 71.4139C121.516 71.8116 121.54 72.2189 121.651 72.6065C121.762 72.9941 121.957 73.3522 122.224 73.655C122.491 73.9577 122.821 74.1975 123.192 74.357C123.563 74.5166 123.965 74.5918 124.368 74.5773C125.271 74.5555 126.137 74.2179 126.816 73.6234C127.494 73.0288 127.942 72.2153 128.081 71.3247L128.89 65.099C128.896 65.0527 128.911 65.0081 128.935 64.9677C128.958 64.9272 128.989 64.8918 129.026 64.8633C129.063 64.8348 129.105 64.8139 129.15 64.8018C129.195 64.7897 129.243 64.7865 129.289 64.7925C129.335 64.7985 129.38 64.8136 129.42 64.8368C129.461 64.8601 129.496 64.8911 129.525 64.9281C129.553 64.965 129.574 65.0072 129.587 65.0523C129.599 65.0973 129.602 65.1443 129.596 65.1906L128.784 71.4139C128.62 72.4744 128.086 73.4431 127.277 74.15C126.468 74.8569 125.436 75.2568 124.361 75.2795Z" fill="#434343"/>
<path d="M125.651 66.1841C125.557 66.1841 125.467 66.147 125.401 66.0809C125.335 66.0148 125.298 65.9252 125.298 65.8318C125.298 65.7384 125.335 65.6488 125.401 65.5827C125.467 65.5167 125.557 65.4795 125.651 65.4795C129.521 65.4795 133.076 62.3655 133.575 58.5352L134.132 54.2634C134.254 53.4534 134.205 52.6269 133.987 51.8373C133.769 51.0476 133.387 50.3124 132.866 49.6792C132.338 49.064 131.685 48.5664 130.952 48.2186C130.218 47.8707 129.42 47.6802 128.608 47.6596H128.439L120.101 54.8928L119.614 58.6315C119.266 61.3134 120.536 63.7628 122.853 64.8713C122.938 64.9118 123.003 64.9841 123.034 65.0724C123.065 65.1607 123.06 65.2578 123.019 65.3422C122.979 65.4266 122.906 65.4914 122.818 65.5225C122.729 65.5535 122.632 65.5482 122.548 65.5077C119.96 64.2631 118.525 61.5295 118.915 58.5399L119.419 54.6673C119.43 54.5823 119.473 54.5046 119.539 54.4489L128.079 47.0396C128.144 46.9824 128.228 46.9515 128.314 46.9527C128.425 46.9527 128.533 46.9527 128.641 46.9527C129.557 46.9703 130.458 47.184 131.284 47.5791C132.11 47.9743 132.841 48.5418 133.428 49.2433C134.015 49.9448 134.445 50.764 134.688 51.6454C134.93 52.5268 134.981 53.45 134.836 54.3526L134.28 58.6244C133.732 62.7953 129.864 66.1841 125.651 66.1841Z" fill="#434343"/>
<path d="M118.865 179.947H66.5128C66.2646 179.952 66.0185 179.902 65.7911 179.803C65.5637 179.704 65.3605 179.557 65.1953 179.372C65.0302 179.183 64.9079 178.96 64.8369 178.719C64.7658 178.478 64.7476 178.225 64.7835 177.977L85.3601 15.1968C85.4365 14.6856 85.6904 14.2174 86.0774 13.874C86.4644 13.5306 86.96 13.3338 87.4775 13.318H175.468C175.718 13.3135 175.965 13.3635 176.194 13.4644C176.422 13.5653 176.626 13.7148 176.791 13.9024C176.955 14.09 177.077 14.3112 177.147 14.5506C177.217 14.79 177.234 15.0418 177.197 15.2884L160.599 146.658C160.587 146.75 160.539 146.834 160.466 146.892C160.392 146.949 160.299 146.975 160.206 146.963C160.113 146.952 160.028 146.903 159.97 146.83C159.913 146.756 159.886 146.662 159.898 146.569L176.505 15.1968C176.529 15.048 176.52 14.896 176.479 14.7509C176.439 14.6059 176.367 14.4712 176.27 14.356C176.171 14.2461 176.049 14.1589 175.913 14.1005C175.777 14.0422 175.63 14.0139 175.482 14.0179H87.4916C87.1427 14.0275 86.8084 14.1598 86.5476 14.3913C86.2868 14.6229 86.1162 14.9389 86.0659 15.2837L65.4846 178.066C65.4614 178.215 65.4704 178.367 65.511 178.512C65.5516 178.657 65.6228 178.792 65.7199 178.907C65.8194 179.016 65.9412 179.103 66.0773 179.161C66.2133 179.219 66.3602 179.247 66.5081 179.243H118.865C118.958 179.243 119.048 179.28 119.114 179.346C119.18 179.412 119.218 179.502 119.218 179.595C119.218 179.688 119.18 179.778 119.114 179.844C119.048 179.91 118.958 179.947 118.865 179.947Z" fill="#434343"/>
<path d="M116.747 184.956H66.1057C65.1976 184.974 64.2965 184.795 63.4638 184.433C62.6311 184.071 61.8864 183.534 61.2804 182.859C60.6781 182.163 60.2329 181.346 59.9752 180.463C59.7174 179.58 59.653 178.652 59.7864 177.742L81.337 7.26133C81.8428 3.33238 85.4518 0.136151 89.3973 0.136151H176.917C177.825 0.118905 178.726 0.29732 179.559 0.659231C180.392 1.02114 181.136 1.55804 181.742 2.23331C182.345 2.92889 182.79 3.74573 183.048 4.62833C183.305 5.51092 183.37 6.43857 183.236 7.34822L167.612 130.858C167.601 130.951 167.552 131.036 167.478 131.094C167.404 131.152 167.309 131.178 167.216 131.166C167.122 131.155 167.037 131.107 166.979 131.033C166.921 130.958 166.895 130.864 166.906 130.771L182.526 7.26133C182.647 6.45058 182.591 5.62336 182.363 4.83597C182.135 4.04857 181.739 3.31948 181.204 2.6983C180.664 2.09987 180.003 1.62424 179.263 1.30372C178.523 0.983193 177.723 0.825275 176.917 0.840684H89.3973C85.8024 0.840684 82.511 3.7598 82.0569 7.34822L60.5063 177.831C60.3855 178.642 60.4411 179.468 60.6693 180.255C60.8974 181.042 61.2928 181.771 61.8285 182.392C62.3663 182.99 63.0265 183.465 63.7645 183.786C64.5024 184.107 65.3009 184.266 66.1057 184.252H116.747C116.841 184.252 116.931 184.289 116.997 184.355C117.063 184.421 117.1 184.511 117.1 184.604C117.1 184.698 117.063 184.787 116.997 184.853C116.931 184.919 116.841 184.956 116.747 184.956Z" fill="#434343"/>
<path d="M123.624 79.8825C117.427 79.8825 111.91 77.4918 108.096 73.1495C104.283 68.8073 102.615 63.0512 103.415 56.9241C103.776 54.1943 104.592 51.544 105.828 49.0827C105.87 48.9989 105.944 48.9351 106.033 48.9054C106.121 48.8757 106.219 48.8824 106.303 48.9241C106.386 48.9659 106.45 49.0392 106.48 49.1279C106.51 49.2167 106.503 49.3136 106.461 49.3973C105.256 51.7919 104.461 54.3709 104.109 57.0274C103.337 62.9479 104.939 68.5137 108.621 72.6963C112.303 76.8788 117.634 79.1897 123.624 79.1897C136.028 79.1897 147.419 69.2065 149.017 56.9359C149.788 51.0131 148.186 45.4496 144.504 41.2647C140.822 37.0798 135.493 34.7571 129.501 34.7571C122.754 34.7571 116.032 37.7185 111.066 42.8851C111.001 42.9527 110.912 42.9918 110.818 42.9938C110.724 42.9957 110.633 42.9605 110.566 42.8957C110.498 42.8309 110.459 42.7419 110.457 42.6483C110.455 42.5548 110.49 42.4642 110.555 42.3966C115.656 37.1056 122.57 34.0526 129.501 34.0526C135.698 34.0526 141.215 36.4433 145.029 40.7833C148.843 45.1232 150.508 50.8816 149.711 57.011C148.073 69.6245 136.369 79.8825 123.624 79.8825Z" fill="#434343"/>
<path d="M175 157.772L175.402 160.661L178.581 160.926C178.791 161.573 179.055 162.202 179.371 162.805L177.35 165.264L179.145 167.563L182.032 166.205C182.537 166.658 183.079 167.067 183.653 167.429L183.136 170.571L185.841 171.668L187.653 169.047C188.319 169.182 188.995 169.261 189.674 169.282L190.798 172.262L193.69 171.86L193.956 168.688C194.604 168.478 195.234 168.214 195.838 167.899L198.301 169.916L200.607 168.124L199.247 165.243C199.699 164.737 200.109 164.196 200.473 163.624L203.62 164.141L204.717 161.44L202.098 159.637C202.237 158.972 202.319 158.298 202.345 157.619L205.331 156.497L204.926 153.611L201.748 153.345C201.539 152.698 201.276 152.069 200.96 151.467L202.978 149.008L201.183 146.72L198.299 148.075C197.792 147.624 197.249 147.216 196.675 146.854L197.195 143.712L194.49 142.615L192.671 145.227C192.006 145.094 191.331 145.015 190.652 144.992L189.535 142L186.641 142.402L186.375 145.574C185.727 145.784 185.097 146.047 184.493 146.361L182.03 144.346L179.727 146.138L181.086 149.019C180.632 149.523 180.222 150.064 179.861 150.638L176.713 150.119L175.616 152.826L178.242 154.635C178.102 155.299 178.02 155.974 177.995 156.652L175 157.772ZM189.116 149.703C190.592 149.495 192.096 149.728 193.438 150.374C194.78 151.019 195.901 152.048 196.657 153.33C197.413 154.611 197.771 156.088 197.686 157.573C197.601 159.058 197.077 160.484 196.179 161.672C195.281 162.859 194.051 163.753 192.643 164.242C191.236 164.73 189.715 164.791 188.273 164.416C186.831 164.042 185.533 163.248 184.543 162.136C183.553 161.025 182.916 159.645 182.712 158.171C182.44 156.199 182.963 154.2 184.165 152.613C185.368 151.025 187.153 149.978 189.128 149.703H189.116Z" fill="#F9D566"/>
<path d="M124 175.319L124.645 179.945L129.745 180.37C130.082 181.405 130.505 182.41 131.011 183.374L127.764 187.326L130.646 191.016L135.293 188.839C136.1 189.563 136.966 190.219 137.881 190.802L137.048 195.844L141.391 197.601L144.308 193.411C145.377 193.632 146.462 193.762 147.553 193.801L149.355 198.582L153.997 197.936L154.425 192.861C155.462 192.525 156.468 192.103 157.434 191.598L161.386 194.834L165.083 191.957L162.902 187.336C163.628 186.526 164.285 185.657 164.866 184.738L169.92 185.57L171.679 181.234L167.48 178.301C167.704 177.236 167.837 176.155 167.878 175.067L172.668 173.266L172.021 168.633L166.92 168.205C166.583 167.17 166.16 166.166 165.654 165.201L168.896 161.256L166.014 157.567L161.382 159.748C160.572 159.022 159.701 158.366 158.78 157.787L159.613 152.743L155.269 150.986L152.355 155.178C151.287 154.954 150.203 154.822 149.113 154.781L147.308 150L142.666 150.646L142.24 155.737C141.204 156.073 140.197 156.496 139.231 157.001L135.279 153.765L131.583 156.641L133.764 161.265C133.036 162.075 132.378 162.944 131.797 163.863L126.746 163.036L124.986 167.371L129.176 170.281C128.954 171.347 128.821 172.429 128.781 173.517L124 175.319ZM146.67 162.369C149.034 162.041 151.442 162.419 153.59 163.457C155.738 164.495 157.53 166.145 158.738 168.199C159.946 170.253 160.517 172.619 160.379 174.997C160.24 177.375 159.398 179.658 157.959 181.559C156.52 183.459 154.549 184.891 152.295 185.673C150.04 186.454 147.605 186.551 145.295 185.951C142.986 185.351 140.907 184.081 139.32 182.301C137.734 180.521 136.713 178.312 136.385 175.953C135.944 172.79 136.78 169.583 138.708 167.035C140.637 164.488 143.5 162.81 146.668 162.369H146.67Z" fill="#F3AEB6"/>
<path d="M181.558 110.06C181.517 110.06 181.478 110.053 181.44 110.039C181.396 110.024 181.356 110 181.321 109.969C181.287 109.938 181.259 109.9 181.239 109.858C181.219 109.816 181.208 109.771 181.206 109.725C181.203 109.678 181.21 109.632 181.226 109.588C185.952 96.2859 187.66 82.1022 186.228 68.0608C186.218 67.9673 186.246 67.874 186.306 67.8014C186.366 67.7287 186.452 67.6826 186.545 67.6733C186.639 67.6639 186.732 67.6921 186.805 67.7515C186.878 67.811 186.924 67.8969 186.933 67.9903C188.377 82.1358 186.656 96.4248 181.894 109.825C181.869 109.895 181.824 109.955 181.763 109.997C181.703 110.039 181.631 110.061 181.558 110.06Z" fill="#434343"/>
<path d="M190.241 96.3992H190.187C190.094 96.3847 190.011 96.3344 189.956 96.2592C189.9 96.184 189.877 96.09 189.89 95.9976C190.762 90.333 191.118 84.6014 190.956 78.8728C190.953 78.7793 190.988 78.6886 191.052 78.6206C191.116 78.5525 191.205 78.5127 191.299 78.5099C191.392 78.5071 191.483 78.5415 191.551 78.6056C191.619 78.6697 191.659 78.7582 191.662 78.8516C191.824 84.6227 191.465 90.3966 190.589 96.1033C190.575 96.1856 190.533 96.2605 190.469 96.3146C190.405 96.3687 190.325 96.3987 190.241 96.3992Z" fill="#434343"/>
<path d="M15.3906 42.5965C15.3444 42.5965 15.2988 42.5869 15.2565 42.5684C15.2136 42.5511 15.1746 42.5255 15.1416 42.4931C15.1087 42.4607 15.0825 42.4221 15.0645 42.3795C15.0466 42.3369 15.0373 42.2912 15.0371 42.245C15.037 42.1989 15.046 42.1531 15.0636 42.1104C19.5337 31.2559 27.7328 22.7287 40.1126 16.0427C40.195 15.9981 40.2917 15.9881 40.3815 16.0147C40.4713 16.0414 40.5468 16.1025 40.5914 16.1848C40.636 16.267 40.6461 16.3635 40.6194 16.4531C40.5927 16.5428 40.5314 16.6181 40.4491 16.6627C28.2151 23.2688 20.1266 31.6786 15.7153 42.3781C15.6893 42.4428 15.6445 42.4983 15.5866 42.5372C15.5287 42.5761 15.4604 42.5968 15.3906 42.5965Z" fill="#434343"/>
<path d="M14.3536 38.7944C14.3293 38.7967 14.3049 38.7967 14.2806 38.7944C14.2352 38.7849 14.192 38.7665 14.1537 38.7404C14.1154 38.7142 14.0826 38.6807 14.0572 38.6419C14.0319 38.6031 14.0145 38.5596 14.006 38.514C13.9975 38.4685 13.9981 38.4217 14.0077 38.3763C14.7394 34.9664 17.2356 30.8449 21.0375 26.768C24.4372 23.1208 28.5661 19.8659 32.1092 18.0623C32.1929 18.0196 32.29 18.0119 32.3794 18.0407C32.4687 18.0696 32.5429 18.1327 32.5857 18.2161C32.6284 18.2996 32.6362 18.3966 32.6073 18.4858C32.5784 18.5749 32.5152 18.649 32.4316 18.6917C25.2865 22.3318 16.1839 31.587 14.6994 38.5173C14.6818 38.5957 14.638 38.6659 14.5751 38.7163C14.5123 38.7667 14.4341 38.7942 14.3536 38.7944Z" fill="#434343"/>
<path d="M60.2222 6.90912H60.1657C60.1198 6.90197 60.0758 6.88584 60.0361 6.86165C59.9964 6.83746 59.9619 6.80568 59.9346 6.76815C59.9073 6.73062 59.8877 6.68806 59.8769 6.64294C59.8661 6.59781 59.8643 6.551 59.8717 6.50519L60.1446 4.69688C60.1518 4.65062 60.1681 4.60624 60.1926 4.56628C60.217 4.52631 60.2491 4.49154 60.287 4.46396C60.3249 4.43637 60.3679 4.41651 60.4135 4.4055C60.4591 4.39449 60.5064 4.39256 60.5528 4.3998C60.5991 4.40705 60.6436 4.42334 60.6836 4.44774C60.7236 4.47214 60.7585 4.50417 60.7861 4.54201C60.8137 4.57984 60.8336 4.62274 60.8447 4.66825C60.8557 4.71376 60.8576 4.761 60.8504 4.80726L60.5657 6.61086C60.5525 6.69286 60.5109 6.76763 60.4481 6.82213C60.3853 6.87664 60.3054 6.90742 60.2222 6.90912Z" fill="#434343"/>
<path d="M59.2144 13.2217C59.1956 13.2239 59.1767 13.2239 59.1579 13.2217C59.1121 13.2148 59.0681 13.1989 59.0284 13.175C58.9888 13.151 58.9543 13.1195 58.9269 13.0821C58.8996 13.0448 58.8799 13.0024 58.8691 12.9574C58.8582 12.9124 58.8565 12.8658 58.8638 12.8201L59.1485 11.0165C59.1628 10.9231 59.2138 10.8391 59.2901 10.7832C59.3665 10.7273 59.4619 10.7039 59.5555 10.7182C59.6491 10.7326 59.7332 10.7834 59.7892 10.8596C59.8452 10.9358 59.8687 11.0311 59.8543 11.1245L59.5626 12.9164C59.5508 13.0004 59.5091 13.0775 59.4452 13.1335C59.3813 13.1895 59.2994 13.2208 59.2144 13.2217Z" fill="#434343"/>
<path d="M57.637 8.78124C57.6174 8.78354 57.5977 8.78354 57.5782 8.78124L55.8019 8.47595C55.7083 8.46006 55.6248 8.40772 55.5699 8.33043C55.515 8.25313 55.4931 8.15722 55.509 8.06379C55.5249 7.97037 55.5773 7.88708 55.6548 7.83224C55.7322 7.77741 55.8283 7.75553 55.9219 7.77141L57.6981 8.07906C57.7917 8.08716 57.8783 8.13204 57.9387 8.20382C57.9992 8.27561 58.0286 8.36843 58.0205 8.46186C58.0124 8.55528 57.9674 8.64167 57.8955 8.702C57.8236 8.76234 57.7306 8.79169 57.637 8.78359V8.78124Z" fill="#434343"/>
<path d="M63.8522 9.86364C63.8319 9.86589 63.8114 9.86589 63.791 9.86364L62.0148 9.55834C61.9212 9.54246 61.8377 9.49011 61.7828 9.41282C61.7279 9.33553 61.706 9.23962 61.7219 9.14619C61.7378 9.05276 61.7902 8.96947 61.8676 8.91464C61.9451 8.85981 62.0412 8.83793 62.1348 8.85381L63.911 9.15911C64.0046 9.16689 64.0913 9.21147 64.152 9.28304C64.2126 9.35461 64.2423 9.4473 64.2345 9.54073C64.2267 9.63416 64.1821 9.72066 64.1104 9.78122C64.0387 9.84178 63.9458 9.87143 63.8522 9.86364Z" fill="#434343"/>
<path d="M29.4038 62.8023H29.3474C29.3015 62.7951 29.2574 62.779 29.2177 62.7548C29.1781 62.7306 29.1436 62.6988 29.1163 62.6613C29.0889 62.6238 29.0693 62.5812 29.0585 62.5361C29.0477 62.4909 29.0459 62.4441 29.0533 62.3983L29.338 60.5947C29.3452 60.5484 29.3615 60.5041 29.386 60.4641C29.4104 60.4241 29.4425 60.3894 29.4804 60.3618C29.5183 60.3342 29.5613 60.3143 29.6069 60.3033C29.6525 60.2923 29.6998 60.2904 29.7462 60.2976C29.7925 60.3049 29.837 60.3212 29.877 60.3456C29.917 60.37 29.9519 60.402 29.9795 60.4398C30.0071 60.4777 30.027 60.5206 30.0381 60.5661C30.0491 60.6116 30.051 60.6588 30.0438 60.7051L29.7591 62.5087C29.7446 62.5918 29.7008 62.667 29.6357 62.7208C29.5706 62.7747 29.4884 62.8035 29.4038 62.8023Z" fill="#434343"/>
<path d="M28.3941 69.1146C28.3753 69.1169 28.3563 69.1169 28.3376 69.1146C28.2918 69.1077 28.2478 69.0919 28.2081 69.0679C28.1685 69.044 28.134 69.0124 28.1066 68.9751C28.0793 68.9377 28.0596 68.8953 28.0488 68.8504C28.0379 68.8054 28.0362 68.7587 28.0435 68.713L28.3282 66.9094C28.3425 66.816 28.3935 66.7321 28.4698 66.6762C28.5461 66.6202 28.6416 66.5969 28.7352 66.6112C28.8288 66.6255 28.9129 66.6763 28.9689 66.7525C29.0249 66.8287 29.0483 66.924 29.034 67.0175L28.7423 68.8093C28.7304 68.8934 28.6888 68.9704 28.6249 69.0265C28.561 69.0825 28.4791 69.1138 28.3941 69.1146Z" fill="#434343"/>
<path d="M26.8167 64.6737C26.7971 64.676 26.7774 64.676 26.7578 64.6737L24.9816 64.3684C24.888 64.3525 24.8045 64.3002 24.7496 64.2229C24.6947 64.1456 24.6727 64.0497 24.6887 63.9562C24.7046 63.8628 24.757 63.7795 24.8344 63.7247C24.9119 63.6699 25.008 63.648 25.1016 63.6639L26.8778 63.9715C26.9714 63.9796 27.058 64.0245 27.1184 64.0963C27.1789 64.1681 27.2083 64.2609 27.2001 64.3543C27.192 64.4477 27.1471 64.5341 27.0752 64.5945C27.0032 64.6548 26.9102 64.6841 26.8167 64.676V64.6737Z" fill="#434343"/>
<path d="M33.0319 65.7566C33.0116 65.7588 32.9911 65.7588 32.9707 65.7566L31.1945 65.4513C31.1009 65.4354 31.0174 65.3831 30.9625 65.3058C30.9076 65.2285 30.8856 65.1326 30.9015 65.0391C30.9175 64.9457 30.9699 64.8624 31.0473 64.8076C31.1248 64.7527 31.2208 64.7309 31.3144 64.7468L33.0907 65.0521C33.1843 65.0598 33.271 65.1044 33.3316 65.176C33.3923 65.2476 33.422 65.3402 33.4142 65.4337C33.4064 65.5271 33.3618 65.6136 33.2901 65.6742C33.2184 65.7347 33.1255 65.7644 33.0319 65.7566Z" fill="#434343"/>
<path d="M70.8887 8.40035C70.5309 8.39966 70.1804 8.29877 69.8771 8.10914C69.446 7.84233 69.1367 7.4177 69.0154 6.92612C68.894 6.43454 68.9702 5.91506 69.2277 5.47888C69.3544 5.26658 69.5226 5.0819 69.7223 4.93585C69.9219 4.78979 70.149 4.68535 70.39 4.62874C70.6358 4.56911 70.891 4.55917 71.1407 4.5995C71.3904 4.63983 71.6295 4.72962 71.8439 4.86359C72.2745 5.13081 72.5834 5.55543 72.7048 6.04684C72.8261 6.53824 72.7502 7.05752 72.4933 7.49385C72.3671 7.70607 72.1993 7.89074 72.0001 8.0368C71.8008 8.18287 71.574 8.28734 71.3334 8.34398C71.1881 8.38122 71.0387 8.40015 70.8887 8.40035ZM70.8323 5.27926C70.7388 5.27976 70.6457 5.29079 70.5547 5.31214C70.4048 5.34783 70.2637 5.41319 70.1396 5.50437C70.0155 5.59554 69.911 5.71066 69.8324 5.84289C69.6698 6.12026 69.6226 6.45019 69.7009 6.7619C69.7791 7.07362 69.9767 7.3423 70.2512 7.51029C70.3857 7.59571 70.536 7.65325 70.6932 7.67948C70.8505 7.7057 71.0114 7.70008 71.1664 7.66294C71.3162 7.6279 71.4574 7.56305 71.5815 7.47225C71.7056 7.38146 71.8101 7.26659 71.8886 7.13453C72.0514 6.85681 72.0986 6.52652 72.0204 6.21442C71.9421 5.90231 71.7445 5.63322 71.4699 5.46479C71.2792 5.34407 71.0581 5.27974 70.8323 5.27926Z" fill="#434343"/>
<path d="M151.698 86.8313H139.229C138.917 86.8313 138.618 86.7076 138.397 86.4874C138.177 86.2672 138.053 85.9685 138.053 85.6571C138.053 85.3457 138.177 85.047 138.397 84.8268C138.618 84.6066 138.917 84.4829 139.229 84.4829H150.665L152.108 73.4123C152.148 73.1034 152.309 72.8231 152.557 72.633C152.804 72.443 153.117 72.3588 153.426 72.399C153.736 72.4391 154.017 72.6004 154.207 72.8473C154.397 73.0941 154.482 73.4063 154.441 73.7153L152.865 85.8098C152.828 86.0924 152.689 86.3519 152.474 86.5399C152.26 86.7279 151.984 86.8315 151.698 86.8313Z" fill="#99B9FF"/>
<path d="M157.39 43.1105C157.339 43.114 157.288 43.114 157.237 43.1105C156.928 43.0701 156.647 42.9089 156.457 42.6624C156.267 42.4158 156.183 42.1039 156.223 41.7954L157.898 28.9329H144.184C143.872 28.9329 143.573 28.8092 143.352 28.589C143.132 28.3688 143.008 28.0701 143.008 27.7587C143.008 27.4473 143.132 27.1486 143.352 26.9284C143.573 26.7082 143.872 26.5845 144.184 26.5845H159.241C159.408 26.5847 159.573 26.6204 159.726 26.6892C159.878 26.7581 160.013 26.8585 160.124 26.9837C160.236 27.1105 160.32 27.2601 160.369 27.4223C160.418 27.5844 160.431 27.7553 160.408 27.9231L158.566 42.0889C158.529 42.3732 158.389 42.634 158.172 42.8222C157.955 43.0104 157.677 43.1129 157.39 43.1105Z" fill="#99B9FF"/>
<path d="M98.9931 41.7155C98.9422 41.719 98.8911 41.719 98.8402 41.7155C98.5311 41.6752 98.2507 41.514 98.0605 41.2674C97.8704 41.0208 97.7861 40.709 97.8262 40.4004L99.4919 27.6084C99.5287 27.3237 99.6687 27.0624 99.8854 26.8737C100.102 26.685 100.381 26.5822 100.668 26.5845H116.431C116.743 26.5845 117.042 26.7082 117.263 26.9284C117.484 27.1486 117.608 27.4473 117.608 27.7587C117.608 28.0702 117.484 28.3688 117.263 28.589C117.042 28.8092 116.743 28.933 116.431 28.933H101.692L100.158 40.7034C100.119 40.9839 99.9791 41.2409 99.7651 41.4269C99.551 41.6129 99.2769 41.7154 98.9931 41.7155Z" fill="#99B9FF"/>
<path d="M108.171 86.8311H93.1137C92.9467 86.8308 92.7817 86.795 92.6296 86.7261C92.4775 86.6572 92.3418 86.5568 92.2317 86.4315C92.1215 86.3062 92.0393 86.1589 91.9906 85.9994C91.9419 85.8399 91.9278 85.6719 91.9491 85.5066L93.8877 70.6222C93.9019 70.4647 93.9477 70.3117 94.0224 70.1724C94.0972 70.0331 94.1994 69.9102 94.3229 69.8112C94.4464 69.7123 94.5886 69.6392 94.741 69.5964C94.8935 69.5536 95.053 69.542 95.2101 69.5623C95.3671 69.5825 95.5185 69.6342 95.655 69.7143C95.7916 69.7943 95.9106 69.9011 96.0048 70.0281C96.099 70.1551 96.1666 70.2999 96.2034 70.4536C96.2403 70.6073 96.2457 70.7669 96.2192 70.9228L94.4547 84.4803H108.171C108.483 84.4803 108.782 84.604 109.003 84.8242C109.223 85.0445 109.347 85.3431 109.347 85.6545C109.347 85.966 109.223 86.2646 109.003 86.4848C108.782 86.7051 108.483 86.8288 108.171 86.8288V86.8311Z" fill="#99B9FF"/>
<path d="M150.7 107.753H89.7656L91.2808 96.1237H152.215L150.7 107.753Z" fill="#99B9FF"/>
<path d="M141.832 123.471H94.0723L95.2604 114.357H143.017L141.832 123.471Z" fill="#99B9FF"/>
<path d="M59.3156 147.951L63.1863 150.481C63.6548 150.754 64.1789 150.917 64.7195 150.959C65.2601 151.001 65.8032 150.92 66.3081 150.722L66.3081 149.5C67.4233 149.071 68.3596 148.276 68.963 147.244C69.8178 145.764 69.824 144.872 67.772 145.411L66.6518 144.607C65.9519 144.687 65.2445 144.549 64.6258 144.212L62.254 142.81C62.0205 142.672 61.7606 142.586 61.4914 142.557C61.2222 142.527 60.9497 142.555 60.692 142.638L60.7133 142.54C48.1974 147.267 39.9661 149.32 30.4765 154.49C27.6872 156.007 28.0176 155.859 28.1198 155.167C28.8591 150.15 32.3557 142.392 35.2469 136.638C29.7182 128.959 21.7921 127.186 17.6327 127.449C13.4745 142.275 13.8749 157.118 17.735 166.798C18.1742 167.908 18.9519 168.85 19.9576 169.492C20.9632 170.134 22.1456 170.442 23.3367 170.374C34.5654 169.731 44.3501 160.253 59.3156 147.951Z" fill="white" stroke="#434343" stroke-width="0.7"/>
<path d="M98.5309 134.406L103.114 135.02C103.654 135.064 104.198 134.986 104.704 134.791C105.209 134.595 105.664 134.288 106.035 133.892L111.72 127.804C112.541 126.937 113.043 125.815 113.143 124.625C113.276 122.92 112.897 122.113 111.278 123.484L103.709 128.226C103.112 128.599 102.414 128.78 101.711 128.743L98.9663 128.5C98.6964 128.476 98.4247 128.511 98.169 128.6C97.9133 128.689 97.6794 128.832 97.4826 129.018L97.46 128.921C88.2036 138.58 81.6607 143.98 75.3264 152.736C73.4632 155.307 73.6975 155.031 73.4914 154.362C74 150.5 75.7297 131.5 71.5 124C63.2014 119.454 55.7216 131.841 52.0819 133.872C54.7199 149.042 61.4786 162.263 69.134 169.334C70.0085 170.146 71.1165 170.661 72.3006 170.807C73.4847 170.952 74.6846 170.721 75.7297 170.146C85.5851 164.727 90.3289 151.956 98.5309 134.406Z" fill="white" stroke="#434343" stroke-width="0.7"/>
<path d="M72 124C72 124 66.9797 120.373 62.7378 118.274C56.1503 115.012 48.4853 113.436 41.1849 114.89C27.0994 117.694 17.4651 125.892 17.4651 125.892C9.8001 131.998 10.0768 129.058 15.1256 139.313C21.3156 151.892 23.6057 162.313 23.6057 162.313C23.6057 162.313 25.189 171.412 21.707 179.441C17.4722 189.194 23.6057 190.5 23.6057 190.5C37.8511 197.451 75.5858 195.902 72.3673 188.135C68.923 179.824 69 169 69 169C61 161.5 56.5 144.5 56.5 144.5C56.5 144.5 55.8214 136.5 63.5 130C67.7622 126.392 72 124 72 124Z" fill="#B09CF8"/>
<path d="M24.1479 162.322C24.075 162.322 24.0039 162.3 23.9444 162.258C23.885 162.216 23.8401 162.156 23.8162 162.087C19.1108 148.466 21.2894 137.466 21.3129 137.356C21.3222 137.311 21.3403 137.267 21.3662 137.229C21.3922 137.191 21.4254 137.158 21.4641 137.132C21.5028 137.107 21.5461 137.089 21.5916 137.08C21.6371 137.072 21.6839 137.072 21.7293 137.081C21.7747 137.09 21.8179 137.108 21.8563 137.134C21.8947 137.16 21.9276 137.193 21.9532 137.232C21.9788 137.271 21.9965 137.314 22.0053 137.359C22.0141 137.405 22.0139 137.451 22.0046 137.497C21.9811 137.605 19.8331 148.431 24.482 161.857C24.4972 161.901 24.5036 161.947 24.5008 161.994C24.498 162.04 24.4862 162.085 24.4658 162.127C24.4455 162.168 24.4171 162.206 24.3824 162.236C24.3476 162.267 24.3071 162.291 24.2632 162.306C24.2261 162.318 24.187 162.324 24.1479 162.322Z" fill="#434343"/>
<path d="M68.9548 169.403C68.8628 169.403 68.7742 169.368 68.7078 169.304C61.3345 162.116 56.2033 145.423 55.9892 144.716C55.9648 144.628 55.976 144.533 56.0205 144.453C56.0649 144.372 56.1391 144.312 56.2271 144.286C56.3151 144.259 56.4101 144.268 56.4918 144.31C56.5735 144.352 56.6354 144.425 56.6644 144.512C56.7161 144.683 61.9579 161.74 69.1995 168.799C69.2488 168.848 69.2828 168.909 69.2974 168.977C69.3119 169.044 69.3063 169.114 69.2813 169.179C69.2562 169.243 69.2128 169.298 69.1565 169.338C69.1001 169.378 69.0333 169.401 68.9642 169.403H68.9548Z" fill="#434343"/>
<path d="M49.6008 81.2677C51.0008 81.2781 52.3738 81.6534 53.5838 82.3566C54.7937 83.0597 55.7986 84.0663 56.4988 85.2765C57.1623 86.4155 57.7646 87.4747 57.8846 87.7753C58.1622 88.4587 58.7715 90.7508 61.0113 92.963C61.1187 93.0669 61.1841 93.2067 61.195 93.3557C61.2058 93.5047 61.1614 93.6525 61.0701 93.7709L59.6373 95.6003C59.5872 95.663 59.5508 95.7356 59.5305 95.8133C59.5102 95.8909 59.5065 95.972 59.5197 96.0512C59.6914 97.0258 60.5454 100.57 60.2914 101.218C59.7573 102.573 56.5129 102.939 55.5507 103.019C55.4619 103.026 55.3761 103.055 55.3011 103.103C55.226 103.151 55.1639 103.216 55.1202 103.294C54.8096 103.855 53.9862 105.464 53.3109 109.477C52.2828 115.595 58.1245 116.546 56.9341 117.145C48.6362 121.327 33.3531 120.376 34.2401 118.636C34.9671 117.206 43.3544 113.505 44.1331 103.442C44.6201 97.1691 35.8188 96.6524 42.1616 84.7106C43.6391 81.9206 46.8317 81.256 49.6008 81.2677Z" fill="white"/>
<path d="M41.5717 120.449C37.7698 120.449 34.7748 119.968 34.0855 119.275C33.9723 119.176 33.8955 119.042 33.8674 118.894C33.8392 118.747 33.8613 118.594 33.9302 118.46C34.1349 118.061 34.7089 117.61 35.5771 116.931C38.2427 114.848 43.1998 110.973 43.7879 103.4C43.955 101.232 42.9339 99.769 41.854 98.219C39.9201 95.4431 37.7274 92.2986 41.854 84.5299C43.1104 82.1627 45.7618 80.9133 49.5238 80.9133H49.6014C51.0629 80.9264 52.4957 81.3192 53.7589 82.053C55.022 82.7868 56.072 83.8363 56.8053 85.0983C58.0452 87.2283 58.1722 87.5383 58.2169 87.6416C58.2617 87.745 58.2993 87.853 58.3511 87.9962C58.9376 89.7739 59.9355 91.3886 61.2637 92.7096C61.4326 92.8741 61.5353 93.0948 61.5522 93.3298C61.5691 93.5648 61.4991 93.7978 61.3554 93.9848L59.9203 95.8142C59.902 95.838 59.8888 95.8653 59.8815 95.8943C59.8742 95.9234 59.873 95.9537 59.8779 95.9833C59.9156 96.1993 59.9909 96.5563 60.0779 96.972C60.6002 99.4707 60.8284 100.83 60.6308 101.331C60.0379 102.829 56.9089 103.245 55.589 103.355C55.5583 103.357 55.5287 103.366 55.5027 103.383C55.4768 103.399 55.4555 103.422 55.4408 103.449C54.5515 105.048 53.9868 107.634 53.6692 109.52C53.001 113.498 55.3537 115.142 56.6195 116.023C57.1582 116.398 57.4829 116.626 57.457 116.983C57.4474 117.086 57.4093 117.185 57.347 117.268C57.2847 117.351 57.2007 117.415 57.1041 117.453C52.7352 119.644 46.4818 120.449 41.5717 120.449ZM34.5819 118.763C34.7537 118.916 34.9605 119.025 35.1842 119.08C38.1674 120.116 49.5897 120.353 56.6289 116.899C56.516 116.809 56.3583 116.699 56.2219 116.603C54.9279 115.701 52.2388 113.822 52.9799 109.407C53.4504 106.589 54.0786 104.464 54.8291 103.108C54.9001 102.981 55.0017 102.872 55.1249 102.793C55.248 102.714 55.3889 102.667 55.5349 102.655C57.3582 102.503 59.6144 101.998 59.9791 101.075C60.1344 100.671 59.6144 98.1814 59.3909 97.1176C59.3039 96.6972 59.2286 96.3332 59.1886 96.1054C59.1666 95.9793 59.1714 95.8499 59.2026 95.7258C59.2338 95.6016 59.2908 95.4853 59.3698 95.3844L60.8026 93.5526C60.8409 93.5023 60.859 93.4395 60.8534 93.3765C60.8477 93.3135 60.8187 93.2549 60.772 93.2121C59.3674 91.8179 58.3116 90.1131 57.6899 88.2358C57.6429 88.1043 57.6029 88.0009 57.5676 87.907C57.5135 87.7708 57.2618 87.2706 56.2054 85.4529C55.5341 84.2991 54.574 83.3392 53.4192 82.6674C52.2644 81.9955 50.9545 81.6346 49.6179 81.6202H49.545C47.0958 81.6202 43.915 82.1885 42.4869 84.8611C38.5626 92.2516 40.5365 95.0815 42.4446 97.8198C43.548 99.4026 44.689 101.039 44.5008 103.456C43.8891 111.34 38.772 115.339 36.0311 117.488C35.323 118.028 34.723 118.498 34.5819 118.763Z" fill="#434343"/>
<path d="M49.3779 98.3783C48.2745 98.3783 46.8676 97.9086 45.8183 95.9313C45.7828 95.8494 45.7795 95.7572 45.8091 95.673C45.8387 95.5888 45.899 95.5189 45.9779 95.4771C46.0569 95.4353 46.1487 95.4248 46.2351 95.4476C46.3215 95.4704 46.3962 95.5249 46.4441 95.6001C48.091 98.7212 50.6789 97.4225 50.8013 97.3662C50.8424 97.3447 50.8873 97.3316 50.9335 97.3275C50.9797 97.3234 51.0262 97.3284 51.0704 97.3422C51.1147 97.3561 51.1557 97.3785 51.1913 97.4082C51.2269 97.4379 51.2562 97.4743 51.2777 97.5153C51.2992 97.5563 51.3123 97.6011 51.3165 97.6472C51.3206 97.6933 51.3155 97.7398 51.3017 97.7839C51.2878 97.8281 51.2653 97.8691 51.2356 97.9046C51.2059 97.9401 51.1694 97.9694 51.1283 97.9908C50.5797 98.2446 49.9826 98.3768 49.3779 98.3783Z" fill="#434343"/>
<path d="M54.4375 90.9386L57.7571 86.7913C58.1566 86.2901 58.4432 85.709 58.5977 85.0874C58.7522 84.4658 58.7707 83.8183 58.6522 83.1889C58.5337 82.5595 58.2809 81.963 57.9108 81.4398C57.5408 80.9166 57.0623 80.4791 56.5079 80.1569C55.7715 79.7299 55.0102 79.3472 54.2281 79.0109C45.702 75.345 35.9313 81.3922 35.9219 90.6591C35.9219 94.4519 38.4581 98.8505 43.8575 102.756C43.8575 102.756 47.6523 99.7711 47.6029 96.5396C47.6029 96.5396 44.8503 93.28 48.7299 91.6291C49.0979 91.4735 49.4951 91.3988 49.8946 91.4101C50.2941 91.4215 50.6864 91.5186 51.0449 91.6948C51.612 91.974 52.2577 92.0512 52.8747 91.9136C53.4918 91.7761 54.0432 91.432 54.4375 90.9386Z" fill="#434343"/>
<path d="M48.6567 115.822C49.7136 121.424 49.5583 138.668 42.2588 148.174C34.9593 157.68 19.4865 160.834 10.4811 150.948C-0.371717 139.025 3.92781 114.426 12.2495 105.218C16.9124 100.06 20.628 102.174 27.0898 94.741C33.5515 87.3076 33.0273 81.5673 38.2644 79.0024C44.5611 75.9191 52.8051 80.5128 53.873 85.1361C54.8272 89.2739 47.7822 83.9884 46 93C45.7084 94.4268 47.5217 96.5273 47.5 98C47.432 103.568 48.4653 114.812 48.6567 115.822Z" fill="#434343"/>
</svg>
