<svg width="234" height="219" viewBox="0 0 234 219" fill="none" xmlns="http://www.w3.org/2000/svg">
<path d="M205.835 141.106C193.038 169.445 204.1 179.393 193.551 194.406C177.317 217.508 131.286 222.196 99.1207 212.728C59.7191 201.135 26.6614 164.054 28.0417 117.699C29.5112 68.3306 69.5001 26.6433 115.781 15.3252C157.108 5.21614 207.21 18.4099 225.221 51.455C227.173 55.0377 237.316 74.5694 231.607 97.3271C226.886 116.135 215.98 118.643 205.835 141.106Z" fill="#EDF3FF"/>
<path d="M58.9805 185.5C75.8688 162.006 78.3457 140.751 75.3553 134.395C74.4606 132.499 80.7848 124.499 80.1201 118.852C79.2603 111.526 71.4413 113.734 72.3999 108.005C74.2692 96.8028 68.3411 84.4629 60.372 77.4406C54.8059 72.5342 43.4804 66.0304 34.7904 70.313C31.1165 72.1265 26.9242 76.3522 27.5759 80.1692C28.5137 85.6417 39.0416 84.9619 42.3728 92.7545C43.783 96.0562 42.5355 97.6464 42.8269 100.299C42.9358 101.28 43.1914 101.922 43.5632 102.918C44.558 105.577 45.3394 108.311 46.3638 110.955C49.3328 118.613 42.2876 126.943 46.404 133.443C49.4483 138.259 55.8147 137.67 56.15 141.3C56.4188 144.158 52.3362 144.661 51.291 148.765C50.0229 153.751 54.2207 156.831 56.9597 165.213C58.4983 169.929 58.9598 182.312 58.9805 185.5Z" fill="#71D6D7"/>
<path d="M65.8096 175.922C65.7003 175.889 65.6083 175.815 65.5536 175.715C65.4989 175.616 65.4859 175.498 65.5175 175.389C72.8993 149.617 70.7683 143.086 66.0728 120.84C62.8366 105.513 56.975 95.2125 52.6328 89.2686C47.9244 82.83 43.9295 79.9763 43.8903 79.9468C43.7973 79.8795 43.7348 79.7782 43.7166 79.665C43.6984 79.5518 43.7259 79.4361 43.7932 79.3433C43.8604 79.2504 43.9619 79.1881 44.0752 79.1701C44.1885 79.152 44.3045 79.1796 44.3975 79.2469C44.5635 79.3649 48.5227 82.187 53.3128 88.7246C57.7202 94.7417 63.6589 105.167 66.9412 120.672C69.0704 130.756 71.6367 141.607 71.1448 154.142C70.4544 158.384 70.3074 161.776 66.3352 175.625C66.3036 175.734 66.2301 175.827 66.1306 175.882C66.031 175.937 65.9137 175.951 65.804 175.92L65.8096 175.922Z" fill="white"/>
<path d="M82 206.5C61.7848 197.322 61.5933 171.704 59.7038 166.035C53.4925 147.4 70.0719 128.44 72.4237 125.825C68.1501 107.248 82.9336 105.219 89.0707 92.4096C95.144 82.9683 93.923 71.1873 102.339 61.5751C106.9 56.3684 116.632 51.958 128.882 54.4132C129.616 53.8272 141 52.5 154 58.0001C163.051 61.8294 168.448 70.0288 170 81C171.867 94.1987 177.842 104.009 182.168 107.814C185.906 111.108 205.442 120.091 199.317 137.891C199.317 137.891 210.954 152.622 207.279 166.035C209 179 188.268 203.593 179.5 208.5C161.701 218.459 145.481 216.481 131 216.5C113.894 216.523 103.121 218.685 82 206.5Z" fill="#434343"/>
<path d="M204.999 178C204.999 178 203.473 168.136 200.803 157C198.133 145.864 179.921 134.342 169.539 138.5C152.557 141.672 173.302 152.5 182.302 207C182.302 207 187.5 202 191 198.5C197 192.5 204.999 178 204.999 178Z" fill="white"/>
<path d="M57.4992 188.5C57.4992 188.5 61.3299 168.136 64 157C66.6701 145.864 84.8816 134.342 95.2639 138.5C112.246 141.672 91.5006 152.5 82.5006 207C82.5006 207 78.9444 205.097 75.0008 202.5C70.6949 199.665 57.4992 188.5 57.4992 188.5Z" fill="white"/>
<path d="M89.5 210.5C89.5 210.5 88.5022 177 88.5011 160C88.5 143 83.0019 139.5 86.9899 138C100.862 129.745 122.676 124.12 145.5 128C157.235 129.995 179.5 138 179.5 138L177.5 147L176.5 156L176 179.5C175.5 188 174.99 204.5 175.491 210.5C174.783 212.063 156.991 217.562 144.491 218.5C124.491 220 107.991 216.5 107.991 216.5C94.5 213.5 89.5 210.5 89.5 210.5Z" fill="#B09CF8"/>
<path d="M142.328 127.136V109.981C137.536 114.297 138.054 101.137 138.067 101.108C138.269 100.756 145.222 102.565 145.572 102.35C145.921 102.134 146.321 102.008 146.733 101.982C150.196 101.712 151.715 94.3925 151.459 91.6427C151.298 89.9438 148.692 90.4191 147.198 91.0512C147.55 89.1658 145.44 90.3157 145.572 88.4035C145.572 88.4035 146.361 87.0397 142.328 83.9523C139.908 82.0991 134.371 81.3809 132.589 79.8119C127.838 75.6288 121.182 79.3103 113.72 84.5441C113.72 84.5441 106.415 115.801 123.729 115.801L124.067 115.897L119.807 115.801L117.762 127.757L103.98 130.094C103.98 130.094 125.894 151.982 159.98 130.686L142.328 127.136Z" fill="white"/>
<path d="M118.088 128V113.018C119.269 108.711 127.508 96.3156 121.869 99.9086C125.618 95.6914 113.832 100.944 113.47 100.717C113.108 100.49 112.695 100.356 112.267 100.329C108.682 100.044 106.759 93.1996 107.024 90.2979C107.191 88.505 108.524 88.522 110.071 89.189C110.071 89.189 112.84 87.4235 113.677 83.0537C114.307 76.8112 116.198 74.3142 121.869 71.1929C130.836 66.2582 136.363 78.0273 140.775 81.1803C145.186 84.3333 148.921 87.4236 148.921 87.4236C149.63 99.9026 145.584 116.155 136.084 114.911L135.733 115.013L140.145 114.911L142.261 127.528H142.26L118.088 128Z" fill="white"/>
<path d="M119.876 116.485C118.297 115.836 116.806 114.994 115.437 113.978C115.305 113.881 115.217 113.736 115.192 113.576C115.167 113.417 115.207 113.255 115.304 113.126C115.401 112.998 115.546 112.913 115.708 112.891C115.871 112.869 116.036 112.911 116.168 113.009C126.457 120.601 137.338 114.144 137.447 114.077C137.514 114.019 137.593 113.977 137.679 113.952C137.765 113.928 137.855 113.922 137.944 113.936C138.033 113.95 138.119 113.982 138.194 114.032C138.269 114.081 138.333 114.145 138.381 114.221C138.429 114.296 138.46 114.381 138.471 114.469C138.482 114.557 138.474 114.646 138.447 114.729C138.42 114.813 138.374 114.89 138.313 114.954C138.252 115.018 138.178 115.068 138.095 115.1C137.994 115.17 129.308 120.321 119.876 116.485Z" fill="#434343"/>
<path d="M215.871 66.5619C215.82 66.5419 215.775 66.5111 215.738 66.4717C215.702 66.4323 215.674 66.3852 215.657 66.3339L215.05 64.5103C215.031 64.4633 215.022 64.4129 215.024 64.3623C215.025 64.3116 215.036 64.2618 215.058 64.2158C215.079 64.1698 215.109 64.1286 215.147 64.0948C215.185 64.061 215.229 64.0353 215.277 64.0192C215.325 64.0031 215.376 63.997 215.427 64.0013C215.477 64.0056 215.526 64.0202 215.571 64.0442C215.616 64.0681 215.655 64.1009 215.686 64.1406C215.718 64.1803 215.741 64.226 215.754 64.2749L216.361 66.0985C216.377 66.1457 216.383 66.1955 216.379 66.245C216.375 66.2945 216.361 66.3427 216.337 66.3866C216.314 66.4306 216.283 66.4694 216.244 66.5008C216.206 66.5322 216.161 66.5555 216.113 66.5693C216.034 66.5949 215.948 66.5923 215.871 66.5619Z" fill="#434343"/>
<path d="M217.285 70.8112C217.235 70.7912 217.189 70.7605 217.152 70.7211C217.115 70.6817 217.087 70.6347 217.07 70.5833L216.463 68.7671C216.43 68.6735 216.435 68.5706 216.478 68.4812C216.521 68.3917 216.598 68.323 216.692 68.2901C216.785 68.2573 216.888 68.263 216.978 68.306C217.067 68.3489 217.136 68.4257 217.169 68.5193L217.776 70.3429C217.807 70.4366 217.799 70.5386 217.755 70.6267C217.711 70.7148 217.634 70.782 217.54 70.8137C217.458 70.8439 217.367 70.843 217.285 70.8112Z" fill="#434343"/>
<path d="M217.484 67.3721C217.413 67.3439 217.353 67.2944 217.311 67.2305C217.269 67.1666 217.248 67.0913 217.25 67.0149C217.253 66.9386 217.279 66.8648 217.324 66.8037C217.37 66.7426 217.434 66.6971 217.507 66.6734L219.33 66.0664C219.426 66.0358 219.529 66.0444 219.618 66.0901C219.707 66.1359 219.774 66.2151 219.805 66.3104C219.836 66.4057 219.827 66.5092 219.781 66.5982C219.735 66.6872 219.656 66.7543 219.561 66.7849L217.737 67.3919C217.653 67.4136 217.564 67.4066 217.484 67.3721Z" fill="#434343"/>
<path d="M213.237 68.7844C213.165 68.757 213.104 68.7081 213.062 68.6445C213.02 68.5809 212.998 68.5057 213 68.4293C213.002 68.3529 213.028 68.279 213.074 68.2179C213.12 68.1568 213.184 68.1115 213.257 68.0882L215.081 67.4811C215.127 67.4649 215.176 67.4579 215.225 67.4605C215.274 67.4632 215.321 67.4754 215.366 67.4966C215.41 67.5178 215.449 67.5474 215.482 67.5839C215.515 67.6203 215.54 67.6629 215.556 67.7091C215.573 67.7553 215.58 67.8042 215.577 67.8532C215.574 67.9021 215.562 67.95 215.541 67.9942C215.52 68.0383 215.49 68.0779 215.454 68.1106C215.417 68.1433 215.375 68.1685 215.328 68.1848L213.504 68.7919C213.418 68.8237 213.322 68.821 213.237 68.7844Z" fill="#434343"/>
<path d="M210.297 98.0586C210.029 97.953 209.788 97.7907 209.588 97.5829C209.203 97.1811 208.992 96.6437 209 96.0871C209.009 95.5306 209.236 94.9998 209.633 94.6097C209.827 94.4134 210.059 94.2583 210.314 94.1535C210.57 94.0488 210.844 93.9966 211.12 94.0002C211.39 94.0019 211.658 94.0578 211.906 94.1646C212.155 94.2714 212.38 94.427 212.567 94.6221C212.951 95.0245 213.161 95.5617 213.153 96.1178C213.145 96.674 212.918 97.2046 212.522 97.5953C212.328 97.7908 212.096 97.9454 211.84 98.0501C211.585 98.1548 211.311 98.2074 211.036 98.2048C210.782 98.2037 210.532 98.1541 210.297 98.0586ZM211.581 94.8376C211.432 94.777 211.273 94.7459 211.112 94.746C210.935 94.7442 210.76 94.7779 210.596 94.8451C210.432 94.9124 210.283 95.0118 210.158 95.1374C209.903 95.389 209.756 95.7307 209.749 96.0892C209.743 96.4478 209.877 96.7946 210.124 97.0552C210.242 97.1792 210.384 97.2781 210.542 97.3462C210.699 97.4143 210.869 97.4501 211.04 97.4516C211.218 97.4531 211.394 97.419 211.559 97.3514C211.723 97.2837 211.872 97.1838 211.997 97.0576C212.252 96.8058 212.399 96.4642 212.405 96.1058C212.411 95.7475 212.278 95.4008 212.032 95.1399C211.904 95.0117 211.75 94.912 211.581 94.8475V94.8376Z" fill="#434343"/>
<path d="M73.194 52.2914C73.1332 52.2228 73.1001 52.1339 73.1012 52.0423C73.1022 51.9506 73.1374 51.8626 73.1998 51.7954C81.2074 43.0383 91.0634 36.1832 102.489 31.4179C113.695 26.7466 125.857 24.3069 138.636 24.1696C138.685 24.1691 138.734 24.1782 138.779 24.1964C138.824 24.2147 138.866 24.2416 138.9 24.2758C138.935 24.31 138.963 24.3507 138.982 24.3956C139.001 24.4405 139.011 24.4888 139.012 24.5376C139.012 24.5864 139.003 24.6349 138.985 24.6801C138.967 24.7254 138.94 24.7667 138.906 24.8015C138.871 24.8364 138.831 24.8642 138.786 24.8833C138.741 24.9024 138.693 24.9125 138.644 24.913C113.068 25.1908 89.4156 35.172 73.7496 52.2977C73.7162 52.3337 73.676 52.3627 73.6314 52.383C73.5867 52.4034 73.5385 52.4147 73.4895 52.4163C73.4404 52.418 73.3915 52.4099 73.3456 52.3925C73.2997 52.3752 73.2577 52.3489 73.222 52.3152L73.194 52.2914Z" fill="#434343"/>
<path d="M67.445 68.1377C67.3945 68.079 67.3636 68.0061 67.3566 67.929C67.3496 67.8519 67.3669 67.7745 67.4059 67.7077C80.0721 45.9665 103.013 32.1912 130.38 29.9153C130.428 29.9112 130.477 29.9168 130.524 29.9316C130.571 29.9465 130.614 29.9704 130.651 30.002C130.688 30.0336 130.719 30.0722 130.741 30.1156C130.764 30.159 130.777 30.2065 130.782 30.2552C130.786 30.3039 130.78 30.3529 130.765 30.3994C130.75 30.446 130.726 30.4891 130.695 30.5264C130.663 30.5637 130.625 30.5945 130.581 30.6169C130.538 30.6392 130.49 30.6529 130.442 30.6569C103.329 32.9095 80.5777 46.5546 68.0506 68.0804C68.026 68.1226 67.9933 68.1595 67.9544 68.1891C67.9155 68.2186 67.8711 68.2402 67.8239 68.2526C67.7766 68.265 67.7274 68.2679 67.679 68.2613C67.6306 68.2546 67.584 68.2385 67.5418 68.2138C67.5048 68.1951 67.4719 68.1693 67.445 68.1377Z" fill="#434343"/>
<path d="M133.481 32.0631C133.29 31.8421 133.148 31.5832 133.064 31.3035C132.907 30.7827 132.964 30.2211 133.221 29.7421C133.479 29.2631 133.916 28.9059 134.437 28.749C134.79 28.6431 135.165 28.6342 135.523 28.7233C135.88 28.8124 136.207 28.9963 136.47 29.2555C136.732 29.5147 136.919 29.8398 137.012 30.1965C137.105 30.5531 137.1 30.9283 136.998 31.2825C136.896 31.6366 136.7 31.9567 136.431 32.2091C136.163 32.4615 135.831 32.6369 135.471 32.7167C135.111 32.7966 134.736 32.7781 134.386 32.663C134.036 32.548 133.723 32.3408 133.481 32.0631ZM136.013 29.8617C135.849 29.672 135.633 29.5337 135.392 29.4635C135.151 29.3932 134.895 29.394 134.654 29.4657C134.489 29.5139 134.336 29.5941 134.202 29.7017C134.069 29.8093 133.958 29.9423 133.876 30.0928C133.794 30.2434 133.742 30.4087 133.724 30.5792C133.706 30.7498 133.722 30.9222 133.771 31.0866C133.843 31.3353 133.988 31.5567 134.187 31.7227C134.386 31.8887 134.63 31.9918 134.888 32.0188C135.145 32.0459 135.405 31.9957 135.634 31.8746C135.864 31.7535 136.051 31.567 136.174 31.3389C136.256 31.188 136.307 31.0223 136.324 30.8515C136.342 30.6807 136.325 30.5082 136.275 30.3439C136.225 30.1648 136.136 29.9991 136.013 29.8593L136.013 29.8617Z" fill="#434343"/>
<path d="M139.29 31.9171C139.256 31.8778 139.231 31.8321 139.216 31.7827C139.201 31.7334 139.195 31.6814 139.201 31.63C139.382 30.0573 139.699 28.4948 139.704 28.4773C139.716 28.4153 139.745 28.3577 139.787 28.3102C139.829 28.2628 139.883 28.227 139.942 28.2066C140.001 28.1841 140.063 28.1765 140.125 28.1844C140.187 28.1923 140.246 28.2155 140.296 28.2518L143 30.2295C143.054 30.2694 143.097 30.3234 143.123 30.3857C143.149 30.448 143.158 30.5163 143.148 30.5832C143.139 30.65 143.111 30.713 143.068 30.7652C143.025 30.8175 142.969 30.857 142.905 30.8797L139.705 32.0223C139.645 32.043 139.581 32.0484 139.519 32.0379C139.457 32.0274 139.398 32.0014 139.348 31.9623C139.327 31.949 139.308 31.9339 139.29 31.9171ZM140.323 29.2004C140.236 29.6644 140.113 30.3676 140.015 31.1196L141.975 30.4148L140.323 29.2004Z" fill="#434343"/>
<path d="M180.967 59.6403L180.604 61.9264L183.043 62.905C183.056 63.4466 183.116 63.9872 183.223 64.5212L181.054 65.8889L181.925 68.0693L184.517 67.7475C184.808 68.2138 185.138 68.6565 185.505 69.0707L184.358 71.3238L186.229 72.8163L188.272 71.2746C188.764 71.54 189.278 71.7649 189.807 71.9469L189.991 74.479L192.361 74.8822L193.318 72.5445C193.877 72.5442 194.435 72.4983 194.985 72.4073L196.449 74.5377L198.685 73.7448L198.293 71.2298C198.768 70.9578 199.218 70.6482 199.639 70.3042L201.995 71.4656L203.494 69.6885L201.857 67.682C202.122 67.2126 202.346 66.7218 202.526 66.2146L205.141 66.0949L205.501 63.8101L203.062 62.8315C203.051 62.29 202.991 61.7495 202.884 61.2158L205.052 59.8475L204.177 57.676L201.588 57.9966C201.296 57.531 200.964 57.0888 200.598 56.6746L201.747 54.4221L199.875 52.9296L197.829 54.4624C197.337 54.199 196.824 53.9744 196.295 53.7907L196.12 51.2515L193.748 50.8476L192.792 53.1854C192.232 53.1855 191.675 53.2307 191.125 53.3208L189.661 51.1922L187.426 51.9857L187.818 54.5007C187.342 54.7709 186.892 55.0806 186.472 55.4262L184.117 54.263L182.616 56.0455L184.257 58.0573C183.991 58.5262 183.767 59.0171 183.588 59.5247L180.967 59.6403ZM193.977 56.9827C195.188 57.1859 196.316 57.7307 197.221 58.5481C198.126 59.3655 198.765 60.4187 199.059 61.5742C199.352 62.7298 199.287 63.9359 198.87 65.0397C198.454 66.1435 197.705 67.0954 196.719 67.7748C195.733 68.4542 194.554 68.8306 193.331 68.8564C192.108 68.8822 190.897 68.5561 189.85 67.9195C188.803 67.2828 187.968 66.3643 187.451 65.2802C186.933 64.1961 186.757 62.9951 186.943 61.8294C187.193 60.2694 188.075 58.8833 189.396 57.9751C190.716 57.067 192.367 56.7111 193.987 56.9855L193.977 56.9827Z" fill="#F9D566"/>
<circle cx="178.828" cy="24.4091" r="12.5" transform="rotate(17.2663 178.828 24.4091)" fill="white"/>
<path d="M159.963 19.4089L159.354 23.1088L163.156 24.6478C163.167 25.5212 163.252 26.3922 163.409 27.2514L159.983 29.5091L161.309 33.0228L165.384 32.4591C165.829 33.2063 166.335 33.9156 166.896 34.5797L165.058 38.2469L167.963 40.6265L171.193 38.1087C171.959 38.5319 172.758 38.89 173.583 39.1792L173.823 43.2732L177.529 43.8822L179.066 40.0936C179.939 40.0825 180.81 39.9979 181.67 39.8408L183.923 43.2617L187.437 41.9355L186.869 37.8738C187.618 37.4258 188.328 36.9161 188.991 36.3499L192.661 38.1892L195.04 35.2845L192.525 32.037C192.951 31.2742 193.31 30.4765 193.6 29.6526L197.695 29.4111L198.304 25.7053L194.503 24.1644C194.491 23.291 194.407 22.4201 194.25 21.5608L197.671 19.3074L196.344 15.7937L192.279 16.3643C191.832 15.6151 191.323 14.9052 190.755 14.2422L192.595 10.5733L189.69 8.19364L186.46 10.7138C185.697 10.2883 184.898 9.92859 184.074 9.63845L183.832 5.54387L180.126 4.93487L178.587 8.73661C177.714 8.74774 176.843 8.83231 175.984 8.98944L173.73 5.56854L170.216 6.89477L170.783 10.9583C170.034 11.4057 169.324 11.9153 168.659 12.4816L164.991 10.6464L162.611 13.5512L165.125 16.7784C164.7 17.5425 164.341 18.3409 164.051 19.1651L159.963 19.4089ZM180.397 14.8743C182.284 15.1846 184.037 16.0476 185.433 17.354C186.83 18.6604 187.808 20.3515 188.243 22.2136C188.678 24.0757 188.551 26.025 187.879 27.815C187.206 29.605 186.017 31.1552 184.463 32.2697C182.909 33.3842 181.06 34.0128 179.149 34.076C177.237 34.1392 175.35 33.6343 173.726 32.6249C172.102 31.6156 170.813 30.1473 170.024 28.4057C169.234 26.6641 168.978 24.7274 169.29 22.8406C169.706 20.3116 171.11 18.0515 173.193 16.5575C175.275 15.0635 177.866 14.4578 180.395 14.8738L180.397 14.8743Z" fill="#F3AEB6"/>
<mask id="path-17-outside-1" maskUnits="userSpaceOnUse" x="96.8641" y="58.0816" width="66.0704" height="76.0612" fill="black">
<rect fill="white" x="96.8641" y="58.0816" width="66.0704" height="76.0612"/>
<path fill-rule="evenodd" clip-rule="evenodd" d="M126.799 59.2436C127.694 59.1555 128.599 59.111 129.512 59.1118C130.426 59.1126 131.33 59.1589 132.225 59.2486C132.774 59.3038 133.175 59.794 133.12 60.3435C133.065 60.8931 132.574 61.2938 132.025 61.2386C131.196 61.1554 130.358 61.1126 129.51 61.1118C128.663 61.111 127.824 61.1523 126.995 61.234C126.446 61.2881 125.956 60.8865 125.902 60.3368C125.848 59.7872 126.25 59.2978 126.799 59.2436ZM136.289 60.9845C136.451 60.4566 137.01 60.1601 137.538 60.3223C139.268 60.854 140.939 61.5525 142.537 62.4015C143.025 62.6606 143.211 63.266 142.951 63.7538C142.692 64.2415 142.087 64.4268 141.599 64.1677C140.11 63.3765 138.556 62.7274 136.951 62.2341C136.423 62.0719 136.126 61.5124 136.289 60.9845ZM122.732 60.9719C122.894 61.5002 122.596 62.0591 122.068 62.2203C120.461 62.7106 118.907 63.3569 117.416 64.1453C116.928 64.4035 116.322 64.217 116.064 63.7288C115.806 63.2406 115.993 62.6355 116.481 62.3773C118.081 61.5313 119.753 60.8359 121.484 60.3075C122.012 60.1462 122.571 60.4437 122.732 60.9719ZM113.354 65.4927C113.694 65.9278 113.617 66.5563 113.182 66.8965C111.866 67.9249 110.623 69.0751 109.464 70.3342C109.09 70.7406 108.458 70.7668 108.051 70.3927C107.645 70.0187 107.619 69.3861 107.993 68.9797C109.223 67.6429 110.546 66.4183 111.95 65.3209C112.385 64.9807 113.014 65.0576 113.354 65.4927ZM145.659 65.5227C146 65.0882 146.628 65.0124 147.063 65.3534C148.464 66.4535 149.785 67.6805 151.013 69.0196C151.387 69.4266 151.359 70.0592 150.952 70.4325C150.545 70.8058 149.913 70.7784 149.539 70.3714C148.383 69.1101 147.142 67.9576 145.828 66.9267C145.394 66.5858 145.318 65.9572 145.659 65.5227ZM152.947 72.9761C153.406 72.6683 154.027 72.7906 154.335 73.2492C155.321 74.7181 156.213 76.2759 157.001 77.9103C157.241 78.4078 157.032 79.0055 156.535 79.2455C156.038 79.4854 155.44 79.2767 155.2 78.7792C154.452 77.2286 153.607 75.753 152.674 74.3637C152.367 73.9051 152.489 73.2839 152.947 72.9761ZM106.051 72.9326C106.509 73.2412 106.63 73.8627 106.322 74.3207C105.387 75.7082 104.539 77.1823 103.788 78.7315C103.547 79.2285 102.949 79.4362 102.452 79.1953C101.955 78.9545 101.747 78.3563 101.988 77.8593C102.78 76.2264 103.675 74.6702 104.663 73.2031C104.972 72.7451 105.593 72.624 106.051 72.9326ZM157.738 82.2466C158.263 82.0756 158.828 82.3627 158.999 82.8878C159.544 84.5639 159.989 86.2979 160.323 88.0797C160.425 88.6226 160.067 89.1451 159.524 89.247C158.982 89.3488 158.459 88.9913 158.357 88.4485C158.039 86.7512 157.616 85.1008 157.097 83.5071C156.926 82.9819 157.213 82.4176 157.738 82.2466ZM101.243 82.1942C101.768 82.3662 102.054 82.9311 101.882 83.4559C101.36 85.0486 100.934 86.6982 100.613 88.3949C100.51 88.9376 99.9867 89.2941 99.4441 89.1913C98.9015 89.0884 98.5449 88.5652 98.6477 88.0226C98.9853 86.2414 99.4328 84.5081 99.9816 82.8331C100.154 82.3083 100.718 82.0222 101.243 82.1942ZM99.0437 92.3991C99.595 92.4333 100.014 92.908 99.9797 93.4592C99.9272 94.3031 99.9001 95.1554 99.8994 96.0152C99.8986 96.8749 99.9241 97.7273 99.975 98.5713C100.008 99.1226 99.5883 99.5965 99.037 99.6297C98.4857 99.663 98.0119 99.243 97.9786 98.6918C97.9252 97.8071 97.8985 96.9139 97.8994 96.0133C97.9002 95.1128 97.9286 94.2196 97.9836 93.335C98.0179 92.7838 98.4925 92.3648 99.0437 92.3991ZM159.919 92.4555C160.47 92.4222 160.944 92.8422 160.977 93.3935C161.031 94.2782 161.057 95.1713 161.056 96.0719C161.056 96.9724 161.027 97.8656 160.972 98.7502C160.938 99.3014 160.463 99.7204 159.912 99.6862C159.361 99.6519 158.942 99.1772 158.976 98.626C159.029 97.7821 159.056 96.9298 159.056 96.07C159.057 95.2103 159.032 94.3579 158.981 93.5139C158.948 92.9626 159.368 92.4888 159.919 92.4555ZM159.512 102.894C160.054 102.997 160.411 103.52 160.308 104.063C159.971 105.844 159.523 107.577 158.974 109.252C158.802 109.777 158.237 110.063 157.713 109.891C157.188 109.719 156.902 109.154 157.074 108.629C157.596 107.037 158.022 105.387 158.343 103.69C158.446 103.148 158.969 102.791 159.512 102.894ZM99.4314 102.838C99.9742 102.736 100.497 103.094 100.599 103.637C100.917 105.334 101.34 106.984 101.859 108.578C102.03 109.103 101.743 109.668 101.218 109.839C100.693 110.01 100.128 109.723 99.9572 109.197C99.4114 107.521 98.9671 105.787 98.6329 104.005C98.5311 103.463 98.8886 102.94 99.4314 102.838ZM102.421 112.84C102.918 112.6 103.516 112.809 103.756 113.306C104.504 114.857 105.349 116.332 106.281 117.722C106.589 118.18 106.467 118.801 106.008 119.109C105.55 119.417 104.929 119.295 104.621 118.836C103.635 117.367 102.743 115.809 101.955 114.175C101.715 113.677 101.923 113.08 102.421 112.84ZM156.504 112.89C157.001 113.131 157.208 113.729 156.968 114.226C156.176 115.859 155.281 117.415 154.293 118.882C153.984 119.34 153.363 119.461 152.905 119.153C152.447 118.844 152.326 118.223 152.634 117.764C153.569 116.377 154.417 114.903 155.168 113.354C155.409 112.857 156.007 112.649 156.504 112.89ZM108.004 121.653C108.411 121.279 109.043 121.307 109.417 121.714C110.573 122.975 111.814 124.128 113.128 125.158C113.562 125.499 113.638 126.128 113.297 126.563C112.956 126.997 112.328 127.073 111.893 126.732C110.491 125.632 109.171 124.405 107.943 123.066C107.569 122.659 107.597 122.026 108.004 121.653ZM150.905 121.692C151.311 122.067 151.337 122.699 150.963 123.105C149.733 124.442 148.41 125.667 147.006 126.764C146.571 127.105 145.942 127.028 145.602 126.592C145.262 126.157 145.339 125.529 145.774 125.189C147.089 124.16 148.333 123.01 149.492 121.751C149.866 121.345 150.498 121.318 150.905 121.692ZM116.004 128.331C116.263 127.844 116.869 127.658 117.357 127.917C118.846 128.709 120.4 129.358 122.005 129.851C122.533 130.013 122.83 130.573 122.667 131.101C122.505 131.629 121.946 131.925 121.418 131.763C119.687 131.231 118.017 130.533 116.418 129.684C115.931 129.425 115.745 128.819 116.004 128.331ZM142.892 128.356C143.15 128.845 142.963 129.45 142.475 129.708C140.875 130.554 139.203 131.249 137.472 131.778C136.944 131.939 136.385 131.641 136.224 131.113C136.062 130.585 136.36 130.026 136.888 129.865C138.494 129.375 140.049 128.728 141.54 127.94C142.028 127.682 142.633 127.868 142.892 128.356ZM125.836 131.742C125.891 131.192 126.381 130.791 126.931 130.847C127.76 130.93 128.598 130.973 129.446 130.973C130.293 130.974 131.132 130.933 131.96 130.851C132.51 130.797 132.999 131.199 133.054 131.748C133.108 132.298 132.706 132.787 132.157 132.842C131.262 132.93 130.357 132.974 129.444 132.973C128.53 132.973 127.625 132.926 126.731 132.837C126.182 132.781 125.781 132.291 125.836 131.742Z"/>
</mask>
<path fill-rule="evenodd" clip-rule="evenodd" d="M126.799 59.2436C127.694 59.1555 128.599 59.111 129.512 59.1118C130.426 59.1126 131.33 59.1589 132.225 59.2486C132.774 59.3038 133.175 59.794 133.12 60.3435C133.065 60.8931 132.574 61.2938 132.025 61.2386C131.196 61.1554 130.358 61.1126 129.51 61.1118C128.663 61.111 127.824 61.1523 126.995 61.234C126.446 61.2881 125.956 60.8865 125.902 60.3368C125.848 59.7872 126.25 59.2978 126.799 59.2436ZM136.289 60.9845C136.451 60.4566 137.01 60.1601 137.538 60.3223C139.268 60.854 140.939 61.5525 142.537 62.4015C143.025 62.6606 143.211 63.266 142.951 63.7538C142.692 64.2415 142.087 64.4268 141.599 64.1677C140.11 63.3765 138.556 62.7274 136.951 62.2341C136.423 62.0719 136.126 61.5124 136.289 60.9845ZM122.732 60.9719C122.894 61.5002 122.596 62.0591 122.068 62.2203C120.461 62.7106 118.907 63.3569 117.416 64.1453C116.928 64.4035 116.322 64.217 116.064 63.7288C115.806 63.2406 115.993 62.6355 116.481 62.3773C118.081 61.5313 119.753 60.8359 121.484 60.3075C122.012 60.1462 122.571 60.4437 122.732 60.9719ZM113.354 65.4927C113.694 65.9278 113.617 66.5563 113.182 66.8965C111.866 67.9249 110.623 69.0751 109.464 70.3342C109.09 70.7406 108.458 70.7668 108.051 70.3927C107.645 70.0187 107.619 69.3861 107.993 68.9797C109.223 67.6429 110.546 66.4183 111.95 65.3209C112.385 64.9807 113.014 65.0576 113.354 65.4927ZM145.659 65.5227C146 65.0882 146.628 65.0124 147.063 65.3534C148.464 66.4535 149.785 67.6805 151.013 69.0196C151.387 69.4266 151.359 70.0592 150.952 70.4325C150.545 70.8058 149.913 70.7784 149.539 70.3714C148.383 69.1101 147.142 67.9576 145.828 66.9267C145.394 66.5858 145.318 65.9572 145.659 65.5227ZM152.947 72.9761C153.406 72.6683 154.027 72.7906 154.335 73.2492C155.321 74.7181 156.213 76.2759 157.001 77.9103C157.241 78.4078 157.032 79.0055 156.535 79.2455C156.038 79.4854 155.44 79.2767 155.2 78.7792C154.452 77.2286 153.607 75.753 152.674 74.3637C152.367 73.9051 152.489 73.2839 152.947 72.9761ZM106.051 72.9326C106.509 73.2412 106.63 73.8627 106.322 74.3207C105.387 75.7082 104.539 77.1823 103.788 78.7315C103.547 79.2285 102.949 79.4362 102.452 79.1953C101.955 78.9545 101.747 78.3563 101.988 77.8593C102.78 76.2264 103.675 74.6702 104.663 73.2031C104.972 72.7451 105.593 72.624 106.051 72.9326ZM157.738 82.2466C158.263 82.0756 158.828 82.3627 158.999 82.8878C159.544 84.5639 159.989 86.2979 160.323 88.0797C160.425 88.6226 160.067 89.1451 159.524 89.247C158.982 89.3488 158.459 88.9913 158.357 88.4485C158.039 86.7512 157.616 85.1008 157.097 83.5071C156.926 82.9819 157.213 82.4176 157.738 82.2466ZM101.243 82.1942C101.768 82.3662 102.054 82.9311 101.882 83.4559C101.36 85.0486 100.934 86.6982 100.613 88.3949C100.51 88.9376 99.9867 89.2941 99.4441 89.1913C98.9015 89.0884 98.5449 88.5652 98.6477 88.0226C98.9853 86.2414 99.4328 84.5081 99.9816 82.8331C100.154 82.3083 100.718 82.0222 101.243 82.1942ZM99.0437 92.3991C99.595 92.4333 100.014 92.908 99.9797 93.4592C99.9272 94.3031 99.9001 95.1554 99.8994 96.0152C99.8986 96.8749 99.9241 97.7273 99.975 98.5713C100.008 99.1226 99.5883 99.5965 99.037 99.6297C98.4857 99.663 98.0119 99.243 97.9786 98.6918C97.9252 97.8071 97.8985 96.9139 97.8994 96.0133C97.9002 95.1128 97.9286 94.2196 97.9836 93.335C98.0179 92.7838 98.4925 92.3648 99.0437 92.3991ZM159.919 92.4555C160.47 92.4222 160.944 92.8422 160.977 93.3935C161.031 94.2782 161.057 95.1713 161.056 96.0719C161.056 96.9724 161.027 97.8656 160.972 98.7502C160.938 99.3014 160.463 99.7204 159.912 99.6862C159.361 99.6519 158.942 99.1772 158.976 98.626C159.029 97.7821 159.056 96.9298 159.056 96.07C159.057 95.2103 159.032 94.3579 158.981 93.5139C158.948 92.9626 159.368 92.4888 159.919 92.4555ZM159.512 102.894C160.054 102.997 160.411 103.52 160.308 104.063C159.971 105.844 159.523 107.577 158.974 109.252C158.802 109.777 158.237 110.063 157.713 109.891C157.188 109.719 156.902 109.154 157.074 108.629C157.596 107.037 158.022 105.387 158.343 103.69C158.446 103.148 158.969 102.791 159.512 102.894ZM99.4314 102.838C99.9742 102.736 100.497 103.094 100.599 103.637C100.917 105.334 101.34 106.984 101.859 108.578C102.03 109.103 101.743 109.668 101.218 109.839C100.693 110.01 100.128 109.723 99.9572 109.197C99.4114 107.521 98.9671 105.787 98.6329 104.005C98.5311 103.463 98.8886 102.94 99.4314 102.838ZM102.421 112.84C102.918 112.6 103.516 112.809 103.756 113.306C104.504 114.857 105.349 116.332 106.281 117.722C106.589 118.18 106.467 118.801 106.008 119.109C105.55 119.417 104.929 119.295 104.621 118.836C103.635 117.367 102.743 115.809 101.955 114.175C101.715 113.677 101.923 113.08 102.421 112.84ZM156.504 112.89C157.001 113.131 157.208 113.729 156.968 114.226C156.176 115.859 155.281 117.415 154.293 118.882C153.984 119.34 153.363 119.461 152.905 119.153C152.447 118.844 152.326 118.223 152.634 117.764C153.569 116.377 154.417 114.903 155.168 113.354C155.409 112.857 156.007 112.649 156.504 112.89ZM108.004 121.653C108.411 121.279 109.043 121.307 109.417 121.714C110.573 122.975 111.814 124.128 113.128 125.158C113.562 125.499 113.638 126.128 113.297 126.563C112.956 126.997 112.328 127.073 111.893 126.732C110.491 125.632 109.171 124.405 107.943 123.066C107.569 122.659 107.597 122.026 108.004 121.653ZM150.905 121.692C151.311 122.067 151.337 122.699 150.963 123.105C149.733 124.442 148.41 125.667 147.006 126.764C146.571 127.105 145.942 127.028 145.602 126.592C145.262 126.157 145.339 125.529 145.774 125.189C147.089 124.16 148.333 123.01 149.492 121.751C149.866 121.345 150.498 121.318 150.905 121.692ZM116.004 128.331C116.263 127.844 116.869 127.658 117.357 127.917C118.846 128.709 120.4 129.358 122.005 129.851C122.533 130.013 122.83 130.573 122.667 131.101C122.505 131.629 121.946 131.925 121.418 131.763C119.687 131.231 118.017 130.533 116.418 129.684C115.931 129.425 115.745 128.819 116.004 128.331ZM142.892 128.356C143.15 128.845 142.963 129.45 142.475 129.708C140.875 130.554 139.203 131.249 137.472 131.778C136.944 131.939 136.385 131.641 136.224 131.113C136.062 130.585 136.36 130.026 136.888 129.865C138.494 129.375 140.049 128.728 141.54 127.94C142.028 127.682 142.633 127.868 142.892 128.356ZM125.836 131.742C125.891 131.192 126.381 130.791 126.931 130.847C127.76 130.93 128.598 130.973 129.446 130.973C130.293 130.974 131.132 130.933 131.96 130.851C132.51 130.797 132.999 131.199 133.054 131.748C133.108 132.298 132.706 132.787 132.157 132.842C131.262 132.93 130.357 132.974 129.444 132.973C128.53 132.973 127.625 132.926 126.731 132.837C126.182 132.781 125.781 132.291 125.836 131.742Z" fill="white"/>
<path fill-rule="evenodd" clip-rule="evenodd" d="M126.799 59.2436C127.694 59.1555 128.599 59.111 129.512 59.1118C130.426 59.1126 131.33 59.1589 132.225 59.2486C132.774 59.3038 133.175 59.794 133.12 60.3435C133.065 60.8931 132.574 61.2938 132.025 61.2386C131.196 61.1554 130.358 61.1126 129.51 61.1118C128.663 61.111 127.824 61.1523 126.995 61.234C126.446 61.2881 125.956 60.8865 125.902 60.3368C125.848 59.7872 126.25 59.2978 126.799 59.2436ZM136.289 60.9845C136.451 60.4566 137.01 60.1601 137.538 60.3223C139.268 60.854 140.939 61.5525 142.537 62.4015C143.025 62.6606 143.211 63.266 142.951 63.7538C142.692 64.2415 142.087 64.4268 141.599 64.1677C140.11 63.3765 138.556 62.7274 136.951 62.2341C136.423 62.0719 136.126 61.5124 136.289 60.9845ZM122.732 60.9719C122.894 61.5002 122.596 62.0591 122.068 62.2203C120.461 62.7106 118.907 63.3569 117.416 64.1453C116.928 64.4035 116.322 64.217 116.064 63.7288C115.806 63.2406 115.993 62.6355 116.481 62.3773C118.081 61.5313 119.753 60.8359 121.484 60.3075C122.012 60.1462 122.571 60.4437 122.732 60.9719ZM113.354 65.4927C113.694 65.9278 113.617 66.5563 113.182 66.8965C111.866 67.9249 110.623 69.0751 109.464 70.3342C109.09 70.7406 108.458 70.7668 108.051 70.3927C107.645 70.0187 107.619 69.3861 107.993 68.9797C109.223 67.6429 110.546 66.4183 111.95 65.3209C112.385 64.9807 113.014 65.0576 113.354 65.4927ZM145.659 65.5227C146 65.0882 146.628 65.0124 147.063 65.3534C148.464 66.4535 149.785 67.6805 151.013 69.0196C151.387 69.4266 151.359 70.0592 150.952 70.4325C150.545 70.8058 149.913 70.7784 149.539 70.3714C148.383 69.1101 147.142 67.9576 145.828 66.9267C145.394 66.5858 145.318 65.9572 145.659 65.5227ZM152.947 72.9761C153.406 72.6683 154.027 72.7906 154.335 73.2492C155.321 74.7181 156.213 76.2759 157.001 77.9103C157.241 78.4078 157.032 79.0055 156.535 79.2455C156.038 79.4854 155.44 79.2767 155.2 78.7792C154.452 77.2286 153.607 75.753 152.674 74.3637C152.367 73.9051 152.489 73.2839 152.947 72.9761ZM106.051 72.9326C106.509 73.2412 106.63 73.8627 106.322 74.3207C105.387 75.7082 104.539 77.1823 103.788 78.7315C103.547 79.2285 102.949 79.4362 102.452 79.1953C101.955 78.9545 101.747 78.3563 101.988 77.8593C102.78 76.2264 103.675 74.6702 104.663 73.2031C104.972 72.7451 105.593 72.624 106.051 72.9326ZM157.738 82.2466C158.263 82.0756 158.828 82.3627 158.999 82.8878C159.544 84.5639 159.989 86.2979 160.323 88.0797C160.425 88.6226 160.067 89.1451 159.524 89.247C158.982 89.3488 158.459 88.9913 158.357 88.4485C158.039 86.7512 157.616 85.1008 157.097 83.5071C156.926 82.9819 157.213 82.4176 157.738 82.2466ZM101.243 82.1942C101.768 82.3662 102.054 82.9311 101.882 83.4559C101.36 85.0486 100.934 86.6982 100.613 88.3949C100.51 88.9376 99.9867 89.2941 99.4441 89.1913C98.9015 89.0884 98.5449 88.5652 98.6477 88.0226C98.9853 86.2414 99.4328 84.5081 99.9816 82.8331C100.154 82.3083 100.718 82.0222 101.243 82.1942ZM99.0437 92.3991C99.595 92.4333 100.014 92.908 99.9797 93.4592C99.9272 94.3031 99.9001 95.1554 99.8994 96.0152C99.8986 96.8749 99.9241 97.7273 99.975 98.5713C100.008 99.1226 99.5883 99.5965 99.037 99.6297C98.4857 99.663 98.0119 99.243 97.9786 98.6918C97.9252 97.8071 97.8985 96.9139 97.8994 96.0133C97.9002 95.1128 97.9286 94.2196 97.9836 93.335C98.0179 92.7838 98.4925 92.3648 99.0437 92.3991ZM159.919 92.4555C160.47 92.4222 160.944 92.8422 160.977 93.3935C161.031 94.2782 161.057 95.1713 161.056 96.0719C161.056 96.9724 161.027 97.8656 160.972 98.7502C160.938 99.3014 160.463 99.7204 159.912 99.6862C159.361 99.6519 158.942 99.1772 158.976 98.626C159.029 97.7821 159.056 96.9298 159.056 96.07C159.057 95.2103 159.032 94.3579 158.981 93.5139C158.948 92.9626 159.368 92.4888 159.919 92.4555ZM159.512 102.894C160.054 102.997 160.411 103.52 160.308 104.063C159.971 105.844 159.523 107.577 158.974 109.252C158.802 109.777 158.237 110.063 157.713 109.891C157.188 109.719 156.902 109.154 157.074 108.629C157.596 107.037 158.022 105.387 158.343 103.69C158.446 103.148 158.969 102.791 159.512 102.894ZM99.4314 102.838C99.9742 102.736 100.497 103.094 100.599 103.637C100.917 105.334 101.34 106.984 101.859 108.578C102.03 109.103 101.743 109.668 101.218 109.839C100.693 110.01 100.128 109.723 99.9572 109.197C99.4114 107.521 98.9671 105.787 98.6329 104.005C98.5311 103.463 98.8886 102.94 99.4314 102.838ZM102.421 112.84C102.918 112.6 103.516 112.809 103.756 113.306C104.504 114.857 105.349 116.332 106.281 117.722C106.589 118.18 106.467 118.801 106.008 119.109C105.55 119.417 104.929 119.295 104.621 118.836C103.635 117.367 102.743 115.809 101.955 114.175C101.715 113.677 101.923 113.08 102.421 112.84ZM156.504 112.89C157.001 113.131 157.208 113.729 156.968 114.226C156.176 115.859 155.281 117.415 154.293 118.882C153.984 119.34 153.363 119.461 152.905 119.153C152.447 118.844 152.326 118.223 152.634 117.764C153.569 116.377 154.417 114.903 155.168 113.354C155.409 112.857 156.007 112.649 156.504 112.89ZM108.004 121.653C108.411 121.279 109.043 121.307 109.417 121.714C110.573 122.975 111.814 124.128 113.128 125.158C113.562 125.499 113.638 126.128 113.297 126.563C112.956 126.997 112.328 127.073 111.893 126.732C110.491 125.632 109.171 124.405 107.943 123.066C107.569 122.659 107.597 122.026 108.004 121.653ZM150.905 121.692C151.311 122.067 151.337 122.699 150.963 123.105C149.733 124.442 148.41 125.667 147.006 126.764C146.571 127.105 145.942 127.028 145.602 126.592C145.262 126.157 145.339 125.529 145.774 125.189C147.089 124.16 148.333 123.01 149.492 121.751C149.866 121.345 150.498 121.318 150.905 121.692ZM116.004 128.331C116.263 127.844 116.869 127.658 117.357 127.917C118.846 128.709 120.4 129.358 122.005 129.851C122.533 130.013 122.83 130.573 122.667 131.101C122.505 131.629 121.946 131.925 121.418 131.763C119.687 131.231 118.017 130.533 116.418 129.684C115.931 129.425 115.745 128.819 116.004 128.331ZM142.892 128.356C143.15 128.845 142.963 129.45 142.475 129.708C140.875 130.554 139.203 131.249 137.472 131.778C136.944 131.939 136.385 131.641 136.224 131.113C136.062 130.585 136.36 130.026 136.888 129.865C138.494 129.375 140.049 128.728 141.54 127.94C142.028 127.682 142.633 127.868 142.892 128.356ZM125.836 131.742C125.891 131.192 126.381 130.791 126.931 130.847C127.76 130.93 128.598 130.973 129.446 130.973C130.293 130.974 131.132 130.933 131.96 130.851C132.51 130.797 132.999 131.199 133.054 131.748C133.108 132.298 132.706 132.787 132.157 132.842C131.262 132.93 130.357 132.974 129.444 132.973C128.53 132.973 127.625 132.926 126.731 132.837C126.182 132.781 125.781 132.291 125.836 131.742Z" stroke="#434343" stroke-width="2" stroke-linecap="round" mask="url(#path-17-outside-1)"/>
<path d="M102.848 128.099C100.179 127.035 112.951 140.871 129.448 140.871C145.945 140.871 163.515 129.164 163.515 129.164" stroke="#434343"/>
<path d="M85.4979 137.972C85.4979 137.972 88.0363 147.466 88.4997 156.5C89.5 176 89.0005 210 89.0005 210" stroke="#434343"/>
<path d="M179.307 137.972C179.307 137.972 176.768 147.466 176.305 156.5C175.305 176 175.804 210 175.804 210" stroke="#434343"/>
</svg>
