<svg width="37" height="35" viewBox="0 0 37 35" fill="none" xmlns="http://www.w3.org/2000/svg">
<path d="M16.706 24.0422C16.8881 24.0963 17.0828 24.0908 17.2615 24.0265C17.4403 23.9623 17.5939 23.8426 17.6999 23.6849C17.8059 23.5273 17.8588 23.3399 17.8509 23.1501C17.843 22.9603 17.7746 22.7779 17.6558 22.6297L17.6558 22.6296C17.5409 22.4866 17.3848 22.3825 17.2087 22.3315L17.1809 22.4276M16.706 24.0422L16.7345 23.9464L16.706 24.0422ZM16.706 24.0422C15.462 23.673 14.4793 22.74 13.7793 21.8572C13.2078 21.1366 12.8162 20.4376 12.6248 20.0961C12.5818 20.0193 12.5489 19.9606 12.5264 19.9237L12.6117 19.8715L12.5267 19.9242C12.402 19.7232 12.3623 19.4809 12.4164 19.2506C12.4704 19.0203 12.6136 18.8209 12.8147 18.6963C13.0157 18.5716 13.258 18.5319 13.4883 18.5859C13.7186 18.6399 13.918 18.7832 14.0426 18.9842L14.0428 18.9845C14.0972 19.0727 14.1547 19.1679 14.2156 19.2685C14.4991 19.7374 14.8537 20.3239 15.289 20.8669C15.8182 21.5271 16.4555 22.1081 17.2093 22.3317L17.1809 22.4276M17.1809 22.4276C15.7525 22.004 14.7564 20.3563 14.1289 19.3185C14.0684 19.2184 14.0113 19.124 13.9577 19.0369L17.5778 22.6922C17.4758 22.5653 17.3373 22.4729 17.1809 22.4276Z" fill="#4C4C4C" stroke="#4C4C4C" stroke-width="0.2"/>
<path d="M21.6613 11.24L21.6614 11.24C22.6084 11.6253 23.4452 12.1696 24.1722 12.873C24.8993 13.5765 25.4656 14.3802 25.8713 15.2843C26.2769 16.2218 26.4796 17.2009 26.4796 18.2221C26.4796 19.2433 26.2768 20.2225 25.8713 21.16C25.4656 22.0641 24.8993 22.8678 24.1722 23.5713C23.4452 24.2747 22.6084 24.819 21.6614 25.2043L21.6613 25.2041L21.658 25.2058L21.607 25.231L21.5792 25.2448V25.2759V27.931H15.5537V25.2759V25.2448L15.5259 25.231L15.4748 25.2058L15.4749 25.2056L15.4715 25.2043C14.5245 24.819 13.6876 24.2747 12.9606 23.5713C12.2335 22.8678 11.6673 22.0641 11.2616 21.16C10.856 20.2225 10.6533 19.2433 10.6533 18.2221C10.6533 17.2009 10.856 16.2218 11.2616 15.2843C11.6673 14.3802 12.2335 13.5765 12.9606 12.873C13.6876 12.1696 14.5245 11.6253 15.4715 11.24L15.4716 11.24C16.4523 10.838 17.4838 10.6369 18.5664 10.6369C19.6491 10.6369 20.6805 10.838 21.6613 11.24ZM22.5194 33.0652C22.3312 32.8788 22.1016 32.7852 21.8334 32.7852H15.2995C15.0313 32.7852 14.8017 32.8788 14.6135 33.0652C14.4253 33.2516 14.3307 33.4793 14.3307 33.7454C14.3307 34.0115 14.4253 34.2392 14.6135 34.4256C14.8017 34.612 15.0313 34.7055 15.2995 34.7055H21.8334C22.1016 34.7055 22.3312 34.612 22.5194 34.4256C22.7076 34.2392 22.8022 34.0115 22.8022 33.7454C22.8022 33.4793 22.7076 33.2516 22.5194 33.0652ZM27.0828 23.0138C27.9724 21.5479 28.4172 19.9504 28.4172 18.2221C28.4172 15.5958 27.4544 13.3538 25.5306 11.499C23.6069 9.64424 21.2846 8.7166 18.5664 8.7166C15.8483 8.7166 13.526 9.64424 11.6023 11.499C9.67844 13.3538 8.71562 15.5958 8.71562 18.2221C8.71562 19.9504 9.16049 21.5479 10.0501 23.0138C10.9343 24.4708 12.1232 25.6141 13.616 26.443V27.981C13.616 28.5 13.8 28.9426 14.1668 29.306C14.5337 29.6693 14.9803 29.8514 15.5037 29.8514H21.6292C22.1526 29.8514 22.5992 29.6693 22.966 29.306C23.3329 28.9426 23.5168 28.5 23.5168 27.981V26.443C25.0097 25.6141 26.1985 24.4708 27.0828 23.0138Z" fill="#4C4C4C" stroke="#4C4C4C" stroke-width="0.1"/>
<path d="M35.8333 17.5075C35.686 17.3203 35.5033 17.2229 35.2869 17.2229H30.1963C29.98 17.2229 29.7972 17.3203 29.65 17.5075C29.503 17.6944 29.4305 17.9205 29.4305 18.1831C29.4305 18.4457 29.503 18.6718 29.65 18.8587C29.7972 19.0459 29.98 19.1433 30.1963 19.1433H35.2869C35.5033 19.1433 35.686 19.0459 35.8333 18.8587C35.9803 18.6718 36.0528 18.4457 36.0528 18.1831C36.0528 17.9205 35.9803 17.6944 35.8333 17.5075Z" fill="#4C4C4C" stroke="#4C4C4C" stroke-width="0.1"/>
<path d="M31.1775 5.3539C30.941 5.32564 30.7429 5.38606 30.59 5.53904L26.9904 9.13863C26.8374 9.29161 26.777 9.48967 26.8052 9.72618C26.8334 9.96224 26.9421 10.1734 27.1278 10.3591C27.3134 10.5448 27.5246 10.6534 27.7607 10.6816C27.9972 10.7099 28.1953 10.6495 28.3482 10.4965L31.9478 6.89691C32.1008 6.74392 32.1612 6.54586 32.133 6.30936C32.1048 6.07329 31.9961 5.8621 31.8104 5.67643C31.6248 5.49075 31.4136 5.38211 31.1775 5.3539Z" fill="#4C4C4C" stroke="#4C4C4C" stroke-width="0.1"/>
<path d="M17.8752 1.16939C17.688 1.31665 17.5906 1.49941 17.5906 1.71576V6.80635C17.5906 7.0227 17.688 7.20547 17.8752 7.35272C18.062 7.4997 18.2882 7.57222 18.5508 7.57222C18.8134 7.57222 19.0395 7.4997 19.2264 7.35272C19.4136 7.20547 19.5109 7.0227 19.5109 6.80635V1.71576C19.5109 1.49941 19.4136 1.31665 19.2264 1.16939C19.0395 1.02242 18.8134 0.949901 18.5508 0.949901C18.2882 0.949901 18.062 1.02242 17.8752 1.16939Z" fill="#4C4C4C" stroke="#4C4C4C" stroke-width="0.1"/>
<path d="M7.35282 17.5075C7.20557 17.3203 7.0228 17.2229 6.80645 17.2229H1.71586C1.49951 17.2229 1.31675 17.3203 1.16949 17.5075C1.02252 17.6944 0.95 17.9205 0.95 18.1831C0.95 18.4457 1.02252 18.6718 1.16949 18.8587C1.31675 19.0459 1.49951 19.1433 1.71586 19.1433H6.80645C7.0228 19.1433 7.20557 19.0459 7.35282 18.8587C7.4998 18.6718 7.57232 18.4457 7.57232 18.1831C7.57232 17.9205 7.4998 17.6944 7.35282 17.5075Z" fill="#4C4C4C" stroke="#4C4C4C" stroke-width="0.1"/>
<path d="M10.256 9.90578C10.2842 9.66927 10.2238 9.47121 10.0708 9.31823L6.47124 5.71864C6.31825 5.56566 6.12019 5.50525 5.88368 5.53351C5.64762 5.56171 5.43643 5.67035 5.25075 5.85603C5.06508 6.0417 4.95644 6.25289 4.92823 6.48896C4.89997 6.72547 4.96038 6.92353 5.11337 7.07651L8.71296 10.6761C8.86594 10.8291 9.064 10.8895 9.30051 10.8612C9.53657 10.833 9.74777 10.7244 9.93344 10.5387C10.1191 10.353 10.2278 10.1418 10.256 9.90578Z" fill="#4C4C4C" stroke="#4C4C4C" stroke-width="0.1"/>
</svg>
