<svg width="37" height="154" viewBox="0 0 37 154" fill="none" xmlns="http://www.w3.org/2000/svg">
<mask id="path-1-outside-1" maskUnits="userSpaceOnUse" x="3" y="61.1055" width="31" height="34" fill="black">
<rect fill="white" x="3" y="61.1055" width="31" height="34"/>
<path d="M32.364 85.3096H30.3749C30.0236 85.3096 29.204 85.1038 29.204 83.1984V70.0017C29.204 68.0953 30.0236 67.8895 30.3749 67.8895H32.364C32.7163 67.8895 33.5349 68.0953 33.5349 70.0017V83.1984C33.5349 85.1038 32.7163 85.3096 32.364 85.3096ZM30.8273 83.726H31.9116C31.9389 83.5515 31.9521 83.3751 31.9512 83.1984V70.0017C31.9521 69.8247 31.9388 69.648 31.9116 69.4731H30.8273C30.8001 69.648 30.7868 69.8247 30.7877 70.0017V83.1984C30.7868 83.3751 30.8 83.5515 30.8273 83.726Z"/>
<path d="M13.465 84.9137C13.2699 84.9128 13.0819 84.8399 12.9373 84.7089C12.7926 84.5779 12.7014 84.3981 12.6811 84.204C12.6609 84.0099 12.713 83.8152 12.8276 83.6572C12.9421 83.4992 13.1109 83.389 13.3017 83.3479L16.9075 82.5837C16.4641 81.7266 16.3651 81.3525 16.466 81.0001C16.6046 80.5161 17.0005 80.3171 17.4202 80.1093C17.631 80.0034 17.8933 79.8708 18.2348 79.6688C18.3466 79.6025 18.5377 79.4709 18.5723 79.3264C18.598 79.2155 18.5456 79.0473 18.4268 78.8641C18.3595 78.7602 18.1883 78.5217 17.9893 78.2445C16.3334 75.9403 15.3634 74.4368 15.306 73.5757C15.2862 73.2788 15.3535 72.9561 15.4377 72.5483C15.6099 71.7239 15.8682 70.4787 15.5129 68.802C15.0529 66.8215 14.1421 64.9738 12.8514 63.4028C12.7848 63.3225 12.7347 63.2299 12.7041 63.1302C12.6734 63.0305 12.6627 62.9258 12.6726 62.822C12.6825 62.7182 12.7129 62.6174 12.7618 62.5253C12.8108 62.4333 12.8775 62.3518 12.958 62.2856C13.0386 62.2194 13.1314 62.1697 13.2312 62.1395C13.331 62.1093 13.4358 62.099 13.5396 62.1094C13.6433 62.1198 13.744 62.1505 13.8358 62.1999C13.9277 62.2493 14.0089 62.3163 14.0747 62.3971C16.1998 64.9805 16.8976 67.6954 17.0609 68.4655C17.4855 70.4678 17.1737 71.9673 16.9877 72.8631C16.9409 73.0605 16.9078 73.2609 16.8887 73.4629C16.9372 73.8766 17.7409 75.1732 19.278 77.3132C19.5067 77.6309 19.6739 77.8605 19.759 77.9961C20.1203 78.5543 20.244 79.1373 20.1164 79.6787C20.0283 80.0539 19.7709 80.5913 19.0454 81.0209C18.6634 81.2475 18.3654 81.398 18.1457 81.5088C18.2081 81.6415 18.2991 81.8226 18.4308 82.0691C18.5404 82.2738 18.5972 82.5028 18.5958 82.735C18.5945 82.9673 18.5351 83.1956 18.4231 83.3991C18.311 83.6026 18.1499 83.7748 17.9544 83.9002C17.7588 84.0256 17.5351 84.1001 17.3034 84.1169L13.6333 84.8949C13.578 84.9072 13.5216 84.9135 13.465 84.9137Z"/>
<path d="M5.8278 94.0002C5.7651 93.9999 5.70265 93.9923 5.64172 93.9775C5.54059 93.9532 5.44523 93.9092 5.36109 93.8481C5.27696 93.7869 5.20569 93.7098 5.15137 93.6211C5.09705 93.5324 5.06074 93.4339 5.0445 93.3311C5.02827 93.2284 5.03243 93.1235 5.05676 93.0223C5.05676 93.0223 5.38979 91.9392 5.82629 91.3067C6.26278 90.6742 7.34066 89.2044 8.16712 88.8619C8.36125 88.7816 8.57933 88.7817 8.7734 88.8622C8.96746 88.9426 9.12161 89.0969 9.20194 89.291C9.28227 89.4851 9.28219 89.7032 9.20172 89.8973C9.12126 90.0914 8.96699 90.2455 8.77287 90.3258C8.20276 90.598 7.05711 91.4862 6.59785 93.3935C6.55628 93.5664 6.45771 93.7203 6.31802 93.8304C6.17833 93.9404 6.00565 94.0003 5.8278 94.0002Z"/>
<path d="M12.6922 91.1682C11.3432 91.1682 9.40813 90.7475 6.69018 89.8765L6.52489 89.8221C6.29724 89.7488 5.69149 89.5568 4.14941 87.4258C4.02656 87.2552 3.97652 87.0427 4.0103 86.8352C4.04409 86.6277 4.15892 86.4421 4.32955 86.3192C4.50018 86.1964 4.71263 86.1463 4.92015 86.1801C5.12767 86.2139 5.31328 86.3287 5.43613 86.4994C6.3398 87.7524 6.86241 88.2325 7.01978 88.3186L7.16924 88.3661C11.3164 89.6954 12.91 89.7023 13.5038 89.4746C14.4996 89.0965 14.5263 88.8194 14.554 88.5254C14.5609 88.4552 14.5679 88.3819 14.5807 88.3037C14.6936 87.601 15.0558 87.1724 15.3468 86.828C15.6527 86.4667 15.8417 86.2489 15.8417 85.7036C15.8417 85.4936 15.9251 85.2922 16.0736 85.1437C16.2221 84.9952 16.4235 84.9117 16.6335 84.9117C16.8435 84.9117 17.0449 84.9952 17.1934 85.1437C17.3419 85.2922 17.4254 85.4936 17.4254 85.7036C17.4254 86.829 16.9255 87.4199 16.5603 87.8514C16.3188 88.1374 16.1901 88.2988 16.1485 88.5541C16.1426 88.5918 16.1396 88.6323 16.1357 88.6749C16.0585 89.4816 15.7556 90.3169 14.07 90.9514C13.6275 91.1059 13.1608 91.1793 12.6922 91.1682Z"/>
<path d="M8.25574 73.6886C8.08706 73.689 7.92265 73.6356 7.78646 73.5361C7.65027 73.4366 7.54942 73.2962 7.49861 73.1353C7.44779 72.9745 7.44967 72.8016 7.50396 72.6419C7.55825 72.4822 7.66212 72.344 7.80044 72.2475C9.87898 70.7965 13.0705 71.5021 13.5565 71.5625C13.7651 71.5872 13.9553 71.6937 14.0853 71.8586C14.2153 72.0236 14.2745 72.2334 14.2499 72.4419C14.2252 72.6505 14.1187 72.8407 13.9537 72.9707C13.7888 73.1008 13.579 73.16 13.3704 73.1353C12.2154 72.9957 10.0492 72.6078 8.71005 73.5431C8.57717 73.6371 8.41853 73.688 8.25574 73.6886Z"/>
<path d="M12.675 76.2036H10.4972C10.2872 76.2036 10.0858 76.1202 9.93733 75.9717C9.78883 75.8232 9.70541 75.6218 9.70541 75.4118C9.70541 75.2018 9.78883 75.0004 9.93733 74.8519C10.0858 74.7034 10.2872 74.62 10.4972 74.62H12.675C12.885 74.62 13.0864 74.7034 13.2349 74.8519C13.3834 75.0004 13.4669 75.2018 13.4669 75.4118C13.4669 75.6218 13.3834 75.8232 13.2349 75.9717C13.0864 76.1202 12.885 76.2036 12.675 76.2036Z"/>
<path d="M21.6947 75.0002H19.3023C19.2217 75.0002 19.1444 74.9476 19.0875 74.8538C19.0305 74.76 18.9985 74.6329 18.9985 74.5002C18.9985 74.3676 19.0305 74.2405 19.0875 74.1467C19.1444 74.0529 19.2217 74.0002 19.3023 74.0002H21.6947C21.7753 74.0002 21.8525 74.0529 21.9095 74.1467C21.9665 74.2405 21.9985 74.3676 21.9985 74.5002C21.9985 74.6329 21.9665 74.76 21.9095 74.8538C21.8525 74.9476 21.7753 75.0002 21.6947 75.0002Z"/>
<path d="M26.6947 75.0002H24.3023C24.2217 75.0002 24.1444 74.9476 24.0875 74.8538C24.0305 74.76 23.9985 74.6329 23.9985 74.5002C23.9985 74.3676 24.0305 74.2405 24.0875 74.1467C24.1444 74.0529 24.2217 74.0002 24.3023 74.0002H26.6947C26.7753 74.0002 26.8525 74.0529 26.9095 74.1467C26.9665 74.2405 26.9985 74.3676 26.9985 74.5002C26.9985 74.6329 26.9665 74.76 26.9095 74.8538C26.8525 74.9476 26.7753 75.0002 26.6947 75.0002Z"/>
</mask>
<path d="M32.364 85.3096H30.3749C30.0236 85.3096 29.204 85.1038 29.204 83.1984V70.0017C29.204 68.0953 30.0236 67.8895 30.3749 67.8895H32.364C32.7163 67.8895 33.5349 68.0953 33.5349 70.0017V83.1984C33.5349 85.1038 32.7163 85.3096 32.364 85.3096ZM30.8273 83.726H31.9116C31.9389 83.5515 31.9521 83.3751 31.9512 83.1984V70.0017C31.9521 69.8247 31.9388 69.648 31.9116 69.4731H30.8273C30.8001 69.648 30.7868 69.8247 30.7877 70.0017V83.1984C30.7868 83.3751 30.8 83.5515 30.8273 83.726Z" fill="#4C4C4C"/>
<path d="M13.465 84.9137C13.2699 84.9128 13.0819 84.8399 12.9373 84.7089C12.7926 84.5779 12.7014 84.3981 12.6811 84.204C12.6609 84.0099 12.713 83.8152 12.8276 83.6572C12.9421 83.4992 13.1109 83.389 13.3017 83.3479L16.9075 82.5837C16.4641 81.7266 16.3651 81.3525 16.466 81.0001C16.6046 80.5161 17.0005 80.3171 17.4202 80.1093C17.631 80.0034 17.8933 79.8708 18.2348 79.6688C18.3466 79.6025 18.5377 79.4709 18.5723 79.3264C18.598 79.2155 18.5456 79.0473 18.4268 78.8641C18.3595 78.7602 18.1883 78.5217 17.9893 78.2445C16.3334 75.9403 15.3634 74.4368 15.306 73.5757C15.2862 73.2788 15.3535 72.9561 15.4377 72.5483C15.6099 71.7239 15.8682 70.4787 15.5129 68.802C15.0529 66.8215 14.1421 64.9738 12.8514 63.4028C12.7848 63.3225 12.7347 63.2299 12.7041 63.1302C12.6734 63.0305 12.6627 62.9258 12.6726 62.822C12.6825 62.7182 12.7129 62.6174 12.7618 62.5253C12.8108 62.4333 12.8775 62.3518 12.958 62.2856C13.0386 62.2194 13.1314 62.1697 13.2312 62.1395C13.331 62.1093 13.4358 62.099 13.5396 62.1094C13.6433 62.1198 13.744 62.1505 13.8358 62.1999C13.9277 62.2493 14.0089 62.3163 14.0747 62.3971C16.1998 64.9805 16.8976 67.6954 17.0609 68.4655C17.4855 70.4678 17.1737 71.9673 16.9877 72.8631C16.9409 73.0605 16.9078 73.2609 16.8887 73.4629C16.9372 73.8766 17.7409 75.1732 19.278 77.3132C19.5067 77.6309 19.6739 77.8605 19.759 77.9961C20.1203 78.5543 20.244 79.1373 20.1164 79.6787C20.0283 80.0539 19.7709 80.5913 19.0454 81.0209C18.6634 81.2475 18.3654 81.398 18.1457 81.5088C18.2081 81.6415 18.2991 81.8226 18.4308 82.0691C18.5404 82.2738 18.5972 82.5028 18.5958 82.735C18.5945 82.9673 18.5351 83.1956 18.4231 83.3991C18.311 83.6026 18.1499 83.7748 17.9544 83.9002C17.7588 84.0256 17.5351 84.1001 17.3034 84.1169L13.6333 84.8949C13.578 84.9072 13.5216 84.9135 13.465 84.9137Z" fill="#4C4C4C"/>
<path d="M5.8278 94.0002C5.7651 93.9999 5.70265 93.9923 5.64172 93.9775C5.54059 93.9532 5.44523 93.9092 5.36109 93.8481C5.27696 93.7869 5.20569 93.7098 5.15137 93.6211C5.09705 93.5324 5.06074 93.4339 5.0445 93.3311C5.02827 93.2284 5.03243 93.1235 5.05676 93.0223C5.05676 93.0223 5.38979 91.9392 5.82629 91.3067C6.26278 90.6742 7.34066 89.2044 8.16712 88.8619C8.36125 88.7816 8.57933 88.7817 8.7734 88.8622C8.96746 88.9426 9.12161 89.0969 9.20194 89.291C9.28227 89.4851 9.28219 89.7032 9.20172 89.8973C9.12126 90.0914 8.96699 90.2455 8.77287 90.3258C8.20276 90.598 7.05711 91.4862 6.59785 93.3935C6.55628 93.5664 6.45771 93.7203 6.31802 93.8304C6.17833 93.9404 6.00565 94.0003 5.8278 94.0002Z" fill="#4C4C4C"/>
<path d="M12.6922 91.1682C11.3432 91.1682 9.40813 90.7475 6.69018 89.8765L6.52489 89.8221C6.29724 89.7488 5.69149 89.5568 4.14941 87.4258C4.02656 87.2552 3.97652 87.0427 4.0103 86.8352C4.04409 86.6277 4.15892 86.4421 4.32955 86.3192C4.50018 86.1964 4.71263 86.1463 4.92015 86.1801C5.12767 86.2139 5.31328 86.3287 5.43613 86.4994C6.3398 87.7524 6.86241 88.2325 7.01978 88.3186L7.16924 88.3661C11.3164 89.6954 12.91 89.7023 13.5038 89.4746C14.4996 89.0965 14.5263 88.8194 14.554 88.5254C14.5609 88.4552 14.5679 88.3819 14.5807 88.3037C14.6936 87.601 15.0558 87.1724 15.3468 86.828C15.6527 86.4667 15.8417 86.2489 15.8417 85.7036C15.8417 85.4936 15.9251 85.2922 16.0736 85.1437C16.2221 84.9952 16.4235 84.9117 16.6335 84.9117C16.8435 84.9117 17.0449 84.9952 17.1934 85.1437C17.3419 85.2922 17.4254 85.4936 17.4254 85.7036C17.4254 86.829 16.9255 87.4199 16.5603 87.8514C16.3188 88.1374 16.1901 88.2988 16.1485 88.5541C16.1426 88.5918 16.1396 88.6323 16.1357 88.6749C16.0585 89.4816 15.7556 90.3169 14.07 90.9514C13.6275 91.1059 13.1608 91.1793 12.6922 91.1682Z" fill="#4C4C4C"/>
<path d="M8.25574 73.6886C8.08706 73.689 7.92265 73.6356 7.78646 73.5361C7.65027 73.4366 7.54942 73.2962 7.49861 73.1353C7.44779 72.9745 7.44967 72.8016 7.50396 72.6419C7.55825 72.4822 7.66212 72.344 7.80044 72.2475C9.87898 70.7965 13.0705 71.5021 13.5565 71.5625C13.7651 71.5872 13.9553 71.6937 14.0853 71.8586C14.2153 72.0236 14.2745 72.2334 14.2499 72.4419C14.2252 72.6505 14.1187 72.8407 13.9537 72.9707C13.7888 73.1008 13.579 73.16 13.3704 73.1353C12.2154 72.9957 10.0492 72.6078 8.71005 73.5431C8.57717 73.6371 8.41853 73.688 8.25574 73.6886Z" fill="#4C4C4C"/>
<path d="M12.675 76.2036H10.4972C10.2872 76.2036 10.0858 76.1202 9.93733 75.9717C9.78883 75.8232 9.70541 75.6218 9.70541 75.4118C9.70541 75.2018 9.78883 75.0004 9.93733 74.8519C10.0858 74.7034 10.2872 74.62 10.4972 74.62H12.675C12.885 74.62 13.0864 74.7034 13.2349 74.8519C13.3834 75.0004 13.4669 75.2018 13.4669 75.4118C13.4669 75.6218 13.3834 75.8232 13.2349 75.9717C13.0864 76.1202 12.885 76.2036 12.675 76.2036Z" fill="#4C4C4C"/>
<path d="M21.6947 75.0002H19.3023C19.2217 75.0002 19.1444 74.9476 19.0875 74.8538C19.0305 74.76 18.9985 74.6329 18.9985 74.5002C18.9985 74.3676 19.0305 74.2405 19.0875 74.1467C19.1444 74.0529 19.2217 74.0002 19.3023 74.0002H21.6947C21.7753 74.0002 21.8525 74.0529 21.9095 74.1467C21.9665 74.2405 21.9985 74.3676 21.9985 74.5002C21.9985 74.6329 21.9665 74.76 21.9095 74.8538C21.8525 74.9476 21.7753 75.0002 21.6947 75.0002Z" fill="#4C4C4C"/>
<path d="M26.6947 75.0002H24.3023C24.2217 75.0002 24.1444 74.9476 24.0875 74.8538C24.0305 74.76 23.9985 74.6329 23.9985 74.5002C23.9985 74.3676 24.0305 74.2405 24.0875 74.1467C24.1444 74.0529 24.2217 74.0002 24.3023 74.0002H26.6947C26.7753 74.0002 26.8525 74.0529 26.9095 74.1467C26.9665 74.2405 26.9985 74.3676 26.9985 74.5002C26.9985 74.6329 26.9665 74.76 26.9095 74.8538C26.8525 74.9476 26.7753 75.0002 26.6947 75.0002Z" fill="#4C4C4C"/>
<path d="M32.364 85.3096H30.3749C30.0236 85.3096 29.204 85.1038 29.204 83.1984V70.0017C29.204 68.0953 30.0236 67.8895 30.3749 67.8895H32.364C32.7163 67.8895 33.5349 68.0953 33.5349 70.0017V83.1984C33.5349 85.1038 32.7163 85.3096 32.364 85.3096ZM30.8273 83.726H31.9116C31.9389 83.5515 31.9521 83.3751 31.9512 83.1984V70.0017C31.9521 69.8247 31.9388 69.648 31.9116 69.4731H30.8273C30.8001 69.648 30.7868 69.8247 30.7877 70.0017V83.1984C30.7868 83.3751 30.8 83.5515 30.8273 83.726Z" stroke="#4C4C4C" stroke-width="0.4" mask="url(#path-1-outside-1)"/>
<path d="M13.465 84.9137C13.2699 84.9128 13.0819 84.8399 12.9373 84.7089C12.7926 84.5779 12.7014 84.3981 12.6811 84.204C12.6609 84.0099 12.713 83.8152 12.8276 83.6572C12.9421 83.4992 13.1109 83.389 13.3017 83.3479L16.9075 82.5837C16.4641 81.7266 16.3651 81.3525 16.466 81.0001C16.6046 80.5161 17.0005 80.3171 17.4202 80.1093C17.631 80.0034 17.8933 79.8708 18.2348 79.6688C18.3466 79.6025 18.5377 79.4709 18.5723 79.3264C18.598 79.2155 18.5456 79.0473 18.4268 78.8641C18.3595 78.7602 18.1883 78.5217 17.9893 78.2445C16.3334 75.9403 15.3634 74.4368 15.306 73.5757C15.2862 73.2788 15.3535 72.9561 15.4377 72.5483C15.6099 71.7239 15.8682 70.4787 15.5129 68.802C15.0529 66.8215 14.1421 64.9738 12.8514 63.4028C12.7848 63.3225 12.7347 63.2299 12.7041 63.1302C12.6734 63.0305 12.6627 62.9258 12.6726 62.822C12.6825 62.7182 12.7129 62.6174 12.7618 62.5253C12.8108 62.4333 12.8775 62.3518 12.958 62.2856C13.0386 62.2194 13.1314 62.1697 13.2312 62.1395C13.331 62.1093 13.4358 62.099 13.5396 62.1094C13.6433 62.1198 13.744 62.1505 13.8358 62.1999C13.9277 62.2493 14.0089 62.3163 14.0747 62.3971C16.1998 64.9805 16.8976 67.6954 17.0609 68.4655C17.4855 70.4678 17.1737 71.9673 16.9877 72.8631C16.9409 73.0605 16.9078 73.2609 16.8887 73.4629C16.9372 73.8766 17.7409 75.1732 19.278 77.3132C19.5067 77.6309 19.6739 77.8605 19.759 77.9961C20.1203 78.5543 20.244 79.1373 20.1164 79.6787C20.0283 80.0539 19.7709 80.5913 19.0454 81.0209C18.6634 81.2475 18.3654 81.398 18.1457 81.5088C18.2081 81.6415 18.2991 81.8226 18.4308 82.0691C18.5404 82.2738 18.5972 82.5028 18.5958 82.735C18.5945 82.9673 18.5351 83.1956 18.4231 83.3991C18.311 83.6026 18.1499 83.7748 17.9544 83.9002C17.7588 84.0256 17.5351 84.1001 17.3034 84.1169L13.6333 84.8949C13.578 84.9072 13.5216 84.9135 13.465 84.9137Z" stroke="#4C4C4C" stroke-width="0.4" mask="url(#path-1-outside-1)"/>
<path d="M5.8278 94.0002C5.7651 93.9999 5.70265 93.9923 5.64172 93.9775C5.54059 93.9532 5.44523 93.9092 5.36109 93.8481C5.27696 93.7869 5.20569 93.7098 5.15137 93.6211C5.09705 93.5324 5.06074 93.4339 5.0445 93.3311C5.02827 93.2284 5.03243 93.1235 5.05676 93.0223C5.05676 93.0223 5.38979 91.9392 5.82629 91.3067C6.26278 90.6742 7.34066 89.2044 8.16712 88.8619C8.36125 88.7816 8.57933 88.7817 8.7734 88.8622C8.96746 88.9426 9.12161 89.0969 9.20194 89.291C9.28227 89.4851 9.28219 89.7032 9.20172 89.8973C9.12126 90.0914 8.96699 90.2455 8.77287 90.3258C8.20276 90.598 7.05711 91.4862 6.59785 93.3935C6.55628 93.5664 6.45771 93.7203 6.31802 93.8304C6.17833 93.9404 6.00565 94.0003 5.8278 94.0002Z" stroke="#4C4C4C" stroke-width="0.4" mask="url(#path-1-outside-1)"/>
<path d="M12.6922 91.1682C11.3432 91.1682 9.40813 90.7475 6.69018 89.8765L6.52489 89.8221C6.29724 89.7488 5.69149 89.5568 4.14941 87.4258C4.02656 87.2552 3.97652 87.0427 4.0103 86.8352C4.04409 86.6277 4.15892 86.4421 4.32955 86.3192C4.50018 86.1964 4.71263 86.1463 4.92015 86.1801C5.12767 86.2139 5.31328 86.3287 5.43613 86.4994C6.3398 87.7524 6.86241 88.2325 7.01978 88.3186L7.16924 88.3661C11.3164 89.6954 12.91 89.7023 13.5038 89.4746C14.4996 89.0965 14.5263 88.8194 14.554 88.5254C14.5609 88.4552 14.5679 88.3819 14.5807 88.3037C14.6936 87.601 15.0558 87.1724 15.3468 86.828C15.6527 86.4667 15.8417 86.2489 15.8417 85.7036C15.8417 85.4936 15.9251 85.2922 16.0736 85.1437C16.2221 84.9952 16.4235 84.9117 16.6335 84.9117C16.8435 84.9117 17.0449 84.9952 17.1934 85.1437C17.3419 85.2922 17.4254 85.4936 17.4254 85.7036C17.4254 86.829 16.9255 87.4199 16.5603 87.8514C16.3188 88.1374 16.1901 88.2988 16.1485 88.5541C16.1426 88.5918 16.1396 88.6323 16.1357 88.6749C16.0585 89.4816 15.7556 90.3169 14.07 90.9514C13.6275 91.1059 13.1608 91.1793 12.6922 91.1682Z" stroke="#4C4C4C" stroke-width="0.4" mask="url(#path-1-outside-1)"/>
<path d="M8.25574 73.6886C8.08706 73.689 7.92265 73.6356 7.78646 73.5361C7.65027 73.4366 7.54942 73.2962 7.49861 73.1353C7.44779 72.9745 7.44967 72.8016 7.50396 72.6419C7.55825 72.4822 7.66212 72.344 7.80044 72.2475C9.87898 70.7965 13.0705 71.5021 13.5565 71.5625C13.7651 71.5872 13.9553 71.6937 14.0853 71.8586C14.2153 72.0236 14.2745 72.2334 14.2499 72.4419C14.2252 72.6505 14.1187 72.8407 13.9537 72.9707C13.7888 73.1008 13.579 73.16 13.3704 73.1353C12.2154 72.9957 10.0492 72.6078 8.71005 73.5431C8.57717 73.6371 8.41853 73.688 8.25574 73.6886Z" stroke="#4C4C4C" stroke-width="0.4" mask="url(#path-1-outside-1)"/>
<path d="M12.675 76.2036H10.4972C10.2872 76.2036 10.0858 76.1202 9.93733 75.9717C9.78883 75.8232 9.70541 75.6218 9.70541 75.4118C9.70541 75.2018 9.78883 75.0004 9.93733 74.8519C10.0858 74.7034 10.2872 74.62 10.4972 74.62H12.675C12.885 74.62 13.0864 74.7034 13.2349 74.8519C13.3834 75.0004 13.4669 75.2018 13.4669 75.4118C13.4669 75.6218 13.3834 75.8232 13.2349 75.9717C13.0864 76.1202 12.885 76.2036 12.675 76.2036Z" stroke="#4C4C4C" stroke-width="0.4" mask="url(#path-1-outside-1)"/>
<path d="M21.6947 75.0002H19.3023C19.2217 75.0002 19.1444 74.9476 19.0875 74.8538C19.0305 74.76 18.9985 74.6329 18.9985 74.5002C18.9985 74.3676 19.0305 74.2405 19.0875 74.1467C19.1444 74.0529 19.2217 74.0002 19.3023 74.0002H21.6947C21.7753 74.0002 21.8525 74.0529 21.9095 74.1467C21.9665 74.2405 21.9985 74.3676 21.9985 74.5002C21.9985 74.6329 21.9665 74.76 21.9095 74.8538C21.8525 74.9476 21.7753 75.0002 21.6947 75.0002Z" stroke="#4C4C4C" stroke-width="0.4" mask="url(#path-1-outside-1)"/>
<path d="M26.6947 75.0002H24.3023C24.2217 75.0002 24.1444 74.9476 24.0875 74.8538C24.0305 74.76 23.9985 74.6329 23.9985 74.5002C23.9985 74.3676 24.0305 74.2405 24.0875 74.1467C24.1444 74.0529 24.2217 74.0002 24.3023 74.0002H26.6947C26.7753 74.0002 26.8525 74.0529 26.9095 74.1467C26.9665 74.2405 26.9985 74.3676 26.9985 74.5002C26.9985 74.6329 26.9665 74.76 26.9095 74.8538C26.8525 74.9476 26.7753 75.0002 26.6947 75.0002Z" stroke="#4C4C4C" stroke-width="0.4" mask="url(#path-1-outside-1)"/>
<path d="M29.7028 127.56C29.8792 127.736 30.1185 127.836 30.368 127.836C30.6175 127.836 30.8568 127.736 31.0332 127.56C31.2097 127.384 31.3088 127.144 31.3088 126.895V122.816C31.3088 122.566 31.2097 122.327 31.0332 122.151C30.8568 121.974 30.6175 121.875 30.368 121.875H27.1049C26.8553 121.875 26.616 121.974 26.4396 122.151C26.2632 122.327 26.1641 122.566 26.1641 122.816C26.1641 123.065 26.2632 123.305 26.4396 123.481C26.616 123.657 26.8553 123.757 27.1049 123.757H29.4272V126.895C29.4272 127.144 29.5263 127.384 29.7028 127.56Z" fill="#4C4C4C" stroke="#4C4C4C" stroke-width="0.25"/>
<path d="M1.15055 127.56C1.32698 127.736 1.56628 127.836 1.81579 127.836C2.0653 127.836 2.3046 127.736 2.48103 127.56C2.65746 127.384 2.75658 127.144 2.75658 126.895V123.757H5.07895C5.32846 123.757 5.56775 123.657 5.74419 123.481C5.92062 123.305 6.01974 123.065 6.01974 122.816C6.01974 122.566 5.92062 122.327 5.74419 122.151C5.56775 121.974 5.32846 121.875 5.07895 121.875H1.81579C1.56628 121.875 1.32698 121.974 1.15055 122.151C0.974119 122.327 0.875 122.566 0.875 122.816V126.895C0.875 127.144 0.974119 127.384 1.15055 127.56Z" fill="#4C4C4C" stroke="#4C4C4C" stroke-width="0.25"/>
<path d="M1.81579 153.125H5.07895C5.32846 153.125 5.56775 153.026 5.74419 152.849C5.92062 152.673 6.01974 152.434 6.01974 152.184C6.01974 151.935 5.92062 151.695 5.74419 151.519C5.56775 151.343 5.32846 151.243 5.07895 151.243H2.75658V148.105C2.75658 147.856 2.65746 147.616 2.48103 147.44C2.3046 147.264 2.0653 147.164 1.81579 147.164C1.56628 147.164 1.32698 147.264 1.15055 147.44C0.974119 147.616 0.875 147.856 0.875 148.105V152.184C0.875 152.434 0.974119 152.673 1.15055 152.849C1.32698 153.026 1.56628 153.125 1.81579 153.125Z" fill="#4C4C4C" stroke="#4C4C4C" stroke-width="0.25"/>
<path d="M10.5374 138.343L10.5372 138.343C8.52979 139.637 7.40234 141.362 7.40234 143.211V148.105C7.40234 148.355 7.50146 148.594 7.67789 148.77C7.85433 148.947 8.09362 149.046 8.34313 149.046C8.59265 149.046 8.83194 148.947 9.00837 148.77C9.1848 148.594 9.28392 148.355 9.28392 148.105V143.211C9.28392 142.427 9.63138 141.747 10.0937 141.189C10.5561 140.63 11.1271 140.202 11.5567 139.925L11.5567 139.925C12.9933 138.999 14.8442 138.447 16.501 138.447C18.1578 138.447 20.0087 138.999 21.4464 139.925C21.8755 140.202 22.4462 140.63 22.9085 141.189C23.3707 141.747 23.7181 142.427 23.7181 143.211V148.105C23.7181 148.355 23.8173 148.594 23.9937 148.77C24.1701 148.947 24.4094 149.046 24.6589 149.046C24.9084 149.046 25.1477 148.947 25.3242 148.77C25.5006 148.594 25.5997 148.355 25.5997 148.105V143.211C25.5997 141.362 24.4733 139.637 22.4648 138.343L22.3971 138.448L22.4648 138.343C20.7351 137.229 18.508 136.565 16.501 136.565C14.4939 136.565 12.2721 137.229 10.5374 138.343Z" fill="#4C4C4C" stroke="#4C4C4C" stroke-width="0.25"/>
<path d="M12.3072 126.681L12.3072 126.681C11.7843 127.166 11.3681 127.755 11.0852 128.41C10.8024 129.065 10.659 129.771 10.6642 130.485V133.094C10.6592 133.808 10.8028 134.514 11.0858 135.169C11.3688 135.824 11.7852 136.413 12.3082 136.898C13.3815 137.896 14.8693 138.441 16.4997 138.441C18.1313 138.441 19.6181 137.896 20.6923 136.898C21.2152 136.413 21.6314 135.824 21.9142 135.169C22.197 134.514 22.3404 133.808 22.3352 133.094V130.485C22.3404 129.771 22.1969 129.065 21.9139 128.41C21.6309 127.755 21.2145 127.166 20.6913 126.681C19.6181 125.683 18.1313 125.138 16.4997 125.138C14.8681 125.138 13.3814 125.684 12.3072 126.681ZM12.5458 130.484C12.5458 128.488 14.1895 127.02 16.4997 127.02C18.8099 127.02 20.4537 128.488 20.4537 130.484V133.095C20.4537 135.091 18.8099 136.559 16.4997 136.559C14.1895 136.559 12.5458 135.091 12.5458 133.095V130.484Z" fill="#4C4C4C" stroke="#4C4C4C" stroke-width="0.25"/>
<path d="M27.1049 153.125H30.368C30.6175 153.125 30.8568 153.026 31.0332 152.849C31.2097 152.673 31.3088 152.434 31.3088 152.184V148.105C31.3088 147.856 31.2097 147.616 31.0332 147.44C30.8568 147.264 30.6175 147.164 30.368 147.164C30.1185 147.164 29.8792 147.264 29.7028 147.44C29.5263 147.616 29.4272 147.856 29.4272 148.105V151.243H27.1049C26.8553 151.243 26.616 151.343 26.4396 151.519C26.2632 151.695 26.1641 151.935 26.1641 152.184C26.1641 152.434 26.2632 152.673 26.4396 152.849C26.616 153.026 26.8553 153.125 27.1049 153.125Z" fill="#4C4C4C" stroke="#4C4C4C" stroke-width="0.25"/>
<path d="M12.5412 141.371C12.6664 141.228 12.834 141.129 13.0196 141.088C13.2051 141.047 13.3988 141.067 13.5726 141.143C13.7463 141.22 13.8909 141.351 13.9854 141.515C14.0799 141.68 14.1193 141.871 14.0978 142.06L14.0978 142.06C14.0768 142.242 14.0003 142.413 13.8785 142.55L13.8037 142.484M12.5412 141.371L12.6164 141.437L12.5412 141.371ZM12.5412 141.371C11.6855 142.347 11.3515 143.66 11.2298 144.78C11.1304 145.694 11.1717 146.494 11.1919 146.885C11.1964 146.973 11.1999 147.04 11.2005 147.084L11.3005 147.082L11.2005 147.083C11.2022 147.319 11.2978 147.546 11.4662 147.712C11.6347 147.878 11.8622 147.97 12.0987 147.968C12.3353 147.967 12.5614 147.871 12.7275 147.703C12.8935 147.534 12.9859 147.307 12.9842 147.07L12.9842 147.07C12.9831 146.966 12.9811 146.855 12.9789 146.737C12.9689 146.19 12.9562 145.504 13.035 144.813C13.1308 143.972 13.3602 143.141 13.8789 142.55L13.8037 142.484M13.8037 142.484C12.821 143.604 12.8566 145.529 12.879 146.741C12.8811 146.858 12.8832 146.969 12.8842 147.071L13.9984 142.048C13.9798 142.21 13.9118 142.362 13.8037 142.484Z" fill="#4C4C4C" stroke="#4C4C4C" stroke-width="0.2"/>
<path d="M16.706 24.0422C16.8881 24.0962 17.0828 24.0907 17.2615 24.0265C17.4403 23.9622 17.5939 23.8425 17.6999 23.6849C17.8059 23.5272 17.8588 23.3398 17.8509 23.15C17.843 22.9602 17.7746 22.7779 17.6558 22.6296L17.6558 22.6295C17.5409 22.4866 17.3848 22.3825 17.2087 22.3315L17.1809 22.4275M16.706 24.0422L16.7345 23.9463L16.706 24.0422ZM16.706 24.0422C15.462 23.6729 14.4793 22.7399 13.7793 21.8572C13.2078 21.1365 12.8162 20.4375 12.6248 20.096C12.5818 20.0192 12.5489 19.9605 12.5264 19.9237L12.6117 19.8715L12.5267 19.9242C12.402 19.7232 12.3623 19.4808 12.4164 19.2506C12.4704 19.0203 12.6136 18.8209 12.8147 18.6962C13.0157 18.5716 13.258 18.5319 13.4883 18.5859C13.7186 18.6399 13.918 18.7832 14.0426 18.9842L14.0428 18.9844C14.0972 19.0726 14.1547 19.1678 14.2156 19.2685C14.4991 19.7374 14.8537 20.3238 15.289 20.8669C15.8182 21.527 16.4555 22.1081 17.2093 22.3316L17.1809 22.4275M17.1809 22.4275C15.7525 22.0039 14.7564 20.3563 14.1289 19.3184C14.0684 19.2183 14.0113 19.124 13.9577 19.0369L17.5778 22.6921C17.4758 22.5652 17.3373 22.4728 17.1809 22.4275Z" fill="#4C4C4C" stroke="#4C4C4C" stroke-width="0.2"/>
<path d="M21.6613 11.2401L21.6614 11.2401C22.6084 11.6254 23.4452 12.1697 24.1722 12.8731C24.8993 13.5766 25.4656 14.3803 25.8713 15.2844C26.2769 16.2219 26.4796 17.201 26.4796 18.2222C26.4796 19.2435 26.2768 20.2226 25.8713 21.1601C25.4656 22.0642 24.8993 22.8679 24.1722 23.5714C23.4452 24.2748 22.6084 24.8191 21.6614 25.2044L21.6613 25.2042L21.658 25.2059L21.607 25.2312L21.5792 25.2449V25.276V27.9312H15.5537V25.276V25.2449L15.5259 25.2312L15.4748 25.2059L15.4749 25.2057L15.4715 25.2044C14.5245 24.8191 13.6876 24.2748 12.9606 23.5714C12.2335 22.8679 11.6673 22.0642 11.2616 21.1601C10.856 20.2226 10.6533 19.2435 10.6533 18.2222C10.6533 17.201 10.856 16.2219 11.2616 15.2844C11.6673 14.3803 12.2335 13.5766 12.9606 12.8731C13.6876 12.1697 14.5245 11.6254 15.4715 11.2401L15.4716 11.2401C16.4523 10.8381 17.4838 10.637 18.5664 10.637C19.6491 10.637 20.6805 10.8381 21.6613 11.2401ZM22.5194 33.0653C22.3312 32.8789 22.1016 32.7853 21.8334 32.7853H15.2995C15.0313 32.7853 14.8017 32.8789 14.6135 33.0653C14.4253 33.2517 14.3307 33.4794 14.3307 33.7455C14.3307 34.0116 14.4253 34.2393 14.6135 34.4257C14.8017 34.6121 15.0313 34.7056 15.2995 34.7056H21.8334C22.1016 34.7056 22.3312 34.6121 22.5194 34.4257C22.7076 34.2393 22.8022 34.0116 22.8022 33.7455C22.8022 33.4794 22.7076 33.2517 22.5194 33.0653ZM27.0828 23.0139C27.9724 21.548 28.4172 19.9505 28.4172 18.2222C28.4172 15.5959 27.4544 13.354 25.5306 11.4991C23.6069 9.64435 21.2846 8.71671 18.5664 8.71671C15.8483 8.71671 13.526 9.64435 11.6023 11.4991C9.67844 13.354 8.71562 15.5959 8.71562 18.2222C8.71562 19.9505 9.16049 21.548 10.0501 23.0139C10.9343 24.4709 12.1232 25.6142 13.616 26.4431V27.9812C13.616 28.5001 13.8 28.9427 14.1668 29.3061C14.5337 29.6694 14.9803 29.8515 15.5037 29.8515H21.6292C22.1526 29.8515 22.5992 29.6694 22.966 29.3061C23.3329 28.9427 23.5168 28.5001 23.5168 27.9812V26.4431C25.0097 25.6142 26.1985 24.4709 27.0828 23.0139Z" fill="#4C4C4C" stroke="#4C4C4C" stroke-width="0.1"/>
<path d="M35.8333 17.5076C35.686 17.3203 35.5033 17.223 35.2869 17.223H30.1963C29.98 17.223 29.7972 17.3203 29.65 17.5076C29.503 17.6944 29.4305 17.9206 29.4305 18.1832C29.4305 18.4457 29.503 18.6719 29.65 18.8588C29.7972 19.046 29.98 19.1433 30.1963 19.1433H35.2869C35.5033 19.1433 35.686 19.046 35.8333 18.8588C35.9803 18.6719 36.0528 18.4457 36.0528 18.1832C36.0528 17.9206 35.9803 17.6944 35.8333 17.5076Z" fill="#4C4C4C" stroke="#4C4C4C" stroke-width="0.1"/>
<path d="M31.1775 5.3539C30.941 5.32564 30.7429 5.38606 30.59 5.53904L26.9904 9.13863C26.8374 9.29161 26.777 9.48967 26.8052 9.72618C26.8334 9.96224 26.9421 10.1734 27.1278 10.3591C27.3134 10.5448 27.5246 10.6534 27.7607 10.6816C27.9972 10.7099 28.1953 10.6495 28.3482 10.4965L31.9478 6.89691C32.1008 6.74392 32.1612 6.54586 32.133 6.30936C32.1048 6.07329 31.9961 5.8621 31.8104 5.67643C31.6248 5.49075 31.4136 5.38211 31.1775 5.3539Z" fill="#4C4C4C" stroke="#4C4C4C" stroke-width="0.1"/>
<path d="M17.8752 1.16949C17.688 1.31674 17.5906 1.49951 17.5906 1.71586V6.80645C17.5906 7.02279 17.688 7.20556 17.8752 7.35282C18.062 7.49979 18.2882 7.57231 18.5508 7.57231C18.8134 7.57231 19.0395 7.49979 19.2264 7.35282C19.4136 7.20556 19.5109 7.02279 19.5109 6.80645V1.71586C19.5109 1.49951 19.4136 1.31674 19.2264 1.16949C19.0395 1.02251 18.8134 0.949993 18.5508 0.949993C18.2882 0.949993 18.062 1.02251 17.8752 1.16949Z" fill="#4C4C4C" stroke="#4C4C4C" stroke-width="0.1"/>
<path d="M7.35282 17.5076C7.20557 17.3203 7.0228 17.223 6.80645 17.223H1.71586C1.49951 17.223 1.31675 17.3203 1.16949 17.5076C1.02252 17.6944 0.95 17.9206 0.95 18.1832C0.95 18.4457 1.02252 18.6719 1.16949 18.8588C1.31675 19.046 1.49951 19.1433 1.71586 19.1433H6.80645C7.0228 19.1433 7.20557 19.046 7.35282 18.8588C7.4998 18.6719 7.57232 18.4457 7.57232 18.1832C7.57232 17.9206 7.4998 17.6944 7.35282 17.5076Z" fill="#4C4C4C" stroke="#4C4C4C" stroke-width="0.1"/>
<path d="M10.256 9.90584C10.2842 9.66933 10.2238 9.47127 10.0708 9.31829L6.47124 5.7187C6.31825 5.56572 6.12019 5.50531 5.88368 5.53357C5.64762 5.56177 5.43643 5.67041 5.25075 5.85609C5.06508 6.04176 4.95644 6.25296 4.92823 6.48902C4.89997 6.72553 4.96038 6.92359 5.11337 7.07657L8.71296 10.6762C8.86594 10.8291 9.064 10.8896 9.30051 10.8613C9.53657 10.8331 9.74777 10.7244 9.93344 10.5388C10.1191 10.3531 10.2278 10.1419 10.256 9.90584Z" fill="#4C4C4C" stroke="#4C4C4C" stroke-width="0.1"/>
</svg>
