<svg width="240" height="240" viewBox="0 0 240 240" fill="none" xmlns="http://www.w3.org/2000/svg">
<path d="M223.382 83.8991C213.842 37.7638 165.843 11.0013 125.417 7.44441C91.9289 4.49737 48.1897 16.144 32.7314 44.2824C23.0076 61.9793 34.689 67.6001 26.7385 107.712C19.8474 142.418 7.82062 154.84 15.4436 172.535C21.6847 186.997 36.2755 193.837 45.6001 198.212C82.3587 215.445 138.199 213.422 178.407 181.986C187.806 174.628 234.173 136.087 223.382 83.8991Z" fill="#EDF3FF"/>
<path d="M197.292 198.975C197.186 198.955 197.076 198.977 196.985 199.035C196.894 199.101 196.83 199.198 196.806 199.307C196.794 199.363 196.794 199.421 196.806 199.477C196.817 199.532 196.841 199.585 196.874 199.631L197.684 200.893C197.746 200.985 197.84 201.049 197.948 201.072C198.002 201.085 198.058 201.087 198.112 201.078C198.167 201.069 198.219 201.049 198.266 201.02C198.312 200.99 198.353 200.952 198.385 200.907C198.417 200.862 198.439 200.811 198.451 200.757C198.464 200.704 198.467 200.648 198.458 200.594C198.449 200.54 198.429 200.488 198.4 200.441L197.59 199.163C197.555 199.119 197.515 199.079 197.471 199.043C197.421 199.012 197.366 198.989 197.309 198.975H197.292Z" fill="#434343"/>
<path d="M194.455 194.533C194.351 194.514 194.244 194.535 194.156 194.592C194.063 194.654 193.996 194.748 193.969 194.857C193.955 194.912 193.953 194.969 193.964 195.025C193.974 195.081 193.996 195.134 194.028 195.181L194.838 196.451C194.901 196.542 194.995 196.606 195.103 196.63C195.157 196.642 195.212 196.643 195.266 196.633C195.321 196.622 195.372 196.601 195.418 196.571C195.513 196.511 195.58 196.416 195.606 196.306C195.631 196.198 195.613 196.085 195.555 195.991L194.745 194.72C194.711 194.674 194.671 194.634 194.625 194.601C194.577 194.566 194.522 194.543 194.463 194.533H194.455Z" fill="#434343"/>
<path d="M194.719 198.412C194.665 198.4 194.609 198.399 194.555 198.409C194.501 198.42 194.449 198.441 194.403 198.472L193.167 199.324C193.076 199.39 193.012 199.487 192.988 199.597C192.977 199.65 192.978 199.705 192.99 199.758C193.002 199.81 193.024 199.86 193.056 199.904C193.115 199.996 193.206 200.063 193.312 200.092C193.42 200.113 193.532 200.095 193.627 200.04L194.872 199.188C194.919 199.157 194.959 199.116 194.989 199.07C195.02 199.023 195.041 198.97 195.051 198.915C195.075 198.803 195.053 198.687 194.991 198.591C194.96 198.544 194.92 198.504 194.873 198.474C194.826 198.443 194.774 198.422 194.719 198.412Z" fill="#434343"/>
<path d="M199.066 195.547C199.012 195.539 198.958 195.539 198.904 195.547C198.85 195.558 198.798 195.578 198.751 195.607L197.506 196.46C197.46 196.493 197.419 196.533 197.386 196.579C197.356 196.626 197.336 196.678 197.327 196.732C197.318 196.786 197.318 196.841 197.327 196.894C197.336 196.949 197.356 197.001 197.386 197.048C197.415 197.098 197.456 197.139 197.506 197.167C197.55 197.204 197.603 197.227 197.659 197.236H197.821C197.876 197.226 197.928 197.206 197.975 197.176L199.219 196.323C199.288 196.278 199.342 196.212 199.373 196.136C199.394 196.055 199.394 195.969 199.373 195.888C199.355 195.806 199.317 195.73 199.262 195.667C199.204 195.608 199.13 195.566 199.049 195.547H199.066Z" fill="#434343"/>
<path d="M125.482 198.557C120.185 198.562 115.103 196.465 111.35 192.726C107.597 188.988 105.481 183.913 105.465 178.616V76.832H145.449V178.616C145.389 183.891 143.265 188.932 139.533 192.659C135.801 196.387 130.757 198.504 125.482 198.557Z" fill="white"/>
<path d="M48.7822 197.799L129.62 226.665L203.944 194.389C205.649 152.47 194.259 126.96 193.551 116.074C191.446 84.9731 205.171 69.4154 177.941 34.1119C156.892 6.83074 124.095 16.0626 124.095 16.0626C124.095 16.0626 95.023 9.96342 75.2101 39.2821C54.7492 72.1055 69.1059 94.2913 59.0119 116.074C42.0464 144.847 50.4787 177.082 48.7822 197.799Z" fill="#434343"/>
<path d="M203.943 194.221C176.915 186.591 148.528 178.617 148.528 178.617C146.504 191.088 136.182 197.671 125.407 197.671C114.633 197.671 104.943 190.482 102.065 179.47C85.9959 183.938 65.2039 191.636 48.7812 197.671C54.4298 208.167 82.1643 237.881 111.869 239.696C125.991 240.111 133.742 240.747 151.134 236.61C184.226 228.738 199.025 202.987 203.943 194.221Z" fill="#B09CF8"/>
<path d="M105.691 156V176.059C105.691 185.693 116.169 193.724 126.391 193.724C136.374 193.724 144.695 185.923 144.695 176.059V155.923C140.108 158.881 131.242 163.596 125.189 163.698C119.784 163.758 111.378 159.921 105.691 156Z" fill="#EFEFEF"/>
<path d="M88.0199 98.2692C88.0199 98.2692 82.0031 95.2096 81.4167 102.884C80.2793 117.764 88.3735 120.62 88.3735 120.62" fill="#EFEFEF"/>
<path d="M166.152 98.1853C166.152 98.1853 172.198 95.1845 172.709 102.864C173.701 117.754 165.58 120.531 165.58 120.531" fill="#EFEFEF"/>
<path d="M166.647 91.3761C166.647 69.8069 162.12 46.9419 146.655 46.9419C146.655 46.9419 127.192 58.6898 109.144 61.3412C85.9547 64.7514 87.3017 92.9362 87.3017 92.9362V115.29C87.3017 124.011 89.6121 129.467 94.3948 137.694C99.4503 146.373 111.65 160.082 124.558 160.082C135.172 160.082 151.387 150.269 159.043 138.146C163.57 130.993 165.667 125.137 166.673 115.29L166.647 91.3761Z" fill="white"/>
<ellipse cx="65.0083" cy="29.7912" rx="22.9526" ry="23.2507" fill="#434343" stroke="#434343" stroke-width="0.6" stroke-linecap="round" stroke-linejoin="round"/>
<ellipse cx="62.9135" cy="28.2927" rx="22.9526" ry="23.2507" fill="#9BCD91" stroke="#434343" stroke-width="0.6" stroke-linecap="round" stroke-linejoin="round"/>
<path d="M72.8906 22.5193C72.6543 22.3158 71.7091 21.3224 71.4373 21.0471C71.0022 20.6715 70.4373 20.4869 69.8675 20.5341C69.2978 20.5813 68.77 20.8563 68.4008 21.2985L60.0119 31.3284L55.4747 26.7563C54.9323 26.2089 54.1428 25.9963 53.4037 26.1985C52.6646 26.4007 52.088 26.987 51.8913 27.7365C51.6946 28.486 51.9076 29.2849 52.45 29.8323L53.8679 31.2685L60.0473 37.5162C60.4542 37.921 61.0012 38.1487 61.5715 38.1506H61.6542C62.2544 38.1308 62.8177 37.8521 63.202 37.3846L73.1033 25.5594C73.8605 24.6561 73.766 23.3054 72.8906 22.5193Z" fill="#434343" stroke="#434343" stroke-width="0.72" stroke-linecap="round" stroke-linejoin="round"/>
<path d="M60.1536 36.7024C59.5721 36.7172 59.0094 36.4926 58.594 36.08L52.45 29.8323C51.9076 29.285 51.6946 28.4861 51.8913 27.7365C52.088 26.987 52.6646 26.4007 53.4037 26.1985C54.1428 25.9963 54.9323 26.209 55.4747 26.7563L60.0119 31.3284L68.4008 21.2985C69.1675 20.3797 70.5244 20.2645 71.4314 21.0412C72.3385 21.8179 72.4522 23.1924 71.6855 24.1112L61.7842 35.9364C61.398 36.4014 60.8358 36.6796 60.2363 36.7024H60.1536Z" fill="white" stroke="#434343" stroke-width="0.72" stroke-linecap="round" stroke-linejoin="round"/>
</svg>
