<svg width="32" height="33" viewBox="0 0 32 33" fill="none" xmlns="http://www.w3.org/2000/svg">
<path d="M29.7028 6.55998C29.8792 6.73641 30.1185 6.83553 30.368 6.83553C30.6175 6.83553 30.8568 6.73641 31.0332 6.55998C31.2097 6.38354 31.3088 6.14425 31.3088 5.89474V1.81579C31.3088 1.56628 31.2097 1.32698 31.0332 1.15055C30.8568 0.974119 30.6175 0.875 30.368 0.875H27.1049C26.8553 0.875 26.616 0.974119 26.4396 1.15055C26.2632 1.32698 26.1641 1.56628 26.1641 1.81579C26.1641 2.0653 26.2632 2.3046 26.4396 2.48103C26.616 2.65746 26.8553 2.75658 27.1049 2.75658H29.4272V5.89474C29.4272 6.14425 29.5263 6.38354 29.7028 6.55998Z" fill="#4C4C4C" stroke="#4C4C4C" stroke-width="0.25"/>
<path d="M1.15055 6.55998C1.32698 6.73641 1.56628 6.83553 1.81579 6.83553C2.0653 6.83553 2.3046 6.73641 2.48103 6.55998C2.65746 6.38354 2.75658 6.14425 2.75658 5.89474V2.75658H5.07895C5.32846 2.75658 5.56775 2.65746 5.74419 2.48103C5.92062 2.3046 6.01974 2.0653 6.01974 1.81579C6.01974 1.56628 5.92062 1.32698 5.74419 1.15055C5.56775 0.974119 5.32846 0.875 5.07895 0.875H1.81579C1.56628 0.875 1.32698 0.974119 1.15055 1.15055C0.974119 1.32698 0.875 1.56628 0.875 1.81579V5.89474C0.875 6.14425 0.974119 6.38354 1.15055 6.55998Z" fill="#4C4C4C" stroke="#4C4C4C" stroke-width="0.25"/>
<path d="M1.81579 32.1251H5.07895C5.32846 32.1251 5.56775 32.026 5.74419 31.8495C5.92062 31.6731 6.01974 31.4338 6.01974 31.1843C6.01974 30.9348 5.92062 30.6955 5.74419 30.519C5.56775 30.3426 5.32846 30.2435 5.07895 30.2435H2.75658V27.1053C2.75658 26.8558 2.65746 26.6165 2.48103 26.4401C2.3046 26.2637 2.0653 26.1646 1.81579 26.1646C1.56628 26.1646 1.32698 26.2637 1.15055 26.4401C0.974119 26.6165 0.875 26.8558 0.875 27.1053V31.1843C0.875 31.4338 0.974119 31.6731 1.15055 31.8495C1.32698 32.026 1.56628 32.1251 1.81579 32.1251Z" fill="#4C4C4C" stroke="#4C4C4C" stroke-width="0.25"/>
<path d="M10.5374 17.3433L10.5372 17.3434C8.52979 18.637 7.40234 20.3623 7.40234 22.2106V27.1054C7.40234 27.3549 7.50146 27.5942 7.67789 27.7706C7.85433 27.947 8.09362 28.0462 8.34313 28.0462C8.59265 28.0462 8.83194 27.947 9.00837 27.7706C9.1848 27.5942 9.28392 27.3549 9.28392 27.1054V22.2106C9.28392 21.4274 9.63138 20.7473 10.0937 20.1889C10.5561 19.6304 11.1271 19.2018 11.5567 18.9251L11.5567 18.9251C12.9933 17.9995 14.8442 17.447 16.501 17.447C18.1578 17.447 20.0087 17.9995 21.4464 18.9251C21.8755 19.2018 22.4462 19.6304 22.9085 20.1889C23.3707 20.7473 23.7181 21.4274 23.7181 22.2106V27.1054C23.7181 27.3549 23.8173 27.5942 23.9937 27.7706C24.1701 27.947 24.4094 28.0462 24.6589 28.0462C24.9084 28.0462 25.1477 27.947 25.3242 27.7706C25.5006 27.5942 25.5997 27.3549 25.5997 27.1054V22.2106C25.5997 20.3623 24.4733 18.637 22.4648 17.3434L22.3971 17.4485L22.4648 17.3434C20.7351 16.2294 18.508 15.5654 16.501 15.5654C14.4939 15.5654 12.2721 16.2294 10.5374 17.3433Z" fill="#4C4C4C" stroke="#4C4C4C" stroke-width="0.25"/>
<path d="M12.3072 5.68077L12.3072 5.68077C11.7843 6.16611 11.3681 6.75503 11.0852 7.41001C10.8024 8.06486 10.659 8.77141 10.6642 9.48469V12.0943C10.6592 12.8077 10.8028 13.5143 11.0858 14.1691C11.3688 14.8241 11.7852 15.413 12.3082 15.8982C13.3815 16.8962 14.8693 17.4408 16.4997 17.4408C18.1313 17.4408 19.6181 16.8961 20.6923 15.8982C21.2152 15.4129 21.6314 14.824 21.9142 14.169C22.197 13.5142 22.3404 12.8076 22.3352 12.0944V9.48463C22.3404 8.77126 22.1969 8.06464 21.9139 7.40979C21.6309 6.75482 21.2145 6.16601 20.6913 5.68086C19.6181 4.68286 18.1313 4.13818 16.4997 4.13818C14.8681 4.13818 13.3814 4.68392 12.3072 5.68077ZM12.5458 9.48424C12.5458 7.48755 14.1895 6.01976 16.4997 6.01976C18.8099 6.01976 20.4537 7.48755 20.4537 9.48424V12.0948C20.4537 14.0915 18.8099 15.5592 16.4997 15.5592C14.1895 15.5592 12.5458 14.0915 12.5458 12.0948V9.48424Z" fill="#4C4C4C" stroke="#4C4C4C" stroke-width="0.25"/>
<path d="M27.1049 32.1251H30.368C30.6175 32.1251 30.8568 32.026 31.0332 31.8495C31.2097 31.6731 31.3088 31.4338 31.3088 31.1843V27.1053C31.3088 26.8558 31.2097 26.6165 31.0332 26.4401C30.8568 26.2637 30.6175 26.1646 30.368 26.1646C30.1185 26.1646 29.8792 26.2637 29.7028 26.4401C29.5263 26.6165 29.4272 26.8558 29.4272 27.1053V30.2435H27.1049C26.8553 30.2435 26.616 30.3426 26.4396 30.519C26.2632 30.6955 26.1641 30.9348 26.1641 31.1843C26.1641 31.4338 26.2632 31.6731 26.4396 31.8495C26.616 32.026 26.8553 32.1251 27.1049 32.1251Z" fill="#4C4C4C" stroke="#4C4C4C" stroke-width="0.25"/>
<path d="M12.5412 20.3709C12.6664 20.2281 12.834 20.129 13.0196 20.0881C13.2051 20.0472 13.3988 20.0665 13.5726 20.1434C13.7463 20.2203 13.8909 20.3506 13.9854 20.5154C14.0799 20.6803 14.1193 20.8709 14.0978 21.0597L14.0978 21.0598C14.0768 21.242 14.0003 21.4133 13.8785 21.5503L13.8037 21.4839M12.5412 20.3709L12.6164 20.4369L12.5412 20.3709ZM12.5412 20.3709C11.6855 21.3465 11.3515 22.6597 11.2298 23.7798C11.1304 24.6941 11.1717 25.4943 11.1919 25.8852C11.1964 25.9731 11.1999 26.0404 11.2005 26.0835L11.3005 26.0822L11.2005 26.083C11.2022 26.3195 11.2978 26.5457 11.4662 26.7117C11.6347 26.8777 11.8622 26.9701 12.0987 26.9684C12.3353 26.9667 12.5614 26.8711 12.7275 26.7026C12.8935 26.5342 12.9859 26.3066 12.9842 26.0701L12.9842 26.0699C12.9831 25.9662 12.9811 25.855 12.9789 25.7374C12.9689 25.1895 12.9562 24.5043 13.035 23.8128C13.1308 22.9722 13.3602 22.1409 13.8789 21.5499L13.8037 21.4839M13.8037 21.4839C12.821 22.6037 12.8566 24.5288 12.879 25.7414C12.8811 25.8583 12.8832 25.9685 12.8842 26.0708L13.9984 21.0484C13.9798 21.2101 13.9118 21.3622 13.8037 21.4839Z" fill="#4C4C4C" stroke="#4C4C4C" stroke-width="0.2"/>
</svg>
