<svg width="19" height="19" viewBox="0 0 19 19" fill="none" xmlns="http://www.w3.org/2000/svg">
<path d="M9.5 1C4.81281 1 1 4.81318 1 9.5C1 14.1868 4.81281 18 9.5 18C14.1872 18 18 14.1868 18 9.5C18 4.81318 14.1872 1 9.5 1ZM9.5 17.2917C5.20365 17.2917 1.70832 13.7964 1.70832 9.5C1.70832 5.20365 5.20365 1.70832 9.5 1.70832C13.7964 1.70832 17.2917 5.20365 17.2917 9.5C17.2917 13.7964 13.7964 17.2917 9.5 17.2917Z" fill="black" stroke="#430099" stroke-width="0.8"/>
<path d="M12.8791 9.2022L7.92079 6.0147C7.81219 5.94381 7.67177 5.93999 7.55971 6.00155C7.44556 6.0638 7.375 6.18281 7.375 6.3125V12.6875C7.375 12.8172 7.44556 12.9362 7.55971 12.9984C7.61227 13.0272 7.67107 13.0417 7.72918 13.0417C7.79558 13.0417 7.86269 13.023 7.92079 12.9853L12.8791 9.7978C12.9801 9.73278 13.0417 9.62036 13.0417 9.5C13.0417 9.37964 12.9801 9.26724 12.8791 9.2022Z" fill="#430099" stroke="#430099" stroke-width="0.8"/>
</svg>
