<svg width="122" height="124" viewBox="0 0 122 124" fill="none" xmlns="http://www.w3.org/2000/svg">
    <path fill-rule="evenodd" clip-rule="evenodd" d="M87.2335 32.5097C86.2068 21.2679 67.0814 12.3066 43.6385 12.3066C20.8615 12.3066 2.16032 20.766 0.174394 31.5572H0V99.2245C0.000405573 106.58 5.71321 112.579 13.4479 116.578C21.3144 120.646 31.9928 123.081 43.6385 123.081C55.2841 123.081 65.9625 120.646 73.829 116.578C81.2271 112.753 86.7754 107.099 87.2447 100.178H87.2769L87.2769 32.5097H87.2335ZM81.8221 33.4615C81.8221 36.0925 79.4597 39.9977 72.0978 43.5665C65.0966 46.9605 55.0417 49.2126 43.6385 49.2126C32.2352 49.2126 22.1803 46.9605 15.1791 43.5665C7.81725 39.9977 5.45481 36.0925 5.45481 33.4615C5.45481 30.8304 7.81725 26.9252 15.1791 23.3564C22.1803 19.9624 32.2352 17.7103 43.6385 17.7103C55.0417 17.7103 65.0966 19.9624 72.0978 23.3564C79.4597 26.9252 81.8221 30.8304 81.8221 33.4615ZM81.8221 43.711C74.3778 50.2145 60.0685 54.6163 43.6385 54.6163C27.2084 54.6163 12.8991 50.2145 5.45481 43.711L5.45481 55.383C5.45481 59.7109 8.90012 64.2897 15.972 67.9466C22.9124 71.5354 32.6895 73.836 43.6385 73.836C54.5874 73.836 64.3645 71.5354 71.3049 67.9466C78.3768 64.2897 81.8221 59.7109 81.8221 55.383L81.8221 43.711ZM81.8221 67.1001C79.6251 69.2646 76.8848 71.1567 73.829 72.7369C65.9625 76.8046 55.2841 79.2397 43.6385 79.2397C31.9928 79.2397 21.3144 76.8046 13.4479 72.7369C10.3921 71.1567 7.65186 69.2646 5.45481 67.1001L5.45481 77.3038C5.45481 81.6317 8.90012 86.2105 15.972 89.8673C22.9124 93.4561 32.6895 95.7568 43.6385 95.7568C54.5874 95.7568 64.3645 93.4561 71.3049 89.8673C78.3768 86.2105 81.8221 81.6317 81.8221 77.3038V67.1001ZM81.8221 89.0209C79.6251 91.1854 76.8848 93.0775 73.829 94.6577C65.9625 98.7254 55.2841 101.16 43.6385 101.16C31.9928 101.16 21.3144 98.7254 13.4479 94.6577C10.3921 93.0775 7.65186 91.1854 5.4548 89.0209L5.45481 99.2245C5.45481 103.552 8.90012 108.131 15.972 111.788C22.9124 115.377 32.6895 117.678 43.6385 117.678C54.5874 117.678 64.3645 115.377 71.3049 111.788C78.3768 108.131 81.8221 103.552 81.8221 99.2245V89.0209Z" fill="#4A4A4A"/>
    <circle cx="90.67" cy="31.3302" r="31.3302" fill="white"/>
    <path fill-rule="evenodd" clip-rule="evenodd" d="M90.6695 54.8293C103.647 54.8293 114.167 44.309 114.167 31.3316C114.167 18.3542 103.647 7.83398 90.6695 7.83398C77.6921 7.83398 67.1719 18.3542 67.1719 31.3316C67.1719 44.309 77.6921 54.8293 90.6695 54.8293ZM92.9613 22.2941H88.8619V34.4947H92.9613V22.2941ZM89.4597 37.1179C89.0612 37.5002 88.8619 37.976 88.8619 38.5454C88.8619 39.1147 89.0612 39.5987 89.4597 39.9973C89.8583 40.3958 90.3423 40.5951 90.9116 40.5951C91.481 40.5951 91.9649 40.3958 92.3635 39.9973C92.7621 39.5987 92.9613 39.1147 92.9613 38.5454C92.9613 37.976 92.7621 37.5002 92.3635 37.1179C91.9649 36.7356 91.481 36.5445 90.9116 36.5445C90.3423 36.5445 89.8583 36.7356 89.4597 37.1179Z" fill="#4A4A4A"/>
</svg>
