<svg width="190" height="196" viewBox="0 0 190 196" fill="none" xmlns="http://www.w3.org/2000/svg">
<path d="M15.8347 102.417C30.2457 87.678 3.09381 60.2299 9.84476 40.3963C18.9311 13.6955 92.8703 -9.19571 142.629 19.8655C184.324 44.2149 199.872 98.9607 181.665 121.107C176.215 127.737 173.403 128.954 164.497 135.887C156.213 142.335 154.613 147.067 154.016 148.19C148.124 159.264 156.124 166.488 153.631 175.987C149.692 190.995 110.275 199.001 77.3292 193.921C68.4434 192.554 23.4127 184.579 6.84864 151.496C5.56589 148.936 -6.55984 124.217 4.85275 110.448C8.80808 105.677 11.9933 106.345 15.8347 102.417Z" fill="#EDF3FF"/>
<path d="M16.1522 52.4077C15.5565 52.4058 14.9824 52.1848 14.5391 51.7869C14.0959 51.3891 13.8144 50.842 13.7484 50.25C13.6794 49.612 13.8664 48.9727 14.2684 48.4724C14.6704 47.9722 15.2545 47.6519 15.8924 47.582C15.9831 47.5723 16.0738 47.5991 16.1448 47.6563C16.2157 47.7136 16.261 47.7967 16.2706 47.8873C16.2803 47.978 16.2536 48.0687 16.1963 48.1397C16.1391 48.2106 16.056 48.2559 15.9653 48.2655C15.5195 48.3303 15.1162 48.5655 14.8404 48.9217C14.5646 49.278 14.4379 49.7273 14.4869 50.1752C14.536 50.623 14.7569 51.0343 15.1033 51.3224C15.4496 51.6105 15.8943 51.7529 16.3435 51.7196C16.8012 51.6686 17.22 51.4383 17.5083 51.0792C17.7965 50.7201 17.9307 50.2613 17.8815 49.8035C17.8715 49.7128 17.898 49.6219 17.955 49.5508C18.012 49.4797 18.095 49.4341 18.1856 49.4241C18.2763 49.4141 18.3672 49.4406 18.4383 49.4976C18.5095 49.5547 18.555 49.6376 18.565 49.7283C18.6347 50.3663 18.4483 51.0059 18.0467 51.5066C17.6451 52.0073 17.0612 52.3281 16.4233 52.3986C16.3331 52.4063 16.2426 52.4094 16.1522 52.4077Z" fill="#434343"/>
<path d="M184.55 53.75C184.505 53.7497 184.46 53.7404 184.418 53.7227L183.051 53.1462C183.008 53.1299 182.968 53.1051 182.935 53.0733C182.902 53.0414 182.876 53.0032 182.858 52.9609C182.839 52.9186 182.83 52.8731 182.83 52.8271C182.83 52.7811 182.839 52.7356 182.857 52.6932C182.875 52.6509 182.901 52.6126 182.935 52.5807C182.968 52.5487 183.007 52.5238 183.05 52.5074C183.093 52.491 183.139 52.4834 183.185 52.4851C183.231 52.4868 183.276 52.4978 183.317 52.5174L184.684 53.0915C184.758 53.1214 184.819 53.1762 184.857 53.2463C184.895 53.3164 184.907 53.3974 184.891 53.4755C184.875 53.5536 184.833 53.6237 184.771 53.6738C184.709 53.7239 184.632 53.7509 184.552 53.75H184.55Z" fill="#434343"/>
<path d="M179.748 51.7335C179.703 51.7332 179.658 51.7239 179.616 51.7062L178.249 51.132C178.208 51.1147 178.17 51.0893 178.138 51.0574C178.107 51.0256 178.082 50.9877 178.065 50.9462C178.048 50.9046 178.039 50.8601 178.039 50.8151C178.039 50.7702 178.048 50.7258 178.066 50.6843C178.083 50.6429 178.108 50.6053 178.14 50.5736C178.172 50.542 178.21 50.5169 178.251 50.4999C178.293 50.4829 178.338 50.4742 178.383 50.4744C178.427 50.4745 178.472 50.4836 178.513 50.5009L179.88 51.0774C179.953 51.1082 180.012 51.163 180.049 51.2325C180.085 51.3021 180.097 51.3822 180.081 51.4593C180.066 51.5363 180.024 51.6057 179.964 51.6557C179.903 51.7056 179.827 51.7331 179.748 51.7335Z" fill="#434343"/>
<path d="M182.172 50.7356C182.127 50.7362 182.083 50.7276 182.042 50.7105C182 50.6934 181.961 50.6678 181.928 50.6354C181.896 50.603 181.87 50.5644 181.853 50.5219C181.836 50.4793 181.827 50.4338 181.828 50.3879C181.829 50.342 181.839 50.2968 181.858 50.2549L182.425 48.8878C182.441 48.8454 182.466 48.8067 182.498 48.774C182.53 48.7412 182.567 48.7152 182.609 48.6973C182.651 48.6795 182.696 48.6701 182.742 48.6699C182.787 48.6697 182.832 48.6786 182.874 48.696C182.916 48.7135 182.955 48.7392 182.987 48.7716C183.019 48.804 183.044 48.8425 183.061 48.8847C183.078 48.927 183.086 48.9722 183.085 49.0178C183.084 49.0633 183.074 49.1082 183.056 49.1498L182.489 50.5169C182.464 50.5809 182.421 50.6361 182.364 50.6751C182.308 50.7141 182.241 50.7352 182.172 50.7356Z" fill="#434343"/>
<path d="M180.185 55.5432C180.14 55.5439 180.096 55.5354 180.055 55.5181C180.012 55.5009 179.974 55.4754 179.941 55.443C179.909 55.4107 179.883 55.3721 179.866 55.3297C179.848 55.2872 179.839 55.2417 179.84 55.1958C179.84 55.1499 179.85 55.1046 179.868 55.0624L180.438 53.6954C180.455 53.654 180.48 53.6165 180.511 53.5848C180.543 53.5531 180.58 53.528 180.622 53.5108C180.663 53.4937 180.707 53.4849 180.752 53.4849C180.797 53.4849 180.841 53.4937 180.882 53.5108C180.925 53.528 180.963 53.5536 180.996 53.5859C181.028 53.6183 181.054 53.6569 181.072 53.6993C181.089 53.7418 181.098 53.7873 181.097 53.8332C181.097 53.8791 181.087 53.9244 181.069 53.9665L180.499 55.3336C180.474 55.3961 180.431 55.4496 180.374 55.487C180.318 55.5244 180.252 55.544 180.185 55.5432Z" fill="#434343"/>
<path d="M20.0392 8.76227C25.9877 12.5898 35.8827 20.8927 42.0442 24.8174C42.3278 24.9983 42.5531 25.2567 42.6933 25.5619C42.8335 25.8671 42.8826 26.2061 42.8348 26.5388C42.787 26.8714 42.6443 27.1837 42.4237 27.4383C42.2031 27.6929 41.9139 27.8793 41.5905 27.9752L33.27 30.4708L46.4175 45.785C46.9811 46.4382 46.1269 47.3495 45.4315 46.8371L18.8677 27.244C18.6953 27.1168 18.5643 26.9419 18.491 26.7408C18.4177 26.5398 18.4055 26.3216 18.4557 26.1134C18.5059 25.9052 18.6165 25.7161 18.7736 25.5696C18.9307 25.4232 19.1274 25.3259 19.3393 25.2898L29.107 23.6191L18.9052 9.97464C18.3437 9.22202 19.2494 8.25379 20.0392 8.76227Z" fill="#F3AEB6"/>
<path fill-rule="evenodd" clip-rule="evenodd" d="M19.6604 9.35094C22.5454 11.2072 26.3799 14.1354 30.2934 17.1237L30.537 17.3097C34.5158 20.3478 38.5564 23.4256 41.6677 25.4075C41.8382 25.5163 41.9733 25.6713 42.0572 25.854C42.1411 26.0367 42.1705 26.2398 42.1419 26.4392C42.1132 26.6387 42.0276 26.8265 41.8946 26.98C41.7617 27.1335 41.5871 27.2461 41.3916 27.304L41.3894 27.3047L32.0374 30.1096L45.8875 46.2423C45.8917 46.2472 45.8949 46.2512 45.8971 46.2545C45.8946 46.2588 45.8909 46.2641 45.8859 46.2694C45.8789 46.2769 45.8717 46.2821 45.8661 46.2851C45.8659 46.2852 45.8663 46.285 45.8661 46.2851C45.862 46.2831 45.8553 46.2798 45.8471 46.2737M45.8471 46.2737L19.2833 26.6807C19.2214 26.6351 19.1747 26.5726 19.1487 26.5012C19.1227 26.4297 19.1182 26.352 19.1362 26.2776C19.1542 26.2031 19.1939 26.1348 19.2509 26.0817C19.3079 26.0285 19.3795 25.9931 19.4568 25.9799L30.3527 24.1162L19.4663 9.55603C19.4661 9.55585 19.4664 9.55622 19.4663 9.55603C19.4292 9.50612 19.4299 9.47702 19.4312 9.46372C19.4334 9.44124 19.4456 9.40692 19.4767 9.37373C19.5077 9.34054 19.5414 9.32573 19.5643 9.32193C19.5782 9.31962 19.6075 9.31685 19.6604 9.35094M18.9052 9.97464L29.107 23.6191L19.3393 25.2898C19.1274 25.3259 18.9307 25.4232 18.7736 25.5696C18.6165 25.7161 18.5059 25.9052 18.4557 26.1134C18.4055 26.3216 18.4177 26.5398 18.491 26.7408C18.5643 26.9419 18.6953 27.1168 18.8677 27.244L45.4315 46.8371C46.1269 47.3495 46.9811 46.4382 46.4175 45.785L33.27 30.4708L41.5905 27.9752C41.9139 27.8793 42.2031 27.6929 42.4237 27.4383C42.6443 27.1837 42.787 26.8714 42.8348 26.5388C42.8826 26.2061 42.8335 25.8671 42.6933 25.5619C42.5531 25.2567 42.3278 24.9983 42.0442 24.8174C38.896 22.812 34.773 19.6637 30.6998 16.5533C26.8013 13.5763 22.9483 10.6341 20.0392 8.76227C19.2494 8.25379 18.3437 9.22202 18.9052 9.97464Z" fill="#434343"/>
<path d="M130.784 182.203H49.3902C45.8815 182.203 43.398 179.368 43.84 175.871L63.8901 17.5209C64.3321 14.0258 67.5355 11.1892 71.0443 11.1892L148.36 10.2778C157.235 10.2778 158.438 14.0167 157.996 17.5118L137.945 175.862C137.503 179.368 134.3 182.203 130.784 182.203Z" fill="#99B9FF"/>
<path d="M125.889 182.203H44.4879C40.9791 182.203 38.4956 179.359 38.9377 175.85L58.9877 17.0014C59.432 13.4949 62.6332 10.6492 66.1419 10.6492H147.536C151.045 10.6492 153.528 13.4949 153.086 17.0014L133.036 175.85C132.603 179.355 129.398 182.203 125.889 182.203Z" fill="white"/>
<path d="M43.5789 176.069L62.7176 24.3949C62.7761 23.9951 62.9739 23.6289 63.2761 23.3608C63.5784 23.0927 63.9656 22.9401 64.3695 22.9298H146.208C146.394 22.9252 146.578 22.9615 146.748 23.0361C146.919 23.1108 147.07 23.2219 147.193 23.3617C147.315 23.5015 147.405 23.6666 147.457 23.8451C147.508 24.0236 147.52 24.2113 147.491 24.3949L128.352 176.069C128.294 176.469 128.096 176.836 127.794 177.104C127.491 177.372 127.104 177.526 126.7 177.536H44.8594C44.6735 177.541 44.4888 177.505 44.3185 177.43C44.1482 177.355 43.9966 177.244 43.8743 177.104C43.752 176.964 43.6621 176.798 43.6111 176.619C43.56 176.441 43.549 176.253 43.5789 176.069Z" fill="#F0F5FF"/>
<path d="M107.642 17.9714C108.662 17.0136 108.805 15.5083 107.961 14.6094C107.116 13.7104 105.605 13.7582 104.585 14.7161C103.565 15.6739 103.423 17.1792 104.267 18.0781C105.111 18.9771 106.622 18.9293 107.642 17.9714Z" fill="#CADDFF"/>
<path d="M125.889 182.544L46.0214 182.48C45.9308 182.48 45.8439 182.444 45.7798 182.38C45.7157 182.316 45.6797 182.229 45.6797 182.139C45.6797 182.048 45.7157 181.961 45.7798 181.897C45.8439 181.833 45.9308 181.797 46.0214 181.797L125.894 181.861C129.229 181.861 132.285 179.145 132.706 175.809L152.756 16.9581C152.866 16.2034 152.811 15.434 152.597 14.7023C152.382 13.9706 152.012 13.2937 151.512 12.718C151.011 12.1609 150.395 11.7183 149.708 11.4203C149.02 11.1223 148.276 10.9758 147.527 10.9909H66.133C62.7974 10.9909 59.7398 13.7068 59.3183 17.0447L55.1214 45.6547C55.1082 45.7454 55.0594 45.827 54.9859 45.8817C54.9124 45.9364 54.8202 45.9597 54.7296 45.9464C54.6389 45.9331 54.5573 45.8843 54.5026 45.8108C54.4479 45.7373 54.4246 45.6451 54.4379 45.5545L58.6416 16.9513C59.0973 13.2921 62.4648 10.3074 66.133 10.3074H147.534C148.38 10.2919 149.22 10.4588 149.996 10.797C150.772 11.1351 151.467 11.6364 152.032 12.2668C152.594 12.9171 153.01 13.6813 153.25 14.5071C153.491 15.3329 153.55 16.2008 153.424 17.0515L133.374 175.9C132.918 179.562 129.557 182.544 125.889 182.544Z" fill="#434343"/>
<path d="M90.6489 116.115H57.8967C57.7187 116.119 57.542 116.085 57.3787 116.014C57.2154 115.943 57.0695 115.838 56.9511 115.705C56.8327 115.572 56.7447 115.415 56.6931 115.244C56.6416 115.074 56.6278 114.895 56.6526 114.718L60.3596 81.6812C60.4074 81.2997 60.5914 80.9482 60.8778 80.6916C61.1641 80.4349 61.5336 80.2904 61.9181 80.2846H94.6703C94.8483 80.2802 95.025 80.3146 95.1883 80.3854C95.3516 80.4562 95.4975 80.5618 95.6159 80.6947C95.7343 80.8276 95.8223 80.9847 95.8738 81.1551C95.9254 81.3254 95.9392 81.505 95.9143 81.6812L92.2073 114.718C92.1596 115.1 91.9756 115.451 91.6892 115.708C91.4029 115.965 91.0334 116.109 90.6489 116.115Z" fill="#CADDFF"/>
<path d="M129.497 116.115H96.7443C96.5664 116.119 96.3896 116.085 96.2263 116.014C96.063 115.943 95.9171 115.838 95.7987 115.705C95.6803 115.572 95.5923 115.415 95.5408 115.244C95.4892 115.074 95.4754 114.895 95.5003 114.718L99.2073 81.6812C99.255 81.2997 99.439 80.9482 99.7254 80.6916C100.012 80.4349 100.381 80.2904 100.766 80.2846H133.511C133.689 80.2802 133.866 80.3146 134.029 80.3854C134.192 80.4562 134.338 80.5618 134.457 80.6947C134.575 80.8276 134.663 80.9847 134.715 81.1551C134.766 81.3254 134.78 81.505 134.755 81.6812L131.055 114.718C131.007 115.1 130.823 115.451 130.537 115.708C130.251 115.965 129.881 116.109 129.497 116.115Z" fill="white"/>
<path d="M134.178 76.5114H101.426C101.248 76.5155 101.071 76.4808 100.908 76.4098C100.745 76.3389 100.6 76.2333 100.482 76.1004C100.363 75.9675 100.276 75.8105 100.224 75.6403C100.173 75.4701 100.159 75.2908 100.184 75.1147L103.895 42.064C103.945 41.6838 104.13 41.334 104.415 41.0778C104.701 40.8217 105.068 40.6761 105.452 40.6674H138.199C138.377 40.663 138.554 40.6974 138.717 40.7682C138.881 40.839 139.026 40.9446 139.145 41.0775C139.263 41.2104 139.351 41.3675 139.403 41.5379C139.454 41.7082 139.468 41.8878 139.443 42.064L135.736 75.1147C135.686 75.4954 135.502 75.8455 135.216 76.1017C134.93 76.3579 134.562 76.5032 134.178 76.5114Z" fill="#CADDFF"/>
<path d="M85.9532 157.938H53.201C53.0232 157.942 52.8466 157.907 52.6835 157.836C52.5204 157.765 52.3746 157.659 52.2563 157.527C52.138 157.394 52.05 157.237 51.9983 157.067C51.9466 156.896 51.9325 156.717 51.957 156.541L55.664 123.49C55.7117 123.109 55.8957 122.757 56.1821 122.501C56.4685 122.244 56.8379 122.099 57.2224 122.094H89.9746C90.1526 122.089 90.3293 122.124 90.4926 122.194C90.6559 122.265 90.8018 122.371 90.9202 122.504C91.0386 122.637 91.1266 122.794 91.1782 122.964C91.2297 123.134 91.2435 123.314 91.2187 123.49L87.5117 156.53C87.4642 156.912 87.2806 157.265 86.9945 157.524C86.7083 157.782 86.3388 157.929 85.9532 157.938Z" fill="white"/>
<path d="M124.743 157.849H91.9904C91.8125 157.853 91.6357 157.819 91.4724 157.748C91.3091 157.677 91.1632 157.571 91.0448 157.439C90.9264 157.306 90.8384 157.148 90.7869 156.978C90.7353 156.808 90.7215 156.628 90.7464 156.452L94.4534 123.404C94.5011 123.022 94.6851 122.67 94.9715 122.414C95.2579 122.157 95.6273 122.013 96.0118 122.007H128.764C128.942 122.002 129.119 122.037 129.282 122.108C129.445 122.178 129.591 122.284 129.709 122.417C129.827 122.55 129.915 122.707 129.966 122.878C130.018 123.048 130.031 123.227 130.006 123.404L126.299 156.452C126.251 156.833 126.067 157.184 125.782 157.441C125.496 157.697 125.127 157.842 124.743 157.849Z" fill="#CADDFF"/>
<path d="M138.075 89.7312L54.359 96.8424C47.9975 97.3823 43.4023 90.852 46.0095 84.9837L81.4766 5.00046C84.1673 -1.06812 92.4382 -1.77023 96.099 3.7585L144.342 76.6275C147.881 81.978 144.43 89.1914 138.075 89.7312Z" fill="white"/>
<path fill-rule="evenodd" clip-rule="evenodd" d="M46.7406 85.3085C44.3759 90.631 48.5472 96.5328 54.2913 96.0453L138.007 88.9341C143.748 88.4465 146.884 81.9211 143.675 77.0692M144.342 76.6275L96.099 3.7585C92.4382 -1.77023 84.1673 -1.06812 81.4766 5.00046L46.0095 84.9837C43.4023 90.852 47.9975 97.3823 54.359 96.8424L138.075 89.7312C144.43 89.1914 147.881 81.978 144.342 76.6275ZM46.7406 85.3085C46.7406 85.3085 81.998 5.5 82.998 3.93691C85.8433 -0.0454895 91.842 -0.32322 94.998 3.60559C95.1495 3.79408 143.675 77.0692 143.675 77.0692" fill="#434343"/>
<path d="M87.7898 75.8275C87.7083 74.9772 87.8011 74.1193 88.0626 73.3055C88.3112 72.5349 88.7194 71.8242 89.2611 71.2189C89.825 70.5969 90.5095 70.0939 91.2738 69.7399C92.0733 69.359 92.9917 69.1251 94.0291 69.0383C94.9877 68.9455 95.9554 69.0243 96.8859 69.2708C97.7066 69.4895 98.4737 69.8715 99.1406 70.3936C99.7764 70.9008 100.299 71.5337 100.674 72.2519C101.069 73.0111 101.305 73.8414 101.369 74.6931C101.45 75.5367 101.357 76.3879 101.094 77.1944C100.841 77.9576 100.433 78.6611 99.8941 79.2612C99.3253 79.888 98.6334 80.393 97.8607 80.7452C96.9851 81.1429 96.0444 81.3811 95.0837 81.4485C94.0468 81.5353 93.1018 81.457 92.2485 81.2135C91.4352 80.9913 90.6754 80.6089 90.0146 80.089C89.3823 79.587 88.8608 78.9615 88.4826 78.2513C88.0868 77.4989 87.851 76.6739 87.7898 75.8275ZM98.6192 63.2656L88.5292 64.1082L84.1953 30.0533L97.1438 28.9717L98.6192 63.2656Z" fill="#F3AEB6"/>
<path fill-rule="evenodd" clip-rule="evenodd" d="M91.2738 69.7399C90.5095 70.0939 89.825 70.5969 89.2611 71.2189C88.7194 71.8242 88.3112 72.5349 88.0626 73.3055C87.8011 74.1193 87.7083 74.9772 87.7898 75.8275C87.851 76.6739 88.0868 77.4989 88.4826 78.2513C88.8608 78.9615 89.3823 79.587 90.0146 80.089C90.6754 80.6089 91.4352 80.9913 92.2485 81.2135C93.1018 81.457 94.0468 81.5353 95.0837 81.4485C96.0444 81.3811 96.9851 81.1429 97.8607 80.7452C98.6334 80.393 99.3253 79.888 99.8941 79.2612C100.433 78.6611 100.841 77.9576 101.094 77.1944C101.357 76.3879 101.45 75.5367 101.369 74.6931C101.305 73.8414 101.069 73.0111 100.674 72.2519C100.299 71.5337 99.7764 70.9008 99.1406 70.3936C98.4737 69.8715 97.7066 69.4895 96.8859 69.2708C95.9554 69.0243 94.9877 68.9455 94.0291 69.0383C92.9917 69.1251 92.0733 69.359 91.2738 69.7399ZM96.6806 70.044C95.8421 69.8219 94.9701 69.751 94.1062 69.8346L94.0959 69.8356C93.1381 69.9157 92.3163 70.1293 91.6178 70.4621L91.6101 70.4658C90.9434 70.7746 90.3468 71.213 89.8554 71.7545C89.389 72.2761 89.0379 72.888 88.8241 73.5508C88.5959 74.261 88.515 75.0094 88.5862 75.7511L87.7898 75.8275L88.5878 75.7699C88.6409 76.5053 88.8456 77.2224 89.1896 77.8769C89.5156 78.4885 89.9651 79.0279 90.5106 79.4613C91.0867 79.9143 91.7495 80.2479 92.4593 80.4418L92.468 80.4442C93.2138 80.657 94.0601 80.7314 95.0169 80.6513L95.0277 80.6503C95.8934 80.5897 96.7407 80.3751 97.5293 80.0171C98.2025 79.7101 98.8049 79.2705 99.3 78.7256C99.7642 78.208 100.116 77.6019 100.334 76.9449C100.562 76.2434 100.643 75.5033 100.572 74.7699L100.572 74.7613L100.571 74.7527C100.515 74.0095 100.309 73.2848 99.9649 72.6218C99.6416 72.0039 99.1922 71.4588 98.6445 71.0213C98.0638 70.5672 97.3957 70.2346 96.6806 70.044ZM97.7869 62.5323L96.3803 29.8382L85.0944 30.781L89.2261 63.2472L97.7869 62.5323ZM88.5292 64.1082L98.6192 63.2656L97.1438 28.9717L84.1953 30.0533L88.5292 64.1082Z" fill="#434343"/>
<path d="M62.2182 85.9982C62.1332 85.9972 62.0517 85.9638 61.9904 85.9048L60.9172 84.875C60.8757 84.8476 60.8407 84.8115 60.8146 84.7691C60.7885 84.7268 60.7719 84.6793 60.766 84.6299C60.7602 84.5805 60.7652 84.5304 60.7807 84.4831C60.7962 84.4359 60.8218 84.3926 60.8558 84.3562C60.8898 84.3199 60.9313 84.2914 60.9774 84.2728C61.0235 84.2542 61.0732 84.2458 61.1228 84.2484C61.1725 84.2509 61.221 84.2642 61.265 84.2875C61.309 84.3107 61.3474 84.3432 61.3775 84.3828L62.4506 85.4104C62.5141 85.4748 62.5496 85.5615 62.5496 85.6519C62.5496 85.7423 62.5141 85.8291 62.4506 85.8934C62.3897 85.9572 62.3064 85.9948 62.2182 85.9982Z" fill="#434343"/>
<path d="M58.462 82.3962C58.377 82.3947 58.2957 82.3614 58.2342 82.3028L57.1633 81.273C57.127 81.243 57.0973 81.206 57.0761 81.164C57.0548 81.1221 57.0424 81.0762 57.0396 81.0293C57.0369 80.9824 57.0439 80.9354 57.0601 80.8913C57.0764 80.8471 57.1015 80.8068 57.1341 80.7729C57.1666 80.739 57.2058 80.7121 57.2492 80.694C57.2926 80.6759 57.3392 80.6669 57.3862 80.6676C57.4333 80.6684 57.4796 80.6788 57.5224 80.6983C57.5652 80.7178 57.6035 80.7459 57.6349 80.7808L58.7081 81.8084C58.74 81.84 58.7654 81.8776 58.7827 81.919C58.8001 81.9605 58.809 82.005 58.809 82.0499C58.809 82.0948 58.8001 82.1393 58.7827 82.1808C58.7654 82.2222 58.74 82.2598 58.7081 82.2914C58.6765 82.325 58.6384 82.3516 58.596 82.3696C58.5537 82.3877 58.508 82.3967 58.462 82.3962Z" fill="#434343"/>
<path d="M61.0829 82.3366C60.9975 82.3347 60.9161 82.3005 60.855 82.2409C60.7892 82.1787 60.7507 82.0928 60.7482 82.0022C60.7456 81.9117 60.7791 81.8238 60.8414 81.7579L61.8644 80.6802C61.8959 80.648 61.9335 80.6224 61.975 80.6048C62.0165 80.5871 62.061 80.5778 62.1061 80.5774C62.1511 80.577 62.1958 80.5854 62.2376 80.6023C62.2794 80.6192 62.3175 80.6441 62.3497 80.6756C62.3818 80.7072 62.4075 80.7448 62.4251 80.7863C62.4427 80.8277 62.452 80.8723 62.4525 80.9173C62.4529 80.9624 62.4444 81.0071 62.4276 81.0489C62.4107 81.0907 62.3858 81.1288 62.3542 81.1609L61.3312 82.2386C61.2984 82.2707 61.2596 82.2959 61.2169 82.3127C61.1743 82.3295 61.1287 82.3376 61.0829 82.3366Z" fill="#434343"/>
<path d="M57.5026 86.11C57.4356 86.1106 57.3699 86.0914 57.3138 86.0547C57.2577 86.018 57.2137 85.9655 57.1874 85.9038C57.1611 85.8422 57.1536 85.7741 57.1659 85.7083C57.1782 85.6424 57.2098 85.5816 57.2565 85.5336L58.2796 84.4536C58.3102 84.4198 58.3473 84.3924 58.3886 84.3732C58.43 84.3539 58.4748 84.3431 58.5204 84.3414C58.566 84.3397 58.6115 84.3472 58.6542 84.3634C58.6968 84.3796 58.7358 84.4042 58.7689 84.4357C58.8019 84.4672 58.8283 84.5049 58.8464 84.5468C58.8646 84.5887 58.8742 84.6337 58.8747 84.6794C58.8752 84.725 58.8665 84.7703 58.8492 84.8125C58.8319 84.8547 58.8063 84.8931 58.774 84.9253L57.751 86.0029C57.7191 86.0369 57.6806 86.0639 57.6379 86.0823C57.5952 86.1007 57.5491 86.1102 57.5026 86.11Z" fill="#434343"/>
<path d="M160.719 171.018L162.469 182.499L166.706 180.346L165.497 168.89L160.719 171.018Z" fill="white"/>
<path d="M162.468 182.843C162.385 182.842 162.306 182.811 162.244 182.756C162.182 182.701 162.142 182.626 162.131 182.544L160.379 171.063C160.368 170.989 160.381 170.913 160.418 170.847C160.454 170.782 160.511 170.729 160.579 170.699L165.364 168.571C165.413 168.549 165.467 168.539 165.52 168.542C165.574 168.545 165.627 168.56 165.673 168.587C165.72 168.614 165.759 168.652 165.789 168.697C165.818 168.742 165.837 168.793 165.842 168.847L167.054 180.302C167.061 180.371 167.047 180.441 167.014 180.501C166.98 180.562 166.929 180.611 166.868 180.642L162.63 182.797C162.581 182.826 162.525 182.842 162.468 182.843ZM161.101 171.223L162.741 181.979L166.348 180.157L165.209 169.403L161.101 171.223Z" fill="#434343"/>
<path d="M161.373 178.156C160.887 179.264 160.43 181.346 159.965 184.08C159.915 184.386 159.933 184.699 160.017 184.998C160.102 185.296 160.25 185.573 160.452 185.808C160.654 186.043 160.905 186.231 161.187 186.359C161.469 186.488 161.776 186.553 162.086 186.55H177.677C177.912 186.553 178.143 186.484 178.337 186.353C178.532 186.221 178.682 186.033 178.767 185.814C178.852 185.595 178.868 185.355 178.813 185.127C178.758 184.898 178.634 184.692 178.459 184.536C175.355 181.802 170.603 178.753 166.502 176.967L164.936 179.177C164.936 179.177 161.507 177.847 161.373 178.156Z" fill="#8FA1C7"/>
<path d="M177.678 186.896H162.086C161.722 186.897 161.361 186.818 161.03 186.665C160.699 186.512 160.406 186.288 160.17 186.01C159.941 185.739 159.774 185.421 159.68 185.079C159.587 184.736 159.569 184.378 159.628 184.028C160.147 180.972 160.603 179.063 161.059 178.02C161.182 177.739 161.321 177.425 164.811 178.767L166.222 176.773C166.268 176.709 166.334 176.663 166.41 176.642C166.486 176.621 166.566 176.626 166.639 176.657C170.674 178.416 175.524 181.48 178.685 184.283C178.913 184.482 179.074 184.746 179.147 185.04C179.22 185.334 179.201 185.643 179.092 185.926C178.985 186.213 178.791 186.46 178.538 186.634C178.285 186.807 177.984 186.899 177.678 186.896ZM161.617 178.466C161.207 179.494 160.785 181.31 160.302 184.162C160.259 184.414 160.272 184.672 160.339 184.919C160.407 185.165 160.528 185.394 160.694 185.588C160.865 185.791 161.079 185.953 161.319 186.064C161.56 186.176 161.821 186.233 162.086 186.233H177.678C177.846 186.237 178.011 186.188 178.15 186.093C178.29 185.998 178.396 185.862 178.455 185.705C178.514 185.551 178.524 185.383 178.483 185.224C178.442 185.064 178.353 184.922 178.227 184.816C175.171 182.114 170.537 179.163 166.607 177.416L165.203 179.4C165.159 179.463 165.095 179.508 165.022 179.53C164.949 179.552 164.871 179.549 164.8 179.521C163.586 179.02 162.102 178.521 161.617 178.457V178.466Z" fill="#434343"/>
<path d="M177.39 185.559H160.967C160.876 185.559 160.789 185.523 160.725 185.459C160.661 185.395 160.625 185.308 160.625 185.217C160.625 185.126 160.661 185.039 160.725 184.975C160.789 184.911 160.876 184.875 160.967 184.875H177.39C177.48 184.875 177.567 184.911 177.631 184.975C177.695 185.039 177.731 185.126 177.731 185.217C177.731 185.308 177.695 185.395 177.631 185.459C177.567 185.523 177.48 185.559 177.39 185.559Z" fill="#434343"/>
<path d="M168.435 182.257C168.374 182.258 168.314 182.242 168.262 182.212C168.184 182.165 168.127 182.09 168.105 182.002C168.082 181.914 168.095 181.821 168.141 181.742L169.736 179.031C169.784 178.959 169.859 178.908 169.944 178.889C170.029 178.869 170.118 178.883 170.193 178.928C170.268 178.972 170.323 179.043 170.347 179.126C170.372 179.21 170.363 179.3 170.324 179.377L168.729 182.091C168.698 182.142 168.655 182.184 168.604 182.213C168.552 182.242 168.494 182.257 168.435 182.257Z" fill="#434343"/>
<path d="M170.783 182.654C170.725 182.654 170.668 182.639 170.617 182.61C170.54 182.566 170.483 182.494 170.459 182.409C170.434 182.324 170.443 182.233 170.485 182.155L171.521 180.298C171.567 180.221 171.64 180.164 171.726 180.141C171.813 180.117 171.905 180.128 171.983 180.172C172.061 180.215 172.119 180.288 172.144 180.374C172.169 180.459 172.16 180.551 172.118 180.63L171.082 182.487C171.051 182.539 171.007 182.581 170.954 182.61C170.902 182.639 170.843 182.654 170.783 182.654Z" fill="#434343"/>
<path d="M171.215 97.0741C171.215 97.0741 183.026 114.967 187.057 126.329C187.432 127.385 187.49 128.528 187.222 129.617C186.955 130.706 186.373 131.692 185.551 132.453C180.86 136.798 170.83 145.985 164.391 151.111L162.466 146.229C162.466 146.229 164.79 134.919 173.509 129.824L162.691 113.691L160.311 101.137L171.215 97.0741Z" fill="#434343"/>
<path d="M150.734 101.918C150.734 101.918 154.232 128.658 154.767 135.488C155.303 142.319 154.81 149.917 154.539 155.493C154.268 161.068 160.604 174.034 160.604 174.034L166.702 172.957L167.841 110.143L169.481 98.5232L150.734 101.918Z" fill="#434343"/>
<path d="M167.119 147.349C167.03 147.349 166.944 147.314 166.881 147.252C166.817 147.19 166.78 147.105 166.777 147.016L166.809 137.342C166.81 137.251 166.846 137.165 166.91 137.101C166.974 137.037 167.061 137.001 167.151 137C167.196 137 167.24 137.009 167.282 137.026C167.323 137.044 167.361 137.069 167.393 137.101C167.424 137.133 167.449 137.171 167.466 137.213C167.483 137.254 167.491 137.299 167.49 137.344L167.461 147.016C167.458 147.105 167.421 147.19 167.358 147.252C167.294 147.314 167.208 147.349 167.119 147.349Z" fill="white"/>
<path d="M167.748 120.398C167.657 120.398 167.57 120.362 167.506 120.298C167.442 120.234 167.406 120.147 167.406 120.056V115.064C167.406 115.008 167.42 114.952 167.447 114.903C167.473 114.853 167.512 114.811 167.559 114.78L170.5 112.825C170.576 112.774 170.668 112.756 170.757 112.774C170.846 112.792 170.924 112.845 170.974 112.92C171.024 112.996 171.043 113.088 171.025 113.177C171.007 113.266 170.954 113.344 170.879 113.394L168.09 115.247V120.056C168.09 120.147 168.054 120.234 167.99 120.298C167.926 120.362 167.839 120.398 167.748 120.398Z" fill="white"/>
<path d="M153.148 116.354C153.078 116.355 153.009 116.335 152.951 116.295C152.892 116.256 152.848 116.199 152.823 116.133C152.798 116.067 152.794 115.996 152.811 115.927C152.829 115.859 152.867 115.798 152.92 115.752C152.957 115.721 156.11 112.973 157.174 106.242C157.188 106.152 157.238 106.07 157.312 106.016C157.386 105.962 157.479 105.94 157.57 105.954C157.66 105.968 157.742 106.018 157.796 106.092C157.85 106.166 157.872 106.259 157.858 106.349C156.75 113.358 153.504 116.158 153.367 116.274C153.306 116.326 153.228 116.354 153.148 116.354Z" fill="white"/>
<path fill-rule="evenodd" clip-rule="evenodd" d="M168.3 78.7853C167.099 77.0866 165.631 75.5954 163.955 74.3685C163.741 74.2119 163.524 74.0596 163.303 73.9117L161.398 90.3665C161.398 90.3665 169.785 97.924 175.495 96.4977C183.269 94.5588 184.686 81.2118 184.686 81.2118L182.278 79.5804C182.278 79.5804 182.138 79.8033 181.887 80.1613C180.794 81.7188 177.588 85.8348 174.559 85.2902C172.421 84.9055 171.119 82.9611 169.496 80.5366C169.119 79.9742 168.725 79.3859 168.3 78.7853ZM182.467 80.5539C182.378 80.6812 182.275 80.8251 182.159 80.9818C181.714 81.5859 181.078 82.3886 180.318 83.1736C179.561 83.9549 178.659 84.7414 177.679 85.2911C176.701 85.8395 175.584 86.1858 174.435 85.9791C172.876 85.6986 171.742 84.7186 170.747 83.4986C170.135 82.7489 169.524 81.8367 168.884 80.8814C168.51 80.3244 168.127 79.7526 167.729 79.19C166.648 77.6622 165.344 76.3081 163.862 75.1732L162.136 90.0809C162.163 90.1039 162.192 90.1284 162.223 90.1545C162.457 90.3533 162.8 90.6372 163.23 90.9741C164.091 91.6488 165.294 92.5318 166.67 93.369C168.048 94.2081 169.579 94.9895 171.097 95.4746C172.621 95.9618 174.073 96.1314 175.325 95.8186C178.847 94.9401 181.035 91.4323 182.349 87.8844C182.996 86.1397 183.407 84.4488 183.657 83.1913C183.781 82.5636 183.865 82.0464 183.917 81.6878C183.925 81.6388 183.931 81.5928 183.937 81.5499L182.467 80.5539Z" fill="#434343"/>
<path d="M163.305 73.9117C165.254 75.2181 166.947 76.8697 168.302 78.7853C170.562 81.9751 171.927 84.8162 174.561 85.2902C178.286 85.96 182.28 79.5804 182.28 79.5804L184.688 81.2118C184.688 81.2118 183.271 94.5588 175.497 96.4977C169.787 97.924 161.4 90.3665 161.4 90.3665L163.305 73.9117Z" fill="#71D6D7"/>
<path d="M149.58 102.438C149.647 102.92 149.875 103.365 150.227 103.702C150.579 104.039 151.034 104.247 151.519 104.292C152.645 104.395 154.349 104.383 156.723 103.941C161.599 103.03 166.413 99.9609 169.516 99.6123C172.62 99.2637 172.219 96.639 171.501 93.7705C170.783 90.9019 163.299 73.9141 163.299 73.9141C159.776 72.8486 156.101 72.3759 152.424 72.5151C149.552 72.6258 146.776 73.5819 144.445 75.2636C142.114 76.9452 140.331 79.2776 139.321 81.9683C137.726 86.2517 136.557 92.5151 137.58 101.148C139.528 117.61 153.301 115.47 153.301 115.47L155.534 111.957C155.534 111.957 149.382 111.549 147.935 103.071C147.409 99.97 148.596 95.3585 148.596 95.3585L149.58 102.438Z" fill="#71D6D7"/>
<path d="M182.273 79.5804C182.898 79.052 183.566 78.5764 184.269 78.1586C185.153 77.6779 187.89 73.6018 187.89 73.6018C187.89 73.6018 187.808 80.0429 184.982 81.0272L182.273 79.5804Z" fill="white"/>
<path d="M184.99 81.3623C184.934 81.3622 184.879 81.3481 184.83 81.3213L182.119 79.8836C182.07 79.8569 182.028 79.8187 181.997 79.7723C181.965 79.7259 181.945 79.6727 181.939 79.6171C181.934 79.5616 181.942 79.5057 181.963 79.4541C181.984 79.4025 182.017 79.3568 182.06 79.3209C182.7 78.7754 183.386 78.286 184.11 77.8581C184.701 77.5369 186.571 74.9554 187.61 73.4038C187.651 73.3421 187.711 73.2953 187.781 73.2706C187.85 73.2458 187.926 73.2443 187.997 73.2664C188.068 73.2885 188.129 73.333 188.172 73.3931C188.216 73.4532 188.238 73.5257 188.237 73.5998C188.237 73.8709 188.116 80.2915 185.102 81.3464C185.066 81.3581 185.028 81.3635 184.99 81.3623ZM182.896 79.5214L185.013 80.6446C186.76 79.8859 187.307 76.6164 187.478 74.8073C186.585 76.0832 185.104 78.0974 184.439 78.4528C183.897 78.7682 183.382 79.1254 182.896 79.5214Z" fill="#434343"/>
<path d="M179.523 80.3826H182.729L188.806 71.597H185.677L179.523 80.3826Z" fill="black"/>
<path d="M182.727 80.724H179.537C179.475 80.724 179.413 80.7069 179.36 80.6745C179.306 80.6421 179.263 80.5956 179.234 80.5402C179.205 80.4847 179.192 80.4224 179.196 80.36C179.2 80.2976 179.221 80.2375 179.257 80.1863L185.409 71.4007C185.441 71.3559 185.483 71.3193 185.531 71.294C185.58 71.2686 185.634 71.2552 185.689 71.2549H188.817C188.88 71.255 188.941 71.2722 188.995 71.3048C189.048 71.3373 189.092 71.3839 189.12 71.4394C189.149 71.4946 189.163 71.5567 189.159 71.6189C189.155 71.6811 189.135 71.7411 189.1 71.7926L183.023 80.5759C182.991 80.6238 182.946 80.6626 182.894 80.6885C182.843 80.7144 182.785 80.7266 182.727 80.724ZM180.178 80.0405H182.549L188.152 71.9384H185.858L180.178 80.0405Z" fill="#434343"/>
<path d="M180.227 80.3826H183.435L189.511 71.597H186.383L180.227 80.3826Z" fill="white"/>
<path d="M183.433 80.724H180.221C180.158 80.7244 180.097 80.7075 180.043 80.6751C179.989 80.6427 179.946 80.5961 179.917 80.5404C179.888 80.4847 179.875 80.4222 179.88 80.3597C179.884 80.2972 179.906 80.2372 179.943 80.1863L186.095 71.4007C186.126 71.3556 186.168 71.3189 186.217 71.2935C186.266 71.2681 186.32 71.2548 186.375 71.2549H189.503C189.566 71.2548 189.627 71.272 189.68 71.3044C189.734 71.3368 189.777 71.3832 189.806 71.4387C189.835 71.4941 189.848 71.5565 189.844 71.6189C189.84 71.6813 189.819 71.7414 189.783 71.7926L183.707 80.5759C183.676 80.6206 183.636 80.6573 183.588 80.6831C183.54 80.7088 183.487 80.7229 183.433 80.724ZM180.884 80.0405H183.253L188.858 71.9384H186.559L180.884 80.0405Z" fill="#434343"/>
<path fill-rule="evenodd" clip-rule="evenodd" d="M147.935 103.071C147.633 101.293 147.895 99.0177 148.173 97.4004C148.38 96.1975 148.596 95.3585 148.596 95.3585L149.58 102.438C149.647 102.92 149.875 103.365 150.227 103.702C150.579 104.039 151.034 104.247 151.519 104.292C152.645 104.395 154.349 104.383 156.723 103.941C159.267 103.466 161.795 102.403 164.072 101.445C166.158 100.568 168.033 99.779 169.516 99.6123C172.62 99.2637 172.219 96.639 171.501 93.7705C170.783 90.9019 163.299 73.9141 163.299 73.9141C159.776 72.8486 156.101 72.3759 152.424 72.5151C149.552 72.6258 146.776 73.5819 144.445 75.2636C142.114 76.9452 140.331 79.2776 139.321 81.9683C137.726 86.2517 136.557 92.5151 137.58 101.148C139.528 117.61 153.301 115.47 153.301 115.47L155.534 111.957C155.534 111.957 155.249 111.938 154.789 111.824C153.106 111.408 149.071 109.726 147.935 103.071ZM154.395 112.444C154.383 112.441 154.37 112.437 154.358 112.434C153.701 112.247 152.817 111.903 151.885 111.273C150.002 110 147.999 107.608 147.245 103.189C146.963 101.524 147.143 99.5047 147.376 97.9481C147.494 97.1603 147.629 96.4723 147.734 95.9808C147.787 95.7348 147.832 95.5375 147.865 95.4008C147.881 95.3324 147.894 95.2792 147.903 95.2425L147.914 95.2003L147.917 95.1888L147.918 95.1846C147.918 95.1845 147.918 95.184 148.596 95.3585L147.918 95.1846L149.289 95.2621L150.274 102.341C150.274 102.341 150.274 102.341 150.274 102.341C150.319 102.667 150.473 102.969 150.711 103.196C150.949 103.424 151.256 103.564 151.584 103.595C152.64 103.691 154.279 103.684 156.595 103.253C158.948 102.813 161.305 101.848 163.513 100.92C163.628 100.872 163.742 100.824 163.856 100.776C165.888 99.9208 167.85 99.0951 169.438 98.9167C170.119 98.8403 170.526 98.6483 170.775 98.4296C171.019 98.2159 171.176 97.9205 171.253 97.5077C171.419 96.6238 171.187 95.3994 170.822 93.9404C170.657 93.2802 170.076 91.7307 169.267 89.7189C168.467 87.7293 167.466 85.3419 166.487 83.0408C165.507 80.7403 164.55 78.529 163.837 76.8927C163.481 76.0746 163.186 75.4003 162.98 74.9306C162.903 74.755 162.839 74.6079 162.788 74.4927C159.434 73.5142 155.943 73.0824 152.45 73.2146M154.395 112.444L152.889 114.813C152.822 114.819 152.744 114.826 152.657 114.832C152.299 114.856 151.779 114.875 151.148 114.848C149.883 114.794 148.186 114.557 146.438 113.835C144.696 113.115 142.9 111.913 141.421 109.914C139.94 107.914 138.75 105.082 138.275 101.066C137.264 92.5387 138.422 86.3879 139.976 82.2135C140.939 79.6522 142.636 77.4321 144.855 75.8313C147.074 74.2303 149.716 73.3201 152.45 73.2146" fill="#434343"/>
<path d="M149.096 94.8254C149.066 94.8297 149.035 94.8297 149.005 94.8254C148.962 94.8124 148.922 94.7909 148.887 94.7623C148.852 94.7337 148.823 94.6985 148.802 94.6587C148.781 94.6188 148.767 94.5752 148.763 94.5303C148.759 94.4854 148.764 94.4401 148.777 94.397L151.215 86.6687C151.227 86.6245 151.248 86.5832 151.277 86.5473C151.305 86.5114 151.341 86.4817 151.381 86.4598C151.421 86.4379 151.466 86.4243 151.511 86.4199C151.557 86.4155 151.603 86.4203 151.647 86.4341C151.691 86.4479 151.731 86.4703 151.766 86.5C151.801 86.5298 151.829 86.5663 151.85 86.6073C151.87 86.6483 151.882 86.693 151.885 86.7388C151.888 86.7846 151.882 86.8305 151.867 86.8737L149.422 94.5975C149.398 94.6648 149.354 94.7229 149.295 94.7637C149.237 94.8046 149.167 94.8261 149.096 94.8254Z" fill="#434343"/>
<path d="M156.41 64.6022L150.941 72.8045C150.941 72.8045 155.526 74.7753 158.33 75.2014C161.135 75.6274 157.711 72.6564 157.711 72.6564L159.927 67.6142L156.41 64.6022Z" fill="white"/>
<path d="M158.801 75.5748C158.622 75.5729 158.444 75.5576 158.267 75.5292C155.449 75.1032 150.976 73.1916 150.792 73.1096C150.747 73.089 150.706 73.0591 150.673 73.0218C150.64 72.9845 150.615 72.9406 150.601 72.8931C150.586 72.845 150.582 72.7943 150.59 72.7447C150.597 72.695 150.616 72.6476 150.644 72.606L156.112 64.4037C156.139 64.3637 156.175 64.3298 156.216 64.3044C156.257 64.2789 156.303 64.2625 156.351 64.256C156.399 64.2496 156.448 64.2533 156.494 64.267C156.54 64.2806 156.583 64.3039 156.62 64.3354L160.129 67.3383C160.184 67.386 160.223 67.4503 160.239 67.5218C160.255 67.5932 160.248 67.6679 160.218 67.7348L158.117 72.5559C158.93 73.285 160.031 74.447 159.712 75.1465C159.546 75.4837 159.179 75.5748 158.801 75.5748ZM151.444 72.6402C152.583 73.1141 156.103 74.5108 158.368 74.8525C158.867 74.93 159.038 74.8708 159.081 74.8525C159.097 74.5746 158.345 73.6632 157.475 72.9091C157.419 72.8612 157.381 72.7968 157.365 72.7255C157.349 72.6541 157.356 72.5795 157.386 72.5126L159.5 67.7006L156.477 65.11L151.444 72.6402Z" fill="#434343"/>
<path d="M167.005 60.6971C165.481 59.3483 163.587 60.6287 161.803 58.9792C160.99 58.2227 160.937 57.5346 159.942 57.1017C159.283 56.8147 158.101 56.5914 157.287 57.1655C156.251 57.8969 156.95 59.125 156.034 61.7816C155.389 63.6476 154.565 64.4405 154.986 65.1195C155.408 65.7985 156.483 65.3473 157.005 66.0696C157.688 66.9946 156.337 68.348 156.693 69.6376C156.921 70.4464 158.014 71.6016 160.755 72.2031C160.97 72.2507 161.195 72.2214 161.391 72.1203C161.587 72.0191 161.741 71.8525 161.826 71.6494C162.054 71.1117 162.334 70.4305 162.548 69.7584C163.567 66.5526 163.12 65.2949 163.947 64.9053C165.212 64.3107 166.638 66.3453 167.581 65.7802C168.563 65.2061 168.57 62.0801 167.005 60.6971Z" fill="#434343"/>
<path d="M160.434 62.0433L160.996 62.2711C160.996 62.2711 159.383 65.9576 159.123 67.0809C158.864 68.2041 162.281 69.2704 162.281 69.2704L162.837 68.8877L163.254 69.0084C163.318 69.0262 163.385 69.03 163.45 69.0193C163.515 69.0087 163.578 68.984 163.632 68.9469C163.686 68.9082 163.731 68.8582 163.764 68.8004C163.797 68.7425 163.816 68.6782 163.822 68.612C163.892 67.5821 164.125 65.3265 164.845 63.7043C164.308 63.0795 163.622 62.5998 162.852 62.3096C162.081 62.0193 161.249 61.9277 160.434 62.0433Z" fill="white"/>
<path d="M160.774 62.0844C160.862 62.0719 160.944 62.0356 161.013 61.9796C161.063 61.9363 161.084 61.9249 161.127 61.9409C161.17 61.9575 161.21 61.9825 161.243 62.0145C161.276 62.0465 161.303 62.0848 161.322 62.1272C161.34 62.1696 161.35 62.2152 161.35 62.2615C161.351 62.3077 161.343 62.3536 161.325 62.3965C161.024 63.0983 160.735 63.8092 160.446 64.5177C160.156 65.2263 159.876 65.9395 159.637 66.6503C159.58 66.8212 159.523 67.0126 159.489 67.1562C159.485 67.2495 159.516 67.3408 159.578 67.4113C159.796 67.6653 160.06 67.8769 160.355 68.0356C161.002 68.3994 161.684 68.6971 162.392 68.9242L162.093 68.9698C162.28 68.8467 162.462 68.7123 162.654 68.5961L162.69 68.5733C162.727 68.5518 162.769 68.5387 162.812 68.5348C162.855 68.5308 162.898 68.5362 162.938 68.5505C163.059 68.5961 163.166 68.6576 163.298 68.7123L163.339 68.7328L163.355 68.7442L163.396 68.7579C163.426 68.7633 163.456 68.7593 163.483 68.7465C163.508 68.7343 163.53 68.717 163.548 68.6959C163.566 68.6747 163.58 68.6501 163.588 68.6235L163.613 68.2589C163.656 67.7326 163.708 67.2086 163.775 66.6822C163.894 65.6163 164.153 64.5707 164.545 63.5722L164.586 63.9162C164.466 63.7769 164.337 63.6466 164.198 63.5266C164.055 63.3994 163.902 63.2822 163.743 63.1758C163.429 62.9599 163.09 62.7832 162.733 62.6494C162.378 62.5139 162.006 62.425 161.628 62.3851C161.439 62.3639 161.249 62.354 161.059 62.3555C160.963 62.3555 160.867 62.3555 160.772 62.3555H160.735C160.755 62.3426 160.772 62.3255 160.785 62.3054C160.805 62.2715 160.815 62.2325 160.813 62.1932C160.811 62.1539 160.797 62.1161 160.774 62.0844ZM160.09 62.0001C160.168 61.8978 160.267 61.8132 160.38 61.7518C160.443 61.7182 160.512 61.6951 160.582 61.6834C160.611 61.6806 160.64 61.6806 160.669 61.6834H160.71C160.819 61.6834 160.938 61.6674 161.038 61.6674C162.144 61.6361 163.231 61.9665 164.132 62.6084C164.312 62.7342 164.483 62.8711 164.645 63.0185C164.815 63.1686 164.971 63.3333 165.112 63.5107C165.15 63.5587 165.174 63.6163 165.181 63.6769C165.188 63.7376 165.178 63.7992 165.153 63.8547C164.947 64.3149 164.776 64.7902 164.643 65.2765C164.504 65.7663 164.387 66.2676 164.296 66.7734C164.205 67.2792 164.132 67.7918 164.087 68.3068L164.068 68.5004V68.5961V68.6462C164.068 68.6713 164.068 68.6964 164.068 68.7214C164.048 68.8201 164.007 68.9133 163.948 68.9947C163.888 69.0761 163.812 69.1437 163.724 69.1931C163.635 69.2421 163.538 69.2745 163.437 69.2888C163.386 69.2933 163.334 69.2933 163.282 69.2888H163.205H163.153C163.02 69.2728 162.888 69.2614 162.761 69.2341L163.043 69.1885C162.865 69.3252 162.676 69.446 162.492 69.5781C162.449 69.6074 162.401 69.6267 162.35 69.6345C162.299 69.6424 162.247 69.6387 162.198 69.6237C161.438 69.3883 160.704 69.0776 160.006 68.6964C159.621 68.4941 159.279 68.2177 159.001 67.883C158.92 67.7744 158.856 67.6537 158.812 67.5253C158.764 67.3783 158.753 67.2218 158.78 67.0696C158.833 66.8417 158.892 66.6617 158.953 66.4681C159.206 65.723 159.491 65.0076 159.783 64.2922C160.074 63.5768 160.384 62.8727 160.694 62.1641L160.885 62.6312C160.72 62.5701 160.566 62.4815 160.43 62.3692C160.309 62.2548 160.197 62.1314 160.095 62.0001H160.09Z" fill="#434343"/>
<path d="M159.175 64.6431C159.175 64.6431 159.558 62.4672 158.531 62.5036C157.503 62.5401 157.143 64.9438 159.175 64.6431Z" fill="white"/>
<path d="M35.3818 65.8893C33.0236 63.3375 29.5194 62.7998 26.8856 63.5198C23.55 64.4312 21.873 67.3156 20.6837 69.3503C18.5876 72.9456 19.6015 74.2466 17.9496 76.3359C15.031 80.036 7.9542 77.5867 4.50695 80.437C-3.77281 87.2723 0.738451 98.5482 8.07951 103.873C12.9735 107.425 19.6311 105.372 21.4424 104.812C26.938 103.116 36.0471 99.799 36.9356 91.8564C37.5303 86.5181 32.0826 82.2393 35.0081 77.7918C35.7532 76.6526 36.3752 76.3518 36.9243 74.9347C37.8197 72.6335 38.0247 68.7601 35.3818 65.8893Z" fill="#434343"/>
<path d="M26.7763 66.5274C28.0294 65.5112 27.232 62.5151 26.4345 60.8975C26.1338 60.2914 24.7895 57.5824 23.0169 57.6872C21.1942 57.7943 19.4626 60.8428 20.1119 63.2579C20.9253 66.2768 25.309 67.7122 26.7763 66.5274Z" fill="#434343"/>
<path d="M44.791 98.7965C44.791 98.7965 40.3253 86.3951 35.2969 85.208L37.8487 102.772L44.791 98.7965Z" fill="#B09CF8"/>
<path d="M18.3192 84.9256C22.0968 83.693 27.8544 82.8089 34.7352 85.0008C35.9638 85.3958 37.0528 86.136 37.8721 87.1331C38.6915 88.1302 39.2065 89.342 39.3558 90.6239L44.9607 122.902C45.2387 125.249 42.1036 127.532 39.8935 128.37C37.5855 129.245 34.0949 130.072 29.1553 130.072C23.858 130.072 17.4602 130.043 15.314 129.102L15.118 129.013C13.7713 128.375 12.6536 127.337 11.9167 126.042C11.1798 124.747 10.8592 123.256 10.9986 121.772L12.1379 117.026C13.3973 111.795 13.9815 106.423 13.8763 101.043L13.694 91.6355C13.6259 90.1654 14.0413 88.7134 14.8766 87.5016C15.7118 86.2898 16.921 85.385 18.3192 84.9256Z" fill="#B09CF8"/>
<path d="M7.2086 106.028C6.27169 105.287 5.57723 104.282 5.21399 103.144C4.85076 102.006 4.83524 100.785 5.16942 99.6375C5.78231 97.5254 6.55925 94.9827 7.23366 93.144C9.54398 86.851 14.3309 85.4452 16.1947 84.9986C16.4886 84.928 19.806 84.4883 19.806 84.4883L17.8101 103.741L9.27968 107.236L7.2086 106.028Z" fill="#B09CF8"/>
<path d="M13.2561 121.357C13.2007 121.356 13.1462 121.343 13.0966 121.319C13.0183 121.276 12.9597 121.205 12.9333 121.12C12.9069 121.034 12.9148 120.942 12.9553 120.863C14.7416 117.47 18.3347 115.142 23.3495 114.128C27.519 113.285 31.7454 113.529 34.099 113.994C37.4073 114.647 40.7064 116.773 40.85 116.864C40.9191 116.916 40.966 116.993 40.981 117.078C40.9961 117.163 40.9782 117.251 40.9311 117.324C40.884 117.396 40.811 117.448 40.7271 117.469C40.6431 117.49 40.5543 117.478 40.4786 117.436C40.4444 117.416 37.1453 115.292 33.9669 114.663C28.9544 113.675 17.3618 113.964 13.5591 121.182C13.5291 121.236 13.4851 121.281 13.4318 121.311C13.3784 121.342 13.3177 121.358 13.2561 121.357Z" fill="#434343"/>
<path d="M27.0646 108.922L49.0422 108.888C49.3129 108.888 49.5757 108.797 49.7885 108.629C50.0013 108.462 50.1517 108.228 50.2155 107.965L53.9453 92.4603C53.9897 92.2818 53.9927 92.0954 53.9542 91.9155C53.9157 91.7355 53.8366 91.5667 53.723 91.4219C53.6094 91.2772 53.4643 91.1602 53.2987 91.08C53.1331 90.9997 52.9514 90.9583 52.7674 90.9589L30.7898 90.9908C30.5194 90.992 30.2571 91.0834 30.0445 91.2506C29.832 91.4177 29.6813 91.651 29.6164 91.9135L25.8866 107.42C25.8427 107.599 25.84 107.785 25.8787 107.965C25.9174 108.145 25.9965 108.313 26.11 108.458C26.2235 108.603 26.3684 108.72 26.5338 108.8C26.6992 108.88 26.8807 108.922 27.0646 108.922Z" fill="white"/>
<path d="M27.0612 109.264C26.8255 109.264 26.593 109.21 26.3812 109.107C26.1694 109.004 25.9838 108.854 25.8385 108.668C25.6932 108.483 25.592 108.267 25.5425 108.036C25.493 107.806 25.4965 107.567 25.5528 107.338L29.2826 91.8339C29.3648 91.4963 29.5578 91.196 29.8309 90.9812C30.1039 90.7664 30.4412 90.6494 30.7886 90.6491L52.7663 90.6172C53.0019 90.6173 53.2344 90.6709 53.4462 90.7741C53.658 90.8773 53.8436 91.0273 53.9889 91.2128C54.1342 91.3983 54.2354 91.6143 54.2849 91.8447C54.3344 92.0751 54.3309 92.3137 54.2746 92.5425L50.5448 108.036C50.4626 108.373 50.2694 108.673 49.9963 108.887C49.7232 109.102 49.386 109.218 49.0388 109.218L27.0612 109.252V109.264ZM52.7685 91.3007L30.7909 91.3326C30.5967 91.3335 30.4082 91.3992 30.2555 91.5193C30.1028 91.6394 29.9946 91.807 29.9479 91.9956L26.2204 107.5C26.1886 107.629 26.1864 107.762 26.214 107.892C26.2416 108.021 26.2983 108.142 26.3798 108.246C26.4613 108.35 26.5654 108.435 26.6842 108.492C26.8031 108.55 26.9335 108.58 27.0657 108.58L49.0433 108.546C49.2375 108.546 49.4261 108.481 49.5789 108.361C49.7317 108.241 49.84 108.074 49.8863 107.885L53.6138 92.3807C53.6456 92.2526 53.6478 92.1189 53.6204 91.9898C53.5929 91.8607 53.5364 91.7396 53.4552 91.6355C53.3739 91.5315 53.2701 91.4473 53.1516 91.3893C53.033 91.3312 52.9028 91.301 52.7708 91.3007H52.7685Z" fill="#434343"/>
<path d="M41.8475 100.232C41.7535 100.534 41.5734 100.802 41.3292 101.003C41.085 101.204 40.7874 101.33 40.4729 101.364C40.1584 101.399 39.8407 101.34 39.5588 101.197C39.2769 101.053 39.0431 100.83 38.8861 100.556C38.7291 100.281 38.6557 99.9665 38.6749 99.6508C38.6941 99.335 38.8051 99.0317 38.9942 98.7781C39.1834 98.5245 39.4425 98.3317 39.7397 98.2232C40.0369 98.1148 40.3593 98.0956 40.6673 98.1678C41.0972 98.2856 41.4629 98.569 41.6841 98.956C41.9053 99.3429 41.9641 99.8018 41.8475 100.232Z" fill="#434343"/>
<path d="M52.6584 98.3613L52.3782 99.4777C52.3504 99.588 52.2986 99.6907 52.2263 99.7785C52.154 99.8663 52.0632 99.937 51.9603 99.9854C51.8574 100.034 51.745 100.059 51.6313 100.058C51.5176 100.058 51.4054 100.032 51.3027 99.9835L47.5866 98.2223C47.4704 98.1669 47.3437 98.1368 47.2149 98.1339C47.0862 98.131 46.9583 98.1555 46.8396 98.2056C46.721 98.2558 46.6144 98.3305 46.5268 98.4249C46.4391 98.5193 46.3725 98.6312 46.3312 98.7532C45.9804 99.8126 46.2743 101.692 51.0088 103.613C53.9001 104.784 54.0027 101.608 53.531 99.6736C53.3974 99.1499 53.0897 98.6871 52.6584 98.3613Z" fill="white"/>
<path d="M52.1295 104.208C51.6995 104.196 51.2757 104.101 50.881 103.93C46.0576 101.973 45.5677 99.977 46.0052 98.6464C46.0611 98.478 46.1523 98.3234 46.2727 98.193C46.393 98.0625 46.5397 97.9591 46.7031 97.8897C46.8664 97.8203 47.0427 97.7865 47.2201 97.7905C47.3975 97.7944 47.5721 97.8361 47.7322 97.9128L51.4506 99.6763C51.5077 99.703 51.5701 99.7168 51.6331 99.7167C51.6962 99.7166 51.7585 99.7025 51.8156 99.6755C51.8726 99.6486 51.923 99.6093 51.9631 99.5606C52.0032 99.5119 52.032 99.4549 52.0475 99.3937L52.3255 98.2796C52.3387 98.2261 52.3647 98.1766 52.4012 98.1353C52.4377 98.094 52.4836 98.0621 52.5351 98.0424C52.5866 98.0227 52.6421 98.0158 52.6968 98.0222C52.7516 98.0285 52.804 98.0481 52.8495 98.0791C53.3504 98.4527 53.7083 98.9866 53.8634 99.592C54.2075 101.002 54.2599 102.953 53.2756 103.802C52.9568 104.075 52.5486 104.219 52.1295 104.208ZM47.1922 98.471C47.114 98.4713 47.0366 98.4867 46.9644 98.5165C46.8908 98.5471 46.8248 98.5933 46.7709 98.6519C46.717 98.7105 46.6765 98.7802 46.6522 98.856C46.1624 100.346 47.7527 101.92 51.1339 103.292C51.8926 103.597 52.4622 103.595 52.8267 103.278C53.5239 102.677 53.5103 101.027 53.1981 99.7492C53.1302 99.4846 53.0093 99.2365 52.8427 99.0201L52.7083 99.5555C52.6682 99.7149 52.5932 99.8633 52.4889 99.9903C52.3845 100.117 52.2533 100.219 52.1047 100.29C51.9561 100.36 51.7938 100.396 51.6295 100.396C51.4652 100.396 51.3029 100.359 51.1544 100.289L47.436 98.5256C47.3597 98.4899 47.2765 98.4712 47.1922 98.471Z" fill="#434343"/>
<path d="M20.5738 93.6086C20.5738 93.6086 10.706 99.1702 8.66677 100.913C6.62759 102.656 4.42436 103.985 7.29972 107.787C9.74674 111.02 14.0552 108.129 21.6537 97.2358C22.0316 96.7344 22.582 96.391 23.1985 96.2721C23.9595 96.1035 25.0645 95.4997 25.5749 93.5015C25.5749 93.5015 29.1748 94.0119 29.4938 92.2575L24.0848 91.4076C23.7281 91.3449 23.3615 91.3702 23.0169 91.4814C22.6722 91.5926 22.3599 91.7863 22.1072 92.0456L20.5738 93.6086Z" fill="white"/>
<path d="M9.55359 109.375C8.57615 109.375 7.73086 108.919 7.03366 107.992C4.18109 104.223 6.1109 102.61 7.97921 101.05L8.44856 100.655C10.4376 98.9489 19.565 93.786 20.3647 93.3349L21.873 91.7947C22.1642 91.4958 22.5239 91.2726 22.921 91.1443C23.318 91.0161 23.7404 90.9867 24.1514 91.0588L29.5535 91.92C29.599 91.9263 29.6427 91.9419 29.6819 91.9658C29.7211 91.9897 29.7549 92.0214 29.7814 92.059C29.8339 92.1346 29.8544 92.228 29.8383 92.3187C29.5239 94.0594 26.7647 93.9569 25.8352 93.8726C25.2291 95.8822 23.9874 96.4472 23.2833 96.6067C22.7494 96.7045 22.2714 96.9988 21.9436 97.4315C16.3 105.527 12.3743 109.32 9.62194 109.375H9.55359ZM23.6957 91.7036C23.4446 91.7037 23.1961 91.7542 22.9648 91.8521C22.7335 91.9499 22.5242 92.0931 22.3492 92.2732L20.8158 93.8475C20.7921 93.8738 20.7645 93.8961 20.7338 93.9136C20.6358 93.9683 10.8705 99.4775 8.88601 101.179C8.72653 101.316 8.56931 101.448 8.40983 101.58C6.56659 103.121 5.11296 104.337 7.57137 107.586C8.15009 108.35 8.81083 108.726 9.5946 108.698C12.0849 108.65 15.9354 104.839 21.3695 97.0464C21.7945 96.4736 22.4189 96.0809 23.1193 95.946C23.8347 95.7865 24.7825 95.2192 25.2405 93.4238C25.261 93.3421 25.311 93.2709 25.3808 93.2238C25.4506 93.1767 25.5353 93.1571 25.6187 93.1686C25.6483 93.1686 28.3528 93.5195 29.0158 92.5352L24.0284 91.74C23.9186 91.7189 23.8074 91.7067 23.6957 91.7036Z" fill="#434343"/>
<path d="M30.7014 78.9836C30.9608 79.1148 31.2553 79.16 31.5421 79.1124C31.8289 79.0649 32.0931 78.9272 32.2963 78.7193C32.7436 78.269 33.1359 77.7673 33.4651 77.2246L34.0666 77.236C34.1595 77.2385 34.2497 77.2042 34.3175 77.1407C34.3853 77.0771 34.4253 76.9894 34.4289 76.8965L34.5337 74.5429C34.9093 73.9678 35.1435 73.312 35.2172 72.629C35.2901 71.7541 34.5109 70.1798 33.7203 69.7947C32.6517 69.2729 30.7196 68.9904 29.7126 70.5078C29.2797 71.1572 28.5734 71.6243 28.1496 71.5491C27.7258 71.4739 27.5845 71.1367 27.3886 70.7813C27.0195 70.1182 26.1035 69.4962 25.2241 70.542C24.3446 71.5878 24.9507 72.5766 25.5043 73.39C25.7322 73.7181 25.4861 74.6272 25.395 75.0145L24.0917 80.5693C23.9261 81.2736 23.5902 81.9264 23.1135 82.4706C22.6368 83.0148 22.0339 83.4338 21.3576 83.6908L19.9609 84.2262C19.9609 84.2262 21.5011 88.9038 27.6757 88.7716C32.3897 88.6691 32.0274 84.8049 32.0274 84.8049L31.4077 84.5315C30.6224 84.1849 29.982 83.5759 29.5962 82.809C29.2105 82.0422 29.1034 81.165 29.2933 80.3278L29.708 78.4937L30.7014 78.9836Z" fill="white"/>
<path d="M27.4355 89.1157C21.2952 89.1157 19.6661 84.3812 19.6502 84.331C19.6226 84.2479 19.628 84.1573 19.6653 84.078C19.7027 83.9987 19.769 83.9367 19.8507 83.905L21.2473 83.3695C21.8681 83.1301 22.421 82.7425 22.8578 82.2406C23.2946 81.7386 23.6021 81.1375 23.7536 80.4896L25.0796 74.8414C25.2915 73.9528 25.271 73.6635 25.2163 73.5792C24.7151 72.841 23.8744 71.6084 24.9566 70.3211C25.4784 69.7013 26.0001 69.6125 26.3464 69.6375C26.6291 69.6836 26.897 69.7952 27.1288 69.9634C27.3607 70.1315 27.55 70.3515 27.6816 70.6059L27.7203 70.6742C27.898 70.9977 28.0006 71.1686 28.2034 71.2051C28.4061 71.2415 29.019 70.9157 29.4223 70.3097C30.4567 68.7535 32.4503 68.7877 33.8652 69.478C34.813 69.9337 35.6333 71.6835 35.5535 72.6473C35.4751 73.3539 35.2366 74.0334 34.8563 74.6341L34.7561 76.9125C34.7472 77.094 34.6681 77.265 34.5354 77.3891C34.4027 77.5133 34.2269 77.581 34.0452 77.5778H33.6374C33.3167 78.0782 32.944 78.5433 32.5255 78.9654C32.2713 79.2233 31.9419 79.3942 31.5846 79.4536C31.2273 79.5129 30.8604 79.4577 30.5364 79.2957L29.9486 79.0018L29.6296 80.4099C29.4589 81.17 29.5571 81.9658 29.9073 82.6617C30.2575 83.3575 30.8382 83.9105 31.5503 84.2262L32.1701 84.4974C32.2254 84.5227 32.273 84.5622 32.3082 84.6117C32.3434 84.6613 32.3649 84.7193 32.3706 84.7799C32.4313 85.8397 32.0821 86.8822 31.3954 87.6917C30.582 88.6031 29.3448 89.0838 27.6884 89.1203L27.4355 89.1157ZM20.4203 84.4222C20.876 85.4247 22.6805 88.5347 27.6816 88.4299C29.1307 88.398 30.2129 87.9947 30.8942 87.2292C31.4144 86.6143 31.7015 85.8359 31.7053 85.0305L31.2838 84.8437C30.4248 84.4639 29.7245 83.7974 29.3027 82.9583C28.8808 82.1191 28.7636 81.1595 28.9712 80.2436L29.3881 78.4208C29.3995 78.3704 29.4222 78.3232 29.4546 78.2828C29.487 78.2425 29.5282 78.2101 29.575 78.1882C29.6219 78.1662 29.6731 78.1552 29.7248 78.156C29.7765 78.1569 29.8273 78.1695 29.8734 78.193L30.8509 78.6828C31.0462 78.7801 31.2674 78.8131 31.4826 78.7771C31.6979 78.7411 31.8963 78.6379 32.0493 78.4823C32.4772 78.0511 32.8527 77.5708 33.168 77.0515C33.1987 77.0001 33.2426 76.9578 33.295 76.929C33.3475 76.9002 33.4067 76.8858 33.4665 76.8874L34.068 76.8988L34.1865 74.5316C34.1894 74.4736 34.2067 74.4172 34.2366 74.3675C34.5856 73.8378 34.8064 73.234 34.8814 72.604C34.9452 71.8362 34.1979 70.4122 33.5736 70.0978C32.7442 69.6922 30.9306 69.2958 30.001 70.6924C29.559 71.3554 28.7433 71.9957 28.094 71.8818C27.5586 71.7861 27.3307 71.3737 27.1302 71.0091L27.0938 70.9431C27.0153 70.7861 26.9024 70.6488 26.7636 70.5415C26.6247 70.4342 26.4634 70.3596 26.2918 70.3233C26.0229 70.2983 25.7541 70.4441 25.4898 70.7585C24.8062 71.5833 25.1958 72.3169 25.7905 73.1919C26.0594 73.5883 25.9204 74.3014 25.7541 74.9986L25.7313 75.0875L24.428 80.6423C24.2503 81.4 23.8896 82.1027 23.3777 82.6889C22.8657 83.2751 22.218 83.727 21.4911 84.0052L20.4203 84.4222Z" fill="#434343"/>
<path d="M30.3766 175.818L27.1094 185.584C27.1094 185.584 30.6728 185.281 31.0146 185.356C31.3563 185.431 35.5236 176.45 35.5236 176.45L30.3766 175.818Z" fill="white"/>
<path d="M27.1087 185.925C27.0539 185.926 26.9999 185.913 26.9512 185.888C26.9024 185.863 26.8604 185.826 26.8287 185.781C26.797 185.737 26.7765 185.685 26.7689 185.631C26.7613 185.577 26.7669 185.521 26.7852 185.47L30.0524 175.709C30.0772 175.634 30.1271 175.571 30.1937 175.529C30.2602 175.488 30.3392 175.471 30.417 175.481L35.5594 176.103C35.6129 176.11 35.6641 176.129 35.7088 176.159C35.7536 176.189 35.7906 176.229 35.8168 176.276C35.843 176.323 35.8577 176.376 35.8597 176.43C35.8617 176.484 35.8509 176.537 35.8282 176.586C35.8282 176.607 34.7733 178.865 33.7002 181.068C31.4217 185.775 31.2759 185.748 30.9433 185.682C30.7154 185.65 28.8221 185.78 27.1315 185.925H27.1087ZM30.6175 176.192L27.5986 185.201C28.6717 185.112 30.2985 184.987 30.8932 184.998C31.4172 184.285 33.5885 179.785 35.0171 176.725L30.6175 176.192ZM31.0572 185.012H31.0732H31.0572Z" fill="#434343"/>
<path d="M27.8519 183.437C27.8519 183.437 32.7755 181.421 33.6846 183.952C34.8421 187.174 36.6466 192.089 36.6466 192.089C36.7179 192.288 36.7424 192.501 36.718 192.712C36.6937 192.922 36.6212 193.124 36.5062 193.302C36.3911 193.48 36.2367 193.629 36.0547 193.737C35.8728 193.845 35.6684 193.911 35.4572 193.927C33.6596 194.073 30.9756 194.189 29.7247 193.752C27.7516 193.068 24.4844 186.814 24.4844 186.814L25.4937 181.501C25.4937 181.501 27.28 181.25 27.8519 183.437Z" fill="#8FA1C7"/>
<path d="M32.5812 194.392C31.4147 194.392 30.3256 194.308 29.633 194.064C27.5824 193.349 24.5384 187.616 24.1967 186.964C24.1596 186.895 24.1476 186.814 24.1625 186.737L25.1718 181.423C25.1854 181.353 25.2205 181.289 25.2724 181.239C25.3242 181.19 25.3903 181.158 25.4612 181.148C25.4794 181.148 27.3432 180.92 28.0859 182.97C28.9791 182.651 31.3646 181.92 32.8706 182.588C33.1376 182.701 33.3779 182.868 33.5761 183.08C33.7743 183.291 33.9259 183.542 34.0212 183.816C35.1604 187.005 36.9695 191.9 36.9831 191.95C37.073 192.199 37.1042 192.465 37.0744 192.728C37.0446 192.991 36.9546 193.243 36.8113 193.465C36.668 193.688 36.4753 193.874 36.2483 194.01C36.0212 194.146 35.7659 194.227 35.5022 194.249C34.5931 194.342 33.5541 194.392 32.5812 194.392ZM24.8574 186.753C25.8007 188.53 28.3753 192.904 29.8585 193.419C30.7699 193.738 32.7544 193.795 35.4498 193.579C35.6089 193.567 35.7631 193.518 35.9003 193.436C36.0374 193.354 36.1538 193.242 36.2403 193.108C36.3268 192.974 36.3811 192.821 36.3989 192.663C36.4167 192.504 36.3975 192.343 36.3429 192.193C36.327 192.148 34.5202 187.245 33.381 184.059C33.3157 183.871 33.2104 183.7 33.0723 183.556C32.9342 183.412 32.7667 183.3 32.5812 183.228C31.0046 182.526 28.0244 183.736 27.9857 183.747C27.9412 183.767 27.8931 183.777 27.8444 183.777C27.7958 183.777 27.7476 183.767 27.7032 183.747C27.6591 183.724 27.6206 183.692 27.5899 183.652C27.5593 183.613 27.5373 183.568 27.5254 183.52C27.1495 182.084 26.2245 181.854 25.7825 181.829L24.8574 186.753Z" fill="#434343"/>
<path d="M35.3914 192.143H30.3379C30.2472 192.143 30.1603 192.107 30.0962 192.043C30.0321 191.979 29.9961 191.892 29.9961 191.802C29.9961 191.711 30.0321 191.624 30.0962 191.56C30.1603 191.496 30.2472 191.46 30.3379 191.46H35.3914C35.482 191.46 35.569 191.496 35.633 191.56C35.6971 191.624 35.7331 191.711 35.7331 191.802C35.7331 191.892 35.6971 191.979 35.633 192.043C35.569 192.107 35.482 192.143 35.3914 192.143Z" fill="#434343"/>
<path d="M21.1016 178.218L22.2134 188.042L26.686 186.814L26.3419 177.965L21.1016 178.218Z" fill="white"/>
<path d="M22.2114 188.384C22.1431 188.384 22.0764 188.363 22.02 188.325C21.9791 188.297 21.9448 188.26 21.9192 188.218C21.8937 188.175 21.8775 188.128 21.8719 188.079L20.76 178.256C20.7547 178.21 20.759 178.163 20.7728 178.118C20.7865 178.073 20.8093 178.032 20.8398 177.997C20.8702 177.961 20.9076 177.933 20.9495 177.912C20.9914 177.892 21.037 177.88 21.0835 177.878L26.3239 177.623C26.3691 177.621 26.4143 177.627 26.4569 177.643C26.4995 177.658 26.5387 177.681 26.5722 177.712C26.6054 177.743 26.6321 177.779 26.6509 177.821C26.6696 177.862 26.6801 177.906 26.6816 177.951L27.0257 186.8C27.0285 186.878 27.0054 186.953 26.9599 187.016C26.9145 187.078 26.8493 187.124 26.775 187.144L22.3025 188.37C22.2729 188.379 22.2422 188.384 22.2114 188.384ZM21.48 178.543L22.5053 187.607L26.333 186.557L26.0118 178.322L21.48 178.543Z" fill="#434343"/>
<path d="M21.7888 195.278H28.8656C29.0912 195.279 29.3142 195.231 29.5194 195.137C29.7247 195.043 29.9073 194.906 30.0548 194.736C30.2023 194.565 30.3113 194.365 30.3742 194.148C30.4371 193.931 30.4526 193.704 30.4195 193.481C30.1916 191.886 29.4124 189.231 27.1044 185.584C26.981 185.387 26.8095 185.225 26.6062 185.113C26.4029 185.001 26.1745 184.943 25.9424 184.943H23.7893C23.6102 184.944 23.4376 185.01 23.3047 185.13C23.1717 185.25 23.0879 185.415 23.0693 185.593L22.9052 187.147L22.2536 186.477C22.195 186.417 22.1218 186.372 22.0412 186.349C21.9606 186.325 21.8752 186.322 21.7933 186.341C21.7114 186.36 21.6356 186.399 21.5734 186.456C21.5112 186.512 21.4645 186.584 21.4379 186.664C20.6961 188.931 20.2855 191.294 20.219 193.679C20.2154 193.887 20.2533 194.095 20.3305 194.288C20.4077 194.482 20.5228 194.659 20.6689 194.807C20.815 194.956 20.9892 195.075 21.1815 195.155C21.3738 195.236 21.5802 195.278 21.7888 195.278Z" fill="#8FA1C7"/>
<path d="M28.8636 195.62H21.7869C21.533 195.62 21.2818 195.569 21.0477 195.471C20.8137 195.372 20.6015 195.228 20.4236 195.047C20.2457 194.866 20.1056 194.652 20.0115 194.416C19.9173 194.18 19.871 193.928 19.8753 193.674C19.9427 191.254 20.3594 188.857 21.1124 186.556C21.1573 186.421 21.2364 186.299 21.342 186.203C21.4476 186.107 21.5762 186.039 21.7154 186.007C21.8546 185.975 21.9997 185.98 22.1367 186.02C22.2737 186.06 22.3981 186.135 22.4977 186.237L22.6413 186.386L22.7278 185.558C22.7544 185.296 22.8775 185.053 23.0733 184.876C23.269 184.699 23.5235 184.601 23.7873 184.602H25.9404C26.2303 184.601 26.5157 184.674 26.7697 184.813C27.0236 184.953 27.2377 185.156 27.3918 185.401C29.7385 189.108 30.5155 191.813 30.7547 193.43C30.795 193.702 30.7762 193.979 30.6997 194.243C30.6231 194.507 30.4906 194.751 30.3111 194.959C30.1315 195.167 29.9093 195.333 29.6595 195.447C29.4097 195.561 29.1382 195.62 28.8636 195.62ZM21.9031 186.67H21.8666C21.8421 186.675 21.8195 186.687 21.8011 186.704C21.7826 186.721 21.7691 186.742 21.7618 186.766C21.0293 189.001 20.6241 191.33 20.5588 193.681C20.5561 193.844 20.5858 194.006 20.6463 194.158C20.7068 194.309 20.7967 194.447 20.911 194.564C21.0253 194.68 21.1616 194.772 21.3119 194.836C21.4623 194.899 21.6237 194.932 21.7869 194.932H28.8636C29.04 194.932 29.2144 194.894 29.3749 194.821C29.5354 194.748 29.6783 194.641 29.7937 194.508C29.9092 194.374 29.9945 194.217 30.044 194.048C30.0934 193.879 30.1058 193.701 30.0803 193.526C29.8525 191.975 29.096 189.368 26.8153 185.761C26.721 185.615 26.5916 185.494 26.4388 185.41C26.286 185.326 26.1147 185.282 25.9404 185.281H23.7873C23.6925 185.281 23.6012 185.316 23.5309 185.379C23.4606 185.443 23.4164 185.53 23.4068 185.625L23.245 187.178C23.2372 187.243 23.2118 187.303 23.1716 187.354C23.1314 187.405 23.0779 187.443 23.0172 187.466C22.9557 187.486 22.8895 187.49 22.8262 187.475C22.763 187.46 22.7052 187.427 22.6595 187.381L22.0079 186.711C21.994 186.698 21.9776 186.687 21.9596 186.68C21.9416 186.673 21.9224 186.67 21.9031 186.67Z" fill="#434343"/>
<path d="M28.8729 193.936H21.705C21.6144 193.936 21.5275 193.9 21.4634 193.836C21.3993 193.772 21.3633 193.685 21.3633 193.595C21.3633 193.504 21.3993 193.417 21.4634 193.353C21.5275 193.289 21.6144 193.253 21.705 193.253H28.8729C28.9636 193.253 29.0505 193.289 29.1146 193.353C29.1787 193.417 29.2147 193.504 29.2147 193.595C29.2147 193.685 29.1787 193.772 29.1146 193.836C29.0505 193.9 28.9636 193.936 28.8729 193.936Z" fill="#434343"/>
<path d="M37.8998 119.23C37.8084 119.006 37.6689 118.805 37.4914 118.642C37.3138 118.478 37.1025 118.355 36.8722 118.282C33.3778 117.243 29.6997 116.974 26.0913 117.493C22.4829 118.012 19.0299 119.308 15.97 121.289C15.754 121.428 15.5733 121.615 15.4424 121.836C15.3114 122.056 15.2339 122.305 15.2159 122.561C14.8787 127.282 13.621 151.952 21.4337 181.173L26.6923 180.799L27.7631 130.843C27.7631 130.843 35.553 149.157 29.219 178.304L34.6872 179.314C34.6872 179.314 42.6913 168.79 44.1244 152.697C45.3935 138.482 39.317 122.684 37.8998 119.23Z" fill="#434343"/>
<path d="M22.7828 158.09H22.7669C17.7908 157.876 17.2281 151.132 17.2235 151.063C17.2172 150.973 17.2466 150.884 17.3055 150.815C17.3643 150.747 17.4478 150.704 17.5379 150.697C17.5828 150.693 17.628 150.699 17.6707 150.713C17.7135 150.727 17.7531 150.749 17.7872 150.779C17.8213 150.808 17.8492 150.844 17.8694 150.884C17.8895 150.924 17.9016 150.968 17.9047 151.013C17.9047 151.075 18.4265 157.217 22.7965 157.406C22.8871 157.408 22.9734 157.446 23.0362 157.511C23.099 157.577 23.1332 157.664 23.1314 157.755C23.1296 157.846 23.0919 157.932 23.0265 157.995C22.9611 158.058 22.8735 158.092 22.7828 158.09Z" fill="#E8F0FF"/>
<path d="M28.2189 135.764C28.1302 135.764 28.0449 135.73 27.9811 135.668C27.9174 135.606 27.8801 135.522 27.8771 135.434L27.7358 130.688C27.72 130.169 27.8333 129.655 28.0656 129.191C28.2979 128.728 28.6418 128.329 29.0664 128.031L31.117 126.591C31.1911 126.541 31.2818 126.522 31.3696 126.538C31.4574 126.555 31.5354 126.605 31.587 126.677C31.6385 126.75 31.6594 126.841 31.6452 126.929C31.631 127.017 31.5829 127.096 31.5112 127.149L29.4606 128.589C29.1282 128.822 28.859 129.134 28.6773 129.497C28.4955 129.859 28.4068 130.262 28.4194 130.667L28.5606 135.413C28.5618 135.458 28.5542 135.503 28.5381 135.545C28.5221 135.586 28.4979 135.625 28.467 135.657C28.4361 135.69 28.3991 135.716 28.3581 135.734C28.3171 135.753 28.2729 135.763 28.228 135.764H28.2189Z" fill="#E8F0FF"/>
<path d="M67.5114 178.671C57.1993 169.166 62.5376 163.034 62.5376 163.034C62.5376 163.034 67.1446 155.57 83.3122 165.329C99.4798 175.087 115.128 171.458 118.666 169.995C122.205 168.532 134.57 159.339 141.539 158.831C145.413 158.544 150.056 161.46 145.987 169.339C137.557 185.636 114.702 187.495 114.702 187.495C114.702 187.495 103.617 189.578 92.2322 187.559C92.2322 187.557 77.8258 188.177 67.5114 178.671Z" fill="white"/>
<path fill-rule="evenodd" clip-rule="evenodd" d="M114.702 187.495C114.702 187.495 137.557 185.636 145.987 169.339C150.056 161.46 145.413 158.544 141.539 158.831C136.674 159.185 129.18 163.772 123.894 167.008C121.608 168.407 119.735 169.553 118.666 169.995C115.128 171.458 99.4798 175.087 83.3122 165.329C67.1446 155.57 62.5376 163.034 62.5376 163.034C62.5376 163.034 57.1993 169.166 67.5114 178.671C76.3783 186.843 88.2694 187.531 91.4322 187.565C91.433 187.565 91.4339 187.565 91.4347 187.565C91.8943 187.57 92.169 187.561 92.2225 187.56C92.2273 187.559 92.2304 187.559 92.2316 187.559C92.232 187.559 92.2316 187.559 92.2316 187.559C103.617 189.578 114.702 187.495 114.702 187.495ZM92.3626 186.824L92.3719 186.772C97.9802 187.766 103.529 187.752 107.685 187.486C109.761 187.353 111.484 187.158 112.685 186.996C113.286 186.916 113.756 186.843 114.075 186.791C114.234 186.765 114.355 186.745 114.436 186.73C114.477 186.723 114.507 186.718 114.527 186.714L114.548 186.71L114.553 186.709L114.554 186.709L114.595 186.701L114.637 186.698L114.639 186.698L114.649 186.697L114.694 186.693C114.735 186.689 114.796 186.683 114.878 186.675C115.041 186.658 115.284 186.631 115.598 186.59C116.226 186.509 117.136 186.375 118.256 186.164C120.498 185.741 123.574 185.01 126.906 183.778C133.588 181.308 141.193 176.865 145.276 168.972C147.248 165.154 146.979 162.8 146.079 161.471C145.155 160.106 143.355 159.498 141.599 159.628C139.991 159.746 138.01 160.373 135.842 161.317C133.688 162.256 131.408 163.482 129.216 164.747C127.481 165.75 125.815 166.77 124.316 167.687C123.921 167.929 123.539 168.163 123.169 168.388C121.424 169.451 119.927 170.339 118.972 170.734C115.263 172.267 99.3372 175.936 82.8988 166.014C74.9091 161.191 69.9239 160.715 67.0217 161.306C65.5698 161.602 64.6034 162.171 64.0096 162.645C63.7112 162.884 63.5043 163.101 63.3762 163.251C63.3122 163.326 63.2681 163.385 63.2422 163.421C63.2293 163.439 63.221 163.451 63.2171 163.457C63.2164 163.458 63.2159 163.459 63.2154 163.459L63.184 163.51L63.1436 163.557L63.1403 163.561C63.1354 163.567 63.1259 163.578 63.1126 163.595C63.086 163.63 63.0439 163.686 62.9912 163.764C62.8858 163.92 62.7389 164.161 62.5889 164.481C62.2892 165.119 61.9779 166.072 61.9573 167.302C61.9166 169.733 63.0138 173.437 68.0536 178.083C73.0692 182.705 79.0982 184.88 83.9051 185.896C86.3047 186.403 88.3877 186.619 89.868 186.708C90.6077 186.752 91.1959 186.765 91.5966 186.767C91.7969 186.767 91.9503 186.766 92.0524 186.764C92.1034 186.763 92.1417 186.762 92.1669 186.761L92.2053 186.76L92.2143 186.759L92.2305 186.759C92.2351 186.759 92.2866 186.78 92.3626 186.824Z" fill="#434343"/>
<path d="M94.2743 180.617L97.9243 182.66L96.1016 186.447L93.0781 184.513L94.2743 180.617Z" fill="white"/>
<path d="M96.1065 186.789C96.0414 186.789 95.9776 186.77 95.9219 186.737L92.8985 184.8C92.836 184.76 92.7884 184.7 92.7629 184.63C92.7374 184.56 92.7354 184.484 92.7572 184.413L93.9511 180.517C93.9664 180.468 93.9923 180.423 94.0269 180.386C94.0615 180.348 94.104 180.319 94.1513 180.3C94.1987 180.281 94.2496 180.273 94.3005 180.276C94.3514 180.279 94.4009 180.294 94.4455 180.318L98.091 182.369C98.1693 182.411 98.2278 182.483 98.2538 182.568C98.2799 182.654 98.2713 182.746 98.23 182.825L96.4073 186.614C96.3862 186.657 96.3562 186.695 96.3193 186.726C96.2824 186.757 96.2394 186.78 96.1931 186.794C96.1641 186.796 96.135 186.794 96.1065 186.789ZM93.4863 184.367L95.9652 185.962L97.4827 182.811L94.4797 181.132L93.4863 184.367Z" fill="#434343"/>
<path d="M96.4943 182.178C96.5923 182.05 96.7186 181.947 96.8632 181.877C97.0078 181.807 97.1668 181.771 97.3276 181.772C97.4884 181.774 97.6466 181.813 97.7898 181.886C97.933 181.959 98.0573 182.064 98.1529 182.194L99.9255 184.595L97.5309 187.678L94.3594 186.22C94.5781 184.857 95.6922 183.228 96.4943 182.178Z" fill="#8FA1C7"/>
<path d="M96.1255 184.736L97.0938 183.757C97.2634 183.586 97.4854 183.477 97.7243 183.448C97.9631 183.418 98.2049 183.47 98.4107 183.595L99.0942 184.012L99.2423 183.691C99.3192 183.524 99.4546 183.392 99.6226 183.319C99.7906 183.246 99.9796 183.237 100.154 183.294C102.364 184.032 109.7 186.559 112.154 188.377C115.057 190.519 113.006 195.304 107.941 194.825C103.929 194.438 98.4472 189.963 96.3442 188.124C96.2492 188.041 96.1768 187.935 96.1336 187.817C96.0904 187.698 96.0779 187.57 96.0972 187.446C96.1166 187.321 96.1671 187.203 96.2441 187.103C96.3211 187.003 96.4222 186.924 96.5379 186.873L96.0024 186.103C95.86 185.897 95.7943 185.647 95.8168 185.398C95.8393 185.148 95.9485 184.914 96.1255 184.736Z" fill="white"/>
<path d="M108.681 195.201C108.437 195.201 108.182 195.201 107.92 195.164C103.819 194.77 98.3098 190.288 96.1294 188.381C96.0165 188.283 95.9252 188.162 95.861 188.027C95.7969 187.892 95.7614 187.744 95.7567 187.595C95.752 187.445 95.7782 187.296 95.8337 187.157C95.8892 187.018 95.9728 186.892 96.0792 186.786L95.7375 186.297C95.549 186.026 95.4613 185.697 95.4896 185.369C95.5179 185.04 95.6604 184.731 95.8924 184.497L96.8607 183.517C97.0837 183.29 97.3767 183.145 97.6923 183.106C98.0078 183.067 98.3274 183.135 98.5992 183.3L98.9591 183.528C99.076 183.292 99.2744 183.106 99.5178 183.005C99.7611 182.903 100.033 182.893 100.283 182.977C102.488 183.713 109.882 186.262 112.377 188.11C113.014 188.563 113.48 189.217 113.7 189.966C113.92 190.716 113.882 191.518 113.591 192.243C113.04 193.656 111.44 195.201 108.681 195.201ZM97.8587 183.779C97.7613 183.78 97.6651 183.801 97.5759 183.84C97.4866 183.879 97.4062 183.936 97.3392 184.007L96.3709 184.986C96.2516 185.108 96.1783 185.266 96.1638 185.436C96.1492 185.605 96.1943 185.774 96.2911 185.914L96.8266 186.684C96.8558 186.725 96.8756 186.772 96.8843 186.822C96.893 186.872 96.8905 186.923 96.877 186.972C96.8634 187.02 96.8392 187.065 96.8061 187.103C96.7729 187.142 96.7316 187.172 96.6853 187.192C96.6205 187.219 96.5637 187.263 96.5206 187.318C96.4775 187.373 96.4495 187.439 96.4392 187.509C96.428 187.576 96.4346 187.646 96.4581 187.71C96.4817 187.774 96.5215 187.831 96.5736 187.876C98.704 189.739 104.081 194.116 107.977 194.483C110.834 194.759 112.438 193.314 112.946 191.993C113.187 191.407 113.221 190.757 113.042 190.149C112.863 189.542 112.482 189.014 111.962 188.652C109.549 186.864 102.242 184.346 100.06 183.617C99.9644 183.586 99.8608 183.59 99.7688 183.63C99.6767 183.67 99.6026 183.742 99.5607 183.834L99.4126 184.155C99.3928 184.199 99.3639 184.237 99.3277 184.269C99.2915 184.3 99.2489 184.324 99.2029 184.337C99.1568 184.351 99.1082 184.356 99.0603 184.35C99.0124 184.344 98.9663 184.328 98.925 184.303L98.2414 183.886C98.126 183.816 97.9937 183.779 97.8587 183.779Z" fill="#434343"/>
<path d="M102.422 190.307C102.365 190.306 102.308 190.291 102.258 190.263C102.208 190.235 102.165 190.195 102.135 190.146C102.104 190.097 102.086 190.042 102.083 189.984C102.079 189.927 102.09 189.869 102.114 189.817L103.755 186.37C103.774 186.329 103.801 186.293 103.834 186.262C103.868 186.232 103.907 186.209 103.949 186.194C103.991 186.179 104.036 186.172 104.081 186.175C104.126 186.177 104.17 186.188 104.211 186.208C104.293 186.247 104.356 186.317 104.386 186.402C104.417 186.488 104.413 186.582 104.375 186.664L102.734 190.111C102.706 190.17 102.662 190.22 102.607 190.254C102.551 190.289 102.487 190.307 102.422 190.307Z" fill="black"/>
<path d="M110.021 180.655C109.973 180.655 109.925 180.645 109.881 180.625C109.837 180.605 109.798 180.576 109.766 180.539L109.228 179.931C109.198 179.896 109.175 179.855 109.161 179.81C109.147 179.766 109.142 179.719 109.146 179.673C109.152 179.628 109.166 179.585 109.188 179.546C109.21 179.507 109.24 179.473 109.276 179.445L126.325 166.29C126.361 166.262 126.402 166.242 126.445 166.231C126.488 166.219 126.534 166.216 126.578 166.222C126.623 166.228 126.666 166.242 126.705 166.265C126.744 166.287 126.778 166.317 126.805 166.352C126.832 166.388 126.853 166.429 126.864 166.472C126.876 166.515 126.879 166.561 126.873 166.605C126.867 166.65 126.853 166.693 126.83 166.732C126.808 166.771 126.778 166.805 126.742 166.832L109.982 179.764L110.279 180.099C110.321 180.149 110.348 180.21 110.357 180.274C110.367 180.339 110.357 180.405 110.33 180.465C110.303 180.524 110.26 180.575 110.205 180.611C110.15 180.646 110.086 180.666 110.021 180.667V180.655Z" fill="white"/>
<path d="M110.608 181.375L103.188 184.041L104.361 188.078L113.322 185.634L110.608 181.375Z" fill="white"/>
<path d="M104.359 188.421C104.286 188.42 104.214 188.396 104.155 188.352C104.096 188.308 104.052 188.245 104.031 188.175L102.858 184.139C102.833 184.056 102.841 183.966 102.881 183.889C102.92 183.811 102.988 183.752 103.07 183.723L110.5 181.055C110.573 181.028 110.653 181.028 110.727 181.053C110.8 181.078 110.863 181.128 110.905 181.194L113.617 185.452C113.646 185.497 113.664 185.548 113.669 185.601C113.675 185.654 113.668 185.707 113.648 185.757C113.629 185.807 113.599 185.852 113.559 185.888C113.52 185.924 113.472 185.95 113.421 185.965L104.462 188.407C104.429 188.417 104.394 188.422 104.359 188.421ZM103.603 184.253L104.594 187.671L112.783 185.438L110.466 181.793L103.603 184.253Z" fill="#434343"/>
<path d="M104.681 183.8C104.605 183.658 104.497 183.536 104.366 183.443C104.235 183.35 104.084 183.289 103.925 183.264C103.766 183.24 103.604 183.252 103.451 183.301C103.298 183.349 103.158 183.433 103.042 183.544L100.898 185.625L102.755 189.061L106.123 188.149C106.132 186.759 105.307 184.962 104.681 183.8Z" fill="#8FA1C7"/>
<path d="M104.62 186.386L103.827 185.26C103.689 185.063 103.488 184.919 103.257 184.851C103.027 184.782 102.78 184.793 102.556 184.882L101.809 185.18L101.715 184.841C101.667 184.663 101.554 184.509 101.399 184.408C101.244 184.308 101.057 184.269 100.875 184.299C98.5757 184.661 90.9225 185.948 88.2044 187.336C84.9873 188.979 86.2313 194.037 91.3053 194.399C95.3267 194.679 101.472 191.168 103.848 189.699C103.955 189.632 104.044 189.539 104.105 189.43C104.167 189.32 104.2 189.196 104.202 189.07C104.203 188.944 104.173 188.82 104.113 188.708C104.054 188.597 103.967 188.503 103.862 188.434L104.518 187.762C104.695 187.582 104.802 187.344 104.821 187.093C104.84 186.841 104.769 186.59 104.62 186.386Z" fill="white"/>
<path d="M91.7656 194.748C91.5993 194.748 91.4375 194.748 91.2803 194.732C88.0359 194.504 86.4957 192.533 86.1653 190.911C85.9997 190.148 86.0949 189.351 86.4357 188.649C86.7766 187.947 87.3432 187.379 88.045 187.037C90.8087 185.625 98.5257 184.328 100.82 183.964C101.08 183.923 101.347 183.978 101.57 184.119C101.793 184.259 101.958 184.475 102.034 184.727L102.426 184.57C102.721 184.451 103.048 184.436 103.353 184.526C103.658 184.617 103.923 184.808 104.106 185.069L104.898 186.194C105.089 186.464 105.179 186.791 105.152 187.12C105.126 187.449 104.986 187.758 104.755 187.994L104.347 188.418C104.434 188.539 104.496 188.677 104.527 188.824C104.559 188.97 104.56 189.121 104.531 189.267C104.502 189.414 104.443 189.553 104.357 189.676C104.272 189.799 104.162 189.903 104.035 189.981C101.656 191.446 95.8554 194.748 91.7656 194.748ZM100.991 184.631C100.97 184.629 100.948 184.629 100.927 184.631C98.6487 184.991 91.0297 186.27 88.3571 187.637C87.7845 187.907 87.3214 188.365 87.0446 188.935C86.7678 189.505 86.6939 190.152 86.8351 190.769C87.1199 192.155 88.4642 193.845 91.3259 194.043C91.474 194.043 91.6244 194.059 91.7816 194.059C95.6868 194.059 101.351 190.826 103.67 189.396C103.728 189.359 103.775 189.308 103.808 189.249C103.84 189.189 103.858 189.122 103.858 189.054C103.858 188.986 103.84 188.919 103.808 188.859C103.775 188.799 103.728 188.749 103.67 188.712C103.628 188.684 103.592 188.647 103.566 188.604C103.539 188.56 103.522 188.512 103.515 188.461C103.51 188.411 103.515 188.36 103.531 188.312C103.547 188.264 103.574 188.22 103.609 188.183L104.263 187.5C104.382 187.379 104.455 187.219 104.469 187.05C104.483 186.88 104.436 186.711 104.338 186.573L103.543 185.433C103.449 185.299 103.312 185.201 103.154 185.154C102.997 185.108 102.829 185.116 102.677 185.178L101.932 185.506C101.887 185.524 101.839 185.532 101.791 185.529C101.744 185.527 101.697 185.515 101.654 185.493C101.611 185.472 101.572 185.442 101.542 185.405C101.511 185.368 101.489 185.325 101.476 185.278L101.383 184.939C101.361 184.852 101.31 184.774 101.239 184.718C101.168 184.663 101.081 184.632 100.991 184.631Z" fill="#434343"/>
<path d="M97.5505 190.847C97.476 190.847 97.4034 190.823 97.3439 190.778C97.2843 190.733 97.2409 190.67 97.2201 190.598L96.172 186.928C96.1533 186.843 96.1678 186.754 96.2124 186.679C96.257 186.604 96.3285 186.55 96.4122 186.526C96.496 186.502 96.5856 186.511 96.6629 186.551C96.7402 186.591 96.7994 186.659 96.8282 186.741L97.8786 190.412C97.8925 190.462 97.8947 190.516 97.8848 190.567C97.8749 190.619 97.8533 190.668 97.8216 190.71C97.7899 190.752 97.7489 190.786 97.7019 190.81C97.655 190.834 97.6031 190.846 97.5505 190.847Z" fill="#434343"/>
<path d="M91.5889 193.674C91.5244 193.675 91.461 193.657 91.4066 193.622C87.2508 191.02 88.9004 187.632 88.9277 187.598C88.9685 187.517 89.0398 187.455 89.1259 187.427C89.212 187.398 89.3059 187.405 89.3868 187.446C89.4678 187.487 89.5292 187.558 89.5577 187.644C89.5861 187.73 89.5791 187.824 89.5383 187.905C89.4814 188.022 88.1576 190.781 91.7689 193.043C91.8315 193.083 91.8797 193.141 91.9062 193.21C91.9327 193.279 91.936 193.355 91.9157 193.426C91.8954 193.497 91.8526 193.56 91.7937 193.605C91.7347 193.649 91.6629 193.674 91.5889 193.674Z" fill="#434343"/>
<path d="M94.5085 180.038H94.4402C94.3962 180.029 94.3544 180.012 94.3172 179.986C94.28 179.961 94.2481 179.929 94.2233 179.892C94.1986 179.854 94.1814 179.812 94.1729 179.768C94.1644 179.724 94.1646 179.679 94.1736 179.635L94.3878 178.571C93.5584 177.91 89.5871 174.773 83.3374 170.177C76.3199 165.014 74.782 163.957 74.766 163.948C74.7289 163.922 74.6972 163.89 74.6727 163.852C74.6481 163.815 74.6313 163.772 74.623 163.728C74.6147 163.684 74.6153 163.639 74.6246 163.595C74.6339 163.551 74.6518 163.509 74.6772 163.472C74.7026 163.435 74.7351 163.403 74.7728 163.378C74.8105 163.354 74.8527 163.337 74.8969 163.329C74.9411 163.32 74.9865 163.321 75.0305 163.33C75.0745 163.34 75.1163 163.357 75.1534 163.383C75.1671 163.383 76.7073 164.451 83.743 169.626C90.7788 174.8 94.9391 178.136 94.9802 178.168C95.0285 178.207 95.0653 178.259 95.0865 178.318C95.1078 178.377 95.1127 178.441 95.1009 178.502L94.8435 179.772C94.8259 179.847 94.7833 179.915 94.7225 179.963C94.6617 180.012 94.5863 180.038 94.5085 180.038Z" fill="white"/>
<path d="M127.968 155.183C127.437 152.811 124.053 144.062 121.501 137.616C119.465 132.472 114.541 128.774 108.679 128.017C104.154 127.456 99.5835 127.352 95.0377 127.708C87.4528 128.305 80.9388 132.948 78.4303 139.603C76.1701 145.595 73.7094 152.955 73.6456 156.691C73.5864 160.663 75.9855 164.458 78.6034 167.4C81.9071 171.116 86.6189 173.435 91.7089 173.907C98.977 174.579 110.321 175.254 115.475 173.57C123.383 170.984 129.25 160.927 127.968 155.183Z" fill="#F9D566"/>
<path d="M105.308 174.968C100.835 174.968 95.9047 174.634 91.6828 174.242C86.4425 173.756 81.717 171.405 78.3541 167.621C74.9547 163.797 73.2595 160.116 73.3097 156.684C73.3666 152.843 75.9526 145.212 78.1103 139.489C80.653 132.731 87.2878 127.976 95.007 127.368C99.5763 127.008 104.17 127.112 108.719 127.678C114.702 128.439 119.721 132.198 121.815 137.491C124.481 144.224 127.768 152.756 128.297 155.11C129.639 161.061 123.715 171.239 115.586 173.886C113.161 174.684 109.429 174.968 105.308 174.968ZM100.348 127.842C98.5773 127.842 96.807 127.912 95.0617 128.049C87.6045 128.637 81.2021 133.219 78.7483 139.724C76.6111 145.397 74.0502 152.938 73.9932 156.689C73.9454 159.949 75.5881 163.474 78.8645 167.169C82.1135 170.815 86.6863 173.093 91.7443 173.563C98.3358 174.173 110.17 174.943 115.374 173.244C123.043 170.737 128.876 160.829 127.634 155.26C127.114 152.938 123.838 144.454 121.181 137.744C119.179 132.683 114.371 129.086 108.634 128.359C105.886 128.013 103.118 127.84 100.348 127.842Z" fill="#434343"/>
<path d="M123.922 144.176H89.573C88.0139 144.176 86.75 145.44 86.75 146.999V169.71C86.75 171.269 88.0139 172.533 89.573 172.533H123.922C125.481 172.533 126.745 171.269 126.745 169.71V146.999C126.745 145.44 125.481 144.176 123.922 144.176Z" fill="white"/>
<path d="M123.92 172.875H89.571C88.7318 172.874 87.9272 172.541 87.3338 171.947C86.7405 171.354 86.4069 170.549 86.4062 169.71V147.001C86.4069 146.162 86.7405 145.357 87.3338 144.764C87.9272 144.171 88.7318 143.837 89.571 143.836H123.92C124.76 143.837 125.564 144.171 126.158 144.764C126.751 145.357 127.084 146.162 127.085 147.001V169.712C127.084 170.551 126.75 171.355 126.157 171.948C125.563 172.541 124.759 172.874 123.92 172.875ZM89.571 144.518C88.9127 144.518 88.2816 144.78 87.8164 145.246C87.3511 145.712 87.0898 146.343 87.0898 147.001V169.712C87.0904 170.37 87.352 171.001 87.8172 171.466C88.2824 171.931 88.9131 172.193 89.571 172.194H123.92C124.578 172.192 125.208 171.931 125.674 171.466C126.139 171 126.4 170.37 126.402 169.712V147.001C126.402 146.343 126.14 145.712 125.675 145.246C125.21 144.78 124.579 144.518 123.92 144.518H89.571Z" fill="#434343"/>
<path d="M126.195 172.67H86.708C86.4694 172.661 86.2315 172.701 86.0086 172.786C85.7857 172.872 85.5822 173.001 85.4104 173.167C85.2386 173.333 85.102 173.531 85.0086 173.751C84.9153 173.971 84.8672 174.207 84.8672 174.446C84.8672 174.685 84.9153 174.921 85.0086 175.141C85.102 175.36 85.2386 175.559 85.4104 175.725C85.5822 175.891 85.7857 176.02 86.0086 176.105C86.2315 176.191 86.4694 176.23 86.708 176.222H126.195C126.434 176.23 126.672 176.191 126.895 176.105C127.118 176.02 127.321 175.891 127.493 175.725C127.665 175.559 127.801 175.36 127.895 175.141C127.988 174.921 128.036 174.685 128.036 174.446C128.036 174.207 127.988 173.971 127.895 173.751C127.801 173.531 127.665 173.333 127.493 173.167C127.321 173.001 127.118 172.872 126.895 172.786C126.672 172.701 126.434 172.661 126.195 172.67Z" fill="#8FA1C7"/>
<path d="M126.195 176.563H86.7079C86.424 176.573 86.141 176.525 85.876 176.422C85.6109 176.32 85.3691 176.166 85.1649 175.968C84.9608 175.771 84.7984 175.534 84.6875 175.272C84.5767 175.011 84.5195 174.73 84.5195 174.445C84.5195 174.161 84.5767 173.88 84.6875 173.619C84.7984 173.357 84.9608 173.12 85.1649 172.923C85.3691 172.725 85.6109 172.571 85.876 172.468C86.141 172.366 86.424 172.318 86.7079 172.328H126.195C126.479 172.318 126.762 172.366 127.027 172.468C127.292 172.571 127.534 172.725 127.738 172.923C127.942 173.12 128.105 173.357 128.216 173.619C128.326 173.88 128.384 174.161 128.384 174.445C128.384 174.73 128.326 175.011 128.216 175.272C128.105 175.534 127.942 175.771 127.738 175.968C127.534 176.166 127.292 176.32 127.027 176.422C126.762 176.525 126.479 176.573 126.195 176.563ZM86.7079 173.011C86.5148 173.004 86.3221 173.035 86.1413 173.104C85.9606 173.172 85.7956 173.277 85.6562 173.41C85.5168 173.544 85.4059 173.705 85.3302 173.883C85.2544 174.061 85.2154 174.252 85.2154 174.445C85.2154 174.639 85.2544 174.83 85.3302 175.008C85.4059 175.186 85.5168 175.347 85.6562 175.48C85.7956 175.614 85.9606 175.719 86.1413 175.787C86.3221 175.856 86.5148 175.887 86.7079 175.88H126.195C126.388 175.887 126.581 175.856 126.762 175.787C126.943 175.719 127.108 175.614 127.247 175.48C127.386 175.347 127.497 175.186 127.573 175.008C127.649 174.83 127.688 174.639 127.688 174.445C127.688 174.252 127.649 174.061 127.573 173.883C127.497 173.705 127.386 173.544 127.247 173.41C127.108 173.277 126.943 173.172 126.762 173.104C126.581 173.035 126.388 173.004 126.195 173.011H86.7079Z" fill="#434343"/>
<path d="M108.234 157.142C108.234 157.548 108.114 157.944 107.888 158.281C107.663 158.619 107.343 158.881 106.968 159.037C106.593 159.192 106.181 159.232 105.783 159.153C105.386 159.074 105.02 158.879 104.733 158.592C104.447 158.305 104.251 157.94 104.172 157.542C104.093 157.144 104.134 156.732 104.289 156.357C104.444 155.983 104.707 155.662 105.044 155.437C105.381 155.212 105.778 155.092 106.183 155.092C106.727 155.092 107.249 155.308 107.633 155.692C108.018 156.077 108.234 156.598 108.234 157.142Z" fill="#434343"/>
<path d="M110.385 117.356C110.412 117.247 108.314 115.014 108.314 115.014L104.49 115.317C102.212 115.212 101.971 119.614 101.971 119.614C102.08 119.952 102.161 120.298 102.214 120.649C101.659 122.518 100.711 124.248 99.4324 125.72C97.9492 127.406 96.7439 127.871 96.8327 128.808C96.9808 130.357 100.478 131.173 102.087 131.542C103.764 131.931 107.783 132.633 108.182 131.585C108.266 131.357 108.421 130.471 104.559 127.94L105.126 126.755L105.147 126.766C106.188 127.386 107.364 126.935 107.746 125.787L108.43 123.761L108.94 123.891C109.012 123.909 109.087 123.908 109.159 123.89C109.231 123.873 109.297 123.837 109.353 123.788C109.408 123.739 109.45 123.677 109.476 123.607C109.502 123.538 109.51 123.463 109.501 123.39C109.173 120.99 110.18 118.181 110.385 117.356Z" fill="white"/>
<path d="M106.344 132.481C104.785 132.481 102.837 132.07 102.015 131.879C99.2374 131.232 96.6492 130.416 96.4988 128.84C96.4259 128.083 96.9659 127.6 97.7155 126.933C98.2346 126.485 98.7247 126.005 99.1828 125.495C100.412 124.079 101.327 122.419 101.869 120.624C101.821 120.319 101.748 120.019 101.653 119.726C101.639 119.684 101.634 119.64 101.637 119.596C101.637 119.405 101.917 114.884 104.489 114.973L108.294 114.672C108.345 114.669 108.396 114.677 108.444 114.695C108.492 114.714 108.535 114.743 108.57 114.78C110.796 117.149 110.778 117.222 110.723 117.438C110.689 117.571 110.636 117.753 110.573 117.976C110.249 119.086 109.577 121.394 109.839 123.344C109.856 123.473 109.842 123.604 109.797 123.726C109.752 123.848 109.677 123.957 109.581 124.043C109.484 124.13 109.367 124.191 109.241 124.222C109.115 124.253 108.983 124.253 108.857 124.221L108.652 124.171L108.075 125.896C107.98 126.204 107.816 126.488 107.597 126.724C107.377 126.961 107.107 127.145 106.806 127.263C106.313 127.442 105.77 127.425 105.289 127.215L105 127.817C107.679 129.605 108.825 130.879 108.506 131.71C108.283 132.291 107.403 132.481 106.344 132.481ZM102.32 119.573C102.423 119.909 102.499 120.253 102.548 120.601C102.555 120.65 102.551 120.701 102.537 120.749C101.969 122.665 100.997 124.438 99.6863 125.946C99.2097 126.478 98.6998 126.978 98.1597 127.445C97.4648 128.065 97.1322 128.379 97.1686 128.774C97.2939 130.079 100.83 130.902 102.161 131.211C105.045 131.884 107.654 132.002 107.857 131.467C107.857 131.467 108.105 130.681 104.364 128.224C104.295 128.179 104.245 128.11 104.222 128.031C104.2 127.951 104.208 127.866 104.243 127.792L104.813 126.607C104.833 126.564 104.862 126.526 104.899 126.495C104.935 126.464 104.977 126.441 105.022 126.427C105.068 126.414 105.115 126.41 105.162 126.415C105.21 126.421 105.255 126.437 105.296 126.461L105.143 126.764L105.316 126.472C105.498 126.59 105.704 126.666 105.919 126.692C106.135 126.719 106.353 126.696 106.558 126.625C106.763 126.542 106.947 126.414 107.096 126.25C107.244 126.087 107.354 125.892 107.417 125.679L108.1 123.654C108.127 123.572 108.184 123.502 108.26 123.46C108.335 123.418 108.424 123.406 108.508 123.426L109.019 123.554C109.036 123.559 109.055 123.56 109.073 123.555C109.091 123.551 109.108 123.542 109.121 123.529C109.135 123.517 109.146 123.502 109.153 123.485C109.159 123.467 109.161 123.449 109.158 123.431C108.877 121.337 109.577 118.935 109.914 117.78L110.021 117.407C109.782 117.101 108.962 116.197 108.18 115.356L104.521 115.645H104.48C102.717 115.579 102.361 119.07 102.32 119.573Z" fill="#434343"/>
<path d="M104.986 119.852C105.018 119.682 105.039 119.511 105.05 119.339C105.114 118.213 104.654 117.651 104.943 117.19C105.093 116.991 105.314 116.856 105.561 116.814C106.388 116.587 107.121 117.243 108.693 118.284C110.646 119.578 110.862 119.744 111.323 119.744C112.491 119.744 113.558 118.683 114.007 117.628C114.134 117.334 114.761 115.746 113.779 114.383C113.409 113.894 112.909 113.52 112.335 113.304C111.762 113.089 111.139 113.04 110.539 113.164C110.601 112.726 110.49 112.28 110.229 111.923C109.468 111.011 107.616 111.569 106.969 111.763C105.9 112.089 104.932 112.683 104.157 113.488C104.011 113.299 103.451 112.624 102.587 112.563C101.302 112.469 100.471 113.814 100.395 113.93C99.4999 115.425 100.236 117.359 100.792 118.819C101.108 119.651 101.517 120.444 102.013 121.182L102.972 121.055C102.665 120.567 102.506 120 102.517 119.423C102.517 119.177 102.542 118.17 103.072 117.986C103.451 117.853 103.874 118.213 103.936 118.273C104.576 118.831 104.392 119.817 104.392 119.904L104.986 119.852Z" fill="#434343"/>
<path d="M102.492 123.112V123.305C102.492 123.734 102.574 124.524 102.864 124.841L105.124 126.755L102.492 123.112Z" fill="white"/>
<path d="M105.13 127.097C105.046 127.098 104.965 127.069 104.902 127.015L102.642 125.103L102.612 125.073C102.17 124.59 102.156 123.515 102.156 123.305V123.112C102.156 123.021 102.192 122.934 102.256 122.87C102.32 122.806 102.407 122.77 102.498 122.77C102.589 122.77 102.676 122.806 102.74 122.87C102.804 122.934 102.84 123.021 102.84 123.112V123.305C102.84 123.784 102.94 124.39 103.111 124.597L105.351 126.493C105.385 126.522 105.413 126.558 105.434 126.598C105.454 126.638 105.467 126.681 105.47 126.726C105.474 126.771 105.469 126.816 105.455 126.859C105.441 126.902 105.419 126.942 105.389 126.976C105.358 127.014 105.318 127.044 105.273 127.065C105.228 127.086 105.179 127.097 105.13 127.097Z" fill="#434343"/>
</svg>
