<svg width="216" height="217" viewBox="0 0 216 217" fill="none" xmlns="http://www.w3.org/2000/svg">
<path d="M213.741 82.8944C204.049 33.7021 155.283 5.16638 114.212 1.37376C80.1891 -1.76856 35.7516 10.6498 20.0465 40.6527C10.1674 59.5222 22.0353 65.5155 13.9579 108.285C6.95676 145.291 -5.26207 158.536 2.48259 177.403C8.82337 192.823 23.6471 200.117 33.1206 204.781C70.466 223.157 127.198 221 168.048 187.48C177.597 179.635 224.704 138.54 213.741 82.8944Z" fill="#EDF3FF"/>
<path d="M197.621 114.289C197.557 114.304 197.491 114.303 197.429 114.284C197.331 114.257 197.247 114.193 197.195 114.106C197.143 114.018 197.128 113.914 197.152 113.815C200.037 102.978 199.414 91.8548 195.306 80.7519C195.288 80.7033 195.28 80.6517 195.282 80.6C195.284 80.5484 195.297 80.4976 195.319 80.4507C195.34 80.4038 195.371 80.3617 195.409 80.3267C195.447 80.2917 195.492 80.2645 195.54 80.2468C195.589 80.229 195.64 80.221 195.692 80.2232C195.744 80.2254 195.794 80.2377 195.841 80.2595C195.888 80.2813 195.93 80.3121 195.965 80.3502C196 80.3882 196.027 80.4328 196.045 80.4814C200.217 91.7354 200.846 103.019 197.918 114.012C197.9 114.081 197.864 114.143 197.814 114.192C197.764 114.242 197.701 114.277 197.633 114.294L197.621 114.289Z" fill="#434343"/>
<path d="M196.923 74.8982C196.836 74.9191 196.745 74.9098 196.664 74.8718C196.583 74.8338 196.518 74.7695 196.478 74.6894C193.17 67.8272 189.67 63.7014 189.634 63.6619C189.566 63.5829 189.533 63.4803 189.541 63.3766C189.549 63.273 189.598 63.1768 189.677 63.1092C189.756 63.0417 189.858 63.0083 189.962 63.0164C190.065 63.0245 190.162 63.0735 190.229 63.1525C190.263 63.1926 193.831 67.3986 197.185 74.3516C197.229 74.4455 197.235 74.553 197.2 74.6509C197.166 74.7487 197.094 74.8289 197 74.8741C196.975 74.883 196.949 74.8893 196.922 74.8932L196.923 74.8982Z" fill="#434343"/>
<path d="M200.346 119.416C200.262 119.437 200.174 119.429 200.096 119.394C200.001 119.352 199.927 119.274 199.89 119.177C199.852 119.081 199.855 118.973 199.896 118.878C208.33 99.7581 199.115 78.8198 199.021 78.6091C198.999 78.5614 198.988 78.5099 198.986 78.4577C198.985 78.4055 198.994 78.3535 199.013 78.3047C199.031 78.2559 199.059 78.2113 199.095 78.1734C199.131 78.1355 199.174 78.1051 199.222 78.0838C199.27 78.0626 199.321 78.0509 199.373 78.0495C199.425 78.0482 199.477 78.0571 199.526 78.0758C199.575 78.0945 199.62 78.1227 199.657 78.1586C199.695 78.1946 199.726 78.2376 199.747 78.2854C199.761 78.3412 202.152 83.6914 203.453 91.3595C204.635 98.4472 205.118 109.025 200.636 119.188C200.612 119.243 200.576 119.292 200.53 119.33C200.484 119.369 200.43 119.396 200.371 119.41L200.346 119.416Z" fill="#434343"/>
<g clip-path="url(#clip0_34_2499)">
<path fill-rule="evenodd" clip-rule="evenodd" d="M54.1663 16.1534C54.1663 13.196 54.9611 10.4241 56.3492 8.03979C52.5401 10.995 50.089 15.616 50.089 20.8096L50.089 199.23C50.089 208.151 57.3217 215.384 66.2432 215.384L146.245 215.384C153.603 215.384 159.812 210.465 161.763 203.735C158.823 207.746 154.078 210.351 148.724 210.351L70.3201 210.351C61.3986 210.351 54.1663 203.119 54.1663 194.198L54.1663 16.1534Z" fill="#99B9FF"/>
<path fill-rule="evenodd" clip-rule="evenodd" d="M70.1908 -8.366e-06C61.2694 -9.14594e-06 54.0374 7.23231 54.0374 16.1538L54.0374 194.574C54.0374 203.496 61.2694 210.728 70.1908 210.728L149.733 210.728C158.654 210.728 165.887 203.496 165.887 194.574L165.887 16.1539C165.887 7.23233 158.654 -6.3227e-07 149.733 -1.41221e-06L70.1908 -8.366e-06ZM70.5434 16.2104C64.5958 16.2104 59.7742 21.032 59.7742 26.9796L59.7742 194.065C59.7742 200.013 64.5958 204.834 70.5434 204.834L149.383 204.834C155.331 204.834 160.152 200.013 160.152 194.065L160.152 26.9796C160.152 21.032 155.331 16.2104 149.383 16.2104L109.963 16.2104L70.5434 16.2104Z" fill="white"/>
<mask id="mask0_34_2499" style="mask-type:luminance" maskUnits="userSpaceOnUse" x="54" y="0" width="112" height="211">
<path fill-rule="evenodd" clip-rule="evenodd" d="M70.1908 -8.366e-06C61.2694 -9.14594e-06 54.0374 7.23231 54.0374 16.1538L54.0374 194.574C54.0374 203.496 61.2694 210.728 70.1908 210.728L149.733 210.728C158.654 210.728 165.887 203.496 165.887 194.574L165.887 16.1539C165.887 7.23233 158.654 -6.3227e-07 149.733 -1.41221e-06L70.1908 -8.366e-06ZM70.5434 16.2104C64.5958 16.2104 59.7742 21.032 59.7742 26.9796L59.7742 194.065C59.7742 200.013 64.5958 204.834 70.5434 204.834L149.383 204.834C155.331 204.834 160.152 200.013 160.152 194.065L160.152 26.9796C160.152 21.032 155.331 16.2104 149.383 16.2104L109.963 16.2104L70.5434 16.2104Z" fill="white"/>
</mask>
<g mask="url(#mask0_34_2499)">
<path d="M55.1146 16.1544C55.1146 7.82758 61.8643 1.07742 70.1911 1.07742L70.1911 -1.07642C60.6748 -1.07643 52.9607 6.63804 52.9607 16.1544L55.1146 16.1544ZM55.1146 194.575L55.1146 16.1544L52.9607 16.1544L52.9607 194.575L55.1146 194.575ZM70.1911 209.652C61.8643 209.652 55.1146 202.902 55.1146 194.575L52.9607 194.575C52.9607 204.092 60.6748 211.806 70.1911 211.806L70.1911 209.652ZM149.733 209.652L70.1911 209.652L70.1911 211.806L149.733 211.806L149.733 209.652ZM164.81 194.575C164.81 202.902 158.06 209.652 149.733 209.652L149.733 211.806C159.249 211.806 166.964 204.092 166.964 194.575L164.81 194.575ZM164.81 16.1544L164.81 194.575L166.964 194.575L166.964 16.1544L164.81 16.1544ZM149.733 1.07743C158.06 1.07743 164.81 7.8276 164.81 16.1544L166.964 16.1544C166.964 6.63806 159.249 -1.07642 149.733 -1.07642L149.733 1.07743ZM70.1911 1.07742L149.733 1.07743L149.733 -1.07642L70.1911 -1.07642L70.1911 1.07742ZM60.8513 26.9801C60.8513 21.6273 65.1907 17.2878 70.5437 17.2878L70.5437 15.134C64.0012 15.134 58.6975 20.4377 58.6975 26.9801L60.8513 26.9801ZM60.8513 194.065L60.8513 26.9801L58.6975 26.9801L58.6975 194.065L60.8513 194.065ZM70.5436 203.758C65.1907 203.758 60.8513 199.419 60.8513 194.065L58.6975 194.065C58.6975 200.608 64.0012 205.912 70.5436 205.912L70.5436 203.758ZM149.383 203.758L70.5436 203.758L70.5436 205.912L149.383 205.912L149.383 203.758ZM159.075 194.065C159.075 199.419 154.736 203.758 149.383 203.758L149.383 205.912C155.926 205.912 161.229 200.608 161.229 194.065L159.075 194.065ZM159.075 26.9801L159.075 194.065L161.229 194.065L161.229 26.9801L159.075 26.9801ZM149.383 17.2878C154.736 17.2878 159.075 21.6273 159.075 26.9801L161.229 26.9801C161.229 20.4377 155.926 15.134 149.383 15.134L149.383 17.2878ZM109.963 17.2878L149.383 17.2878L149.383 15.134L109.963 15.134L109.963 17.2878ZM70.5437 17.2878L109.963 17.2878L109.963 15.134L70.5437 15.134L70.5437 17.2878Z" fill="#4C4C4C"/>
</g>
<path d="M125.781 10.925C127.365 10.925 128.649 9.60547 128.649 7.97776C128.649 6.35004 127.365 5.03052 125.781 5.03052C124.197 5.03052 122.913 6.35004 122.913 7.97776C122.913 9.60547 124.197 10.925 125.781 10.925Z" fill="#CADDFF"/>
<path d="M102.456 6.12256L116.427 6.12256C117.391 6.12256 118.173 6.9044 118.173 7.86884L118.173 7.86886C118.173 8.8333 117.391 9.61514 116.427 9.61514L102.456 9.61514C101.492 9.61514 100.71 8.8333 100.71 7.86884C100.71 6.9044 101.492 6.12256 102.456 6.12256Z" fill="#CADDFF"/>
<path d="M59.7696 26.9789C59.7696 21.0312 64.5911 16.2097 70.5388 16.2097L109.959 16.2097L149.378 16.2097C155.326 16.2097 160.147 21.0312 160.147 26.979L160.147 194.064C160.147 200.012 155.326 204.833 149.378 204.833L70.5388 204.833C64.591 204.833 59.7695 200.012 59.7695 194.064L59.7696 26.9789Z" fill="#D7E5FF"/>
<path d="M59.7696 26.9789C59.7696 21.0312 64.5911 16.2097 70.5388 16.2097L109.959 16.2097L149.378 16.2097C155.326 16.2097 160.147 21.0312 160.147 26.979L160.147 194.064C160.147 200.012 155.326 204.833 149.378 204.833L70.5388 204.833C64.591 204.833 59.7695 200.012 59.7695 194.064L59.7696 26.9789Z" fill="#D7E5FF"/>
</g>
<path d="M10.1437 194.361C10.259 194.396 10.3569 194.473 10.4174 194.577C10.4823 194.688 10.5005 194.82 10.4681 194.944C10.4357 195.069 10.3553 195.175 10.2447 195.24L8.77486 196.095C8.66414 196.16 8.53215 196.179 8.408 196.146C8.28385 196.114 8.17766 196.034 8.11275 195.923C8.05141 195.81 8.03685 195.677 8.07223 195.554C8.10762 195.43 8.19011 195.325 8.30194 195.262L9.76782 194.408C9.82459 194.375 9.88739 194.354 9.95254 194.346C10.0177 194.338 10.0838 194.344 10.1468 194.362L10.1437 194.361Z" fill="#434343"/>
<path d="M15.2801 191.362C15.3713 191.388 15.4529 191.44 15.5146 191.512C15.5762 191.585 15.6153 191.673 15.627 191.768C15.6386 191.862 15.6223 191.957 15.5801 192.043C15.5379 192.128 15.4716 192.198 15.3895 192.246L13.9228 193.103C13.8678 193.135 13.807 193.156 13.7439 193.164C13.6808 193.173 13.6167 193.169 13.5551 193.153C13.4935 193.137 13.4356 193.108 13.385 193.07C13.3343 193.031 13.2917 192.983 13.2596 192.928C13.2276 192.873 13.2067 192.812 13.1981 192.749C13.1896 192.686 13.1935 192.622 13.2098 192.56C13.226 192.498 13.2541 192.441 13.2927 192.39C13.3313 192.339 13.3794 192.296 13.4345 192.264L14.9043 191.409C14.9607 191.376 15.0229 191.355 15.0875 191.347C15.152 191.339 15.2175 191.344 15.2801 191.362Z" fill="#434343"/>
<path d="M13.0095 195.107C13.0699 195.124 13.1264 195.153 13.1757 195.192C13.2251 195.231 13.2663 195.279 13.2969 195.334L14.1215 196.792C14.1527 196.848 14.1728 196.909 14.1805 196.972C14.1881 197.035 14.1833 197.099 14.1662 197.161C14.1491 197.222 14.1201 197.28 14.0808 197.33C14.0415 197.38 13.9928 197.422 13.9373 197.453C13.8819 197.485 13.8208 197.505 13.7576 197.512C13.6944 197.52 13.6303 197.515 13.5689 197.498C13.5076 197.481 13.4502 197.452 13.4001 197.413C13.3499 197.373 13.3081 197.325 13.2768 197.269L12.4523 195.811C12.3902 195.699 12.3751 195.566 12.4104 195.443C12.4457 195.319 12.5285 195.215 12.6406 195.153C12.6964 195.121 12.7581 195.1 12.822 195.092C12.8859 195.085 12.9507 195.09 13.0125 195.108L13.0095 195.107Z" fill="#434343"/>
<path d="M10.1216 190.011C10.2372 190.047 10.3344 190.127 10.3936 190.233L11.2189 191.688C11.2529 191.744 11.2753 191.805 11.2849 191.87C11.2946 191.934 11.2912 191.999 11.2749 192.062C11.2587 192.125 11.23 192.184 11.1905 192.236C11.151 192.287 11.1015 192.331 11.045 192.363C10.9885 192.395 10.9262 192.415 10.8616 192.423C10.7971 192.43 10.7318 192.424 10.6695 192.406C10.6072 192.388 10.5493 192.357 10.4991 192.316C10.4489 192.275 10.4075 192.224 10.3774 192.166L9.55209 190.711C9.48994 190.599 9.47486 190.466 9.51017 190.343C9.54548 190.219 9.62831 190.115 9.74043 190.053C9.79621 190.021 9.85789 190 9.9218 189.992C9.98571 189.985 10.0505 189.99 10.1123 190.008L10.1216 190.011Z" fill="#434343"/>
<path d="M15.74 132.337C15.8633 132.374 15.9668 132.459 16.0281 132.572C16.0894 132.685 16.1035 132.818 16.0672 132.941C11.5567 148.306 9.58837 161.835 10.0468 174.295C10.0519 174.424 10.0059 174.549 9.91873 174.643C9.8316 174.738 9.71053 174.794 9.58222 174.799C9.45391 174.804 9.32883 174.758 9.2345 174.671C9.14017 174.584 9.0843 174.462 9.07921 174.334C8.61549 161.775 10.5986 148.136 15.1393 132.666C15.1753 132.543 15.2583 132.439 15.3703 132.378C15.4823 132.316 15.6141 132.301 15.7369 132.336L15.74 132.337Z" fill="#434343"/>
<path d="M16.1536 147.735C16.2709 147.768 16.3713 147.844 16.4349 147.949C16.4984 148.053 16.5204 148.177 16.4963 148.297C13.9803 160.749 13.1604 171.859 13.9995 182.239C14.0054 182.303 13.9985 182.367 13.9792 182.428C13.96 182.489 13.9289 182.546 13.8876 182.595C13.8463 182.644 13.7956 182.685 13.7386 182.714C13.6817 182.743 13.6194 182.761 13.5555 182.766C13.4917 182.771 13.4275 182.763 13.3666 182.743C13.3057 182.723 13.2494 182.692 13.2009 182.65C13.1525 182.608 13.1128 182.557 13.0842 182.499C13.0556 182.442 13.0388 182.379 13.0345 182.315C12.1902 171.837 13.0128 160.647 15.5444 148.105C15.5709 147.979 15.6458 147.87 15.7526 147.799C15.8595 147.728 15.9898 147.703 16.1154 147.727L16.1536 147.735Z" fill="#434343"/>
<path d="M149.836 155.585C149.778 155.574 149.717 155.586 149.667 155.618C149.617 155.655 149.582 155.708 149.568 155.769C149.562 155.799 149.562 155.831 149.568 155.862C149.575 155.893 149.588 155.922 149.606 155.947L150.052 156.643C150.086 156.693 150.139 156.729 150.198 156.741C150.228 156.748 150.259 156.749 150.289 156.744C150.319 156.739 150.347 156.729 150.373 156.712C150.399 156.696 150.421 156.675 150.439 156.65C150.456 156.625 150.469 156.597 150.475 156.568C150.483 156.538 150.484 156.508 150.479 156.478C150.474 156.448 150.463 156.419 150.447 156.394L150.001 155.689C149.981 155.664 149.959 155.642 149.935 155.623C149.907 155.606 149.877 155.593 149.846 155.585H149.836Z" fill="#434343"/>
<path d="M148.273 153.136C148.216 153.126 148.157 153.138 148.109 153.169C148.058 153.203 148.021 153.255 148.005 153.315C147.998 153.345 147.997 153.377 148.003 153.408C148.008 153.439 148.021 153.468 148.038 153.494L148.485 154.194C148.519 154.244 148.571 154.279 148.631 154.293C148.66 154.299 148.691 154.3 148.721 154.294C148.751 154.288 148.779 154.277 148.804 154.26C148.857 154.227 148.894 154.174 148.908 154.114C148.922 154.055 148.912 153.992 148.88 153.94L148.433 153.24C148.415 153.214 148.393 153.192 148.367 153.174C148.341 153.155 148.31 153.142 148.278 153.136H148.273Z" fill="#434343"/>
<path d="M148.419 155.275C148.389 155.268 148.359 155.268 148.329 155.273C148.299 155.279 148.27 155.291 148.245 155.308L147.564 155.778C147.514 155.814 147.478 155.868 147.465 155.928C147.459 155.957 147.46 155.987 147.466 156.017C147.473 156.046 147.485 156.073 147.503 156.097C147.535 156.148 147.585 156.185 147.644 156.201C147.703 156.213 147.765 156.203 147.817 156.172L148.504 155.702C148.529 155.685 148.551 155.663 148.568 155.637C148.585 155.611 148.597 155.582 148.602 155.552C148.615 155.491 148.603 155.426 148.569 155.373C148.552 155.348 148.53 155.326 148.504 155.309C148.478 155.292 148.45 155.28 148.419 155.275Z" fill="#434343"/>
<path d="M150.814 153.696C150.784 153.691 150.754 153.691 150.725 153.696C150.695 153.702 150.666 153.713 150.64 153.729L149.954 154.199C149.928 154.217 149.906 154.239 149.888 154.265C149.871 154.29 149.86 154.319 149.855 154.349C149.85 154.379 149.85 154.409 149.855 154.438C149.86 154.469 149.871 154.497 149.888 154.523C149.904 154.55 149.926 154.573 149.954 154.589C149.978 154.609 150.007 154.622 150.038 154.626H150.128C150.158 154.621 150.187 154.61 150.212 154.594L150.898 154.124C150.936 154.098 150.966 154.062 150.983 154.02C150.995 153.976 150.995 153.929 150.983 153.884C150.973 153.839 150.952 153.797 150.922 153.762C150.89 153.729 150.849 153.706 150.804 153.696H150.814Z" fill="#434343"/>
<path d="M110.252 155.355C107.332 155.357 104.531 154.201 102.462 152.14C100.393 150.08 99.2265 147.282 99.2178 144.362V88.2537H121.259V144.362C121.226 147.27 120.055 150.049 117.998 152.103C115.94 154.158 113.16 155.325 110.252 155.355Z" fill="white"/>
<path d="M67.9713 154.937L112.533 170.849L153.504 153.057C154.444 129.949 148.165 115.887 147.775 109.886C146.615 92.7415 154.181 84.1654 139.17 64.7043C127.567 49.6656 109.488 54.7546 109.488 54.7546C109.488 54.7546 93.4616 51.3924 82.5397 67.5544C71.2607 85.6483 79.1748 97.8782 73.6105 109.886C64.2582 125.747 68.9066 143.517 67.9713 154.937Z" fill="#434343"/>
<path fill-rule="evenodd" clip-rule="evenodd" d="M122.955 144.363C122.955 144.363 138.603 148.759 153.502 152.964C153.463 153.034 153.423 153.105 153.382 153.179C153.497 153.213 153.602 153.252 153.698 153.297C160.515 156.474 160.317 163.435 160.168 166.523V193.95C160.168 199.964 155.292 204.84 149.278 204.84H70.5746C64.5602 204.84 59.6846 199.965 59.6846 193.95V163.814C59.6846 159.975 64.4692 156.813 67.7031 155.378C67.8517 155.312 68.003 155.253 68.1566 155.202C68.0899 155.087 68.0274 154.975 67.9691 154.866C68.2941 154.747 68.6221 154.626 68.953 154.505C77.8415 151.237 88.8016 147.207 97.3417 144.833C98.9283 150.903 104.27 154.866 110.209 154.866C116.149 154.866 121.839 151.237 122.955 144.363Z" fill="#B09CF8"/>
<path d="M99.3428 131.895V142.953C99.3428 148.264 105.119 152.691 110.753 152.691C116.257 152.691 120.843 148.391 120.843 142.953V131.853C118.315 133.484 113.427 136.082 110.091 136.139C107.111 136.172 102.477 134.057 99.3428 131.895Z" fill="#EFEFEF"/>
<path d="M89.6009 100.071C89.6009 100.071 86.2841 98.3846 85.9609 102.615C85.3339 110.818 89.7957 112.392 89.7957 112.392" fill="#EFEFEF"/>
<path d="M132.673 100.025C132.673 100.025 136.006 98.3706 136.288 102.604C136.834 110.812 132.357 112.343 132.357 112.343" fill="#EFEFEF"/>
<path d="M132.944 96.2712C132.944 84.3812 130.448 71.7769 121.923 71.7769C121.923 71.7769 111.194 78.2529 101.245 79.7145C88.4618 81.5943 89.2043 97.1312 89.2043 97.1312V109.454C89.2043 114.261 90.4779 117.269 93.1144 121.804C95.9013 126.588 102.626 134.145 109.742 134.145C115.593 134.145 124.531 128.736 128.752 122.053C131.247 118.11 132.403 114.882 132.958 109.454L132.944 96.2712Z" fill="white"/>
<defs>
<clipPath id="clip0_34_2499">
<rect width="116.308" height="215.385" fill="white" transform="matrix(-1 -8.74228e-08 -8.74228e-08 1 165.885 0)"/>
</clipPath>
</defs>
</svg>
